<svg width="24" height="24" xmlns="http://www.w3.org/2000/svg"><g fill="none" fill-rule="evenodd"><path d="M0 0H24V24H0z"/><path d="M13.08 14.784l2.204-2.204a2 2 0 0 0 .375-2.309l-.125-.25a2 2 0 0 1 .374-2.308l2.733-2.733a.5.5 0 0 1 .801.13l1.104 2.208a4.387 4.387 0 0 1-.822 5.065l-5.999 5.998a5.427 5.427 0 0 1-5.553 1.311l-2.415-.804a.5.5 0 0 1-.195-.828l2.65-2.652a2 2 0 0 1 2.31-.374l.25.125a2 2 0 0 0 2.308-.375z" fill="#000"/><path d="M14.148 6.007l-.191 1.991a4.987 4.987 0 0 0-4.018 1.441 4.987 4.987 0 0 0-1.442 4.004l-1.992.185a6.986 6.986 0 0 1 2.02-5.603 6.987 6.987 0 0 1 5.623-2.018zm.35-3.985l-.185 1.992A8.978 8.978 0 0 0 7.111 6.61a8.978 8.978 0 0 0-2.598 7.191l-1.992.183a10.977 10.977 0 0 1 3.176-8.788 10.977 10.977 0 0 1 8.801-3.175z" fill="#000" fill-rule="nonzero" opacity=".3"/></g></svg>