<svg width="24" height="24" xmlns="http://www.w3.org/2000/svg"><g fill="none" fill-rule="evenodd"><path d="M0 0H24V24H0z"/><path d="M12.984 18A7.5 7.5 0 0 0 4 11.15V7a2 2 0 0 1 2-2h14a2 2 0 0 1 2 2v9a2 2 0 0 1-2 2h-7.016zm6.16-11.16L13 10.148 6.856 6.84a.75.75 0 1 0-.712 1.32l6.5 3.5c.222.12.49.12.712 0l6.5-3.5a.75.75 0 0 0-.712-1.32z" fill="#000"/><path d="M8 17a1 1 0 0 1 1 1v3a1 1 0 0 1-1 1H3a1 1 0 0 1-1-1v-3a1 1 0 0 1 1-1v-.5a2.5 2.5 0 1 1 5 0v.5zm-2.5-2A1.5 1.5 0 0 0 4 16.5v.5h3v-.5A1.5 1.5 0 0 0 5.5 15z" fill="#000" opacity=".3"/></g></svg>