<svg width="24" height="24" xmlns="http://www.w3.org/2000/svg"><g fill="none" fill-rule="evenodd"><path d="M0 0H24V24H0z"/><path d="M22 17v4a2 2 0 0 1-2 2H4a2 2 0 0 1-2-2v-4h4.28l.543 1.632A2 2 0 0 0 8.721 20h6.661a2 2 0 0 0 1.789-1.106L18.118 17H22z" fill="#000"/><path d="M2.563 15l3.364-5.98A2 2 0 0 1 7.67 8h8.66a2 2 0 0 1 1.743 1.02L21.437 15h-3.319a2 2 0 0 0-1.789 1.106L15.382 18H8.721l-.544-1.632A2 2 0 0 0 6.279 15H2.563z" fill="#000" opacity=".3"/><path d="M9.032 4.492h1.956V6.5a.5.5 0 0 0 .5.5h1.024a.5.5 0 0 0 .5-.5V4.492h1.956a.5.5 0 0 0 .382-.823L12.382.164a.5.5 0 0 0-.764 0L8.65 3.669a.5.5 0 0 0 .382.823z" fill="#000" fill-rule="nonzero"/></g></svg>