<svg width="24" height="24" xmlns="http://www.w3.org/2000/svg"><g fill="none" fill-rule="evenodd"><path d="M0 0H24V24H0z"/><path d="M5 9h14a2 2 0 0 1 2 2v9a2 2 0 0 1-2 2H5a2 2 0 0 1-2-2v-9a2 2 0 0 1 2-2zm13.144 1.84L12 14.148 5.856 10.84a.75.75 0 0 0-.712 1.32l6.5 3.5c.222.12.49.12.712 0l6.5-3.5a.75.75 0 0 0-.712-1.32z" fill="#000"/><path d="M9.032 4.492h1.956V6.5a.5.5 0 0 0 .5.5h1.024a.5.5 0 0 0 .5-.5V4.492h1.956a.5.5 0 0 0 .382-.823L12.382.164a.5.5 0 0 0-.764 0L8.65 3.669a.5.5 0 0 0 .382.823z" fill="#000" fill-rule="nonzero" opacity=".3"/></g></svg>