<svg width="24" height="24" xmlns="http://www.w3.org/2000/svg"><g fill="none" fill-rule="evenodd"><path d="M0 0H24V24H0z"/><path d="M8 17a1 1 0 0 1 1 1v3a1 1 0 0 1-1 1H3a1 1 0 0 1-1-1v-3a1 1 0 0 1 1-1v-.5a2.5 2.5 0 1 1 5 0v.5zm-2.5-2A1.5 1.5 0 0 0 4 16.5v.5h3v-.5A1.5 1.5 0 0 0 5.5 15z" fill="#000" opacity=".3"/><path d="M2 11.865V6a3 3 0 0 1 3-3h14a3 3 0 0 1 3 3v9.01l.025-.01v4.586a1 1 0 0 1-1.707.707L18.025 18h-5.041A7.5 7.5 0 0 0 2 11.865zM6 7a1 1 0 1 0 0 2h9a1 1 0 0 0 0-2H6z" fill="#000"/></g></svg>