<svg width="24" height="24" xmlns="http://www.w3.org/2000/svg"><g fill="none" fill-rule="evenodd"><path d="M0 0H24V24H0z"/><path d="M10.9 2a1 1 0 0 1 0 2H6a2 2 0 0 0-2 2v12a2 2 0 0 0 2 2h12a2 2 0 0 0 2-2v-2a1 1 0 0 1 2 0v2a4 4 0 0 1-4 4H6a4 4 0 0 1-4-4V6a4 4 0 0 1 4-4h4.9z" fill="#000" fill-rule="nonzero" opacity=".3"/><path d="M7.005 13.897c0-.762-.164-3.772 2.21-6.16 1.599-1.608 3.99-1.886 6.85-2.013V1.838a.75.75 0 0 1 1.254-.556l6.509 5.905a.75.75 0 0 1 .005 1.106l-6.508 6.027a.75.75 0 0 1-1.26-.55V9.908c-1.816.05-3.11.165-4.284.539-1.685.536-2.989 2.052-3.912 4.55a.75.75 0 0 1-.703.49H7c0-.46.005-1.186.005-1.59z" fill="#000" fill-rule="nonzero"/></g></svg>