<svg width="24" height="24" xmlns="http://www.w3.org/2000/svg"><g fill="none" fill-rule="evenodd"><path d="M0 0H24V24H0z"/><path d="M11.673 8.33L15 6.1l-.878-.878a1 1 0 0 1 0-1.414l1.415-1.415a1 1 0 0 1 1.414 0l5.657 5.657a1 1 0 0 1 0 1.414l-1.415 1.415a1 1 0 0 1-1.414 0L18.9 10l-2.23 3.326c.256.925.328 1.905.196 2.882l-.432 3.197a1 1 0 0 1-1.698.573l-9.715-9.715a1 1 0 0 1 .573-1.698l3.197-.432a7.175 7.175 0 0 1 2.882.197z" fill="#000"/><path fill="#000" opacity=".3" transform="rotate(45 7.05 17.95)" d="M5.55025253 13.9497475L5.55025253 19.6640332 7.05025253 21.9497475 8.55025253 19.6640332 8.55025253 13.9497475z"/></g></svg>