<svg width="24" height="24" xmlns="http://www.w3.org/2000/svg"><g fill="none" fill-rule="evenodd"><path d="M0 0H24V24H0z"/><path d="M21.748 7.099l-8.85 9.215a1.5 1.5 0 0 1-1.05.46l-3.723.079.079-3.738a1.5 1.5 0 0 1 .442-1.033l9.05-8.999a1.5 1.5 0 0 1 2.118.003L21.727 5a1.5 1.5 0 0 1 .021 2.1z" fill="#000" fill-rule="nonzero"/><path d="M12.9 2a1 1 0 0 1 0 2H6a2 2 0 0 0-2 2v12a2 2 0 0 0 2 2h12a2 2 0 0 0 2-2v-5a1 1 0 0 1 2 0v5a4 4 0 0 1-4 4H6a4 4 0 0 1-4-4V6a4 4 0 0 1 4-4h6.9z" fill="#000" fill-rule="nonzero" opacity=".3"/></g></svg>