<svg width="145" height="38" xmlns="http://www.w3.org/2000/svg" xmlns:xlink="http://www.w3.org/1999/xlink"><defs><path id="a" d="M0.305690222 0.166578947L26.8426286 0.166578947 26.8426286 29.5038202 0.305690222 29.5038202z"/></defs><g transform="translate(0 -1)" fill="none" fill-rule="evenodd"><g transform="translate(0 1)"><path d="M5.38 20.362l15.708 17.5c.08.088.191.138.309.138h5.183c.365 0 .555-.444.309-.719L.726 8.139C.468 7.852 0 8.04 0 8.43v29.143c0 .236.187.428.419.428h3.815c.231 0 .418-.192.418-.428v-16.92c0-.39.469-.577.727-.29" fill="#FFF"/><mask id="b" fill="#fff"><use xlink:href="#a"/></mask><path d="M21.541 17.367L6.141.302A.407.407 0 0 0 5.84.166H.719c-.36 0-.547.439-.303.709l25.712 28.492c.254.283.715.098.715-.286V.589a.417.417 0 0 0-.413-.423h-3.76a.417.417 0 0 0-.413.423v16.493c0 .383-.461.567-.716.285" fill="#D0021B" mask="url(#b)"/></g><text font-family="Poppins-Bold, Poppins" font-size="15" font-weight="bold" fill="#FFF"><tspan x="52" y="16">NETPRO</tspan>  <tspan x="52" y="37" font-family="Poppins-Regular, Poppins" font-size="12" font-weight="normal">LOGICIEL MÉTIER</tspan></text></g></svg>