<svg width="24" height="24" xmlns="http://www.w3.org/2000/svg"><g fill="none" fill-rule="evenodd"><path d="M0 0H24V24H0z"/><path d="M8.613 18h6l.56 1.684A1 1 0 0 1 14.226 21H9a1 1 0 0 1-.949-1.316L8.613 18z" fill="#000" opacity=".3"/><path d="M21 9v1a9 9 0 0 1-18 0V9H2a1 1 0 1 1 0-2h20a1 1 0 0 1 0 2h-1zM6 11a1 1 0 1 0 0-2 1 1 0 0 0 0 2zm2 3a1 1 0 1 0 0-2 1 1 0 0 0 0 2zm2 3a1 1 0 1 0 0-2 1 1 0 0 0 0 2zm4 0a1 1 0 1 0 0-2 1 1 0 0 0 0 2zm-2-3a1 1 0 1 0 0-2 1 1 0 0 0 0 2zm4 0a1 1 0 1 0 0-2 1 1 0 0 0 0 2zm-6-3a1 1 0 1 0 0-2 1 1 0 0 0 0 2zm4 0a1 1 0 1 0 0-2 1 1 0 0 0 0 2zm4 0a1 1 0 1 0 0-2 1 1 0 0 0 0 2z" fill="#000"/></g></svg>