<svg width="24" height="24" xmlns="http://www.w3.org/2000/svg"><g fill="none" fill-rule="evenodd"><path d="M0 0H24V24H0z"/><path d="M9.379 12.914l.707.707a1 1 0 0 1 0 1.415l-4.95 4.95a1 1 0 0 1-1.414 0l-.707-.708a1 1 0 0 1 0-1.414l4.95-4.95a1 1 0 0 1 1.414 0z" fill="#000" opacity=".3"/><path d="M11.146 11.854a4.5 4.5 0 0 0 6.364 0c1.758-1.758 3.526-6.375 1.768-8.132-1.757-1.758-6.374.01-8.132 1.768a4.5 4.5 0 0 0 0 6.364z" fill="#000"/><path d="M17.625 5.507c.958 1.112-.092 3.82-1.135 4.863a2.73 2.73 0 0 1-3.651.189l4.786-5.052z" fill="#FFF"/></g></svg>