<svg width="24" height="24" xmlns="http://www.w3.org/2000/svg"><g fill="none" fill-rule="evenodd"><path d="M0 0L24 0 24 24 0 24z"/><path d="M22 15v4a2 2 0 0 1-2 2H8a4 4 0 1 1 0-8h12a2 2 0 0 1 2 2zM7 19a2 2 0 1 0 0-4 2 2 0 0 0 0 4z" fill="#000" opacity=".3"/><path d="M15.542 5.7l2.829 2.828a2 2 0 0 1 0 2.829l-8.486 8.485a4 4 0 1 1-5.657-5.657L12.714 5.7a2 2 0 0 1 2.828 0zM7 19a2 2 0 1 0 0-4 2 2 0 0 0 0 4z" fill="#000" opacity=".3"/><path d="M5 3h4a2 2 0 0 1 2 2v12a4 4 0 1 1-8 0V5a2 2 0 0 1 2-2zm2 16a2 2 0 1 0 0-4 2 2 0 0 0 0 4z" fill="#000"/></g></svg>