<svg width="24" height="24" xmlns="http://www.w3.org/2000/svg"><g fill="none" fill-rule="evenodd"><path d="M0 0L24 0 24 24 0 24z"/><path d="M8 16a4 4 0 1 1 8 0H8zm-4 2h16a1 1 0 0 1 0 2H4a1 1 0 0 1 0-2z" fill="#000" fill-rule="nonzero"/><path d="M19.5 13H21a1.5 1.5 0 0 1 0 3h-1.5a1.5 1.5 0 0 1 0-3zm-3.44-4.129l1.061-1.06a1.5 1.5 0 0 1 2.122 2.121l-1.061 1.06a1.5 1.5 0 0 1-2.121-2.12zM3 13h1.5a1.5 1.5 0 0 1 0 3H3a1.5 1.5 0 0 1 0-3zm9-8.5A1.5 1.5 0 0 1 13.5 6v1.5a1.5 1.5 0 0 1-3 0V6A1.5 1.5 0 0 1 12 4.5zM4.81 7.81a1.5 1.5 0 0 1 2.122 0l1.06 1.061a1.5 1.5 0 0 1-2.12 2.122L4.81 9.932a1.5 1.5 0 0 1 0-2.121z" fill="#000" fill-rule="nonzero" opacity=".3"/></g></svg>