<svg width="24" height="24" xmlns="http://www.w3.org/2000/svg"><g fill="none" fill-rule="evenodd"><path d="M0 0L24 0 24 24 0 24z"/><path d="M8.535 14A3.998 3.998 0 0 1 12 12c1.48 0 2.773.804 3.465 2h-6.93zM16 16H8h8zM4 16h16a1 1 0 0 1 0 2H4a1 1 0 0 1 0-2z" fill="#000" fill-rule="nonzero"/><path d="M16.06 8.871l1.061-1.06a1.5 1.5 0 0 1 2.122 2.121l-1.061 1.06a1.5 1.5 0 0 1-2.121-2.12zM12 4.5A1.5 1.5 0 0 1 13.5 6v1.5a1.5 1.5 0 0 1-3 0V6A1.5 1.5 0 0 1 12 4.5zM4.81 7.81a1.5 1.5 0 0 1 2.122 0l1.06 1.061a1.5 1.5 0 0 1-2.12 2.122L4.81 9.932a1.5 1.5 0 0 1 0-2.121z" fill="#000" fill-rule="nonzero" opacity=".3"/></g></svg>