<svg width="24" height="24" xmlns="http://www.w3.org/2000/svg"><g fill="none" fill-rule="evenodd"><path d="M0 0H24V24H0z"/><path d="M4 6h17a1 1 0 0 1 1 1v11a1 1 0 0 1-1 1H4a1 1 0 0 1-1-1V7a1 1 0 0 1 1-1z" fill="#000" opacity=".3"/><path fill="#000" opacity=".3" d="M7 13H8V19H7z"/><path fill="#000" opacity=".3" d="M12 13H13V19H12z"/><path fill="#000" opacity=".3" d="M17 13H18V19H17z"/><path d="M6 6h3v6a1 1 0 0 1-1 1H7a1 1 0 0 1-1-1V6zm5 0h3v6a1 1 0 0 1-1 1h-1a1 1 0 0 1-1-1V6zm5 0h3v6a1 1 0 0 1-1 1h-1a1 1 0 0 1-1-1V6z" fill="#000"/></g></svg>