<svg width="24" height="24" xmlns="http://www.w3.org/2000/svg"><g fill="none" fill-rule="evenodd"><path d="M0 0H24V24H0z"/><rect fill="#000" x="3" y="13" width="18" height="7" rx="2"/><path d="M17.403 9.55l-1.543 1.272A4.987 4.987 0 0 0 12 9a4.987 4.987 0 0 0-3.85 1.81L6.61 9.535A6.986 6.986 0 0 1 12 7c2.117 0 4.082.947 5.403 2.55zm3.065-2.571L18.93 8.256A8.978 8.978 0 0 0 12 5a8.978 8.978 0 0 0-6.922 3.248L3.54 6.968A10.977 10.977 0 0 1 12 3c3.315 0 6.392 1.477 8.468 3.979z" fill="#000" fill-rule="nonzero" opacity=".3"/></g></svg>