<svg width="24" height="24" xmlns="http://www.w3.org/2000/svg"><g fill="none" fill-rule="evenodd"><path d="M0 0H24V24H0z"/><path d="M9 8a1 1 0 0 0-1 1v6a1 1 0 0 0 1 1h6a1 1 0 0 0 1-1V9a1 1 0 0 0-1-1H9zm0-2h6a3 3 0 0 1 3 3v6a3 3 0 0 1-3 3H9a3 3 0 0 1-3-3V9a3 3 0 0 1 3-3z" fill="#000" fill-rule="nonzero"/><path d="M9 8a1 1 0 0 0-1 1v6a1 1 0 0 0 1 1h6a1 1 0 0 0 1-1V9a1 1 0 0 0-1-1H9zm0 10h6v2.5a1.5 1.5 0 0 1-1.5 1.5h-3A1.5 1.5 0 0 1 9 20.5V18zm1.5-16h3A1.5 1.5 0 0 1 15 3.5V6H9V3.5A1.5 1.5 0 0 1 10.5 2z" fill="#000" opacity=".3"/></g></svg>