<svg width="24" height="24" xmlns="http://www.w3.org/2000/svg"><g fill="none" fill-rule="evenodd"><path d="M0 0L24 0 24 24 0 24z"/><path d="M21 12a1 1 0 0 1-1 1h-1a1 1 0 0 1 0-2h1a1 1 0 0 1 1 1zm-5 0a1 1 0 0 1-1 1h-1a1 1 0 0 1 0-2h1a1 1 0 0 1 1 1zm-5 0a1 1 0 0 1-1 1H9a1 1 0 0 1 0-2h1a1 1 0 0 1 1 1zm-5 0a1 1 0 0 1-1 1H4a1 1 0 0 1 0-2h1a1 1 0 0 1 1 1z" fill="#000"/><path d="M14.96 21H9.04a.5.5 0 0 1-.39-.812l2.96-3.7a.5.5 0 0 1 .78 0l2.96 3.7a.5.5 0 0 1-.39.812zM9.04 3h5.92a.5.5 0 0 1 .39.812l-2.96 3.7a.5.5 0 0 1-.78 0l-2.96-3.7A.5.5 0 0 1 9.04 3z" fill="#000" opacity=".3"/></g></svg>