<svg width="24" height="24" xmlns="http://www.w3.org/2000/svg"><g fill="none" fill-rule="evenodd"><path d="M0 0L24 0 24 24 0 24z"/><path d="M18.5 8a2.5 2.5 0 1 1 0-5 2.5 2.5 0 0 1 0 5zm0 13a2.5 2.5 0 1 1 0-5 2.5 2.5 0 0 1 0 5zm-13 0a2.5 2.5 0 1 1 0-5 2.5 2.5 0 0 1 0 5z" fill="#000" opacity=".3"/><path d="M5.5 8a2.5 2.5 0 1 1 0-5 2.5 2.5 0 0 1 0 5zM11 4h2a1 1 0 0 1 0 2h-2a1 1 0 0 1 0-2zm0 14h2a1 1 0 0 1 0 2h-2a1 1 0 0 1 0-2zm-6-8a1 1 0 0 1 1 1v2a1 1 0 0 1-2 0v-2a1 1 0 0 1 1-1zm14 0a1 1 0 0 1 1 1v2a1 1 0 0 1-2 0v-2a1 1 0 0 1 1-1z" fill="#000"/></g></svg>