<svg width="24" height="24" xmlns="http://www.w3.org/2000/svg"><g fill="none" fill-rule="evenodd"><path d="M0 0L24 0 24 24 0 24z"/><path d="M12 3a1 1 0 0 1 1 1v1a1 1 0 0 1-2 0V4a1 1 0 0 1 1-1zm0 5a1 1 0 0 1 1 1v1a1 1 0 0 1-2 0V9a1 1 0 0 1 1-1zm0 5a1 1 0 0 1 1 1v1a1 1 0 0 1-2 0v-1a1 1 0 0 1 1-1zm0 5a1 1 0 0 1 1 1v1a1 1 0 0 1-2 0v-1a1 1 0 0 1 1-1z" fill="#000"/><path d="M21 9.04v5.92a.5.5 0 0 1-.812.39l-3.7-2.96a.5.5 0 0 1 0-.78l3.7-2.96a.5.5 0 0 1 .812.39zM3 14.96V9.04a.5.5 0 0 1 .812-.39l3.7 2.96a.5.5 0 0 1 0 .78l-3.7 2.96A.5.5 0 0 1 3 14.96z" fill="#000" opacity=".3"/></g></svg>