<svg width="24" height="24" xmlns="http://www.w3.org/2000/svg"><g fill="none" fill-rule="evenodd"><path d="M0 0H24V24H0z"/><path d="M14.293 16.707a1 1 0 0 1 1.414-1.414l4 4a1 1 0 0 1-1.414 1.414l-4-4z" fill="#000" fill-rule="nonzero" opacity=".3"/><path d="M11 16a5 5 0 1 0 0-10 5 5 0 0 0 0 10zm0 2a7 7 0 1 1 0-14 7 7 0 0 1 0 14z" fill="#000" fill-rule="nonzero"/><path d="M10.5 10.5v-1a.5.5 0 1 1 1 0v1h1a.5.5 0 1 1 0 1h-1v1a.5.5 0 1 1-1 0v-1h-1a.5.5 0 1 1 0-1h1z" fill="#000" opacity=".3"/></g></svg>