<svg width="24" height="24" xmlns="http://www.w3.org/2000/svg"><g fill="none" fill-rule="evenodd"><path d="M0 0H24V24H0z"/><path d="M3 3h18a1 1 0 0 1 1 1v7a1 1 0 0 1-1 1H3a1 1 0 0 1-1-1V4a1 1 0 0 1 1-1zm2 5a1 1 0 1 0 0 2h14a1 1 0 0 0 0-2H5z" fill="#000"/><path d="M17.291 14.294l1.418 1.412a2.688 2.688 0 0 0 .296 4.05l.593.443-1.196 1.602-.594-.443a4.688 4.688 0 0 1-.517-7.064zm-6 1l1.418 1.412a2.688 2.688 0 0 0 .296 4.05l.593.443-1.196 1.602-.594-.443a4.688 4.688 0 0 1-.517-7.064zm-6-1l1.418 1.412a2.688 2.688 0 0 0 .296 4.05l.593.443L6.402 21.8l-.594-.443a4.688 4.688 0 0 1-.517-7.064z" fill="#000" fill-rule="nonzero" opacity=".3"/></g></svg>