<svg width="24" height="24" xmlns="http://www.w3.org/2000/svg"><g fill="none" fill-rule="evenodd"><path d="M0 0H24V24H0z"/><path d="M21 10H3V5a1 1 0 0 1 1-1h16a1 1 0 0 1 1 1v5zm-5-4a1 1 0 1 0 0 2 1 1 0 0 0 0-2zM8 6a1 1 0 1 1 0 2 1 1 0 0 1 0-2zm13 5v10a1 1 0 0 1-1 1H4a1 1 0 0 1-1-1V11h18zM8 13c-.552 0-1 .522-1 1.167v4.666C7 19.478 7.448 20 8 20h8c.552 0 1-.522 1-1.167v-4.666c0-.645-.448-1.167-1-1.167H8z" fill="#000"/><path d="M6 3h4a1 1 0 0 1 1 1H5a1 1 0 0 1 1-1zm10 0h2a1 1 0 0 1 1 1h-4a1 1 0 0 1 1-1z" fill="#000" opacity=".3"/></g></svg>