<svg data-name="Layer 1" xmlns="http://www.w3.org/2000/svg" xmlns:xlink="http://www.w3.org/1999/xlink" width="1024.7" height="671.65"><defs><linearGradient id="a" x1="720.55" y1="535.76" x2="720.55" y2="325.76" gradientUnits="userSpaceOnUse"><stop offset="0" stop-color="gray" stop-opacity=".25"/><stop offset=".54" stop-color="gray" stop-opacity=".12"/><stop offset="1" stop-color="gray" stop-opacity=".1"/></linearGradient><linearGradient id="b" x1="798.2" y1="607.44" x2="798.2" y2="482.44" xlink:href="#a"/><linearGradient id="c" x1="232.99" y1="451.99" x2="232.99" y2="143.26" gradientTransform="translate(-7.27 39.37)" xlink:href="#a"/><linearGradient id="d" x1="453.72" y1="451.99" x2="453.72" y2="143.26" gradientTransform="translate(-12.71 -9.36)" xlink:href="#a"/><linearGradient id="e" x1="512.72" y1="536.99" x2="512.72" y2="228.26" gradientTransform="translate(4.6 -24.48)" xlink:href="#a"/><linearGradient id="f" x1="922.12" y1="409.21" x2="1052.98" y2="100.2" gradientTransform="rotate(90 974.06 272.55)" xlink:href="#a"/></defs><circle cx="720.55" cy="430.76" r="105" fill="url(#a)"/><circle cx="720.55" cy="430.76" r="100" fill="#f5f5f5"/><path d="M811 482.47a62.52 62.52 0 0 0-64.27 55.82h-18a3.64 3.64 0 0 0-3.64 3.64v6a3.65 3.65 0 0 0 3.64 3.65h18A62.5 62.5 0 1 0 811 482.47z" transform="translate(-87.65 -114.18)" fill="url(#b)" opacity=".5"/><path d="M722.54 372.04a58.75 58.75 0 0 0-60.41 52.47h-17.42a2.91 2.91 0 0 0-2.91 2.91v6.67a2.91 2.91 0 0 0 2.91 2.92h17.42a58.75 58.75 0 1 0 60.41-65z" fill="#fff"/><circle cx="720.55" cy="430.76" r="41.25" fill="#795548"/><path d="M741.8 410.76s11.77 18.28 8.4 32.5c0 0 13.45-22.35-8.4-32.5z" fill="#fff" opacity=".2"/><circle cx="746.8" cy="453.26" r="3.75" fill="#fff" opacity=".2"/><path transform="rotate(-12.75 -329.027 672.219)" fill="url(#c)" d="M119.09 182.63H332.36V491.35H119.09z"/><path transform="rotate(-12.75 -113.7 623.462)" fill="url(#d)" d="M334.38 133.91H547.65V442.63H334.38z"/><path transform="rotate(-12.75 -328.604 672.493)" fill="#6c63ff" d="M122.15 186.27H330.12V488.28H122.15z"/><path transform="rotate(-12.75 -114.674 624.078)" fill="#f5f5f5" d="M336.06 137.86H544.03V439.87H336.06z"/><path transform="rotate(-12.75 -356.781 568.21)" fill="#f5f5f5" d="M135.55 222.61H260.43V243.42000000000002H135.55z"/><path transform="rotate(-12.75 -347.368 609.68)" fill="#f5f5f5" d="M124.12 271.86H290.62V277.06H124.12z"/><path transform="rotate(-12.75 -344.705 621.531)" fill="#f5f5f5" d="M126.8 283.7H293.3V288.9H126.8z"/><path transform="rotate(-12.75 -342.037 633.338)" fill="#f5f5f5" d="M129.48 295.54H295.98V300.74H129.48z"/><path transform="rotate(-12.75 -381.633 654.787)" fill="#f5f5f5" d="M133.23 316.95H213.01V322.15H133.23z"/><path transform="rotate(-12.75 -373.017 665.265)" fill="#f5f5f5" d="M135.76 327.46H227.68V332.65999999999997H135.76z"/><path transform="rotate(-12.75 -333.958 668.904)" fill="#f5f5f5" d="M137.52 331.07H304.02V336.27H137.52z"/><path transform="rotate(-12.75 -331.29 680.711)" fill="#f5f5f5" d="M140.2 342.91H306.7V348.11H140.2z"/><path transform="rotate(-12.75 -334.53 693.897)" fill="#f5f5f5" d="M143.03 356.09H297.39V361.28999999999996H143.03z"/><path transform="rotate(-12.75 -325.918 704.42)" fill="#f5f5f5" d="M145.56 366.59H312.06V371.78999999999996H145.56z"/><path transform="rotate(-12.75 -362.163 725.065)" fill="#f5f5f5" d="M149.22 387.24H235.94V392.44H149.22z"/><path transform="rotate(-12.75 -136.613 688.234)" fill="#6c63ff" opacity=".3" d="M372.13 350.43H464.05V355.63H372.13z"/><path transform="rotate(-12.75 -97.554 691.873)" fill="#6c63ff" opacity=".3" d="M373.89 354.04H540.39V359.24H373.89z"/><path transform="rotate(-12.75 -94.886 703.68)" fill="#6c63ff" opacity=".3" d="M376.57 365.88H543.0699999999999V371.08H376.57z"/><path transform="rotate(-12.75 -98.126 716.866)" fill="#6c63ff" opacity=".3" d="M379.4 379.06H533.76V384.26H379.4z"/><path transform="rotate(-12.75 -89.515 727.388)" fill="#6c63ff" opacity=".3" d="M381.93 389.56H548.4300000000001V394.76H381.93z"/><path transform="rotate(-12.75 -125.76 748.033)" fill="#6c63ff" opacity=".3" d="M385.59 410.21H472.30999999999995V415.40999999999997H385.59z"/><path transform="rotate(-12.75 -282.799 761.345)" fill="#f5f5f5" d="M221.62 391.43H322.21000000000004V460.81H221.62z"/><path transform="rotate(-12.75 -166.666 535.849)" fill="#6c63ff" opacity=".3" d="M337.76 165.98H438.35V235.35999999999999H337.76z"/><path transform="rotate(-12.75 -70.63 606.615)" fill="#6c63ff" opacity=".3" d="M433.79 236.72H534.38V306.1H433.79z"/><rect x="410.68" y="203.79" width="213.27" height="308.72" rx="13.44" transform="rotate(-12.75 -37.37 693.386)" fill="url(#e)"/><rect x="412.36" y="207.74" width="207.97" height="302.01" rx="13.44" transform="rotate(-12.75 -38.34 693.958)" fill="#6c63ff"/><g opacity=".5" fill="#47e6b1"><path d="M220.35 542.11H223.35V559.11H220.35z"/><path transform="rotate(90 322.765 563.875)" d="M308 656.29H311V673.29H308z"/></g><g opacity=".5" fill="#47e6b1"><path d="M726.55 32.76H729.55V49.76H726.55z"/><path transform="rotate(90 828.965 54.525)" d="M814.2 146.94H817.2V163.94H814.2z"/></g><g opacity=".5" fill="#47e6b1"><path d="M636.55 249.76H639.55V266.76H636.55z"/><path transform="rotate(90 738.965 271.525)" d="M724.2 363.94H727.2V380.94H724.2z"/></g><g opacity=".5" fill="#47e6b1"><path d="M894.15 288.76H897.15V305.76H894.15z"/><path transform="rotate(90 996.555 310.525)" d="M981.8 402.94H984.8V419.94H981.8z"/></g><path d="M395.04 540.41a3.68 3.68 0 0 1-2.05-4.44 1.15 1.15 0 0 0 .08-.41 1.84 1.84 0 0 0-3.31-1.22 2.53 2.53 0 0 0-.2.36 3.67 3.67 0 0 1-4.44 2 1.86 1.86 0 0 0-.41-.08 1.84 1.84 0 0 0-1.22 3.31 1.88 1.88 0 0 0 .36.21 3.67 3.67 0 0 1 2.05 4.44 1.89 1.89 0 0 0-.08.4 1.84 1.84 0 0 0 3.31 1.23 1.9 1.9 0 0 0 .2-.37 3.68 3.68 0 0 1 4.45-2 1.77 1.77 0 0 0 .4.08 1.84 1.84 0 0 0 1.22-3.31 1.62 1.62 0 0 0-.36-.2zm146.2 124.65a3.68 3.68 0 0 1-2-4.44 1.86 1.86 0 0 0 .08-.41 1.84 1.84 0 0 0-3.31-1.22 1.82 1.82 0 0 0-.2.36 3.66 3.66 0 0 1-4.44 2.05 2 2 0 0 0-.41-.08 1.84 1.84 0 0 0-1.22 3.31 1.62 1.62 0 0 0 .36.21 3.68 3.68 0 0 1 2 4.44 1.86 1.86 0 0 0-.08.41 1.84 1.84 0 0 0 3.31 1.22 1.65 1.65 0 0 0 .2-.37 3.67 3.67 0 0 1 4.44-2 2 2 0 0 0 .41.08 1.84 1.84 0 0 0 1.22-3.31 1.62 1.62 0 0 0-.36-.25zm219-431a3.68 3.68 0 0 1-2-4.44 1.86 1.86 0 0 0 .08-.41 1.84 1.84 0 0 0-3.31-1.22 1.82 1.82 0 0 0-.2.36 3.66 3.66 0 0 1-4.44 2.05 2 2 0 0 0-.41-.08 1.84 1.84 0 0 0-1.22 3.31 1.62 1.62 0 0 0 .36.21 3.68 3.68 0 0 1 2 4.44 1.86 1.86 0 0 0-.08.41 1.84 1.84 0 0 0 3.31 1.22 1.65 1.65 0 0 0 .2-.37 3.67 3.67 0 0 1 4.44-2 2 2 0 0 0 .41.08 1.84 1.84 0 0 0 1.22-3.31 1.62 1.62 0 0 0-.36-.25zm152 161a3.68 3.68 0 0 1-2-4.44 1.86 1.86 0 0 0 .08-.41 1.84 1.84 0 0 0-3.31-1.22 1.82 1.82 0 0 0-.2.36 3.66 3.66 0 0 1-4.44 2.05 2 2 0 0 0-.41-.08 1.84 1.84 0 0 0-1.22 3.31 1.62 1.62 0 0 0 .36.21 3.68 3.68 0 0 1 2 4.44 1.86 1.86 0 0 0-.08.41 1.84 1.84 0 0 0 3.31 1.22 1.65 1.65 0 0 0 .2-.37 3.67 3.67 0 0 1 4.44-2 2 2 0 0 0 .41.08 1.84 1.84 0 0 0 1.22-3.31 1.62 1.62 0 0 0-.36-.25z" fill="#4d8af0" opacity=".5"/><circle cx="142.35" cy="487.11" r="6" fill="#f55f44" opacity=".5"/><circle cx="523.55" cy="50.76" r="6" fill="#4d8af0" opacity=".5"/><circle cx="498.55" cy="489.76" r="6" fill="#47e6b1" opacity=".5"/><circle cx="844.55" cy="639.76" r="6" fill="#f55f44" opacity=".5"/><path d="M848.9 203.3h286a6.29 6.29 0 0 1 6.29 6.29v152.92a6.29 6.29 0 0 1-6.29 6.29h-286a6.28 6.28 0 0 1-6.28-6.28V209.58a6.29 6.29 0 0 1 6.28-6.28z" transform="rotate(-73.39 871.413 287.783)" fill="url(#f)" opacity=".5"/><rect x="911.41" y="140.66" width="161.02" height="290.64" rx="13.64" transform="rotate(16.61 1339.445 -71.23)" fill="#fff"/><path d="M982.5 51.09a13 13 0 0 1-15.5 7l-53.29-15.91a13.05 13.05 0 0 1-9.16-14.36l-28.2-8.41a6.13 6.13 0 0 0-7.61 4.11l-75.47 252.83a6.11 6.11 0 0 0 4.12 7.6l134.84 40.24a6.11 6.11 0 0 0 7.6-4.11l75.44-252.83a6.1 6.1 0 0 0-4.11-7.6z" fill="#e0e0e0"/><rect x="1010.74" y="156.59" width="35.88" height="2.24" rx="1.12" transform="rotate(15.89 1394.044 -213.366)" fill="#dbdbdb"/><circle cx="965.68" cy="50.32" r="1.35" fill="#dbdbdb"/><path transform="rotate(15.4 1353.769 -173.472)" fill="#fff" d="M953.4 188.74H997.4V226.74H953.4z"/><path transform="rotate(15.4 1339.169 -120.473)" fill="#6c63ff" opacity=".3" d="M938.79 241.77H982.79V279.77H938.79z"/><path transform="rotate(15.4 1324.574 -67.437)" fill="#fff" d="M924.19 294.79H968.19V332.79H924.19z"/><path transform="rotate(15.4 1309.974 -14.438)" fill="#3ad29f" opacity=".3" d="M909.58 347.82H953.58V385.82H909.58z"/><path transform="rotate(15.4 1415.689 -164.748)" fill="#fff" d="M1008.3 214.49H1066.3V218.49H1008.3z"/><path transform="rotate(15.4 1412.51 -153.171)" fill="#fff" d="M1005.11 226.06H1063.1100000000001V230.06H1005.11z"/><path transform="rotate(15.4 1401.339 -112.686)" fill="#fff" d="M993.96 266.56H1051.96V270.56H993.96z"/><path transform="rotate(15.4 1398.16 -101.11)" fill="#fff" d="M990.77 278.12H1048.77V282.12H990.77z"/><path transform="rotate(15.4 1386.989 -60.625)" fill="#fff" d="M979.62 318.62H1037.62V322.62H979.62z"/><path transform="rotate(15.4 1383.809 -49.048)" fill="#fff" d="M976.43 330.19H1034.4299999999998V334.19H976.43z"/><path transform="rotate(15.4 1372.675 -8.568)" fill="#fff" d="M965.28 370.68H1023.28V374.68H965.28z"/><path transform="rotate(15.4 1369.459 3.013)" fill="#fff" d="M962.09 382.25H1020.09V386.25H962.09z"/></svg>