<svg width="24" height="24" xmlns="http://www.w3.org/2000/svg"><g fill="none" fill-rule="evenodd"><path d="M0 0H24V24H0z"/><path d="M6 7a2 2 0 1 0 0-4 2 2 0 0 0 0 4zm0 2a4 4 0 1 1 0-8 4 4 0 0 1 0 8z" fill="#000" fill-rule="nonzero"/><path d="M7 11.465V17a2 2 0 0 0 2 2h6v2H9a4 4 0 0 1-4-4V7h2v1a2 2 0 0 0 2 2h6v2H9a3.982 3.982 0 0 1-2-.535z" fill="#000" fill-rule="nonzero" opacity=".3"/><path d="M18 22a2 2 0 1 0 0-4 2 2 0 0 0 0 4zm0 2a4 4 0 1 1 0-8 4 4 0 0 1 0 8zm0-11a2 2 0 1 0 0-4 2 2 0 0 0 0 4zm0 2a4 4 0 1 1 0-8 4 4 0 0 1 0 8z" fill="#000" fill-rule="nonzero"/></g></svg>