<svg xmlns="http://www.w3.org/2000/svg" viewBox="0 0 512 512"><path d="M512 256.006C512 397.402 397.394 512.004 256.004 512 114.606 512.004 0 397.402 0 256.006-.007 114.61 114.606 0 256.004 0 397.394 0 512 114.614 512 256.006z" fill="#47CEAC"/><path d="M511.712 267.373c-.119-.137-.238-.274-.368-.402-.223-.221-132.713-132.715-132.993-132.992-.222-.22-.47-.403-.693-.621-.281-.282-.518-.594-.801-.874-32.27-31.934-75.417-49.161-120.981-48.268-46.031.791-89.349 19.387-121.969 52.361-32.838 33.193-50.485 76.668-49.694 122.415.799 46.023 18.887 88.827 50.934 120.528.226.223.477.41.703.631.276.277.512.587.791.863.226.223 130.481 130.414 130.707 130.636.02.02.037.043.058.063 132.323-5.8 238.52-112.008 244.306-244.34z" fill="#36BB9A"/><path fill="#F4F6F9" d="M427.788 253.013L427.788 253.017 427.788 253.017z"/><path d="M255.876 84.217c-46.032.791-89.349 19.387-121.969 52.361-32.838 33.193-50.485 76.668-49.694 122.415.799 46.025 18.886 88.828 50.934 120.529 31.558 31.216 73.338 48.297 117.947 48.297 1.01 0 2.028-.007 3.042-.026 46.032-.799 89.346-19.397 121.963-52.371 32.842-33.191 50.484-76.661 49.691-122.404-.799-46.028-18.883-88.831-50.93-120.532-32.272-31.936-75.419-49.163-120.984-48.269zm156.971 169.059c.73 41.68-15.386 81.329-45.367 111.639-29.862 30.179-69.497 47.206-111.606 47.936-41.633.828-80.833-14.885-110.218-43.953-29.261-28.94-45.773-68.066-46.502-110.166-.725-41.687 15.389-81.34 45.375-111.65 29.862-30.179 69.497-47.202 111.606-47.924.933-.018 1.868-.026 2.798-.026 40.641 0 78.691 15.553 107.42 43.971 29.253 28.943 45.765 68.07 46.495 110.17l-.001.003z" fill="#F4F6F9"/><path d="M256 285.885a7.47 7.47 0 0 0 7.47-7.47V158.892a7.47 7.47 0 0 0-14.94 0v119.522a7.47 7.47 0 0 0 7.47 7.471zm.007 29.88h-.27c-8.241 0-14.821 6.954-14.675 15.195.139 8.17 6.798 14.686 14.93 14.686h.27c8.241 0 14.821-6.954 14.675-15.195-.146-8.17-6.797-14.686-14.93-14.686z" fill="#F4F6F9"/></svg>