<svg width="24" height="24" xmlns="http://www.w3.org/2000/svg"><g fill="none" fill-rule="evenodd"><path d="M0 0H24V24H0z"/><rect fill="#000" opacity=".3" transform="rotate(90 9 12)" x="8" y="6" width="2" height="12" rx="1"/><path d="M10.006 7a1 1 0 1 1-2 0V6a4 4 0 0 1 4-4h5.996A4 4 0 0 1 22 6v12a4 4 0 0 1-3.998 4h-6.004A4 4 0 0 1 8 18v-1a1 1 0 1 1 2 0v1a2 2 0 0 0 1.998 2h6.004A2 2 0 0 0 20 18V6a2 2 0 0 0-2-2h-5.996a2 2 0 0 0-1.999 2v1z" fill="#000" fill-rule="nonzero" opacity=".3"/><path d="M12.293 9.707a1 1 0 0 1 1.414-1.414l3 3a1 1 0 0 1 0 1.414l-3 3a1 1 0 1 1-1.414-1.414L14.586 12l-2.293-2.293z" fill="#000" fill-rule="nonzero"/></g></svg>