<svg xmlns="http://www.w3.org/2000/svg" xmlns:xlink="http://www.w3.org/1999/xlink" viewBox="0 0 124 144"><defs><style>.a{fill:none;clip-rule:evenodd;}.b{isolation:isolate;}.c{fill-rule:evenodd;fill:url(#a);}.d,.p{opacity:0.3;mix-blend-mode:multiply;}.d{fill:url(#b);}.e{font-size:7px;font-family:Montserrat-Regular, Montserrat;}.e,.l{fill:#fff;}.f{letter-spacing:0em;}.g{letter-spacing:-0.01em;}.h{letter-spacing:-0.02em;}.i{letter-spacing:-0.02em;}.j{letter-spacing:-0.01em;}.k{clip-path:url(#c);}.m{font-size:17px;fill:#ed2c8f;font-family:Montserrat-Bold, Montserrat;font-weight:700;}.n{letter-spacing:-0.05em;}.o{letter-spacing:-0.02em;}.p{fill:url(#d);}.q{clip-path:url(#e);}.r{clip-path:url(#f);}</style><linearGradient id="a" x1="22.52" y1="130.47" x2="101.87" y2="-6.96" gradientUnits="userSpaceOnUse"><stop offset="0" stop-color="#bd2555"/><stop offset="0.2" stop-color="#ce286a"/><stop offset="0.47" stop-color="#df2a7e"/><stop offset="0.74" stop-color="#ea2b8b"/><stop offset="1" stop-color="#ed2c8f"/></linearGradient><linearGradient id="b" x1="58.36" y1="145.97" x2="58.36" y2="125.08" gradientTransform="translate(4.35 -0.08) scale(0.99 0.98)" gradientUnits="userSpaceOnUse"><stop offset="0.47" stop-opacity="0"/><stop offset="1"/></linearGradient><clipPath id="c"><path class="a" d="M111.41.42H13A12.13,12.13,0,0,0,.86,12.54V111A12.13,12.13,0,0,0,13,123.09H50.38l5.16,9,6.52,11.44,6.65-11.37L74,123.09h37.37A12.13,12.13,0,0,0,123.53,111V12.54A12.12,12.12,0,0,0,111.41.42Z"/></clipPath><linearGradient id="d" x1="61.84" y1="60.55" x2="61.84" y2="36.28" gradientTransform="translate(123.69 96.83) rotate(-180)" gradientUnits="userSpaceOnUse"><stop offset="0" stop-opacity="0"/><stop offset="1"/></linearGradient><clipPath id="e"><path class="a" d="M255.41.42H157a12.13,12.13,0,0,0-12.13,12.12V111A12.13,12.13,0,0,0,157,123.09h37.39l5.16,9,6.52,11.44,6.65-11.37,5.33-9.12h37.37A12.13,12.13,0,0,0,267.53,111V12.54A12.12,12.12,0,0,0,255.41.42Z"/></clipPath><clipPath id="f"><path class="a" d="M-32.59.42H-131a12.13,12.13,0,0,0-12.13,12.12V111A12.13,12.13,0,0,0-131,123.09h37.39l5.16,9,6.52,11.44,6.65-11.37,5.33-9.12h37.37A12.13,12.13,0,0,0-20.47,111V12.54A12.12,12.12,0,0,0-32.59.42Z"/></clipPath></defs><title>npib</title><g class="b"><path class="c" d="M111.41.42H13A12.13,12.13,0,0,0,.86,12.54V111A12.13,12.13,0,0,0,13,123.09H50.38l5.16,9,6.52,11.44,6.65-11.37L74,123.09h37.37A12.13,12.13,0,0,0,123.53,111V12.54A12.12,12.12,0,0,0,111.41.42Z"/><polygon class="d" points="50.29 122.98 62.21 123.05 74.13 123.11 68.11 133.32 62.1 143.53 56.2 133.26 50.29 122.98"/><text class="e" transform="translate(10.25 54.39)"><tspan class="f">L</tspan><tspan x="4.14" y="0">a </tspan><tspan class="g" x="10.1" y="0">c</tspan><tspan x="13.98" y="0">o</tspan><tspan class="f" x="18.37" y="0">n</tspan><tspan class="g" x="23.12" y="0">c</tspan><tspan x="27" y="0">eption de si</tspan><tspan class="h" x="67.77" y="0">t</tspan><tspan x="70.48" y="0">es </tspan><tspan class="i" x="79.96" y="0">w</tspan><tspan x="86.01" y="0">eb et </tspan><tspan x="17.11" y="8.4">logiciels sur </tspan><tspan class="f" x="60.03" y="8.4">m</tspan><tspan x="67.47" y="8.4">esu</tspan><tspan class="j" x="79.83" y="8.4">r</tspan><tspan x="82.55" y="8.4">e</tspan></text><g class="k"><rect class="l" x="-24.47" y="-6.08" width="183.33" height="42"/></g><text class="m" transform="translate(26.39 26.68) scale(0.94 1)"><tspan class="n">W</tspan><tspan x="18.84" y="0">ebs</tspan><tspan class="o" x="50.32" y="0">t</tspan><tspan x="57.43" y="0">er</tspan></text><rect class="p" x="0.47" y="36.28" width="122.75" height="24.27" transform="translate(123.69 96.83) rotate(180)"/><path class="l" d="M52,85a9.08,9.08,0,1,0-15,6.87A1.57,1.57,0,0,0,36.5,93a1.6,1.6,0,0,0,.41,1.07,1.6,1.6,0,0,0,0,2.14,1.59,1.59,0,0,0,.65,2.57v3.84a.52.52,0,0,0,.16.37h0l4.81,4.81a.52.52,0,0,0,.75,0L48.09,103h0a.52.52,0,0,0,.16-.37V98.8a1.59,1.59,0,0,0,.65-2.57,1.6,1.6,0,0,0,0-2.14A1.6,1.6,0,0,0,49.31,93a1.57,1.57,0,0,0-.48-1.14A9.1,9.1,0,0,0,52,85Zm-9.07,21.68-.85-.85h1.69Zm1.91-1.92H41l-2.05-2,.76-.51,1.31.87a.53.53,0,0,0,.59,0l1.31-.87,1.3.87a.53.53,0,0,0,.59,0l1.31-.87.76.51Zm2.36-3.13-.77-.52a.54.54,0,0,0-.6,0l-1.3.87-1.31-.87a.53.53,0,0,0-.59,0L41.3,102l-1.3-.87a.53.53,0,0,0-.59,0l-.78.52V98.9h8.55Zm.53-3.81H38.1a.54.54,0,1,1,0-1.07h9.61a.54.54,0,1,1,0,1.07Zm0-2.14H38.1a.53.53,0,1,1,0-1.06h9.61a.53.53,0,1,1,0,1.06Zm0-2.13H38.1a.54.54,0,1,1,0-1.07h9.62a.54.54,0,1,1,0,1.07Zm-6.48-8.08a.54.54,0,0,0,.68,0,2.67,2.67,0,0,0,1-2.07c0-.12,0-.24,0-.37s0-.06,0-.1a2.68,2.68,0,0,0-.07-.27.29.29,0,0,0,0-.09,2.33,2.33,0,0,0-.14-.33l0-.06c0-.09-.1-.17-.15-.26l0,0a1.47,1.47,0,0,1,1,0l0,0-.15.26,0,.06a2.33,2.33,0,0,0-.14.33s0,.06,0,.09a2.68,2.68,0,0,0-.07.27.3.3,0,0,1,0,.1c0,.13,0,.25,0,.37a2.66,2.66,0,0,0,1,2.07.54.54,0,0,0,.68,0,2.67,2.67,0,0,0,1-2.07c0-.12,0-.24,0-.37s0-.06,0-.1a2.68,2.68,0,0,0-.07-.27.29.29,0,0,0,0-.09,2.33,2.33,0,0,0-.14-.33l0-.06c0-.09-.1-.17-.15-.26l0,0a1.62,1.62,0,0,1,.49-.08,1.71,1.71,0,0,1,1.6,1.72,2.63,2.63,0,0,1-1,2l-2.06,1.72a.51.51,0,0,0-.2.41v3.74H41.84V87.68a.51.51,0,0,0-.2-.41l-2.06-1.72a2.63,2.63,0,0,1-.95-2,1.71,1.71,0,0,1,1.61-1.72,1.61,1.61,0,0,1,.48.08l0,0c0,.09-.11.17-.15.26l0,.06a2.33,2.33,0,0,0-.14.33.29.29,0,0,0,0,.09,2.68,2.68,0,0,0-.07.27s0,.07,0,.1,0,.25,0,.37A2.66,2.66,0,0,0,41.23,85.48Zm.07-2.07a1.55,1.55,0,0,1,0-.31.24.24,0,0,1,0-.08,1.11,1.11,0,0,1,.1-.29v0s.07-.1.1-.16.07.11.1.16v0a1,1,0,0,1,.1.29.24.24,0,0,1,0,.08,1.22,1.22,0,0,1,0,.62.24.24,0,0,1,0,.08,1,1,0,0,1-.1.29v0s-.07.1-.1.16-.07-.11-.1-.16v0a1,1,0,0,1-.1-.29.24.24,0,0,1,0-.08A1.55,1.55,0,0,1,41.3,83.41Zm2.67,0a1.55,1.55,0,0,1,0-.31A.24.24,0,0,1,44,83a1.11,1.11,0,0,1,.1-.29v0s.07-.1.1-.16.07.11.1.16v0a1,1,0,0,1,.1.29.24.24,0,0,1,0,.08,1.22,1.22,0,0,1,0,.62.24.24,0,0,1,0,.08,1,1,0,0,1-.1.29v0s-.07.1-.1.16-.07-.11-.1-.16v0a1,1,0,0,1-.1-.29.24.24,0,0,1,0-.08A1.55,1.55,0,0,1,44,83.41Zm3.73,8H45V87.93l1.87-1.56a3.68,3.68,0,0,0,1.34-2.84,2.78,2.78,0,0,0-2.67-2.79,2.62,2.62,0,0,0-1.34.37,2.7,2.7,0,0,0-2.67,0,2.62,2.62,0,0,0-1.33-.37,2.78,2.78,0,0,0-2.68,2.79,3.68,3.68,0,0,0,1.34,2.84l1.87,1.56v3.49H38.11a8,8,0,1,1,9.59,0Z"/><rect class="l" x="51.01" y="77" width="3.02" height="1.07" transform="translate(-39.45 59.85) rotate(-45)"/><rect class="l" x="51.98" y="90.98" width="1.07" height="3.02" transform="translate(-50.02 64.22) rotate(-45)"/><rect class="l" x="53.59" y="84.48" width="3.2" height="1.07"/><rect class="l" x="32.76" y="76.03" width="1.07" height="3.02" transform="translate(-45.08 46.26) rotate(-45)"/><rect class="l" x="31.78" y="91.95" width="3.02" height="1.07" transform="translate(-55.65 50.63) rotate(-45)"/><rect class="l" x="29.02" y="84.48" width="3.2" height="1.07"/><rect class="l" x="49.31" y="101.57" width="1.07" height="1.07"/><rect class="l" x="51.45" y="101.57" width="1.07" height="1.07"/><rect class="l" x="53.59" y="101.57" width="1.07" height="1.07"/><rect class="l" x="31.16" y="101.57" width="1.07" height="1.07"/><rect class="l" x="33.29" y="101.57" width="1.07" height="1.07"/><rect class="l" x="35.43" y="101.57" width="1.07" height="1.07"/><path class="l" d="M94.34,92.28a2.15,2.15,0,0,0-2.93-.11,2.14,2.14,0,0,0-1.85-1.07V78.63A1.63,1.63,0,0,0,87.93,77H64.06a1.63,1.63,0,0,0-1.62,1.63v23.86a1.63,1.63,0,0,0,1.62,1.63H80.3l0,.09v4.25a.54.54,0,0,0,.54.54H91.73a.54.54,0,0,0,.54-.54v-4.25l2.49-7A4,4,0,0,0,95,96V93.81A2.17,2.17,0,0,0,94.34,92.28Zm-6.18-.65a2.14,2.14,0,0,0-2.92-.78h0V82.42h3.25v9a2.26,2.26,0,0,0-.31.23ZM64.06,78.08H87.93a.55.55,0,0,1,.54.55v2.71H84.92a2.14,2.14,0,0,0-3.74,0H63.52V78.63A.55.55,0,0,1,64.06,78.08Zm0,25a.54.54,0,0,1-.54-.54V82.42H80.88v5.73a2.15,2.15,0,0,0-2.95.75A2.19,2.19,0,0,0,77.62,90V96a3.71,3.71,0,0,0,.23,1.28L79.91,103Zm17.36,1.63h1.63v3.26H81.42Zm7,0v3.26H86.84v-3.26Zm-2.71,3.26H84.13v-3.26h1.63Zm3.8,0v-3.26h1.62v3.26Zm4.33-12a2.8,2.8,0,0,1-.15.91l-2.39,6.71H81.26l-2.39-6.7a2.66,2.66,0,0,1-.16-.92V90a1.08,1.08,0,0,1,1.08-1.08,1.12,1.12,0,0,1,.77.32,1.1,1.1,0,0,1,.32.77v5.42H82v-13a1.09,1.09,0,0,1,2.17,0v13h1.09V92.73a1.09,1.09,0,1,1,2.17,0v2.71h1.08V93.27a1.06,1.06,0,0,1,.74-1,1,1,0,0,1,.35-.06,1.08,1.08,0,0,1,1.08,1.08V96h1.09V93.81a1.08,1.08,0,0,1,2.16,0Z"/><path class="l" d="M65.15,86.76h14.1a.54.54,0,0,0,.54-.54V84.05a.54.54,0,0,0-.54-.54H65.15a.54.54,0,0,0-.54.54v2.17A.54.54,0,0,0,65.15,86.76Zm.54-2.17h13v1.09h-13Z"/><path class="l" d="M69.49,88.93H65.15a.54.54,0,0,0-.54.54v4.34a.55.55,0,0,0,.54.55h4.34a.55.55,0,0,0,.54-.55V89.47A.54.54,0,0,0,69.49,88.93ZM69,93.27H65.69V90H69Z"/><path class="l" d="M69.49,96.53H65.15a.54.54,0,0,0-.54.54v4.34a.54.54,0,0,0,.54.54h4.34a.54.54,0,0,0,.54-.54V97.07A.54.54,0,0,0,69.49,96.53ZM69,100.86H65.69V97.61H69Z"/><path class="l" d="M71.12,88.93h2.16V90H71.12Z"/><path class="l" d="M74.37,88.93h2.17V90H74.37Z"/><path class="l" d="M71.12,93.27h2.16v1.09H71.12Z"/><path class="l" d="M74.37,93.27h2.17v1.09H74.37Z"/><path class="l" d="M71.12,91.1h2.16v1.09H71.12Z"/><path class="l" d="M74.37,91.1h2.17v1.09H74.37Z"/><path class="l" d="M71.12,96.53h2.16v1.08H71.12Z"/><path class="l" d="M74.37,96.53h2.17v1.08H74.37Z"/><path class="l" d="M71.12,100.86h2.16V102H71.12Z"/><path class="l" d="M74.37,100.86h2.17V102H74.37Z"/><path class="l" d="M71.12,98.69h2.16v1.09H71.12Z"/><path class="l" d="M74.37,98.69h2.17v1.09H74.37Z"/><g class="q"><rect class="l" x="119.53" y="-6.08" width="183.33" height="42"/></g><g class="r"><rect class="l" x="-168.47" y="-6.08" width="183.33" height="42"/></g></g></svg>