<svg xmlns="http://www.w3.org/2000/svg" xmlns:xlink="http://www.w3.org/1999/xlink" viewBox="0 0 124 144"><defs><style>.a{fill:none;clip-rule:evenodd;}.b{isolation:isolate;}.c{clip-path:url(#a);}.d,.f{fill:#fff;}.e{fill-rule:evenodd;fill:url(#b);}.f{font-size:7px;font-family:Montserrat-Regular, Montserrat;}.g{letter-spacing:0em;}.h{letter-spacing:-0.02em;}.i{letter-spacing:-0.01em;}.j{letter-spacing:-0.01em;}.k{letter-spacing:0em;}.l{letter-spacing:-0.01em;}.m{letter-spacing:0.01em;}.n{clip-path:url(#c);}.o{font-size:17px;fill:#954d9d;font-family:Montserrat-Bold, Montserrat;font-weight:700;}.p,.q{opacity:0.3;mix-blend-mode:multiply;}.p{fill:url(#d);}.q{fill:url(#e);}</style><clipPath id="a"><path class="a" d="M-32.59.42H-131a12.13,12.13,0,0,0-12.13,12.12V111A12.13,12.13,0,0,0-131,123.09h37.39l5.16,9,6.52,11.44,6.65-11.37,5.33-9.12h37.37A12.13,12.13,0,0,0-20.47,111V12.54A12.12,12.12,0,0,0-32.59.42Z"/></clipPath><linearGradient id="b" x1="22.52" y1="130.47" x2="101.87" y2="-6.96" gradientUnits="userSpaceOnUse"><stop offset="0" stop-color="#37326f"/><stop offset="0.16" stop-color="#423272"/><stop offset="0.45" stop-color="#60327c"/><stop offset="0.83" stop-color="#90338b"/><stop offset="0.99" stop-color="#a73392"/></linearGradient><clipPath id="c"><path class="a" d="M111.41.42H13A12.13,12.13,0,0,0,.86,12.54V111A12.13,12.13,0,0,0,13,123.09H50.38l5.16,9,6.52,11.44,6.65-11.37L74,123.09h37.37A12.13,12.13,0,0,0,123.53,111V12.54A12.12,12.12,0,0,0,111.41.42Z"/></clipPath><linearGradient id="d" x1="61.84" y1="60.55" x2="61.84" y2="36.28" gradientTransform="translate(123.69 96.83) rotate(-180)" gradientUnits="userSpaceOnUse"><stop offset="0" stop-opacity="0"/><stop offset="1"/></linearGradient><linearGradient id="e" x1="59.63" y1="145.97" x2="59.63" y2="125.08" gradientTransform="translate(3.1 -0.08) scale(0.99 0.98)" gradientUnits="userSpaceOnUse"><stop offset="0.47" stop-opacity="0"/><stop offset="1"/></linearGradient></defs><title>npib</title><g class="b"><g class="c"><rect class="d" x="-168.47" y="-6.08" width="183.33" height="42"/></g><path class="e" d="M111.41.42H13A12.13,12.13,0,0,0,.86,12.54V111A12.13,12.13,0,0,0,13,123.09H50.38l5.16,9,6.52,11.44,6.65-11.37L74,123.09h37.37A12.13,12.13,0,0,0,123.53,111V12.54A12.12,12.12,0,0,0,111.41.42Z"/><text class="f" transform="translate(34.61 56.39)">U<tspan class="g" x="5.54" y="0">n</tspan><tspan x="10.3" y="0">e pla</tspan><tspan class="h" x="27.12" y="0">t</tspan><tspan x="29.83" y="0">e</tspan><tspan class="i" x="34.05" y="0">f</tspan><tspan x="36.36" y="0">o</tspan><tspan class="j" x="40.75" y="0">r</tspan><tspan class="k" x="43.5" y="0">m</tspan><tspan x="50.94" y="0">e </tspan><tspan x="0.02" y="8.4">d&apos;in</tspan><tspan class="h" x="12.8" y="8.4">t</tspan><tspan x="15.51" y="8.4">e</tspan><tspan class="l" x="19.74" y="8.4">r</tspan><tspan class="m" x="22.47" y="8.4">-</tspan><tspan x="25.21" y="8.4">cabi</tspan><tspan class="g" x="39.91" y="8.4">n</tspan><tspan x="44.66" y="8.4">ets</tspan></text><g class="n"><rect class="d" x="-24.47" y="-6.08" width="183.33" height="42"/></g><text class="o" transform="translate(44.14 26.68) scale(0.94 1)">Icab</text><rect class="p" x="0.47" y="36.28" width="122.75" height="24.27" transform="translate(123.69 96.83) rotate(180)"/><polygon class="q" points="50.29 122.98 62.21 123.05 74.13 123.11 68.11 133.32 62.1 143.53 56.2 133.26 50.29 122.98"/><path class="d" d="M77.13,82.52a2.33,2.33,0,1,0,2.33,2.33A2.33,2.33,0,0,0,77.13,82.52Zm0,3.5a1.17,1.17,0,1,1,1.17-1.17A1.17,1.17,0,0,1,77.13,86Z"/><path class="d" d="M46.87,101.73a2.33,2.33,0,1,0,2.32,2.33A2.33,2.33,0,0,0,46.87,101.73Zm0,3.49A1.16,1.16,0,1,1,48,104.06,1.16,1.16,0,0,1,46.87,105.22Z"/><path class="d" d="M76,83.26l-5-2.43a.58.58,0,0,0-.5,1l5,2.43a.56.56,0,0,0,.25,0,.58.58,0,0,0,.26-1.1Z"/><path class="d" d="M70.73,105.81a2.33,2.33,0,1,0,2.33,2.32A2.33,2.33,0,0,0,70.73,105.81Zm0,3.49a1.17,1.17,0,1,1,1.17-1.17A1.16,1.16,0,0,1,70.73,109.3Z"/><path class="d" d="M69.6,106.54l-5-2.42a.58.58,0,1,0-.5,1l5,2.42a.54.54,0,0,0,.25.06.57.57,0,0,0,.52-.33A.58.58,0,0,0,69.6,106.54Z"/><path class="d" d="M62,91.25a2.33,2.33,0,1,0,2.33,2.33A2.34,2.34,0,0,0,62,91.25Zm0,3.5a1.17,1.17,0,1,1,1.16-1.17A1.17,1.17,0,0,1,62,94.75Z"/><path class="d" d="M61,92.05l-3.86-3a.58.58,0,1,0-.72.92l3.86,3a.55.55,0,0,0,.36.13.59.59,0,0,0,.36-1Z"/><path class="d" d="M72.48,90.67a6.41,6.41,0,1,0,6.4,6.4A6.41,6.41,0,0,0,72.48,90.67Zm0,11.64a5.24,5.24,0,1,1,5.24-5.24A5.25,5.25,0,0,1,72.48,102.31Z"/><path class="d" d="M72.48,93a2.33,2.33,0,1,0,2.33,2.33A2.33,2.33,0,0,0,72.48,93Zm0,3.49a1.17,1.17,0,1,1,1.16-1.16A1.17,1.17,0,0,1,72.48,96.49Z"/><path class="d" d="M74.17,98.82H70.79A1.79,1.79,0,0,0,69,100.58v1.53a.58.58,0,0,0,.3.5,6.32,6.32,0,0,0,6.4,0,.57.57,0,0,0,.29-.5v-1.53A1.78,1.78,0,0,0,74.17,98.82Zm.64,2.94a5.23,5.23,0,0,1-4.66,0v-1.18a.62.62,0,0,1,.64-.6h3.38a.62.62,0,0,1,.64.6v1.18Z"/><path class="d" d="M58.51,97.66a6.4,6.4,0,1,0,6.4,6.4A6.41,6.41,0,0,0,58.51,97.66Zm0,11.64a5.24,5.24,0,1,1,5.24-5.24A5.25,5.25,0,0,1,58.51,109.3Z"/><path class="d" d="M58.51,100a2.33,2.33,0,1,0,2.33,2.33A2.33,2.33,0,0,0,58.51,100Zm0,3.5a1.17,1.17,0,1,1,1.16-1.17A1.17,1.17,0,0,1,58.51,103.48Z"/><path class="d" d="M60.2,105.81H56.82a1.77,1.77,0,0,0-1.8,1.75v1.54a.58.58,0,0,0,.29.5,6.38,6.38,0,0,0,6.4,0,.58.58,0,0,0,.29-.5v-1.54A1.78,1.78,0,0,0,60.2,105.81Zm.64,2.94a5.3,5.3,0,0,1-4.66,0v-1.19a.62.62,0,0,1,.64-.59H60.2a.62.62,0,0,1,.64.59v1.19Z"/><path class="d" d="M50.94,83.1a6.41,6.41,0,1,0,6.4,6.41A6.41,6.41,0,0,0,50.94,83.1Zm0,11.65a5.24,5.24,0,1,1,5.24-5.24A5.25,5.25,0,0,1,50.94,94.75Z"/><path class="d" d="M50.94,85.43a2.33,2.33,0,1,0,2.33,2.33A2.34,2.34,0,0,0,50.94,85.43Zm0,3.5a1.17,1.17,0,1,1,1.16-1.17A1.17,1.17,0,0,1,50.94,88.93Z"/><path class="d" d="M52.63,91.25H49.25A1.78,1.78,0,0,0,47.45,93v1.53a.6.6,0,0,0,.29.51,6.38,6.38,0,0,0,6.4,0,.6.6,0,0,0,.29-.51V93A1.78,1.78,0,0,0,52.63,91.25Zm.64,3a5.3,5.3,0,0,1-4.66,0V93a.62.62,0,0,1,.64-.59h3.38a.62.62,0,0,1,.64.59V94.2Z"/><path class="d" d="M64.91,75.54a6.4,6.4,0,1,0,6.4,6.4A6.41,6.41,0,0,0,64.91,75.54Zm0,11.64a5.24,5.24,0,1,1,5.24-5.24A5.25,5.25,0,0,1,64.91,87.18Z"/><path class="d" d="M64.91,77.87a2.33,2.33,0,1,0,2.33,2.32A2.33,2.33,0,0,0,64.91,77.87Zm0,3.49a1.17,1.17,0,1,1,1.16-1.17A1.16,1.16,0,0,1,64.91,81.36Z"/><path class="d" d="M66.6,83.69H63.22a1.78,1.78,0,0,0-1.8,1.75V87a.58.58,0,0,0,.29.5,6.38,6.38,0,0,0,6.4,0,.58.58,0,0,0,.29-.5V85.44A1.78,1.78,0,0,0,66.6,83.69Zm.64,2.94a5.3,5.3,0,0,1-4.66,0V85.44a.62.62,0,0,1,.64-.59H66.6a.62.62,0,0,1,.64.59v1.19Z"/><path class="d" d="M59.53,81.56a.58.58,0,0,0-.82-.06l-4,3.45a.58.58,0,0,0-.07.82.61.61,0,0,0,.45.2.54.54,0,0,0,.37-.14l4-3.45A.58.58,0,0,0,59.53,81.56Z"/><path class="d" d="M72.36,90.91l-3.49-4.66a.58.58,0,1,0-.93.7l3.49,4.65a.57.57,0,0,0,.47.24.54.54,0,0,0,.34-.12A.58.58,0,0,0,72.36,90.91Z"/><path class="d" d="M67.58,99a.58.58,0,0,0-.81-.12l-3.25,2.44a.59.59,0,0,0-.12.82.59.59,0,0,0,.82.11l3.25-2.44A.57.57,0,0,0,67.58,99Z"/><path class="d" d="M52.69,103.48H48.61a.58.58,0,1,0,0,1.16h4.08a.58.58,0,1,0,0-1.16Z"/><path class="d" d="M50.94,75.54a2.33,2.33,0,1,0,2.33,2.33A2.33,2.33,0,0,0,50.94,75.54Zm0,3.49a1.17,1.17,0,1,1,1.16-1.16A1.16,1.16,0,0,1,50.94,79Z"/><path class="d" d="M50.94,79a.58.58,0,0,0-.58.58v4.08a.58.58,0,1,0,1.16,0V79.61A.58.58,0,0,0,50.94,79Z"/></g></svg>