<svg width="24" height="24" xmlns="http://www.w3.org/2000/svg"><g fill="none" fill-rule="evenodd"><path d="M0 0H24V24H0z"/><path d="M18 15v-1.523a.5.5 0 0 1 .83-.375l2.935 2.576a.5.5 0 0 1-.001.752l-2.935 2.56a.5.5 0 0 1-.829-.376V17h-1.555a6 6 0 0 1-4.736-2.316l-3.997-5.14A4 4 0 0 0 4.555 8H2V6h2.555A6 6 0 0 1 9.29 8.316l3.997 5.14A4 4 0 0 0 16.445 15H18z" fill="#000" fill-rule="nonzero" opacity=".3"/><path d="M18 6V4.477a.5.5 0 0 1 .83-.375l2.935 2.576a.5.5 0 0 1-.001.752l-2.935 2.56A.5.5 0 0 1 18 9.614V8h-1.555a4 4 0 0 0-3.157 1.544l-3.997 5.14A6 6 0 0 1 4.555 17H2v-2h2.555a4 4 0 0 0 3.157-1.544l3.997-5.14A6 6 0 0 1 16.445 6H18z" fill="#000" fill-rule="nonzero"/></g></svg>