<svg width="24" height="24" xmlns="http://www.w3.org/2000/svg"><g fill="none" fill-rule="evenodd"><path d="M0 0H24V24H0z"/><path d="M4 9.675l6.88 3.972a.89.89 0 0 0 .231.093v7.704l-6.62-3.918a1 1 0 0 1-.491-.86V9.675zm16-.106v7.097a1 1 0 0 1-.49.86l-6.621 3.918v-7.771a.903.903 0 0 0 .048-.026L20 9.569z" fill="#000"/><path d="M4.216 7.747a.999.999 0 0 1 .314-.262l7-3.728a1 1 0 0 1 .94 0l7 3.728c.095.05.18.116.253.191l-7.675 4.431a.893.893 0 0 0-.14.1.893.893 0 0 0-.139-.1l-7.553-4.36z" fill="#000" opacity=".3"/></g></svg>