<svg width="24" height="24" xmlns="http://www.w3.org/2000/svg"><g fill="none" fill-rule="evenodd"><path d="M0 0H24V24H0z"/><g transform="rotate(45 8.293 18.743)" fill="#000" opacity=".3"><path d="M.354 7.146h3c.056 0 .111-.004.165-.013a3.001 3.001 0 0 0 5.835-.987 3 3 0 0 0-5.835-.986 1.007 1.007 0 0 0-.165-.014H.437a6.002 6.002 0 0 1 11.917 1v13a2 2 0 0 1-2 2h-8a2 2 0 0 1-2-2v-12z"/><rect x="2.354" y="13.146" width="8" height="2" rx="1"/><rect x="3.354" y="17.146" width="6" height="2" rx="1"/></g></g></svg>