<svg width="24" height="24" xmlns="http://www.w3.org/2000/svg"><g fill="none" fill-rule="evenodd"><path d="M0 0H24V24H0z"/><path fill="#000" opacity=".3" d="M12 20.0218549L8.47346039 21.7286168 6.86905972 18.1543453 3.07048824 17.1949849 4.13894342 13.4256452 1.84573388 10.2490577 5.08710286 8.04836581 5.3722735 4.14091196 9.2698837 4.53859595 12 1.72861679 14.7301163 4.53859595 18.6277265 4.14091196 18.9128971 8.04836581 22.1542661 10.2490577 19.8610566 13.4256452 20.9295118 17.1949849 17.1309403 18.1543453 15.5265396 21.7286168z"/><path fill="#000" d="M14.0890818 8.60255815L8.36079737 14.7014391 9.70868621 16.049328 15.4369707 9.950447z"/><path d="M10.854 9.175a1.718 1.718 0 1 1-3.435.002 1.718 1.718 0 0 1 3.435-.002m4.01 7.447a1.719 1.719 0 1 1 0-3.437 1.719 1.719 0 0 1 0 3.437z" fill="#000" opacity=".3"/></g></svg>