<svg width="24" height="24" xmlns="http://www.w3.org/2000/svg"><g fill="none" fill-rule="evenodd"><path d="M0 0H24V24H0z"/><path d="M4.05 17.485l-1.45-1.45a1 1 0 0 1 0-1.414l3.536-3.535L7.55 12.5a1 1 0 1 0 1.414-1.414L7.55 9.672 14.621 2.6a1 1 0 0 1 1.415 0l1.45 1.45a2.5 2.5 0 0 0 3.464 3.464l1.45 1.45a1 1 0 0 1 0 1.414l-7.072 7.07-1.414-1.413A1 1 0 0 0 12.5 17.45l1.414 1.414-3.535 3.535a1 1 0 0 1-1.415 0l-1.45-1.45a2.5 2.5 0 0 0-3.464-3.464zm5.622-4.278a1 1 0 0 0 0 1.414l.707.707a1 1 0 0 0 1.414-1.414l-.707-.707a1 1 0 0 0-1.414 0z" fill="#000" opacity=".3"/></g></svg>