<svg width="24" height="24" xmlns="http://www.w3.org/2000/svg"><g fill="none" fill-rule="evenodd"><path d="M0 0L24 0 24 24 0 24z"/><path d="M4.354 3.52C6.204 4.72 7.419 6.045 8 7.5c.53 1.326 1.588 3.073 3.173 5.242a3 3 0 0 0 3.37 1.077l1.96-.653a1 1 0 0 1 .916.148l4.59 3.443a.5.5 0 0 1-.237.897l-8.38 1.047a4 4 0 0 1-3.758-1.653C8.13 14.931 7.085 13.581 6.5 13a68.688 68.688 0 0 0-2.82-2.609A4.254 4.254 0 0 1 2.5 5.75l.667-1.833a.8.8 0 0 1 1.187-.398z" fill="#000"/><path d="M2.5 8.5c.667 3.333 1 5.5 1 6.5v4H5v-5.25c0-.833.5-1.083 1.5-.75l-4-4.5z" fill="#000" opacity=".3"/></g></svg>