<svg width="24" height="24" xmlns="http://www.w3.org/2000/svg"><g fill="none" fill-rule="evenodd"><path d="M0 0H24V24H0z"/><path d="M7.835 4C8.229 5.212 9.944 6.125 12 6.125S15.771 5.212 16.165 4h1.107a.999.999 0 0 1 .22 0h.008c.301 0 .571.133.755.344l4.335 2.503a1 1 0 0 1 .366 1.366L21.3 11.082a1 1 0 0 1-1.366.366L18.5 10.62V20a1 1 0 0 1-1 1h-11a1 1 0 0 1-1-1v-9.38l-1.433.828a1 1 0 0 1-1.366-.366l-1.656-2.87a1 1 0 0 1 .366-1.365l4.333-2.502A.998.998 0 0 1 6.5 4h.01a.999.999 0 0 1 .219 0h1.106z" fill="#000"/></g></svg>