<svg width="24" height="24" xmlns="http://www.w3.org/2000/svg"><g fill="none" fill-rule="evenodd"><path d="M0 0H24V24H0z"/><path d="M13.5 21v-3a1 1 0 0 0-1-1h-1a1 1 0 0 0-1 1v3H5V4a2 2 0 0 1 2-2h10a2 2 0 0 1 2 2v17h-5.5zM9 4a1 1 0 0 0-1 1v1a1 1 0 0 0 1 1h1a1 1 0 0 0 1-1V5a1 1 0 0 0-1-1H9zm5 0a1 1 0 0 0-1 1v1a1 1 0 0 0 1 1h1a1 1 0 0 0 1-1V5a1 1 0 0 0-1-1h-1zM9 8a1 1 0 0 0-1 1v1a1 1 0 0 0 1 1h1a1 1 0 0 0 1-1V9a1 1 0 0 0-1-1H9zm0 4a1 1 0 0 0-1 1v1a1 1 0 0 0 1 1h1a1 1 0 0 0 1-1v-1a1 1 0 0 0-1-1H9zm5 0a1 1 0 0 0-1 1v1a1 1 0 0 0 1 1h1a1 1 0 0 0 1-1v-1a1 1 0 0 0-1-1h-1z" fill="#000"/><rect fill="#FFF" x="13" y="8" width="3" height="3" rx="1"/><path d="M4 21h16a1 1 0 0 1 1 1v.4a.6.6 0 0 1-.6.6H3.6a.6.6 0 0 1-.6-.6V22a1 1 0 0 1 1-1z" fill="#000" opacity=".3"/></g></svg>