<svg width="24" height="24" xmlns="http://www.w3.org/2000/svg"><g fill="none" fill-rule="evenodd"><path d="M0 0H24V24H0z"/><path d="M6.542 21.501l1.599-5.964a1 1 0 1 1 1.931.518l-1.598 5.964a1 1 0 0 1-1.932-.518zm10.908-.03a1 1 0 0 1-1.932.518l-1.303-4.863a1 1 0 0 1 1.932-.517l1.303 4.862z" fill="#000" opacity=".3"/><path d="M7.36 1h9.28a2 2 0 0 1 1.972 2.329l-1.542 9.253a.5.5 0 0 1-.494.418H7.424a.5.5 0 0 1-.494-.418L5.388 3.33A2 2 0 0 1 7.361 1zM5.5 14h13a1.5 1.5 0 0 1 0 3h-13a1.5 1.5 0 0 1 0-3z" fill="#000"/></g></svg>