<svg width="24" height="24" xmlns="http://www.w3.org/2000/svg"><g fill="none" fill-rule="evenodd"><path d="M0 0H24V24H0z"/><path d="M5.5 2h13A1.5 1.5 0 0 1 20 3.5v3A1.5 1.5 0 0 1 18.5 8h-13A1.5 1.5 0 0 1 4 6.5v-3A1.5 1.5 0 0 1 5.5 2zM11 4a1 1 0 0 0 0 2h2a1 1 0 0 0 0-2h-2z" fill="#000" opacity=".3"/><path d="M5.5 9h13a1.5 1.5 0 0 1 1.5 1.5v3a1.5 1.5 0 0 1-1.5 1.5h-13A1.5 1.5 0 0 1 4 13.5v-3A1.5 1.5 0 0 1 5.5 9zm5.5 2a1 1 0 0 0 0 2h2a1 1 0 0 0 0-2h-2zm-5.5 5h13a1.5 1.5 0 0 1 1.5 1.5v3a1.5 1.5 0 0 1-1.5 1.5h-13A1.5 1.5 0 0 1 4 20.5v-3A1.5 1.5 0 0 1 5.5 16zm5.5 2a1 1 0 0 0 0 2h2a1 1 0 0 0 0-2h-2z" fill="#000"/></g></svg>