<svg enable-background="new 0 0 512 512" viewBox="0 0 512 512" xmlns="http://www.w3.org/2000/svg"><path d="m0 0h512v170.67h-512z" fill="#73af00"/><path d="m0 341.33h512v170.67h-512z" fill="#ff4b55"/><path d="m0 170.67h512v170.67h-512z" fill="#ffe15a"/><path d="m417.706 256.15c0 89.177-72.4 161.706-161.706 161.706s-161.706-72.529-161.706-161.706c0-89.435 72.4-161.835 161.706-161.835s161.706 72.401 161.706 161.835z" fill="#4173cd"/><g fill="#f2dd30"><path d="m133.009 215.497h93.954l21.26-65.429 5.646 17.55-30.874 95.114-9.198-6.71 9.617-29.553h-75.562zm46.944 144.671 29.037-89.306-55.653-40.525h18.356l80.888 58.722-9.195 6.71-25.198-18.326-23.391 72.013zm152.091 0-76.044-55.233-55.623 40.393 5.679-17.292 80.821-58.851 3.453 10.84-25.135 18.197 61.141 44.526zm46.944-144.671-75.981 55.365 21.263 65.432-14.841-10.843-30.845-95.114h11.292l9.614 29.685 61.174-44.526zm-122.988-89.306 29.037 89.306h68.819l-14.874 10.972h-99.954l3.519-10.972h31.165l-23.391-71.885z"/><path d="m258.709 385.465h-5.389v-70.077h5.389zm119.473-86.986-66.625-21.551 1.678-5.032 66.658 21.551zm-244.397 0-1.678-5.032 66.688-21.551 1.649 5.032zm159.287-88.79-4.391-3.096 41.202-56.657 4.292 3.099zm-74.045 0-41.268-56.654 4.358-3.099 41.169 56.657z"/></g></svg>