<svg enable-background="new 0 0 512 512" viewBox="0 0 512 512" xmlns="http://www.w3.org/2000/svg"><g fill="#41479b"><path d="m0 0h512v512h-512z"/><path d="m94.316 0h-94.316v19.977l94.316 61.793z"/><path d="m0 68.299v26.017h39.71z"/><path d="m0 161.684v26.017l39.71-26.017z"/><path d="m256 19.977v-19.977h-94.316v81.77z"/><path d="m256 187.701v-26.017h-39.71z"/><path d="m161.684 174.23v81.77h94.316v-19.977z"/><path d="m256 94.316v-26.017l-39.71 26.017z"/><path d="m0 236.023v19.977h94.316v-81.77z"/></g><path d="m256 236.023v-19.964l-83.768-54.375h24.748l59.02 38.311v-12.294l-39.71-26.017h39.71v-13.474h-107.789v107.79h13.473v-81.77z" fill="#f5f5f5"/><path d="m0 148.21v13.474h39.71l-39.71 26.017v18.901l69.197-44.918h24.748l-93.945 60.982v13.357l94.316-61.793v81.77h13.473v-107.79z" fill="#f5f5f5"/><path d="m107.789 0h-13.473v81.77l-94.316-61.793v21.862l80.842 52.477h-24.748l-56.094-36.412v10.395l39.71 26.017h-39.71v13.474h107.789z" fill="#f5f5f5"/><path d="m256 107.79v-13.474h-39.71l39.71-26.017v-19.142l-69.568 45.159h-24.748l94.316-61.223v-13.116l-94.316 61.793v-81.77h-13.473v107.79z" fill="#f5f5f5"/><path d="m256 148.21v-40.42h-107.789v-107.79h-40.422v107.79h-107.789v40.42h107.789v107.79h40.422v-107.79z" fill="#ff4b55"/><path d="m69.197 161.684-69.197 44.918v16.064l93.945-60.982z" fill="#ff4b55"/><path d="m172.232 161.684 83.768 54.375v-16.064l-59.02-38.311z" fill="#ff4b55"/><path d="m80.842 94.316-80.842-52.477v16.065l56.094 36.412z" fill="#ff4b55"/><path d="m186.432 94.316 69.568-45.159v-16.064l-94.316 61.223z" fill="#ff4b55"/><path d="m305.73 280.18h137.56v106.29h-137.56z" fill="#82afff"/><path d="m305.726 386.478c0 36.258 40.642 65.652 68.778 65.652 25.01 0 68.778-29.394 68.778-65.652z" fill="#c86464"/><path d="m392.871 319.002c2.214.391 5.992.912 6.383 6.253s-1.563 24.359-3.517 26.704c0 0 6.383 14.459 6.643 23.056.261 8.597-.912 34.324-.13 38.427s3.712 12.505 3.712 12.505-8.988-5.276-12.505-1.954-16.413 7.816-21.493 2.54c0 0 6.057-17.195 6.057-36.734s0-67.801 0-67.801 2.54-2.019 5.862-2.084 8.988-.912 8.988-.912z" fill="#73af00"/><path d="m394.174 422.3c.391 2.475 1.433 4.299.912 5.21-.521.912-3.908 9.249-1.954 9.249s5.341-1.042 6.253-2.866 1.303-4.559 1.824-5.341-.912-4.689-2.084-5.341-4.951-.911-4.951-.911z" fill="#fff5e1"/><path d="m371.639 324.473-7.164.912s.912-4.689 1.042-7.946c.13-3.256.391-9.248.391-9.248s5.08-3.126 5.21-3.648c.065-.26.668-1.889.195-2.735s-2.019-.912-2.019-.912-5.992 3.126-5.992 3.647 0 3.648-.651 4.82-4.299 10.942-4.559 13.547c-.261 2.605-.651 8.076.391 8.337 1.042.26 11.854 1.433 13.026.912s.13-7.686.13-7.686z" fill="#fff5e1"/><path d="m404.096 298.746h-26.075v-12.31h-8.988v12.31h-26.074v8.988h26.074v118.213h8.988v-118.213h26.075z" fill="#464655"/><path d="m388.703 314.703s8.727 2.513 9.9-.391c1.368-3.387-3.191-3.843-4.038-7.425-.095-.401-.912-5.21-4.429-6.122s-6.774 0-6.904 2.345 5.471 11.593 5.471 11.593z" fill="#963c3c"/><path d="m384.014 325.775c-.257.043-.651-2.605-.13-5.862s0-4.299 0-4.299-3.647.391-3.647-1.042.782-8.076 2.996-11.463c0 0 1.563 1.954 4.429 1.954 0 0-.13 2.345 1.433 3.908 0 0-1.954 1.693-1.042 2.866s2.605 2.605 2.605 2.605.13 2.736 2.214 4.559c-.001.001-2.606 5.732-8.858 6.774z" fill="#fff5e1"/><path d="m348.32 382.31h.782v15.5h-.782z" fill="#464655"/><path d="m351.47 379.31h.782v21.502h-.782z" fill="#464655"/><path d="m354.61 376.57h.782v26.986h-.782z" fill="#464655"/><path d="m357.76 372.65h.782v34.823h-.782z" fill="#464655"/><path d="m360.9 367.52h.782v45.07h-.782z" fill="#464655"/><path d="m364.05 367.52h.782v47.18h-.782z" fill="#464655"/><path d="m378.152 392.209c-3.454-17.963-13.026-28.397-16.413-28.918s-5.862 2.215-6.122 4.169-2.084 7.816-5.862 10.551c-3.778 2.736-10.812 4.299-12.375 9.379s2.605 7.295 5.08 6.773c.185-.039.368-.111.552-.173l26.629 32.756c.967 1.19 2.85.995 3.524-.383 2.738-5.594 7.932-18.838 4.987-34.154zm-32.905.363c1.044-1.12 1.485-2.667.339-4.271-1.954-2.736-4.168 1.172-4.168 1.172s-.651-3.387 4.429-5.08 10.812-4.559 13.417-10.681 2.475-4.95 2.475-4.95 10.421 5.862 11.854 24.229-3.647 25.792-3.647 25.792z" fill="#ffe15a"/><path d="m369.033 352.91c-1.196.766-2.274 1.424-3.029 1.817-2.442 1.27-5.373 2.54-5.666 3.712s-1.954 2.149-1.856 3.517 0 5.471 0 5.471c1.465-.293 4.396-.782 5.373-2.54.977-1.759 1.856-5.178 4.983-6.643.056-.026.137-.053.195-.079z" fill="#fff5e1"/><path d="m394.923 327.957c-1.465.684-5.862 5.96-6.546 8.402s-2.833 8.206-2.833 8.206-4.439.58-7.523 2.305v8.532c1.708-.495 3.22-.982 4.103-1.458 2.54-1.368 6.155-3.908 8.011-4.396s3.419-3.615 4.103-5.471 2.833-7.327 3.126-11.04-.976-5.764-2.441-5.08z" fill="#fff5e1"/><path d="m374.504 454.346-.342-.055c-69.822-11.024-70.625-71.499-70.625-74.066v-102.23h141.935v102.23c0 2.568-.803 63.042-70.625 74.066zm-66.589-171.973v97.852c0 2.412.756 59.1 66.589 69.688 65.834-10.588 66.589-67.276 66.589-69.688v-97.852z" fill="#f5f5f5"/></svg>