<svg enable-background="new 0 0 512 512" viewBox="0 0 512 512" xmlns="http://www.w3.org/2000/svg"><path d="m0 .077h512v511.85h-512z" fill="#73af00"/><path d="m0 0v47.995l253.24 169.595 258.76-169.611v-47.979z" fill="#ff4b55"/><path d="m512 512v-48.133l-255.948-167.535-256.052 167.758v47.91z" fill="#ff4b55"/><path d="m371.928 291.588c3.467-11.278 5.351-23.251 5.351-35.665s-1.884-24.387-5.351-35.665l140.072-91.772v-80.507l-177.066 116.008c-21.21-18.215-48.729-29.291-78.882-29.291-30.152 0-57.672 11.075-78.882 29.291l-177.17-116.367v80.833l140.177 91.804c-3.467 11.278-5.351 23.251-5.351 35.665s1.884 24.387 5.351 35.665l-140.177 91.824v80.678l177.171-116.231c21.21 18.215 48.73 29.291 78.882 29.291s57.672-11.076 78.882-29.291l177.065 116.009v-80.508z" fill="#f5f5f5"/><path d="m247.325 217.158-18.265.474 9.537-15.588-9.537-15.587 18.265.473 8.727-16.061 8.728 16.061 18.264-.473-9.536 15.587 9.536 15.588-18.264-.474-8.728 16.061z" fill="#ff4b55"/><path d="m256.052 175.105 7.543 13.874 15.787-.404-8.244 13.47 8.244 13.47-15.787-.404-7.543 13.874-7.543-13.874-15.787.404 8.244-13.47-8.244-13.47 15.787.404zm0-8.46-3.55 6.529-6.362 11.702-13.315-.342-7.43-.191 3.88 6.34 6.953 11.36-6.953 11.36-3.88 6.34 7.43-.191 13.315-.342 6.362 11.702 3.55 6.529 3.55-6.529 6.362-11.702 13.315.342 7.43.191-3.88-6.34-6.953-11.36 6.953-11.36 3.88-6.34-7.43.191-13.315.342-6.362-11.702z" fill="#73af00"/><path d="m197.164 306.435-18.265.474 9.537-15.587-9.537-15.588 18.265.474 8.727-16.061 8.728 16.061 18.264-.474-9.536 15.588 9.536 15.587-18.264-.474-8.728 16.061z" fill="#ff4b55"/><path d="m205.891 264.382 7.543 13.874 15.787-.404-8.244 13.47 8.244 13.47-15.787-.404-7.543 13.874-7.543-13.874-15.787.404 8.244-13.47-8.244-13.47 15.787.404zm0-8.459-3.55 6.529-6.362 11.702-13.315-.342-7.43-.191 3.88 6.34 6.953 11.36-6.953 11.36-3.88 6.34 7.43-.191 13.315-.342 6.362 11.702 3.55 6.529 3.55-6.529 6.362-11.702 13.315.342 7.43.191-3.88-6.34-6.953-11.36 6.953-11.36 3.88-6.34-7.43.191-13.315.342-6.362-11.702z" fill="#73af00"/><path d="m297.486 306.435-18.265.474 9.537-15.587-9.537-15.588 18.265.474 8.727-16.061 8.728 16.061 18.264-.474-9.536 15.588 9.536 15.587-18.264-.474-8.728 16.061z" fill="#ff4b55"/><path d="m306.213 264.382 7.543 13.874 15.787-.404-8.244 13.47 8.244 13.47-15.787-.404-7.543 13.874-7.543-13.874-15.787.404 8.244-13.47-8.244-13.47 15.787.404zm0-8.459-3.55 6.529-6.362 11.702-13.315-.342-7.43-.191 3.88 6.34 6.953 11.36-6.953 11.36-3.88 6.34 7.43-.191 13.315-.342 6.362 11.702 3.55 6.529 3.55-6.529 6.362-11.702 13.315.342 7.43.191-3.88-6.34-6.953-11.36 6.953-11.36 3.88-6.34-7.43.191-13.315.342-6.362-11.702z" fill="#73af00"/></svg>