<svg enable-background="new 0 0 512 512" viewBox="0 0 512 512" xmlns="http://www.w3.org/2000/svg"><path d="m1.985 0h508.03v512h-508.03z" fill="#c8414b"/><path d="m1.985 107.79h508.03v296.42h-508.03z" fill="#ffd250"/><path d="m223.347 256.409 8.191-33.404c.754-3.076-1.829-5.994-5.306-5.994h-5.77c-3.477 0-6.061 2.918-5.306 5.994z" fill="#c8414b"/><path d="m213.681 238.89h19.322v74.42h-19.322z" fill="#f5f5f5"/><path d="m208.861 230.14h28.984v8.756h-28.984z" fill="#fab446"/><path d="m189.531 256.41h48.3v8.756h-48.3z" fill="#c8414b"/><path d="m237.839 291.429-28.983-8.755v-8.755l28.983 8.755z" fill="#c8414b"/><path d="m78.435 256.409 8.191-33.404c.754-3.076-1.829-5.994-5.306-5.994h-5.77c-3.477 0-6.061 2.918-5.306 5.994z" fill="#c8414b"/><path d="m112.248 230.143c-5.335 0-9.661 3.919-9.661 8.756v56.908c0 10.638 10.955 30.643 48.305 30.643s48.305-20.006 48.305-30.643v-56.908c0-4.835-4.325-8.756-9.661-8.756z" fill="#f5f5f5"/><path d="m150.891 273.919h-48.305v-34.579c0-5.079 4.118-9.197 9.197-9.197h39.107v43.776z" fill="#c8414b"/><path d="m150.891 273.919h48.305v20.784c0 12.698-10.294 22.992-22.992 22.992h-2.32c-12.698 0-22.992-10.294-22.992-22.992z" fill="#c8414b"/><path d="m102.587 273.919h48.305v20.784c0 12.698-10.294 22.992-22.992 22.992h-2.32c-12.698 0-22.992-10.294-22.992-22.992-.001 0-.001-20.784-.001-20.784z" fill="#fab446"/><path d="m141.231 313.218v-39.299h-9.661v43.334c3.592-.661 6.84-2.103 9.661-4.035z" fill="#c8414b"/><path d="m121.909 317.253v-43.334h-9.661v39.299c2.821 1.932 6.068 3.374 9.661 4.035z" fill="#c8414b"/><path d="m112.241 256.41h28.984v8.756h-28.984z" fill="#ffb441"/><path d="m112.241 238.89h28.984v8.756h-28.984z" fill="#fab446"/><path d="m117.081 244.1h19.322v15.861h-19.322z" fill="#fab446"/><path d="m68.774 238.89h19.322v74.42h-19.322z" fill="#f5f5f5"/><path d="m63.941 308.94h28.984v8.756h-28.984z" fill="#fab446"/><path d="m63.941 230.14h28.984v8.756h-28.984z" fill="#fab446"/><path d="m59.111 317.7h38.643v8.756h-38.643z" fill="#5064aa"/><path d="m213.681 308.94h28.984v8.756h-28.984z" fill="#fab446"/><path d="m204.031 317.7h38.643v8.756h-38.643z" fill="#5064aa"/><path d="m121.911 221.39h57.967v8.756h-57.967z" fill="#fab446"/><path d="m146.061 195.13h9.661v26.27h-9.661z" fill="#ffb441"/><g fill="#f5f5f5"><path d="m141.231 208.255c-7.991 0-14.491-5.891-14.491-13.132s6.5-13.132 14.491-13.132 14.491 5.891 14.491 13.132c-.001 7.241-6.501 13.132-14.491 13.132zm0-17.51c-2.665 0-4.83 1.963-4.83 4.378s2.165 4.378 4.83 4.378 4.83-1.963 4.83-4.378c0-2.416-2.165-4.378-4.83-4.378z"/><path d="m160.552 208.255c-7.991 0-14.491-5.891-14.491-13.132s6.5-13.132 14.491-13.132 14.491 5.891 14.491 13.132c-.001 7.241-6.5 13.132-14.491 13.132zm0-17.51c-2.665 0-4.83 1.963-4.83 4.378s2.165 4.378 4.83 4.378 4.83-1.963 4.83-4.378c0-2.416-2.165-4.378-4.83-4.378z"/><path d="m179.874 217.011c-7.991 0-14.491-5.891-14.491-13.132s6.5-13.132 14.491-13.132 14.491 5.891 14.491 13.132-6.501 13.132-14.491 13.132zm0-17.511c-2.665 0-4.83 1.963-4.83 4.378s2.165 4.378 4.83 4.378 4.83-1.963 4.83-4.378c0-2.416-2.165-4.378-4.83-4.378z"/><path d="m121.909 217.011c-7.991 0-14.491-5.891-14.491-13.132s6.5-13.132 14.491-13.132 14.491 5.891 14.491 13.132c-.001 7.241-6.501 13.132-14.491 13.132zm0-17.511c-2.665 0-4.83 1.963-4.83 4.378s2.165 4.378 4.83 4.378 4.83-1.963 4.83-4.378c0-2.416-2.165-4.378-4.83-4.378z"/></g><path d="m179.874 291.429v4.378c0 2.414-2.167 4.378-4.83 4.378s-4.83-1.964-4.83-4.378v-4.378zm9.66-8.755h-28.983v13.132c0 7.241 6.501 13.132 14.491 13.132 7.991 0 14.491-5.891 14.491-13.132z" fill="#fab446"/><path d="m175.507 265.163h-.928c-5.079 0-9.197-4.118-9.197-9.197v-7.872c0-5.079 4.118-9.197 9.197-9.197h.928c5.079 0 9.197 4.118 9.197 9.197v7.872c0 5.081-4.118 9.197-9.197 9.197z" fill="#ffa0d2"/><ellipse cx="150.891" cy="273.92" fill="#5064aa" rx="14.491" ry="13.13"/><path d="m146.061 177.61h9.661v26.27h-9.661z" fill="#fab446"/><path d="m121.909 221.388-9.661-8.756 5.659-5.129c8.748-7.928 20.613-12.381 32.984-12.381 12.371 0 24.237 4.454 32.984 12.381l5.659 5.129-9.661 8.756z" fill="#c8414b"/><ellipse cx="150.891" cy="212.63" fill="#ffd250" rx="4.83" ry="4.378"/><ellipse cx="131.571" cy="212.63" fill="#ffd250" rx="4.83" ry="4.378"/><ellipse cx="170.211" cy="212.63" fill="#ffd250" rx="4.83" ry="4.378"/><path d="m63.941 256.41h48.3v8.756h-48.3z" fill="#c8414b"/><path d="m63.943 291.429 28.983-8.755v-8.755l-28.983 8.755z" fill="#c8414b"/></svg>