<svg enable-background="new 0 0 512 512" viewBox="0 0 512 512" xmlns="http://www.w3.org/2000/svg"><path d="m0 377.26h512v134.74h-512z" fill="#73af00"/><path d="m0 0h512v377.26h-512z" fill="#ff4b55"/><path d="m0 0h107.79v512h-107.79z" fill="#f5f5f5"/><path d="m13.482 489.622h4.764v-13.356h-4.764zm38.032 0h4.767v-13.356h-4.767zm38.057 0h4.744v-13.356h-4.744zm-57.049-35.807h4.717v-11.129h-4.717zm38.057 0h4.744v-11.129h-4.744zm-57.097-29.034h4.764v-13.356h-4.764zm38.032 0h4.767v-13.356h-4.767zm38.057 0h4.744v-13.356h-4.744zm-66.533 17.905h4.717v-11.228h4.767v-11.129h4.717v11.129h4.792v11.228h4.717v11.129h-4.718v11.226h-4.792v11.226h-4.717v-11.227h-4.767v-11.226h-4.717v-11.128zm38.035 0h4.764v-11.228h4.742v-11.129h4.744v11.129h4.742v11.228h4.765v11.129h-4.765v11.226h-4.742v11.226h-4.744v-11.227h-4.742v-11.226h-4.764zm9.506-44.712v11.129h-4.789v11.226h-4.717v11.129h-4.792v11.228h-4.767v-11.228h-4.767v-11.129h-4.717v-11.226h-4.792v-11.129h-4.717v11.129h-4.767v11.226h-4.717v11.129h-4.792v11.228h-4.764v11.129h4.764v11.226h4.792v11.226h4.717v11.129h4.767v11.131h4.767v-11.131h4.742v-11.129h4.717v-11.227h4.767v-11.226h4.767v11.226h4.792v11.226h4.764v11.129h4.742v11.131h4.744v-11.131h4.742v-11.129h4.765v-11.226h4.766v-11.226h4.72v-11.129h-4.744v-11.228h-4.742v-11.129h-4.765v-11.226h-4.742v-11.129h-4.744zm11.783-11.129h2.371v-4.452h2.396v4.452h2.396v4.45h-2.396v4.549h-2.396v-4.549h-2.371zm0-15.584v6.583h-2.346v6.773h-2.396v8.904h2.395v6.677h2.346v6.677h7.162v-6.677h2.371v-6.677h2.346v-8.904h-2.346v-6.773h-2.371v-6.583zm-64.116 15.485h2.396v-4.45h2.396v4.45h2.321v4.549h-2.321v4.452h-2.396v-4.452h-2.396zm0-15.581v6.679h-2.371v6.677h-2.393v9.001h2.393v6.677h2.371v6.677h7.113v-6.677h2.396v-6.677h2.324v-9.001h-2.324v-6.677h-2.396v-6.679zm26.155 15.581h2.346v-4.45h2.421v4.45h2.346v4.549h-2.346v4.452h-2.421v-4.452h-2.346zm11.88 0h2.396v-4.45h2.396v4.45h2.346v4.549h-2.346v4.452h-2.396v-4.452h-2.396zm0-15.581v6.679h-4.767v-6.679h-7.113v6.679h-2.371v6.677h-2.396v9.001h2.396v6.677h2.371v6.677h7.113v-6.677h4.767v6.677h7.138v-6.677h2.418v-6.677h2.324v-9.001h-2.324v-6.677h-2.418v-6.679zm-42.799-4.549h4.764v-13.354h-4.764zm38.032 0h4.767v-13.354h-4.767zm38.057 0h4.744v-13.354h-4.744zm-76.089-55.841h4.764v-8.902h-4.764zm76.089 0h4.744v-8.902h-4.744zm-38.057-31.258h4.767v-11.129h-4.767zm-38.032-30.194v6.677.097 6.677h4.764v-6.677-.097-6.677zm26.153 0v6.677.097 6.677h4.767v-6.677-.097-6.677zm23.784 0v6.677.097 6.677h4.742v-6.677-.097-6.677zm26.152 0v6.677.097 6.677h4.744v-6.677-.097-6.677zm-30.894-7.839v4.452h-2.396v3.387h-4.767v-3.387h-2.346v-4.452h-4.767v6.677h2.346v3.387h2.421v4.452.097 4.355h-2.421v3.387h-2.346v6.677h4.767v-4.45h2.346v-3.293h4.767v3.293h2.396v4.45h4.742v-6.677h-2.346v-3.387h-2.396v-4.355-.097-4.452h2.396v-3.387h2.346v-6.677zm-7.163 2.225h4.767v-11.129h-4.767zm-38.032-33.486h4.764v-8.902h-4.764zm76.089 0h4.744v-8.902h-4.744zm-76.089-51.389h4.764v-13.45h-4.764zm38.032 0h4.767v-13.45h-4.767zm38.057 0h4.744v-13.45h-4.744zm-57.049 97.359v-.29-4.355h4.717v-7.742h4.792v-9.001h7.138v-10.547h2.346v-5.131h2.396 2.37v5.032h2.396v10.646h7.16v4.452 4.549h4.742v7.742h4.744v4.452 4.452h-4.744v7.935h-4.742v4.452 4.452h-7.16v10.549h-2.396v5.032h-2.37-2.396v-5.032h-2.346v-10.549h-7.139v-8.904h-4.792v-7.935h-4.717zm38.057-124.262v11.226h-4.789v11.129h-4.717v11.228h-4.792v8.902 2.227h-4.767v-11.129h-4.767v-11.228h-4.717v-11.129h-4.792v-11.226h-4.717v11.226h-4.767v11.129h-4.767v11.228h-4.742v8.902 2.227h-4.764v11.226h4.764v11.226h4.742v11.129h4.767v11.131h4.767v-11.131h4.717v-11.129h4.792v-11.226h-4.792v-13.453h4.792v2.227 6.774h4.717v17.905h2.421v11.032l-7.138.097v8.904h-4.792v6.677h-4.717v11.226h-4.767v-11.226h-4.767v-6.677h-4.742v-6.679h-4.764v20.13h4.764v9.001h4.742v7.742h4.767v4.451.097 4.355h-4.767v7.935h-4.742v8.904h-4.764v20.13h4.764v-6.776h4.742v-6.677h4.767v-11.128h4.767v11.129h4.717v6.677h4.792v9.001l7.138.097v11.032h-2.421v17.905h-4.717v6.677 2.324h-4.792v-13.55h4.792v-11.129h-4.792v-11.129h-4.717v-11.228h-4.767v11.228h-4.767v11.129h-4.742v11.129h-4.764v11.226h4.764v2.324 8.805h4.792v11.228h4.717v11.226h4.767v11.129h4.717v-11.13h4.792v-11.226h4.717v-11.228h4.767v-11.129h4.767v2.324 8.805h4.792v11.228h4.764v11.226h4.742v11.129h4.744v-11.129h4.742v-11.226h4.765v-11.228h4.741v-11.129h4.744v-11.226h-4.744v-11.129h-4.741v-11.129h-4.765v-11.228h-4.742v11.228h-4.744v11.129h-4.789v11.129h4.789v11.226 2.324h-4.789v-2.324-6.677h-4.717v-17.905h-.679-1.717v-11.129h1.717 1.283 1.742 2.418v-9.001h4.742v-6.677h4.744v-11.128h4.742v11.129h4.765v6.677h4.766v6.776h4.72v-20.13h-4.72v-8.904h-4.766v-7.935h-4.765v-4.355-.098-4.452h4.765v-7.742h4.766v-9.001h4.72v-20.13h-4.72v6.679h-4.766v6.677h-4.765v11.226h-4.742v-11.226h-4.744v-6.677h-4.742v-8.904h-2.418-1.742-1.283-1.717v-11.129h1.717.679v-17.905h4.717v-6.774-2.227h4.789v2.227 11.226h-4.789v11.226h4.789v11.129h4.744v11.131h4.742v-11.131h4.765v-11.129h4.741v-11.226h4.744v-11.226h-4.744v-11.129h-4.741v-11.228h-4.765v-11.129h-4.742v-11.226h-4.744zm-52.333-11.129h2.349v-4.452h2.443v4.452h2.321v4.452h-2.321v4.549h-2.443v-4.549h-2.349zm0-9.001h-2.371v6.774h-2.393v8.904h2.393v6.774h2.371v6.679h7.113v-6.679h2.396v-6.774h2.324v-8.904h-2.324v-6.774h-2.396v-6.58h-7.113zm26.155 9.001h2.346v-4.452h2.421v4.452h2.346v4.452h-2.346v4.549h-2.421v-4.549h-2.346zm11.88 0h2.396v-4.452h2.396v4.452h2.346v4.452h-2.346v4.549h-2.396v-4.549h-2.396zm-11.88-9.001h-2.371v6.774h-2.396v8.904h2.396v6.774h2.371v6.679h7.113v-6.679h4.767v6.679h7.138v-6.679h2.418v-6.774h2.324v-8.904h-2.324v-6.774h-2.418v-6.58h-7.138v6.58h-4.767v-6.58h-7.113zm37.961 8.904h2.371v-4.355h2.396v4.355h2.396v4.549h-2.396v4.45h-2.396v-4.45h-2.371zm0-15.581v6.677h-2.346v6.774h-2.396v8.904h2.395v6.677h2.346v6.679h7.162v-6.679h2.371v-6.677h2.346v-8.904h-2.346v-6.774h-2.371v-6.677zm-68.88-4.452h4.764v-13.356h-4.764zm38.032 0h4.767v-13.356h-4.767zm38.057 0h4.744v-13.356h-4.744zm-57.049-31.259h4.717v-11.228h-4.717zm38.057 0h4.744v-11.228h-4.744zm-57.097-33.582h4.764v-13.357h-4.764zm38.032 0h4.767v-13.357h-4.767zm38.057 0h4.744v-13.357h-4.744zm-66.533 22.354h4.717v-11.129h4.767v-11.225h4.717v11.226h4.792v11.129h4.717v11.228h-4.718v11.129h-4.792v11.226h-4.717v-11.227h-4.767v-11.129h-4.717v-11.228zm38.035 0h4.764v-11.129h4.742v-11.225h4.744v11.226h4.742v11.129h4.765v11.228h-4.765v11.129h-4.742v11.226h-4.744v-11.227h-4.742v-11.129h-4.764zm9.506-44.711v11.228h-4.742v11.129h-4.764v11.226h-4.792v11.129h-4.767v-11.13h-4.767v-11.225h-4.717v-11.129h-4.742v-11.228h-4.767v11.228h-4.767v11.129h-4.717v11.226h-4.792v11.129h-4.764v11.228h4.764v11.129h4.792v11.226h4.717v11.226h4.767v11.129h4.717v-11.129h4.792v-11.227h4.717v-11.226h4.767v-11.129h4.767v11.129h4.792v11.226h4.717v11.226h4.789v11.129h4.744v-11.129h4.742v-11.226h4.765v-11.226h4.741v-11.129h4.744v-11.228h-4.72v-11.129h-4.765v-11.225h-4.765v-11.129h-4.742v-11.228z" fill="#ff4b55"/></svg>