<svg enable-background="new 0 0 512 512" viewBox="0 0 512 512" xmlns="http://www.w3.org/2000/svg"><path d="m0 0h512v512h-512z" fill="#41479b"/><path d="m0 93.86h512v324.28h-512z" fill="#f5f5f5"/><path d="m317.474 256 30.734-53.234h-61.469l-30.739-53.243-30.739 53.243h-61.469l30.734 53.234-30.734 53.234h61.469l30.739 53.243 30.739-53.243h61.469zm.58-35.824-10.632 18.415-10.632-18.415zm-20.683 35.824-20.683 35.824h-41.376l-20.683-35.824 20.683-35.824h41.376zm-41.371-71.656 10.636 18.422h-21.272zm-62.054 35.832h21.264l-10.632 18.415zm0 71.648 10.632-18.415 10.632 18.415zm62.054 35.832-10.636-18.422h21.272zm51.423-54.247 10.632 18.415h-21.264z" fill="#41479b"/></svg>