<svg enable-background="new 0 0 512 512" viewBox="0 0 512 512" xmlns="http://www.w3.org/2000/svg"><path d="m0 0h512v512h-512z" fill="#41479b"/><path d="m0 121.26h512v269.47h-512z" fill="#ff4b55"/><path d="m434.297 358.16v-19.103h-6.367v-12.736h-6.368v-12.736h-6.368v-12.735h-19.103v-38.207h-.002l6.37-6.367v-19.104h-6.368v-12.735h-6.368v-19.104h-6.368v-12.735h-6.367v-12.736h-6.368v-6.367h-12.736v6.367h-6.367v12.736h-6.368v12.735h-6.368v19.104h-6.368v12.735h-38.206v-19.103h-6.368v-19.103h-6.368v-19.104h-6.368v-12.735h-6.367v-12.736h-6.368v-6.367h-3.184v-6.368h-6.368v6.368h-3.184v6.367h-6.368v12.736h-6.367v12.735h-6.368v19.104h-6.368v19.103h-6.368v19.103h-38.206v-12.735h-6.368v-19.104h-6.368v-12.735h-6.368v-12.736h-6.367v-6.367h-12.736v6.367h-6.368v12.736h-6.367v12.735h-6.368v19.104h-6.368v12.735h-6.368v19.104l6.365 6.367h.003v38.207h-19.103v12.735h-6.368v12.736h-6.368v12.736h-6.367v19.103h-6.368v19.103h369.33v-19.103z" fill="#f5f5f5"/></svg>