<svg xmlns="http://www.w3.org/2000/svg" viewBox="0 0 512 512"><path fill="#3CC8FF" d="M0 0H512V512H0z"/><path d="M288.558 410.977l4.297 12.884 13.581.105c1.758.014 2.487 2.258 1.073 3.302l-10.925 8.068 4.097 12.949c.53 1.676-1.378 3.063-2.809 2.041l-11.049-7.897-11.049 7.897c-1.431 1.022-3.339-.364-2.809-2.041l4.097-12.949-10.925-8.068c-1.414-1.044-.685-3.288 1.073-3.302l13.581-.105 4.297-12.884c.555-1.668 2.914-1.668 3.47 0zm124.999-97.21l4.297 12.884 13.581.105c1.758.014 2.487 2.258 1.073 3.302l-10.925 8.068 4.097 12.949c.53 1.676-1.378 3.063-2.809 2.041l-11.049-7.897-11.049 7.897c-1.43 1.022-3.339-.364-2.809-2.041l4.097-12.949-10.925-8.068c-1.414-1.045-.685-3.288 1.073-3.302l13.581-.105 4.297-12.884c.555-1.668 2.914-1.668 3.47 0zm58.94-36.126l4.297 12.884 13.581.105c1.758.014 2.487 2.258 1.073 3.302L480.523 302l4.097 12.949c.53 1.676-1.378 3.063-2.809 2.041l-11.049-7.897-11.049 7.897c-1.43 1.022-3.339-.364-2.809-2.041L461 302l-10.925-8.068c-1.414-1.045-.685-3.288 1.073-3.302l13.581-.105 4.297-12.884c.556-1.668 2.915-1.668 3.471 0zm-14.061-123.948l4.297 12.884 13.581.105c1.758.014 2.487 2.258 1.073 3.302l-10.925 8.068 4.097 12.949c.53 1.676-1.378 3.063-2.809 2.041l-11.049-7.897-11.049 7.897c-1.43 1.022-3.339-.364-2.809-2.041l4.097-12.949-10.925-8.068c-1.414-1.045-.685-3.288 1.073-3.302l13.581-.105 4.297-12.884c.554-1.668 2.914-1.668 3.47 0zM340.811 443.174l-4.297-12.884-13.581-.105c-1.758-.014-2.487-2.258-1.073-3.302l10.925-8.068-4.097-12.949c-.53-1.676 1.378-3.063 2.809-2.041l11.049 7.897 11.049-7.897c1.43-1.022 3.339.364 2.809 2.041l-4.097 12.949 10.925 8.068c1.414 1.045.685 3.288-1.073 3.302l-13.581.105-4.297 12.884c-.555 1.668-2.914 1.668-3.47 0zm40.621-36.455l-4.297-12.884-13.581-.105c-1.758-.014-2.487-2.258-1.073-3.302l10.925-8.068-4.097-12.949c-.53-1.676 1.378-3.063 2.809-2.041l11.049 7.897 11.049-7.897c1.43-1.022 3.339.364 2.809 2.041l-4.097 12.949 10.925 8.068c1.414 1.044.685 3.288-1.073 3.302l-13.581.105-4.297 12.884c-.554 1.668-2.913 1.668-3.47 0zm36.556-159l-4.297-12.884-13.581-.105c-1.758-.014-2.487-2.258-1.073-3.302l10.925-8.068-4.097-12.949c-.53-1.676 1.378-3.063 2.809-2.041l11.049 7.897 11.049-7.897c1.43-1.022 3.339.364 2.809 2.041l-4.097 12.949 10.925 8.068c1.414 1.045.685 3.288-1.073 3.302l-13.581.105-4.297 12.884c-.554 1.668-2.914 1.668-3.47 0zm-42.184 13.541l-4.297-12.884-13.581-.105c-1.758-.014-2.487-2.258-1.073-3.302l10.925-8.068-4.097-12.949c-.53-1.676 1.378-3.063 2.809-2.041l11.049 7.897 11.049-7.897c1.431-1.022 3.339.364 2.809 2.041l-4.097 12.949 10.925 8.068c1.414 1.045.685 3.288-1.073 3.302l-13.581.105-4.297 12.884c-.555 1.668-2.914 1.668-3.47 0zm-27.008 105.184l-4.297-12.884-13.581-.105c-1.758-.014-2.487-2.258-1.073-3.302l10.925-8.068-4.097-12.949c-.53-1.676 1.378-3.063 2.809-2.041l11.049 7.897 11.049-7.897c1.431-1.022 3.339.364 2.809 2.041l-4.097 12.949 10.925 8.068c1.414 1.045.685 3.288-1.073 3.302l-13.581.105-4.297 12.884c-.554 1.668-2.913 1.668-3.47 0z" fill="#FFE15A"/><g fill="#41479B"><path d="M94.316 0L0 0 0 19.977 94.316 81.77z"/><path d="M0 68.299L0 94.316 39.71 94.316z"/><path d="M0 161.684L0 187.701 39.71 161.684z"/><path d="M256 19.977L256 0 161.684 0 161.684 81.77z"/><path d="M256 187.701L256 161.684 216.29 161.684z"/><path d="M161.684 174.23L161.684 256 256 256 256 236.023z"/><path d="M256 94.316L256 68.299 216.29 94.316z"/><path d="M0 236.023L0 256 94.316 256 94.316 174.23z"/></g><g fill="#F5F5F5"><path d="M256 236.023L256 216.059 172.232 161.684 196.98 161.684 256 199.995 256 187.701 216.29 161.684 256 161.684 256 148.21 148.211 148.21 148.211 256 161.684 256 161.684 174.23z"/><path d="M0 148.21L0 161.684 39.71 161.684 0 187.701 0 206.602 69.197 161.684 93.945 161.684 0 222.666 0 236.023 94.316 174.23 94.316 256 107.789 256 107.789 148.21z"/><path d="M107.789 0L94.316 0 94.316 81.77 0 19.977 0 41.839 80.842 94.316 56.094 94.316 0 57.904 0 68.299 39.71 94.316 0 94.316 0 107.79 107.789 107.79z"/><path d="M256 107.79L256 94.316 216.29 94.316 256 68.299 256 49.157 186.432 94.316 161.684 94.316 256 33.093 256 19.977 161.684 81.77 161.684 0 148.211 0 148.211 107.79z"/></g><g fill="#FF4B55"><path d="M256 148.21L256 107.79 148.211 107.79 148.211 0 107.789 0 107.789 107.79 0 107.79 0 148.21 107.789 148.21 107.789 256 148.211 256 148.211 148.21z"/><path d="M69.197 161.684L0 206.602 0 222.666 93.945 161.684z"/><path d="M172.232 161.684L256 216.059 256 199.995 196.98 161.684z"/><path d="M80.842 94.316L0 41.839 0 57.904 56.094 94.316z"/><path d="M186.432 94.316L256 49.157 256 33.093 161.684 94.316z"/></g></svg>