<svg enable-background="new 0 0 512 512" viewBox="0 0 512 512" xmlns="http://www.w3.org/2000/svg"><g fill="#41479b"><path d="m0 0h512v512h-512z"/><path d="m94.316 0h-94.316v19.977l94.316 61.793z"/><path d="m0 68.299v26.017h39.71z"/><path d="m0 161.684v26.017l39.71-26.017z"/><path d="m256 19.977v-19.977h-94.316v81.77z"/><path d="m256 187.701v-26.017h-39.71z"/><path d="m161.684 174.23v81.77h94.316v-19.977z"/><path d="m256 94.316v-26.017l-39.71 26.017z"/><path d="m0 236.023v19.977h94.316v-81.77z"/></g><path d="m256 236.023v-19.964l-83.768-54.375h24.748l59.02 38.311v-12.294l-39.71-26.017h39.71v-13.474h-107.789v107.79h13.473v-81.77z" fill="#f5f5f5"/><path d="m0 148.21v13.474h39.71l-39.71 26.017v18.901l69.197-44.918h24.748l-93.945 60.982v13.357l94.316-61.793v81.77h13.473v-107.79z" fill="#f5f5f5"/><path d="m107.789 0h-13.473v81.77l-94.316-61.793v21.862l80.842 52.477h-24.748l-56.094-36.412v10.395l39.71 26.017h-39.71v13.474h107.789z" fill="#f5f5f5"/><path d="m256 107.79v-13.474h-39.71l39.71-26.017v-19.142l-69.568 45.159h-24.748l94.316-61.223v-13.116l-94.316 61.793v-81.77h-13.473v107.79z" fill="#f5f5f5"/><path d="m256 148.21v-40.42h-107.789v-107.79h-40.422v107.79h-107.789v40.42h107.789v107.79h40.422v-107.79z" fill="#ff4b55"/><path d="m69.197 161.684-69.197 44.918v16.064l93.945-60.982z" fill="#ff4b55"/><path d="m172.232 161.684 83.768 54.375v-16.064l-59.02-38.311z" fill="#ff4b55"/><path d="m80.842 94.316-80.842-52.477v16.065l56.094 36.412z" fill="#ff4b55"/><path d="m186.432 94.316 69.568-45.159v-16.064l-94.316 61.223z" fill="#ff4b55"/><path d="m130.415 337.445 8.482 28 27.179-10.827c2.319-.924 4.427 1.721 3.011 3.776l-16.603 24.089 25.411 14.5c2.168 1.237 1.415 4.534-1.075 4.708l-29.185 2.038 4.507 28.907c.385 2.466-2.663 3.934-4.351 2.095l-19.791-21.547-19.79 21.547c-1.688 1.838-4.736.371-4.351-2.095l4.507-28.907-29.186-2.039c-2.49-.174-3.242-3.471-1.075-4.708l25.411-14.5-16.603-24.089c-1.416-2.055.692-4.699 3.011-3.776l27.179 10.827 8.482-28c.724-2.388 4.106-2.388 4.83.001z" fill="#f5f5f5"/><path d="m385.435 86.875 4.143 13.678 13.277-5.289c1.133-.451 2.163.84 1.471 1.844l-8.11 11.767 12.413 7.083c1.059.604.691 2.215-.525 2.3l-14.257.996 2.202 14.121c.188 1.205-1.301 1.921-2.125 1.024l-9.667-10.525-9.667 10.525c-.825.898-2.313.181-2.125-1.024l2.202-14.121-14.257-.996c-1.216-.085-1.584-1.696-.525-2.3l12.413-7.083-8.11-11.767c-.692-1.004.338-2.296 1.471-1.844l13.277 5.289 4.143-13.678c.35-1.167 2.002-1.167 2.356 0z" fill="#f5f5f5"/><path d="m293.05 212.233 4.143 13.678 13.277-5.289c1.133-.451 2.163.84 1.471 1.844l-8.11 11.767 12.413 7.083c1.059.604.691 2.215-.525 2.3l-14.257.996 2.202 14.121c.188 1.205-1.301 1.922-2.125 1.024l-9.667-10.525-9.667 10.525c-.825.898-2.313.181-2.125-1.024l2.202-14.121-14.257-.996c-1.216-.085-1.584-1.696-.525-2.3l12.413-7.083-8.11-11.767c-.692-1.004.338-2.296 1.471-1.844l13.277 5.289 4.143-13.678c.35-1.166 2.002-1.166 2.356 0z" fill="#f5f5f5"/><path d="m472.837 146.913 4.143 13.678 13.277-5.289c1.133-.451 2.163.84 1.471 1.844l-8.11 11.767 12.413 7.083c1.059.604.691 2.215-.525 2.3l-14.257.996 2.202 14.121c.188 1.205-1.301 1.921-2.125 1.024l-9.667-10.525-9.667 10.525c-.825.898-2.313.181-2.125-1.024l2.202-14.121-14.257-.996c-1.216-.085-1.584-1.696-.525-2.3l12.413-7.083-8.11-11.767c-.692-1.004.338-2.296 1.471-1.844l13.277 5.289 4.143-13.678c.35-1.167 2.002-1.167 2.356 0z" fill="#f5f5f5"/><path d="m385.435 368.074 4.143 13.678 13.277-5.289c1.133-.451 2.163.84 1.471 1.844l-8.11 11.767 12.413 7.083c1.059.604.691 2.215-.525 2.3l-14.257.996 2.202 14.121c.188 1.205-1.301 1.922-2.125 1.024l-9.667-10.525-9.667 10.525c-.825.898-2.313.181-2.125-1.024l2.202-14.121-14.257-.996c-1.216-.085-1.584-1.696-.525-2.3l12.413-7.083-8.11-11.767c-.692-1.004.338-2.296 1.471-1.844l13.277 5.289 4.143-13.678c.35-1.167 2.002-1.167 2.356 0z" fill="#f5f5f5"/><path d="m417.489 246.968-3.326 9.974-10.513.081c-1.361.011-1.926 1.748-.831 2.556l8.458 6.246-3.171 10.024c-.411 1.298 1.067 2.371 2.174 1.58l8.553-6.114 8.553 6.114c1.107.792 2.585-.282 2.174-1.58l-3.171-10.024 8.458-6.246c1.095-.809.531-2.546-.831-2.556l-10.513-.081-3.326-9.974c-.431-1.291-2.258-1.291-2.688 0z" fill="#f5f5f5"/></svg>