<svg enable-background="new 0 0 512 512" viewBox="0 0 512 512" xmlns="http://www.w3.org/2000/svg"><path d="m0 0h512v512h-512z" fill="#ff4b55"/><g fill="#ffe15a"><path d="m209.796 207.182c-.008.008-.017.013-.026.021l-196.296-207.203h-13.474v88.276l199.711 130.845c2.879-4.386 6.29-8.346 10.085-11.939z"/><path d="m189.327 262.901c-.238-2.301-.696-4.537-.696-6.901s.458-4.6.696-6.901l-.001.004-189.326-19.586v52.966l189.326-19.586z"/><path d="m245.53 189.687h-.002z"/><path d="m256 188.632c3.587 0 7.036.515 10.47 1.055l29.951-189.687h-80.842l29.951 189.687c3.434-.541 6.883-1.055 10.47-1.055z"/><path d="m266.472 189.687h-.002z"/><path d="m302.204 207.182c3.795 3.593 7.206 7.554 10.086 11.939l199.71-130.845v-88.276h-13.474l-196.297 207.202c-.008-.007-.017-.013-.025-.02z"/><path d="m312.289 292.879c-2.879 4.386-6.29 8.346-10.086 11.939.008-.007.017-.013.026-.021l196.297 207.203h13.474v-88.276z"/><path d="m322.673 249.099c.238 2.301.696 4.537.696 6.901s-.458 4.6-.696 6.901l.001-.004 189.326 19.586v-52.966l-189.326 19.585z"/><path d="m245.528 322.313h.002z"/><path d="m256 323.368c-3.587 0-7.036-.515-10.47-1.055l-29.951 189.687h80.842l-29.951-189.687c-3.434.541-6.883 1.055-10.47 1.055z"/><path d="m266.47 322.313h.002z"/><path d="m209.796 304.818c-3.795-3.593-7.206-7.553-10.086-11.939l-199.71 130.845v88.276h13.474l196.297-207.202c.008.007.017.013.025.02z"/><circle cx="256" cy="256" r="35.31"/></g></svg>