<svg enable-background="new 0 0 512 512" viewBox="0 0 512 512" xmlns="http://www.w3.org/2000/svg"><g fill="#41479b"><path d="m188.632 0h-188.632v39.954l188.632 123.586z"/><path d="m0 136.598v52.034h79.419z"/><path d="m0 323.369v52.033l79.419-52.033z"/><path d="m512 39.954v-39.954h-188.632v163.54z"/><path d="m512 375.402v-52.033h-79.419z"/><path d="m323.368 348.46v163.54h188.632v-39.954z"/><path d="m512 188.632v-52.034l-79.419 52.034z"/><path d="m0 472.046v39.954h188.632v-163.54z"/></g><path d="m512 472.046v-39.928l-167.535-108.749h49.496l118.039 76.62v-24.587l-79.419-52.033h79.419v-26.948h-215.579v215.579h26.947v-163.54z" fill="#f5f5f5"/><path d="m0 296.421v26.948h79.419l-79.419 52.033v37.801l138.395-89.834h49.496l-187.891 121.963v26.714l188.632-123.586v163.54h26.947v-215.579z" fill="#f5f5f5"/><path d="m215.579 0h-26.947v163.54l-188.632-123.586v43.725l161.684 104.953h-49.496l-112.188-72.825v20.791l79.419 52.034h-79.419v26.947h215.579z" fill="#f5f5f5"/><path d="m512 215.579v-26.947h-79.419l79.419-52.034v-38.284l-139.136 90.318h-49.496l188.632-122.447v-26.231l-188.632 123.586v-163.54h-26.947v215.579z" fill="#f5f5f5"/><path d="m512 296.421v-80.842h-215.579v-215.579h-80.842v215.579h-215.579v80.842h215.579v215.579h80.842v-215.579z" fill="#ff4b55"/><path d="m138.395 323.369-138.395 89.834v32.129l187.891-121.963z" fill="#ff4b55"/><path d="m344.465 323.369 167.535 108.749v-32.129l-118.039-76.62z" fill="#ff4b55"/><path d="m161.684 188.632-161.684-104.953v32.128l112.188 72.825z" fill="#ff4b55"/><path d="m372.864 188.632 139.136-90.318v-32.129l-188.632 122.447z" fill="#ff4b55"/></svg>