<svg xmlns="http://www.w3.org/2000/svg" xmlns:xlink="http://www.w3.org/1999/xlink" viewBox="0 0 500 500"><defs><style>.a,.aa,.ag,.ak,.ap,.aq,.ar,.as,.e,.f,.l,.n,.q,.s,.w{fill:none;}.b{isolation:isolate;}.c{opacity:0.45;}.d{fill:#d2def9;}.aa,.e,.f{stroke:#fff;}.aa,.ak,.ap,.aq,.ar,.as,.e,.s,.w{stroke-miterlimit:10;}.ar,.as,.e,.f{stroke-width:1.5px;}.ag,.f,.l,.n,.q{stroke-linejoin:round;}.g{fill:#e9f1ff;}.h{fill:#f777ba;}.i{fill:#0b0b3a;}.j{fill:#18277a;}.k{fill:#212237;}.l,.n{stroke:#cc328a;}.ag,.ak,.ap,.aq,.l,.s{stroke-width:0.75px;}.m{fill:#ff855a;}.n,.q{stroke-width:0.5px;}.o{fill:#fff;}.p{fill:#00276f;}.q{stroke:#00276f;stroke-linecap:round;}.r{fill:#ff9357;}.s{stroke:#a52f2d;}.t{fill:#83a3fc;}.u{clip-path:url(#a);}.v{opacity:0.19;mix-blend-mode:screen;}.ar,.w{stroke:#91abe5;}.aa,.w{stroke-width:11px;}.x{fill:#ffc7ca;}.y{clip-path:url(#b);}.z{opacity:0.25;}.ab{fill:#b5c8f7;}.ac{clip-path:url(#c);}.ad{fill:#9fbfff;}.ae{clip-path:url(#d);}.af{opacity:0.35;}.ag{stroke:#1a3987;}.ah{fill:#ffe1ad;}.ai{fill:#cc328a;}.aj{fill:#2a2a68;}.ak{stroke:#5565aa;}.al{fill:#2e7efa;}.am{fill:#4376cf;}.an{fill:#9cd0ff;}.ao{fill:#816fc2;}.ap{stroke:#4c3f89;}.aq{stroke:#d19b4b;}.as{stroke:#ff9c94;}</style><clipPath id="a"><path class="a" d="M328.67,293.76a2.25,2.25,0,0,0-1.92,3.66,14.83,14.83,0,0,1,3.41,10.42c-.62,8.85-9.3,15.45-19.38,14.74s-17.75-8.47-17.12-17.32a14.82,14.82,0,0,1,4.84-9.84,2.25,2.25,0,0,0-1.38-3.89l-24.5-1.73a9.3,9.3,0,0,0-9.93,8.62L261,322.13a2.25,2.25,0,0,0,3.56,2,14.73,14.73,0,0,1,9.56-2.76c8.85.63,15.44,9.31,14.73,19.39s-8.46,17.74-17.31,17.12a14.67,14.67,0,0,1-9.08-4.08,2.25,2.25,0,0,0-3.8,1.47L257,379a9.3,9.3,0,0,0,8.62,9.93l80.55,5.7a9.3,9.3,0,0,0,9.93-8.62l5.7-80.55a9.3,9.3,0,0,0-8.62-9.93Z"/></clipPath><clipPath id="b"><path class="a" d="M230.73,255.3c-8.81-1.11-14.92-10.13-13.66-20.16s9.42-17.26,18.22-16.15a14.77,14.77,0,0,1,9.32,5.09,2.25,2.25,0,0,0,3.92-1.22l3-24.08a9.3,9.3,0,0,0-8.06-10.38l-80.12-10.07A9.3,9.3,0,0,0,153,186.39l-10.07,80.12A9.3,9.3,0,0,0,151,276.9L175.46,280a2.25,2.25,0,0,0,2.1-3.56,14.86,14.86,0,0,1-2.92-10.73c1.1-8.8,10.13-14.91,20.15-13.65s17.26,9.42,16.16,18.22a14.86,14.86,0,0,1-5.49,9.66,2.25,2.25,0,0,0,1.16,4L231.1,287a9.3,9.3,0,0,0,10.38-8.07l3-24.08a2.25,2.25,0,0,0-3.5-2.14A14.73,14.73,0,0,1,230.73,255.3Z"/></clipPath><clipPath id="c"><path class="a" d="M347.28,183.19l-80.74-.84a9.31,9.31,0,0,0-9.4,9.21l-.25,23.89a2.25,2.25,0,0,1-3.7,1.71,14.65,14.65,0,0,0-9.47-3.66c-8.88-.1-16.15,8-16.26,18.13s7,18.37,15.88,18.46a14.71,14.71,0,0,0,9.55-3.46,2.24,2.24,0,0,1,3.66,1.77l-.25,23.9a9.31,9.31,0,0,0,9.21,9.4l24.7.25a2.25,2.25,0,0,1,1.6,3.82A14.87,14.87,0,0,0,287.44,296c-.1,8.87,8,16.15,18.13,16.25s18.37-7,18.46-15.87a14.86,14.86,0,0,0-4.16-10.35,2.25,2.25,0,0,1,1.68-3.78l24.7.26a9.31,9.31,0,0,0,9.4-9.21l.84-80.74A9.31,9.31,0,0,0,347.28,183.19Z"/></clipPath><clipPath id="d"><path class="a" d="M258,320.58a14.82,14.82,0,0,0-9.56,4.34,2.24,2.24,0,0,1-3.81-1.49l-1.36-24.13a9.3,9.3,0,0,0-9.8-8.77l-24.58,1.38a2.25,2.25,0,0,1-1.86-3.69,14.82,14.82,0,0,0,3.61-10.44c-.49-8.85-9.08-15.58-19.17-15s-17.86,8.2-17.37,17.06a14.84,14.84,0,0,0,4.76,10,2.25,2.25,0,0,1-1.43,3.87l-24.59,1.38a9.3,9.3,0,0,0-8.76,9.81l4.52,80.62a9.31,9.31,0,0,0,9.8,8.77l80.63-4.52a9.3,9.3,0,0,0,8.76-9.81l-1.35-24.13a2.25,2.25,0,0,1,3.62-1.91,14.76,14.76,0,0,0,10,3.24c8.86-.49,15.58-9.08,15-19.17S266.89,320.09,258,320.58Z"/></clipPath></defs><title>isopictures</title><g class="b"><g class="c"><path class="d" d="M17.31,168.77s.1,0,.12,0h55c8.65,0,11.32-.28,20,0,.09-5.32-1.39-10.34-3.94-13a9.32,9.32,0,0,0-8.63-2.64c-3.72,1-6.25,3.48-8.66,5.33-.86-7.34-3.89-14-7.15-15.48-5.6-2.52-11.46,1.47-14.09,5.33a24.08,24.08,0,0,0-3.8,10.81c-3.52-3.89-11.39-6.86-14.23-.69-1.11,2.42-1,5.2-.91,7.87A16.37,16.37,0,0,0,17.31,168.77Z"/></g><g class="c"><path class="d" d="M422.08,121.23c-1.06-4.31-11.07-10.6-16.41-6.8-1.65-8.2-3.18-13.31-8.54-17.35s-14.32,1.24-15.75,12.3c-1.43-4.55-8.74-10.67-14.62-5.51-5.43,4.78-6,12.79-5.41,17.36Z"/></g><g class="c"><path class="d" d="M491.71,178.51a10.13,10.13,0,0,0-8.48-6.68c-4.66-.51-9.39,2.16-9.39,2.16s1.75-6.73-.63-12c-1.62-3.61-4.2-7-7.79-7.9s-7.66.89-10.42,3.75-4.56,6.67-6.15,10.46c-.82-2.69-1.91-5.7-4.34-6.7s-5.41.75-6.73,3.3-1.38,5.65-1.2,8.57c-2.92-1.75-6.63-2.26-9.55-.51a7.76,7.76,0,0,0-3.48,5.58Z"/></g><path class="d" d="M154.58,270.54c-15.27-5.23-28.6-15.47-38.53-28.2s-21.13-40.65-19.2-64.21c44,13.06,61.87,53.93,64.53,78.72"/><path class="e" d="M96.85,178.13s7.24,56.71,58.12,88"/><path class="e" d="M96.85,178.13s30,53.79,62.92,86.51"/><path class="e" d="M96.85,178.13s44.32,35.2,65,83.38"/><path class="d" d="M154.73,364.22c-17.4,6.48-36.58,6.68-54.44,1.95S52.75,343,37.94,319c42.51-14.47,93.49,5.19,113.29,27"/><path class="f" d="M37.94,319S84.27,368,152,359.72"/><path class="f" d="M37.94,319S102.7,348,155.26,354.64"/><path class="f" d="M37.94,319s64.57.42,117,31.13"/><path class="g" d="M171.05,244.89c-14.73-10.94-25.22-26.74-30.9-44.09s-6.38-51.86,5.62-77.08c34.86,27.46,46,80.3,38.55,108.44"/><path class="f" d="M145.77,123.72s-15.72,64.77,27.54,116.49"/><path class="f" d="M145.77,123.72s10.74,69.31,33.5,116.46"/><path class="f" d="M145.77,123.72s34.38,53.75,37.09,113.71"/><path class="d" d="M304.49,236.76c14.86-2.83,28.59-10.55,39.49-21s25-34.9,26.32-57c-42.55,6.27-64.53,41.8-70.29,64.44"/><path class="f" d="M370.3,158.72s-14.24,51.63-65.58,73.93"/><path class="f" d="M370.3,158.72s-35,45.9-69.84,71.88"/><path class="f" d="M370.3,158.72s-45.78,26.76-71.33,68.7"/><path class="d" d="M346.08,356.76c21.73,4.13,44.55,1,65-7.43s52.73-34.08,66.41-63.44c-61.25-14.31-110.24,22.25-130.23,50"/><path class="f" d="M477.5,285.89s-47.09,62.61-128.91,65.4"/><path class="f" d="M477.5,285.89S413.05,329,347,341.1"/><path class="f" d="M477.5,285.89s-76.65,11.85-133.93,55.21"/><path class="g" d="M285.29,231c18.71-8,34.07-22.4,44.64-39.69s20.17-54.35,13.67-84.66c-44.66,20.73-70.19,74.93-69.37,107.22"/><path class="f" d="M343.6,106.62s.39,73.95-59.55,118.72"/><path class="f" d="M343.6,106.62s-29.34,72.09-66,117.16"/><path class="f" d="M343.6,106.62s-50.87,49.24-69.15,113.28"/><path class="g" d="M151.73,335.69c-10.13,1.58-27.37,3.93-36.89-2.43-5.27-3.52-6.24-10-8.3-15.74C103,307.73,95.78,302,86.18,300.29c-3.84-.67-7.91-2.39-9.75-6.07-2.74-5.46.63-12.49-1.57-18.22-1.18-3.08-3.75-5.26-5.87-7.71-5.11-5.92-6.38-14.69-6.38-14.69a24,24,0,0,0,13.11-.2c4.45-1.39,9.28-2.26,14-1.52a14,14,0,0,1,8.81,5.4c2.84,3.42,5.23,6,9.33,7.42,6.33,2.19,22-3.11,23.74,6,.47,2.47-.11,5.15,1,7.46,2.07,4.2,7.07,2.07,10.47,3.13,5.24,1.65,11,5.42,13.22,10.33,5.36,11.73,5.11,27.9,2.09,40.64"/><path class="f" d="M63.24,253.77c17.08,18.46,42.94,25.39,59.59,44.3,5,5.67,9,12.25,13.71,18.19s10.38,11.39,17.32,13.73"/><path class="f" d="M75.11,289.13A131.27,131.27,0,0,0,111,287.34S107.75,270,105,263.39"/><path class="f" d="M75.4,283.36c9.82.71,18,.13,29.5-.34"/><path class="f" d="M74,274.53a111.07,111.07,0,0,0,15.94-.74"/><path class="f" d="M65.76,263.35c.06.12,2.68.43,8.69.34"/><path class="f" d="M86.54,271.74c.07,0-3.91-12.26-7-19.27"/><path class="f" d="M102.58,281.51c-.06,0-3.94-19.49-7.77-27.62"/><path class="f" d="M94.87,303.3c.3.16,17.12,1.28,30.92-1.64"/><path class="f" d="M121.6,296.71s-1.71-20.8-4.4-31.43"/><path class="f" d="M135,278.77c2,12.82,2.22,38.27,2.22,38.27s-21.66,2.94-30.63.48"/><path class="f" d="M146.44,326.08s.77-28.81-.93-43.89"/><path class="f" d="M108.13,323.24s17.46,2.46,32.17-2.61"/><path class="f" d="M150,328.37s5-22.74,1.34-42.71"/><path class="g" d="M291.22,211.88c4.6-11.91,12.09-23.68,7.49-36.82-2.55-7.27-10.32-10.33-16.27-14.25-10.18-6.71-14.73-16.93-14-29,.3-4.83-.54-10.2-4.21-13.35-5.47-4.68-14.41-2.33-20.33-6.43-3.18-2.2-4.95-5.85-7.15-9-5.33-7.69-15-11.41-15-11.41a31.82,31.82,0,0,1-3.87,15.88c-2.81,5-5.14,10.69-5.59,16.56a17.4,17.4,0,0,0,3.7,12c3.11,4.3,5.39,7.83,5.87,13.16.74,8.23-9.66,26,.22,30.31,2.69,1.19,5.9,1.14,8.22,3.1,4.2,3.55.39,9.09.66,13.5.42,6.76,3.12,14.66,8.1,18.6,11.88,9.42,30.37,13.13,45.72,12.64"/><path class="f" d="M221.81,92.4c16.3,25.32,17,58.43,33.94,83.35,5.08,7.47,11.46,14,16.92,21.16s10.11,15.44,10.84,24.44"/><path class="f" d="M246.8,158.77s-18.83-8.29-25.6-13.31"/><path class="f" d="M252.16,114.51c-1.91,12.1-4.87,22-8.57,35.74"/><path class="f" d="M242.49,110.6a147.39,147.39,0,0,1-5.27,19.16"/><path class="f" d="M232,97.85c.12.1-.25,3.35-2,10.63"/><path class="f" d="M235.82,125.15c0,.09-12.89-7.79-20-13.3"/><path class="f" d="M242.51,147.05c0-.08-21.12-9.62-29.33-16.29"/><path class="f" d="M268,125.16c-1.84,7-5.36,25.09-15.85,43.13"/><path class="f" d="M254.55,173.92s-23.23-7.25-34.59-13.16"/><path class="f" d="M281.12,211.36s-33-6.22-49.76-12"/><path class="f" d="M288.51,164.15s-2,21.81-11.9,38.41"/><path class="g" d="M357.7,316c13.14-2.54,27.76-2.45,36.88-13.86,5-6.31,3.42-14.92,3.59-22.39.29-12.78,6.83-22.51,18-28.57,4.45-2.42,8.75-6.16,9.5-11.17,1.12-7.47-5.95-14.11-5.61-21.65.18-4.05,2.44-7.66,4-11.38,3.86-9,1.79-19.65,1.79-19.65a33.42,33.42,0,0,1-16.26,5.4c-6.05.31-12.36,1.39-17.82,4.25a18.29,18.29,0,0,0-8.63,10c-2.09,5.15-4,9.15-8.42,12.54-6.9,5.24-28.45,5.88-26.81,17.08.45,3.05,2.28,5.88,1.83,9-.81,5.72-7.86,5.41-11.62,8.11-5.78,4.14-11.28,10.94-12,17.56-1.75,15.8,5.25,34.29,14.25,47.65"/><path class="f" d="M425.16,187.79c-13.41,28.59-42.42,47.67-55.13,76.58-3.81,8.67-6,18-9.37,26.82s-8.08,17.57-15.67,23.25"/><path class="f" d="M425.17,233.58c-10.61,4.94-27.4,10.53-45,13.38,0,0-3.12-21.34-2.44-30.16"/><path class="f" d="M422.43,227.07c-11.82,5-22.21,7.9-36.52,12.29"/><path class="f" d="M420.52,216.3a154.24,154.24,0,0,1-20,6"/><path class="f" d="M426,199.9c0,.17-3.13,1.65-10.58,4.13"/><path class="f" d="M403.87,218.48c-.06.07-.26-15.79.67-25.19"/><path class="f" d="M388.14,236.62c.06-.07-3.21-24.12-1.86-35.12"/><path class="f" d="M406.67,258.37c-.3.32-20.57,8.84-38.81,11.4"/><path class="f" d="M371,262.28s-6.51-24.67-7.59-38"/><path class="f" d="M347.1,247.37c2.9,15.6,13.11,45,13.11,45s27.92-5.93,38-12.62"/><path class="f" d="M352.53,306.74s-12.88-32.81-17-50.89"/><path class="f" d="M398.58,287s-20.5,10.33-40.75,10.82"/><path class="f" d="M349.06,310.92s-15.62-24-19.34-48.57"/><path class="h" d="M304.39,262.33c1.8,3.75,9.06,19.59,10.85,23.35-5.82,1.86-11.16,4.28-16.87,6.46-2.42,3.25,3-3.18,3.24-6.71"/><path class="i" d="M316.9,290.9,313.6,292a12,12,0,0,0-.58-1.6,14.34,14.34,0,0,0-2.06.9,2.57,2.57,0,0,0-.37.94,1.66,1.66,0,0,1-1,1.16L296.44,298c-1.62.56-2.56-1.33-1.16-2.88,1.27-1.4,4-4.43,4.18-4.51,5.38-1.29,13.57-5.21,14.61-7.6C315.81,283.91,316.9,290.85,316.9,290.9Z"/><path class="h" d="M303,219.39c.3,8.56-.61,25.73.55,33,.74,4.58,9,27.37,9,27.37l-10.88,5.65A145,145,0,0,1,287,254c-3.44-11-3.71-23.2-3.71-33.2"/><path class="h" d="M331.37,244.64c3.06,2.82,15.68,14.84,18.74,17.66-4.72,3.89-8.78,8.11-13.27,12.26-1,3.92,1.59-4.06.52-7.43"/><path class="i" d="M353.58,266.53l-2.64,2.28a10.75,10.75,0,0,0-1.13-1.27,15.09,15.09,0,0,0-1.58,1.6,2.59,2.59,0,0,0,0,1,1.67,1.67,0,0,1-.55,1.47l-10.49,9.06c-1.29,1.12-2.86-.29-2.14-2.24.66-1.78,2.11-5.62,2.2-5.75,4.53-3.19,10.68-9.87,10.76-12.47C350,260.45,353.57,266.48,353.58,266.53Z"/><path class="h" d="M320.76,203.25s-.67,25.22,2.8,31.64c4.09,7.58,17.37,18.94,17.37,18.94l-3.57,13.3S318.71,256.72,309,244.21c-7.39-9.5-7.74-39.5-7.74-39.5"/><path class="j" d="M319.73,182.16c13.13,10.14,12.06,50.71,12.06,50.71s-14.61,3.84-26.53,3.84a187.12,187.12,0,0,1-24.36-1.89c.72-34.89,6.91-44,10.4-49.93"/><path class="k" d="M295.21,126.77s3,8.64,2.48,10.65-7,1.45-8.68,1.37a50.11,50.11,0,0,1,1.32-10.56"/><path class="h" d="M296.21,136.93l.7,4.81s3.49,2.25,6.43,1.06c3.1-1.25,2.93-2.94,2.93-2.94l-3.71-8.81"/><path class="h" d="M291.3,128.49c-.05,6.19,1.05,11,5.14,10.73,4.31-.33,7.51-3.87,6-8.7C300.79,125.44,291.66,124.91,291.3,128.49Z"/><path class="l" d="M296.59,139.58a7.1,7.1,0,0,0,5.76-4.32"/><polygon class="m" points="301.75 130.26 301.75 130.25 301.75 130.26 301.75 130.26"/><path class="m" d="M301.71,130.25v.06c0,.05.07.05.07,0v-.06a0,0,0,0,0-.08,0Z"/><path class="k" d="M297.73,128c-3.51.92-6,.8-8.3-.06.38-2.09,1.66-5.09,5.56-5.17a6.77,6.77,0,0,1,6.75-1.33,8.76,8.76,0,0,1,5,4.19c2,3.34,2.39,8.39,2.36,11.19a37.34,37.34,0,0,1-7.57,1.38C301.62,138.24,300.34,129.85,297.73,128Z"/><path class="h" d="M299.78,132.17a1.07,1.07,0,0,1,.55-1c.87-.52,1.69.5,1.77,1.43a2.55,2.55,0,0,1-.35,1.61c-.39.7-1.05,1-1.58.33"/><path class="n" d="M294.52,131.79s-.72,2.36-.44,2.88,1.62.21,1.62.21"/><path class="o" d="M294.45,136l3.75-.53a2.41,2.41,0,0,1-2.23,2.21C294.49,137.76,294.45,136,294.45,136Z"/><path class="p" d="M292.76,131.5a3.92,3.92,0,0,0-.05.59.4.4,0,0,0,.79,0,5.93,5.93,0,0,0-.07-.59.35.35,0,0,0-.67,0Z"/><path class="q" d="M293.78,130.4a1,1,0,0,0-1.39.23"/><path class="p" d="M297.13,131.36a2.79,2.79,0,0,0,0,.5c0,.52.84.5.79,0a4,4,0,0,0-.1-.59c-.1-.4-.64-.27-.67.09Z"/><path class="q" d="M296.67,130a1.8,1.8,0,0,1,2,.22"/><path class="h" d="M293,162.74c-11.89,16.52-36.17,31.36-36.17,31.36l-5-6.34S270,172.51,280.92,155"/><path class="h" d="M253.93,186.07c-2.23,1.94-9.69,6.54-9.53,7.12s2.81-1,2.85-.51-3.85,3.2-3.53,3.74c.45.74,4.27-2.23,4.27-2.23s-4,3.46-3.44,4c.41.38,3.61-2.12,5-2.93-1.34,1.05-3.29,3-2.86,3.4s2.64-1.27,4.41-2.45c-1,.83-2.81,2.46-2.43,2.83s6.08-3.29,11.29-6.95"/><path class="l" d="M248.21,192.62a12.42,12.42,0,0,0,4.11-.53"/><path class="r" d="M295.53,141.79c-5.19-.93-9.82,2.78-11.85,6a97,97,0,0,0-6.31,11.62l12.23,7.37,6.95-21.87"/><path class="r" d="M295.53,141.79c2.42.44,3,1.31,4.72.77a23.91,23.91,0,0,0,5.44-2.55c-2,.14,6.61,1.7,13.2,8.67,2.22,7.62,2.48,15.21,3.12,35.36a55.47,55.47,0,0,1-30.71.85s-1.87-8.79-4-15.29c-3-6-1.69-12.72,1.63-18.21C289,148.06,295.53,141.79,295.53,141.79Z"/><polygon class="o" points="305.46 137.93 299.86 142.68 303.44 146.5 307.15 140.86 305.46 137.93"/><polygon class="o" points="299.86 142.68 296.68 140.19 295.53 141.79 297.05 146.38 299.86 142.68"/><path class="s" d="M285.63,162.78c-.2-3.89,2.1-9.92,2.1-9.92"/><path class="t" d="M346.82,395.37l-.71,0-80.55-5.7a10.06,10.06,0,0,1-9.32-10.73l1.68-23.71a3,3,0,0,1,5.07-2,13.94,13.94,0,0,0,8.61,3.87l1,0h0c8.07,0,14.9-7.23,15.55-16.46.68-9.65-5.61-18-14-18.58-.32,0-.63,0-.95,0a14,14,0,0,0-8.12,2.65,3,3,0,0,1-1.74.56,3.07,3.07,0,0,1-2.22-1,3,3,0,0,1-.78-2.25l1.68-23.71A10.08,10.08,0,0,1,272,289c.24,0,.48,0,.72,0l24.5,1.73a3,3,0,0,1,2.62,2A2.93,2.93,0,0,1,299,296a14.19,14.19,0,0,0-4.61,9.34c-.59,8.43,6.78,15.84,16.43,16.52.48,0,1,.05,1.43.05h0c9.05,0,16.58-6.19,17.14-14.09a14.14,14.14,0,0,0-3.24-9.9A3,3,0,0,1,328.5,293h.22l24.5,1.73a10.06,10.06,0,0,1,9.32,10.73L356.84,386a10.08,10.08,0,0,1-10,9.34Z"/><path class="o" d="M272,289.78c.22,0,.45,0,.67,0l24.5,1.73a2.25,2.25,0,0,1,1.38,3.89,14.82,14.82,0,0,0-4.84,9.84c-.63,8.85,7,16.6,17.12,17.32.5,0,1,.05,1.49.05,9.43,0,17.3-6.38,17.89-14.79a14.83,14.83,0,0,0-3.41-10.42,2.25,2.25,0,0,1,1.75-3.66h.17l24.5,1.74a9.3,9.3,0,0,1,8.62,9.93L356.09,386a9.3,9.3,0,0,1-9.27,8.64l-.66,0-80.55-5.7A9.3,9.3,0,0,1,257,379l1.68-23.71a2.25,2.25,0,0,1,3.8-1.47,14.67,14.67,0,0,0,9.08,4.08c.33,0,.67,0,1,0,8.42,0,15.61-7.46,16.3-17.15.71-10.08-5.88-18.76-14.73-19.39l-1,0a14.78,14.78,0,0,0-8.55,2.79,2.25,2.25,0,0,1-3.56-2l1.68-23.71a9.28,9.28,0,0,1,9.26-8.64m0-1.5h0a10.83,10.83,0,0,0-10.76,10L259.51,322a3.71,3.71,0,0,0,1,2.81,3.8,3.8,0,0,0,2.76,1.2,3.75,3.75,0,0,0,2.18-.7,13.29,13.29,0,0,1,7.68-2.51q.45,0,.9,0c8,.56,14,8.54,13.34,17.78-.62,8.84-7.13,15.76-14.8,15.76-.3,0-.61,0-.91,0a13.14,13.14,0,0,1-8.15-3.67,3.76,3.76,0,0,0-6.33,2.45l-1.68,23.71a10.82,10.82,0,0,0,10,11.54l80.55,5.69.77,0a10.84,10.84,0,0,0,10.77-10l5.69-80.55a10.81,10.81,0,0,0-10-11.53l-24.5-1.73h-.27a3.75,3.75,0,0,0-2.91,6.1,13.28,13.28,0,0,1,3.08,9.38c-.54,7.51-7.74,13.39-16.4,13.39-.46,0-.93,0-1.39-.05a18,18,0,0,1-11.61-5.16,13.57,13.57,0,0,1-4.12-10.55,13.23,13.23,0,0,1,4.37-8.85,3.75,3.75,0,0,0-2.3-6.48l-24.5-1.74-.77,0Z"/><g class="u"><g class="v"><circle class="w" cx="335.09" cy="413.66" r="46.04" transform="translate(-31.23 27.38) rotate(-4.47)"/><circle class="w" cx="334.25" cy="412.58" r="29.09"/><circle class="w" cx="335.09" cy="413.66" r="15.23" transform="translate(-96.36 101.81) rotate(-15.13)"/></g></g><path class="x" d="M232.27,287.79a9,9,0,0,1-1.27-.08l-24.48-3.07a3,3,0,0,1-1.53-5.3,14.16,14.16,0,0,0,5.21-9.17c1.05-8.38-5.9-16.18-15.5-17.39a21.45,21.45,0,0,0-2.52-.16c-8.64,0-15.86,5.66-16.8,13.17A14.18,14.18,0,0,0,178.16,276a2.94,2.94,0,0,1,.26,3.12,3,3,0,0,1-2.67,1.66l-.39,0-24.48-3.08a10,10,0,0,1-8.71-11.22l10.07-80.12a10.07,10.07,0,0,1,10-8.8,10.66,10.66,0,0,1,1.26.08l80.12,10.07a10.07,10.07,0,0,1,8.72,11.23l-3,24.08a3,3,0,0,1-3,2.63,2.93,2.93,0,0,1-2.23-1,13.93,13.93,0,0,0-8.84-4.84,13.69,13.69,0,0,0-1.69-.1c-7.83,0-14.58,6.71-15.7,15.61-1.2,9.6,4.63,18.26,13,19.32a13.52,13.52,0,0,0,1.68.1,14.21,14.21,0,0,0,8.08-2.6,3,3,0,0,1,4.67,2.86l-3,24.08A10.06,10.06,0,0,1,232.27,287.79Z"/><path class="o" d="M162.2,178.25a9.46,9.46,0,0,1,1.17.08l80.12,10.07a9.3,9.3,0,0,1,8.06,10.38l-3,24.08a2.27,2.27,0,0,1-2.26,2,2.19,2.19,0,0,1-1.66-.76,14.77,14.77,0,0,0-9.32-5.09,15.32,15.32,0,0,0-1.78-.11c-8.1,0-15.27,6.92-16.44,16.26-1.26,10,4.85,19.05,13.66,20.16a13.14,13.14,0,0,0,1.77.11,15,15,0,0,0,8.51-2.73,2.18,2.18,0,0,1,1.26-.4,2.26,2.26,0,0,1,2.24,2.54l-3,24.08a9.29,9.29,0,0,1-9.21,8.14,9.18,9.18,0,0,1-1.17-.07l-24.48-3.08a2.25,2.25,0,0,1-1.16-4,14.86,14.86,0,0,0,5.49-9.66c1.1-8.8-6.13-17-16.16-18.22a21,21,0,0,0-2.61-.17c-8.94,0-16.54,5.8-17.54,13.82a14.86,14.86,0,0,0,2.92,10.73,2.25,2.25,0,0,1-1.8,3.58l-.3,0L151,276.9a9.3,9.3,0,0,1-8.07-10.39L153,186.39a9.31,9.31,0,0,1,9.22-8.14m0-1.5v0a10.82,10.82,0,0,0-10.71,9.46l-10.07,80.12a10.81,10.81,0,0,0,9.37,12.06l24.48,3.08a4,4,0,0,0,.49,0,3.76,3.76,0,0,0,3-6,13.43,13.43,0,0,1-2.65-9.65c.9-7.13,7.8-12.51,16.06-12.51a20,20,0,0,1,2.43.16c9.19,1.15,15.85,8.57,14.85,16.54a13.42,13.42,0,0,1-5,8.69,3.75,3.75,0,0,0,1.92,6.62l24.48,3.08a10.34,10.34,0,0,0,1.36.08,10.81,10.81,0,0,0,10.7-9.45L246,255a3.75,3.75,0,0,0-5.84-3.57,13.45,13.45,0,0,1-7.66,2.47,12.12,12.12,0,0,1-1.59-.1,13.55,13.55,0,0,1-9.54-6.08,18,18,0,0,1-2.81-12.4c1.07-8.52,7.5-15,14.95-15a12.12,12.12,0,0,1,1.59.1,13.21,13.21,0,0,1,8.38,4.58,3.64,3.64,0,0,0,2.79,1.28,3.76,3.76,0,0,0,3.74-3.29L253,199a10.81,10.81,0,0,0-9.37-12.06l-80.12-10.07a10.2,10.2,0,0,0-1.35-.09Z"/><g class="y"><g class="z"><circle class="aa" cx="152.68" cy="187.34" r="46.04"/><circle class="aa" cx="151.71" cy="186.38" r="31.37"/><circle class="aa" cx="152.68" cy="187.34" r="15.23"/></g></g><path class="ab" d="M305.56,313c-10.5-.11-19-7.74-18.87-17a15.68,15.68,0,0,1,4.58-10.77,1.5,1.5,0,0,0-1.07-2.55l-24.7-.25a10.06,10.06,0,0,1-9.95-10.16l.25-23.89a1.46,1.46,0,0,0-.42-1.07,1.52,1.52,0,0,0-1.09-.46,1.41,1.41,0,0,0-.93.34,15.44,15.44,0,0,1-9.88,3.63h-.15c-9.27-.1-16.73-8.72-16.62-19.22s7.67-18.88,16.86-18.88h.15a15.34,15.34,0,0,1,10,3.84,1.48,1.48,0,0,0,.95.36,1.52,1.52,0,0,0,1.51-1.5l.25-23.9a10.09,10.09,0,0,1,10.05-10l80.85.84a10.07,10.07,0,0,1,9.95,10.16l-.84,80.74a10.09,10.09,0,0,1-10,10L321.54,283a1.46,1.46,0,0,0-1.39.91,1.44,1.44,0,0,0,.27,1.61,15.7,15.7,0,0,1,4.36,10.87c-.09,9.16-8.61,16.61-19,16.61Z"/><path class="o" d="M266.44,182.35h.1l80.74.84a9.31,9.31,0,0,1,9.21,9.4l-.84,80.74a9.3,9.3,0,0,1-9.3,9.21h-.1l-24.7-.26h0a2.25,2.25,0,0,0-1.65,3.78A14.86,14.86,0,0,1,324,296.41c-.09,8.81-8.24,15.87-18.24,15.87h-.22c-10.11-.1-18.23-7.38-18.13-16.25a14.87,14.87,0,0,1,4.37-10.26,2.25,2.25,0,0,0-1.6-3.82l-24.7-.25a9.31,9.31,0,0,1-9.21-9.4l.25-23.9a2.25,2.25,0,0,0-2.26-2.28,2.13,2.13,0,0,0-1.4.51,14.74,14.74,0,0,1-9.41,3.46h-.14c-8.88-.09-16-8.36-15.88-18.46s7.3-18.14,16.11-18.14h.14a14.65,14.65,0,0,1,9.48,3.66,2.21,2.21,0,0,0,1.44.54,2.26,2.26,0,0,0,2.26-2.25l.25-23.89a9.31,9.31,0,0,1,9.3-9.21m0-1.5a10.84,10.84,0,0,0-10.8,10.69l-.25,23.9a.76.76,0,0,1-.76.76.69.69,0,0,1-.46-.18,16.11,16.11,0,0,0-10.44-4h-.16c-9.6,0-17.5,8.8-17.61,19.62s7.68,19.88,17.36,20h.16a16.17,16.17,0,0,0,10.36-3.81.69.69,0,0,1,.45-.16.75.75,0,0,1,.76.77l-.25,23.9a10.81,10.81,0,0,0,10.69,10.91l24.7.25a.73.73,0,0,1,.69.47.7.7,0,0,1-.15.8,16.16,16.16,0,0,0,.95,23.84,21,21,0,0,0,13.87,5.22h.24c10.78,0,19.64-7.78,19.74-17.36A16.44,16.44,0,0,0,321,285a.72.72,0,0,1-.14-.81.74.74,0,0,1,.69-.45l24.72.26h.11a10.84,10.84,0,0,0,10.8-10.69L358,192.6a10.82,10.82,0,0,0-10.69-10.91l-80.75-.84Z"/><g class="ac"><path class="o" d="M230,197.24a2.18,2.18,0,1,1,1.78-2.51A2.18,2.18,0,0,1,230,197.24Z"/><path class="o" d="M250.19,193.83a2.18,2.18,0,1,1,1.78-2.51A2.18,2.18,0,0,1,250.19,193.83Z"/><path class="o" d="M270.42,190.41a2.18,2.18,0,1,1,1.78-2.5A2.17,2.17,0,0,1,270.42,190.41Z"/><path class="o" d="M290.66,187a2.18,2.18,0,1,1,1.78-2.51A2.18,2.18,0,0,1,290.66,187Z"/><path class="o" d="M310.89,183.59a2.18,2.18,0,1,1,1.78-2.51A2.18,2.18,0,0,1,310.89,183.59Z"/><path class="o" d="M331.13,180.17a2.18,2.18,0,1,1,1.78-2.5A2.17,2.17,0,0,1,331.13,180.17Z"/><path class="o" d="M351.36,176.76a2.18,2.18,0,1,1,1.78-2.51A2.18,2.18,0,0,1,351.36,176.76Z"/><path class="o" d="M232.75,213.85a2.18,2.18,0,1,1,1.79-2.5A2.17,2.17,0,0,1,232.75,213.85Z"/><circle class="o" cx="252.63" cy="208.3" r="2.18" transform="translate(-31.61 45.77) rotate(-9.75)"/><path class="o" d="M273.22,207a2.18,2.18,0,1,1,1.79-2.51A2.17,2.17,0,0,1,273.22,207Z"/><path class="o" d="M293.46,203.61a2.18,2.18,0,1,1,1.78-2.5A2.17,2.17,0,0,1,293.46,203.61Z"/><path class="o" d="M313.69,200.2a2.18,2.18,0,1,1,1.79-2.51A2.17,2.17,0,0,1,313.69,200.2Z"/><path class="o" d="M333.93,196.79a2.18,2.18,0,1,1,1.78-2.51A2.18,2.18,0,0,1,333.93,196.79Z"/><path class="o" d="M354.16,193.37a2.18,2.18,0,1,1,1.79-2.5A2.16,2.16,0,0,1,354.16,193.37Z"/><path class="o" d="M235.55,230.47a2.18,2.18,0,1,1,1.79-2.51A2.17,2.17,0,0,1,235.55,230.47Z"/><path class="o" d="M255.79,227.05a2.18,2.18,0,1,1,1.78-2.5A2.17,2.17,0,0,1,255.79,227.05Z"/><path class="o" d="M276,223.64a2.18,2.18,0,1,1,1.79-2.51A2.17,2.17,0,0,1,276,223.64Z"/><path class="o" d="M296.26,220.23a2.18,2.18,0,1,1,1.78-2.51A2.18,2.18,0,0,1,296.26,220.23Z"/><path class="o" d="M316.5,216.81a2.18,2.18,0,1,1,1.78-2.5A2.17,2.17,0,0,1,316.5,216.81Z"/><path class="o" d="M336.73,213.4a2.18,2.18,0,1,1,1.78-2.51A2.18,2.18,0,0,1,336.73,213.4Z"/><path class="o" d="M357,210a2.18,2.18,0,1,1,1.78-2.51A2.18,2.18,0,0,1,357,210Z"/><path class="o" d="M238.36,247.08a2.18,2.18,0,1,1,1.78-2.51A2.18,2.18,0,0,1,238.36,247.08Z"/><path class="o" d="M258.59,243.67a2.18,2.18,0,1,1,1.79-2.51A2.18,2.18,0,0,1,258.59,243.67Z"/><path class="o" d="M278.83,240.25a2.18,2.18,0,1,1,1.78-2.5A2.17,2.17,0,0,1,278.83,240.25Z"/><path class="o" d="M299.06,236.84a2.18,2.18,0,1,1,1.79-2.51A2.18,2.18,0,0,1,299.06,236.84Z"/><path class="o" d="M319.3,233.43a2.18,2.18,0,1,1,1.78-2.51A2.18,2.18,0,0,1,319.3,233.43Z"/><path class="o" d="M339.53,230a2.18,2.18,0,0,1-.72-4.29,2.18,2.18,0,1,1,.72,4.29Z"/><path class="o" d="M359.77,226.6a2.18,2.18,0,1,1,1.78-2.51A2.18,2.18,0,0,1,359.77,226.6Z"/><path class="o" d="M241.16,263.69a2.18,2.18,0,1,1,1.78-2.5A2.17,2.17,0,0,1,241.16,263.69Z"/><path class="o" d="M261.39,260.28a2.18,2.18,0,1,1,1.79-2.51A2.17,2.17,0,0,1,261.39,260.28Z"/><path class="o" d="M281.63,256.87a2.18,2.18,0,1,1,1.78-2.51A2.18,2.18,0,0,1,281.63,256.87Z"/><path class="o" d="M301.86,253.45a2.18,2.18,0,1,1,1.79-2.5A2.16,2.16,0,0,1,301.86,253.45Z"/><path class="o" d="M322.1,250a2.18,2.18,0,1,1,1.78-2.51A2.18,2.18,0,0,1,322.1,250Z"/><path class="o" d="M342.33,246.63a2.18,2.18,0,1,1,1.79-2.51A2.17,2.17,0,0,1,342.33,246.63Z"/><path class="o" d="M362.57,243.21a2.18,2.18,0,1,1,1.78-2.5A2.17,2.17,0,0,1,362.57,243.21Z"/><path class="o" d="M244,280.31a2.18,2.18,0,1,1,1.79-2.51A2.18,2.18,0,0,1,244,280.31Z"/><path class="o" d="M264.2,276.89a2.18,2.18,0,1,1,1.78-2.5A2.17,2.17,0,0,1,264.2,276.89Z"/><path class="o" d="M284.43,273.48a2.18,2.18,0,1,1,1.79-2.51A2.18,2.18,0,0,1,284.43,273.48Z"/><path class="o" d="M304.67,270.07a2.18,2.18,0,1,1,1.78-2.51A2.18,2.18,0,0,1,304.67,270.07Z"/><path class="o" d="M324.9,266.65a2.18,2.18,0,1,1,1.79-2.5A2.17,2.17,0,0,1,324.9,266.65Z"/><path class="o" d="M345.14,263.24a2.18,2.18,0,1,1,1.78-2.51A2.18,2.18,0,0,1,345.14,263.24Z"/><path class="o" d="M365.37,259.83a2.18,2.18,0,1,1,1.79-2.51A2.18,2.18,0,0,1,365.37,259.83Z"/><path class="o" d="M246.76,296.92a2.18,2.18,0,1,1,1.79-2.51A2.17,2.17,0,0,1,246.76,296.92Z"/><path class="o" d="M267,293.51a2.18,2.18,0,1,1,1.78-2.51A2.18,2.18,0,0,1,267,293.51Z"/><path class="o" d="M287.23,290.09a2.18,2.18,0,1,1,1.79-2.5A2.17,2.17,0,0,1,287.23,290.09Z"/><path class="o" d="M307.47,286.68a2.18,2.18,0,1,1,1.78-2.51A2.18,2.18,0,0,1,307.47,286.68Z"/><path class="o" d="M327.7,283.27a2.18,2.18,0,1,1,1.79-2.51A2.17,2.17,0,0,1,327.7,283.27Z"/><path class="o" d="M347.94,279.85a2.18,2.18,0,1,1,1.78-2.5A2.17,2.17,0,0,1,347.94,279.85Z"/><path class="o" d="M368.17,276.44a2.18,2.18,0,1,1,1.79-2.51A2.17,2.17,0,0,1,368.17,276.44Z"/><path class="o" d="M249.57,313.53a2.18,2.18,0,1,1,1.78-2.5A2.18,2.18,0,0,1,249.57,313.53Z"/><path class="o" d="M269.8,310.12a2.18,2.18,0,1,1,1.78-2.51A2.18,2.18,0,0,1,269.8,310.12Z"/><path class="o" d="M290,306.71a2.18,2.18,0,1,1,1.78-2.51A2.18,2.18,0,0,1,290,306.71Z"/><path class="o" d="M310.27,303.29a2.18,2.18,0,1,1,1.79-2.5A2.18,2.18,0,0,1,310.27,303.29Z"/><path class="o" d="M330.51,299.88a2.18,2.18,0,1,1,1.78-2.51A2.18,2.18,0,0,1,330.51,299.88Z"/><path class="o" d="M350.74,296.47a2.18,2.18,0,1,1,1.79-2.51A2.18,2.18,0,0,1,350.74,296.47Z"/><path class="o" d="M371,293.05a2.18,2.18,0,1,1,1.78-2.5A2.18,2.18,0,0,1,371,293.05Z"/></g><path class="ad" d="M157.92,395a10.05,10.05,0,0,1-10-9.49l-4.52-80.62a10.07,10.07,0,0,1,9.47-10.6l24.58-1.38a1.45,1.45,0,0,0,1.33-1,1.44,1.44,0,0,0-.37-1.6,15.38,15.38,0,0,1,0-22.68A20.23,20.23,0,0,1,191.47,262l1.23,0c10,0,18.24,6.92,18.73,15.75a15.66,15.66,0,0,1-3.79,11,1.45,1.45,0,0,0-.21,1.58,1.51,1.51,0,0,0,1.36.88l24.68-1.39H234a10,10,0,0,1,10,9.48l1.36,24.14a1.5,1.5,0,0,0,1.51,1.42,1.43,1.43,0,0,0,1-.42,15.43,15.43,0,0,1,10-4.56l.85,0c9,0,16.44,7.95,17,18.1a20.32,20.32,0,0,1-4.14,13.69,15.76,15.76,0,0,1-11.58,6.27c-.29,0-.57,0-.85,0a15.54,15.54,0,0,1-9.64-3.42,1.46,1.46,0,0,0-.9-.32,1.57,1.57,0,0,0-1.11.48,1.47,1.47,0,0,0-.4,1.12l1.35,24.13a10.07,10.07,0,0,1-9.47,10.6L158.49,395Z"/><path class="o" d="M192.7,262.74c9.57,0,17.5,6.53,18,15a14.82,14.82,0,0,1-3.61,10.44,2.25,2.25,0,0,0,1.72,3.69h.14l24.58-1.38H234a9.3,9.3,0,0,1,9.27,8.78l1.36,24.13a2.26,2.26,0,0,0,2.26,2.14,2.16,2.16,0,0,0,1.55-.65,14.82,14.82,0,0,1,9.56-4.34l.8,0c8.51,0,15.71,7.61,16.26,17.39.56,10.09-6.16,18.68-15,19.17-.26,0-.53,0-.8,0a14.84,14.84,0,0,1-9.18-3.26,2.17,2.17,0,0,0-1.36-.48,2.26,2.26,0,0,0-2.26,2.39l1.35,24.13a9.3,9.3,0,0,1-8.76,9.81l-80.63,4.52h-.52a9.3,9.3,0,0,1-9.28-8.78l-4.52-80.62a9.31,9.31,0,0,1,8.77-9.81l24.58-1.38a2.25,2.25,0,0,0,1.43-3.87,14.84,14.84,0,0,1-4.76-10c-.49-8.86,7.28-16.5,17.37-17.06l1.19,0m0-1.5h0c-.42,0-.85,0-1.27,0a21.05,21.05,0,0,0-13.62,5.85,16.15,16.15,0,0,0,.06,23.77.73.73,0,0,1,.18.79.74.74,0,0,1-.67.5l-24.58,1.37a10.81,10.81,0,0,0-10.18,11.39l4.52,80.62a10.81,10.81,0,0,0,10.78,10.2l.61,0,80.62-4.52a10.81,10.81,0,0,0,10.18-11.38L248,355.71a.74.74,0,0,1,.19-.56.79.79,0,0,1,.57-.25.68.68,0,0,1,.44.16,16.29,16.29,0,0,0,10.1,3.58c.3,0,.59,0,.89,0a16.5,16.5,0,0,0,12.14-6.56,21.06,21.06,0,0,0,4.29-14.19c-.6-10.55-8.4-18.81-17.76-18.81-.3,0-.59,0-.89,0a16.15,16.15,0,0,0-10.52,4.76.72.72,0,0,1-.5.22.77.77,0,0,1-.77-.73l-1.35-24.13A10.8,10.8,0,0,0,234,289c-.21,0-.41,0-.62,0l-24.58,1.37h-.05a.73.73,0,0,1-.68-.44.7.7,0,0,1,.11-.78,16.44,16.44,0,0,0,4-11.49c-.52-9.23-9.08-16.46-19.48-16.46Z"/><g class="ae"><g class="af"><path class="o" d="M101.19,361.56a2.18,2.18,0,1,1,1.58-2.63A2.16,2.16,0,0,1,101.19,361.56Z"/><path class="o" d="M121.1,356.6a2.18,2.18,0,1,1,1.58-2.64A2.18,2.18,0,0,1,121.1,356.6Z"/><path class="o" d="M141,351.63a2.18,2.18,0,1,1,1.58-2.64A2.18,2.18,0,0,1,141,351.63Z"/><path class="o" d="M160.92,346.66A2.17,2.17,0,1,1,162.5,344,2.18,2.18,0,0,1,160.92,346.66Z"/><path class="o" d="M180.83,341.7a2.18,2.18,0,1,1,1.58-2.64A2.18,2.18,0,0,1,180.83,341.7Z"/><path class="o" d="M200.74,336.73a2.17,2.17,0,1,1,1.58-2.64A2.18,2.18,0,0,1,200.74,336.73Z"/><path class="o" d="M220.65,331.76a2.17,2.17,0,1,1,1.59-2.64A2.18,2.18,0,0,1,220.65,331.76Z"/><path class="o" d="M105.26,377.91a2.17,2.17,0,1,1,1.59-2.64A2.17,2.17,0,0,1,105.26,377.91Z"/><path class="o" d="M125.17,372.94a2.17,2.17,0,1,1,1.59-2.63A2.16,2.16,0,0,1,125.17,372.94Z"/><path class="o" d="M145.09,368a2.18,2.18,0,1,1,1.58-2.64A2.18,2.18,0,0,1,145.09,368Z"/><path class="o" d="M165,363a2.18,2.18,0,1,1,1.58-2.64A2.18,2.18,0,0,1,165,363Z"/><path class="o" d="M184.91,358a2.18,2.18,0,1,1,1.58-2.63A2.18,2.18,0,0,1,184.91,358Z"/><path class="o" d="M204.82,353.08a2.18,2.18,0,1,1,1.58-2.64A2.18,2.18,0,0,1,204.82,353.08Z"/><path class="o" d="M224.73,348.11a2.17,2.17,0,1,1,1.58-2.64A2.18,2.18,0,0,1,224.73,348.11Z"/><path class="o" d="M109.34,394.26a2.17,2.17,0,1,1,1.59-2.64A2.19,2.19,0,0,1,109.34,394.26Z"/><path class="o" d="M129.25,389.29a2.17,2.17,0,1,1,1.59-2.64A2.17,2.17,0,0,1,129.25,389.29Z"/><path class="o" d="M149.16,384.32a2.17,2.17,0,1,1,1.59-2.63A2.16,2.16,0,0,1,149.16,384.32Z"/><path class="o" d="M169.07,379.36a2.18,2.18,0,1,1,1.59-2.64A2.17,2.17,0,0,1,169.07,379.36Z"/><path class="o" d="M189,374.39a2.18,2.18,0,1,1,1.58-2.64A2.18,2.18,0,0,1,189,374.39Z"/><path class="o" d="M208.9,369.42a2.18,2.18,0,1,1,1.58-2.63A2.18,2.18,0,0,1,208.9,369.42Z"/><circle class="o" cx="228.28" cy="362.34" r="2.18"/><path class="o" d="M113.42,410.61A2.18,2.18,0,1,1,115,408,2.18,2.18,0,0,1,113.42,410.61Z"/><path class="o" d="M133.33,405.64a2.17,2.17,0,1,1,1.59-2.64A2.18,2.18,0,0,1,133.33,405.64Z"/><path class="o" d="M153.24,400.67a2.17,2.17,0,1,1,1.59-2.64A2.18,2.18,0,0,1,153.24,400.67Z"/><path class="o" d="M173.15,395.7a2.17,2.17,0,1,1,1.59-2.63A2.18,2.18,0,0,1,173.15,395.7Z"/><path class="o" d="M193.06,390.74a2.18,2.18,0,1,1,1.59-2.64A2.17,2.17,0,0,1,193.06,390.74Z"/><path class="o" d="M213,385.77a2.17,2.17,0,1,1,1.59-2.64A2.17,2.17,0,0,1,213,385.77Z"/><circle class="o" cx="232.36" cy="378.69" r="2.18"/><path class="o" d="M117.5,427a2.18,2.18,0,1,1,1.58-2.64A2.18,2.18,0,0,1,117.5,427Z"/><path class="o" d="M137.41,422a2.17,2.17,0,1,1,1.58-2.63A2.16,2.16,0,0,1,137.41,422Z"/><path class="o" d="M157.32,417a2.17,2.17,0,1,1,1.58-2.64A2.18,2.18,0,0,1,157.32,417Z"/><path class="o" d="M177.23,412.05a2.17,2.17,0,1,1,1.58-2.64A2.18,2.18,0,0,1,177.23,412.05Z"/><path class="o" d="M197.14,407.08a2.17,2.17,0,1,1,1.59-2.63A2.18,2.18,0,0,1,197.14,407.08Z"/><circle class="o" cx="216.53" cy="400.01" r="2.18"/><path class="o" d="M237,397.15a2.17,2.17,0,1,1,1.59-2.64A2.19,2.19,0,0,1,237,397.15Z"/><path class="o" d="M121.58,443.3a2.18,2.18,0,1,1,1.58-2.64A2.18,2.18,0,0,1,121.58,443.3Z"/><path class="o" d="M141.49,438.33a2.18,2.18,0,1,1,1.58-2.64A2.18,2.18,0,0,1,141.49,438.33Z"/><path class="o" d="M161.4,433.36a2.18,2.18,0,1,1,1.58-2.63A2.16,2.16,0,0,1,161.4,433.36Z"/><path class="o" d="M181.31,428.4a2.17,2.17,0,1,1,1.58-2.64A2.18,2.18,0,0,1,181.31,428.4Z"/><path class="o" d="M201.22,423.43a2.17,2.17,0,1,1,1.58-2.64A2.18,2.18,0,0,1,201.22,423.43Z"/><path class="o" d="M221.13,418.46a2.17,2.17,0,1,1,1.58-2.63A2.17,2.17,0,0,1,221.13,418.46Z"/><path class="o" d="M241,413.5a2.18,2.18,0,1,1,1.59-2.64A2.18,2.18,0,0,1,241,413.5Z"/><path class="o" d="M125.65,459.65a2.18,2.18,0,1,1,1.59-2.64A2.17,2.17,0,0,1,125.65,459.65Z"/><path class="o" d="M145.56,454.68a2.17,2.17,0,1,1,1.59-2.64A2.17,2.17,0,0,1,145.56,454.68Z"/><path class="o" d="M165.48,449.71a2.18,2.18,0,1,1,1.58-2.64A2.18,2.18,0,0,1,165.48,449.71Z"/><path class="o" d="M185.39,444.74a2.18,2.18,0,1,1,1.58-2.63A2.16,2.16,0,0,1,185.39,444.74Z"/><path class="o" d="M205.3,439.78a2.18,2.18,0,1,1,1.58-2.64A2.18,2.18,0,0,1,205.3,439.78Z"/><circle class="o" cx="224.68" cy="432.7" r="2.18"/><path class="o" d="M245.12,429.84a2.17,2.17,0,1,1,1.58-2.63A2.18,2.18,0,0,1,245.12,429.84Z"/><path class="o" d="M129.73,476a2.17,2.17,0,1,1,1.59-2.64A2.18,2.18,0,0,1,129.73,476Z"/><path class="o" d="M149.64,471a2.18,2.18,0,1,1,1.59-2.64A2.19,2.19,0,0,1,149.64,471Z"/><circle class="o" cx="169.03" cy="463.95" r="2.18"/><path class="o" d="M189.46,461.09a2.17,2.17,0,1,1,1.59-2.64A2.17,2.17,0,0,1,189.46,461.09Z"/><circle class="o" cx="208.85" cy="454.01" r="2.18"/><path class="o" d="M229.29,451.16a2.18,2.18,0,1,1,1.58-2.64A2.18,2.18,0,0,1,229.29,451.16Z"/><path class="o" d="M249.2,446.19a2.18,2.18,0,1,1,1.58-2.64A2.18,2.18,0,0,1,249.2,446.19Z"/></g></g><path class="h" d="M48.88,279.45s-.75,33.05-2.77,44.38c-2.27,12.71-21.19,38.34-21.19,38.34l4.38,4.33,6.49,3.1S52.34,353.78,61.66,334c8.09-17.16,8.45-52.8,8.45-52.8"/><path class="p" d="M44.17,380.19a3.26,3.26,0,0,0,0-2.17l-6.75-9.93c-6.45-1.19-12.07-7-12.07-7l-5.65,6.25a.5.5,0,0,0,.16.68l22.71,14.31C43.05,382.61,44.17,380.21,44.17,380.19Z"/><path class="ag" d="M39.2,369.77a13.09,13.09,0,0,0-2.72,1.37"/><path class="ag" d="M39.92,371.22a11.71,11.71,0,0,0-2.27,1.18"/><path class="ag" d="M40.59,372.36a16.06,16.06,0,0,0-2.11,1.07"/><line class="ag" x1="20.54" y1="366.32" x2="43.81" y2="380.97"/><path class="ag" d="M23.37,363.3s5.37,3.59,3.75,7.17"/><path class="ag" d="M42.8,376A20.66,20.66,0,0,0,39,378"/><path class="h" d="M73.16,293.17s1.27,19.32,2.15,34.09,2.6,48.5,2.6,48.5l6.4,1.52,7.09-1.19s1.84-29.12,1.84-48.41c0-19.95-.77-48.23-.77-48.23"/><path class="p" d="M104,381.3a3.25,3.25,0,0,0-1.15-1.84l-11-4.74c-6.08,2.46-14,.58-14,.58l-1.4,8.3a.5.5,0,0,0,.5.49l26.84-.14C104.33,384,104,381.32,104,381.3Z"/><path class="ag" d="M94.18,375.19a12.75,12.75,0,0,0-1.55,2.61"/><path class="ag" d="M95.57,376a11.5,11.5,0,0,0-1.28,2.22"/><path class="ag" d="M96.74,376.63a17.18,17.18,0,0,0-1.2,2"/><line class="ag" x1="76.59" y1="382.3" x2="104.09" y2="382.16"/><path class="ag" d="M77.36,378.24s6.45.13,7,4"/><path class="ag" d="M100.56,378.49a20.78,20.78,0,0,0-2.13,3.7"/><path class="ah" d="M72.69,183.9c-3.46-.78-6.76,1.54-8.29,3.95-.49.76-.86,1.59-1.41,2.31-3.45,4.58-17.38,3.16-14.63,12.16a15.36,15.36,0,0,1,1,3.07c.11,1.36-.6,2.62-1,3.92a8.37,8.37,0,0,0,6.06,10.09c1.93.41,4.08.14,5.74,1.19s2.26,2.84,3.36,4.31c3,4,9,4.82,13.71,3.1a7.16,7.16,0,0,0,4.34-3.45,22.46,22.46,0,0,1,1.07-3.05c1.09-1.79,3.51-2.08,5.33-3.12,2.6-1.48,4.14-5,3-7.79s-3.79-5.52-4.38-8.61c-.32-1.72.15-3.53-.2-5.24a5.59,5.59,0,0,0-2-3.26c-.7-.56-1.53-.94-2.22-1.51-1.46-1.19-1.65-3.33-3.15-4.56s-3.5-1.63-5.1-2.66"/><path class="h" d="M79,205.11c8.79-2.45,21.69-1.94,32-12.12s14.7-17.93,14.7-17.93l7.94,6.25s-10.42,20-19.7,26.7c-12.21,8.83-20.51,10.19-27.51,11.46"/><path class="h" d="M123.54,178.38c2.17-3.32,7.42-12.84,8.15-12.73s-.95,3.43-.33,3.4,3.55-5,4.25-4.67c1,.4-2.32,5.31-2.32,5.31s.85-.88,1.58-.29c.51.42-.1,1.9-.1,1.9s1-1,1.51-.53-.18,2.21-.18,2.21a1.27,1.27,0,0,1,1.24,0c.5.38-2.08,6.31-6.87,14"/><path class="l" d="M130.66,170.35a18.36,18.36,0,0,0,0,2.91,5,5,0,0,1-.35,2.87"/><path class="ai" d="M133,170.09c-.19.56-.38,1.12-.54,1.69-.07.29-.14.57-.19.86a2.16,2.16,0,0,0,0,.79s0,.08,0,.08h.05a.56.56,0,0,0,.28-.11,2.77,2.77,0,0,0,.62-.53,12.64,12.64,0,0,0,1.09-1.33.34.34,0,0,1,.48-.08.33.33,0,0,1,.1.43v0c-.27.5-.52,1-.74,1.55a6.22,6.22,0,0,0-.28.79,1.7,1.7,0,0,0-.1.68c0,.05-.06,0,0,0s.13,0,.22-.05a2.18,2.18,0,0,0,.58-.47,8,8,0,0,0,1-1.34h0a.32.32,0,0,1,.45-.1.33.33,0,0,1,.12.42c-.23.47-.47,1-.67,1.44a6.43,6.43,0,0,0-.47,1.47.62.62,0,0,0,0,.28s0,.06.14.05a1.57,1.57,0,0,0,.61-.38,9.26,9.26,0,0,0,1.07-1.18,6.76,6.76,0,0,1-.9,1.35,1.83,1.83,0,0,1-.69.55.5.5,0,0,1-.57-.2.94.94,0,0,1-.09-.5,6.32,6.32,0,0,1,.37-1.64c.18-.52.37-1,.6-1.53l.58.31a8.22,8.22,0,0,1-1.06,1.51,2.91,2.91,0,0,1-.78.63,1.07,1.07,0,0,1-.63.12.81.81,0,0,1-.42-.17.94.94,0,0,1-.2-.38,2.07,2.07,0,0,1,.12-1.06,8,8,0,0,1,.32-.86,15.14,15.14,0,0,1,.81-1.61l.58.37a11.36,11.36,0,0,1-1.24,1.36,3.79,3.79,0,0,1-.78.56,1,1,0,0,1-.57.13.48.48,0,0,1-.34-.17.6.6,0,0,1-.15-.31,3.94,3.94,0,0,1,.43-1.82A12.6,12.6,0,0,1,133,170.09Z"/><path class="ah" d="M70.64,184.6c-.42-.23-1-.16-1.32-.47A1.92,1.92,0,0,1,69,182a2.69,2.69,0,0,1,2.9-1.43c2.59.38,2.19,2.87.61,3.81"/><path class="aj" d="M56.34,247.52s-9.28,9.91-11.05,23.39-1.79,35.44-1.79,35.44,26.74,4.9,51.06-.52c-.93-11.22,0-42.61-8.49-58.31"/><path class="ak" d="M48.39,307.07s-.84-33.87,3.09-45.3c3.08-9,9.87-17.66,9.87-17.66"/><path class="al" d="M95,202.63l3.16,15.1a45.39,45.39,0,0,1-12.61,2.88c-3.45-.06-8.69-13.52-6.71-16.11C84.56,202.79,95,202.63,95,202.63Z"/><path class="al" d="M55.7,219.58s-.41,17.71.64,27.94c14.94,3.31,29.73,0,29.73,0l1-16.08c7.46-7.66.92-17.57.92-17.57l-9.23-9.37L69.55,204Z"/><path class="al" d="M69.55,204a21.9,21.9,0,0,0-16.14,5.22,27,27,0,0,0-5.86,8.26l12.8,8.43,7.54-8.43"/><path class="ag" d="M90.39,220c-.63-2.36-2.37-6.09-2.37-8.37"/><line class="ag" x1="92.53" y1="202.71" x2="96.15" y2="218.44"/><line class="ag" x1="48.66" y1="215.38" x2="57.94" y2="221.14"/><path class="h" d="M79.48,187.55s3.39,8.82.85,11.51c-1.33,1.39-5.92.62-7.64-.7-1.29-1-3-6.85-2.29-8C73,186.18,79.48,187.55,79.48,187.55Z"/><path class="h" d="M69.9,195.31,69.55,204c.69,2.18,8.06,4.26,9.24.51L78.05,198Z"/><path class="ah" d="M66,194.32a7.26,7.26,0,0,1-.36-2.58,10,10,0,0,1,.5-3.27,7.24,7.24,0,0,1,3.7-4.08c1.71-.8,5-1.57,7.61,0a4.88,4.88,0,0,1,3.78,1.16,3.79,3.79,0,0,1,1.15,3.69l-7.54-.86a7.18,7.18,0,0,1-2.65,3.38c-1.16.79-2.44,1.78-2,3.41.2.67-.53.8-.53,2.11-1.35-.15-3.35-2.08-3.67-2.87Z"/><path class="h" d="M71.05,193.91c-.8-1.24-1.56-1.13-2-.53-.61.79.3,2.65.77,3,1,.71,1.78.72,1.94-.1"/><path class="l" d="M78.26,200a9.15,9.15,0,0,1-5.57-1.68"/><path class="n" d="M77.61,192s2.17,1.88,2.12,2.47-1.41.84-1.41.84"/><path class="o" d="M79.91,195.82l-3.65,1A2.41,2.41,0,0,0,79.19,198C80.59,197.47,79.91,195.82,79.91,195.82Z"/><path class="p" d="M79.06,191.35a3.82,3.82,0,0,0,.15.48.39.39,0,1,0,.72-.31,3.62,3.62,0,0,0-.24-.43.34.34,0,0,0-.63.26Z"/><path class="q" d="M78.29,190.45a1,1,0,0,1,1.37-.35"/><path class="p" d="M75,192.9a3,3,0,0,0,.13.49c.15.49.94.25.76-.21a5.52,5.52,0,0,0-.26-.55c-.2-.35-.69-.1-.63.27Z"/><path class="q" d="M75.49,191.25a1.82,1.82,0,0,0-1.75,1"/><path class="h" d="M47.55,217.47c-4,8-6.46,19.77,2,23.34,8.77,3.73,31.77-24.43,31.77-24.43l-7.1-6.11-19,12.22"/><line class="l" x1="55.18" y1="222.49" x2="49.5" y2="226.92"/><path class="aj" d="M81.31,212.62h0a2.12,2.12,0,0,1-1.68-2.47L81.17,202l4.14.78-1.53,8.15A2.12,2.12,0,0,1,81.31,212.62Z"/><path class="am" d="M85.94,204.55l-3.34-.81a4.42,4.42,0,0,1-3.25-5.34h0a4.42,4.42,0,0,1,5.34-3.24L88,196a.37.37,0,0,1,.27.45l-1.91,7.86A.37.37,0,0,1,85.94,204.55Z"/><path class="an" d="M88.45,200.62c-.58,2.37-1.7,4.13-2.5,3.93s-1-2.27-.41-4.64,1.69-4.13,2.5-3.94S89,198.25,88.45,200.62Z"/><path class="aj" d="M96.33,212a99.46,99.46,0,0,0-9.74-7.43c-1.14-.92-.76-3.1-.44-4.29.81-3.07,1.87-3.47,1.87-3.47,4.92.34,12.64-2,12.64-2"/><path class="an" d="M96.73,202.61c-1.35,5.35-1.2,10,.33,10.39s3.86-3.64,5.21-9,1.2-10-.33-10.39S98.08,197.26,96.73,202.61Z"/><path class="am" d="M97.63,202.86c-1.14,4.52-1.13,8.43,0,8.72s3-3.15,4.15-7.67,1.13-8.43,0-8.72S98.77,198.33,97.63,202.86Z"/><path class="aj" d="M99.65,205.44a5.69,5.69,0,0,0-2.55-.06c.14-.8.31-1.65.53-2.52s.47-1.71.73-2.48a5.79,5.79,0,0,0,2.28,1.16Z"/><path class="ah" d="M99.61,203.35c-.27,1.09-.25,2,0,2.11s.75-.75,1-1.84.26-2,0-2.1S99.89,202.27,99.61,203.35Z"/><path class="h" d="M70.73,212.48a90,90,0,0,1,8.64-5.16,7.19,7.19,0,0,1,5.45.11,3.13,3.13,0,0,1,1.32.92,2.81,2.81,0,0,1,.55,1.85.44.44,0,0,1-.13.34c-.24.16-.46-.21-.61-.45a1.89,1.89,0,0,0-1.71-.88c.37,0,.53.37.68.7a.6.6,0,0,1-.38.85.84.84,0,0,1,.65.7.83.83,0,0,1-.47.83.54.54,0,0,1,.31.59,1.34,1.34,0,0,1-.32.64,15.29,15.29,0,0,1-2.27,2.28c-2.55,2.19-7.82,8.13-7.82,8.13"/><path class="h" d="M99.64,380.09l-21.42-1.6-7,.73.14,26.64a1.22,1.22,0,0,0,1.23,1.21h0a1.22,1.22,0,0,0,1.13-.79l5.46-11.88,22.33,2.68"/><path class="al" d="M71.63,408.27a3.78,3.78,0,0,0,2.1-1.32l5.42-12.6c-2.81-6.94-.66-15.93-.66-15.93L69,377.73a.56.56,0,0,0-.56.57l.15,29.76C68.6,408.68,71.6,408.28,71.63,408.27Z"/><path class="ag" d="M78.61,397.08a15,15,0,0,0-3-1.78"/><path class="ag" d="M77.66,398.67a12.71,12.71,0,0,0-2.54-1.46"/><path class="ag" d="M77,400a17.56,17.56,0,0,0-2.33-1.37"/><line class="ag" x1="70.48" y1="377.89" x2="70.65" y2="408.4"/><path class="ag" d="M75,378.17s0,7.06-4.49,7.7"/><path class="ag" d="M74.84,404.37a24.64,24.64,0,0,0-4.23-2.44"/><path class="ao" d="M137.07,336.12c.31.66,4.3,28.93,7.15,48.65,1.79,12.34,2,20.13-15.95,18.66-24.75-2-42-3.15-42-3.15l-.57-22.19,34,1.62-4.43-21.95s-8.22-11-2.16-23.51"/><line class="ap" x1="89.37" y1="378.27" x2="90.27" y2="400.28"/><path class="ap" d="M131.11,350.77l6,34.74a1.52,1.52,0,0,1-1.61,1.71l-49.6-3.05"/><path class="h" d="M162.71,377.2l-4.53,21.43-.18,7,27.55-.14a1.21,1.21,0,0,0,1.21-1.22h0a1.19,1.19,0,0,0-.78-1.13l-11.89-5.47,5.61-22.33"/><path class="al" d="M188,405.22a3.71,3.71,0,0,0-1.32-2.1l-12.6-5.43c-7,2.82-15.94.66-15.94.66l-1.6,9.49a.57.57,0,0,0,.57.57l30.68-.16C188.37,408.25,188,405.24,188,405.22Z"/><path class="ag" d="M176.78,398.23a14.58,14.58,0,0,0-1.78,3"/><path class="ag" d="M178.36,399.18a13.52,13.52,0,0,0-1.46,2.54"/><path class="ag" d="M179.7,399.88a19.91,19.91,0,0,0-1.37,2.32"/><line class="ag" x1="156.67" y1="406.36" x2="188.1" y2="406.2"/><path class="ag" d="M157.54,401.72s7.39.15,8,4.6"/><path class="ag" d="M184.07,402a23.79,23.79,0,0,0-2.44,4.22"/><path class="ao" d="M148.53,329.66l1.57,6.18a2,2,0,0,0,1.93,1.5h21.33c5.22,0,10.72.13,13.71,4.66,2.44,3.71,1.57,9.89-.46,17-1.75,6.1-7.92,33.85-7.92,33.85H156.74l6.2-33.13H137.62s-16.39.13-14.12-16.3"/><line class="ap" x1="157.33" y1="389.4" x2="179.31" y2="389.4"/><path class="ap" d="M140.62,359.7h-3s-15.7,0-15.9-16.3"/><path class="ap" d="M138.88,335s.4,18.38,15.86,18.38h11.64a2.28,2.28,0,0,1,2.23,2.74l-7.68,36.71"/><path class="ap" d="M140.39,342.58c.12.33,6.5-1.46,6.38-7.63"/><path class="ap" d="M127,345.18a26.38,26.38,0,0,0,6.38-.88"/><path class="ap" d="M110.93,345.18s3.08.09,5.43,0"/><path class="h" d="M129.66,268.37s7.59-23.56,21.73-42.53l-9.67-5.9c-15.29,16.59-25.36,44.35-25.36,44.35"/><path class="ah" d="M110.43,308.38s-3.16-29.07,8.81-53.45l14.14,4.62-3.72,18.64"/><line class="aq" x1="118.18" y1="257.67" x2="132.11" y2="262.49"/><path class="h" d="M149.36,228.56c2.28-3.49,10.55-12.5,10.15-13.26s-3.35,2.38-3.56,1.7,4-5.8,3.39-6.45c-.81-.87-4.84,4.61-4.84,4.61s4.11-6.23,3.19-6.78c-.66-.39-4,4.21-5.52,5.81,1.41-1.94,3.32-5.36,2.63-5.75s-3,2.7-5,5c1.07-1.53,2.88-4.42,2.26-4.81s-8.47,7.94-14.65,16.4"/><path class="h" d="M139,301s14.46,5.54,25.07,6.23c13.91.91,30.09-4.28,30.09-4.28s2.13-11.43-3.43-10.88c-6.86,1.25-18.73,2.12-27.65,1-5.57-.67-17.41-7-17.41-7"/><path class="h" d="M187.58,292.68c4.13-.55,15.83-4.1,16.34-3.41s-3.59,2-3.07,2.47,7-1.09,7.28-.27c.44,1.11-6.25,2.38-6.25,2.38s7.4-1,7.5,0c.07.77-5.54,1.8-7.63,2.47,2.36-.44,6.26-.68,6.32.11s-3.75,1.57-6.63,2.33c1.85-.3,5.23-.68,5.31.05s-9,3.29-17.69,5.36"/><path class="h" d="M124.05,273.7l-2,9.94s5.57,5.63,11.4.39l-.07-6.66Z"/><path class="h" d="M134.58,264.33s4.75,9.51,1.81,12.65c-1.53,1.63-3.77,2.26-5.78.73-1.5-1.13-7.24-7.94-6.45-9.23C127.21,263.54,134.58,264.33,134.58,264.33Z"/><path class="h" d="M136.48,269.69s1.75,1.75,1.75,2.9c0,.51-1.75.59-1.75.59"/><path class="o" d="M136.39,274.15l-3.08-.45C133.15,274.87,135.45,277.79,136.39,274.15Z"/><path class="p" d="M134.07,269.52a.89.89,0,0,0,.32,1c.17.13.42-.05.41-.24a2.67,2.67,0,0,0-.17-.73c-.07-.27-.51-.3-.56,0Z"/><path class="q" d="M132.66,269a2,2,0,0,1,1.47-.87,1,1,0,0,1,.72.18"/><path class="i" d="M123.06,265c.51-3.37,3.94-4.06,10.32-3.11.86.12,2.44-.32,2.77.47.43,1.05.35,3.09-.74,3.92s-2.29.34-3.36.72c-1.72.62-.87,2.27-1.78,3.49-1.52,2-.51,5-3,6.52-1.43.88-3.25.63-4.89.32a1.39,1.39,0,0,1-.57-.2c-.57-.44-.34-2-.51-2.65a20.42,20.42,0,0,1-.63-6.6C120.82,266,122.35,264.85,123.06,265Z"/><path class="h" d="M130.33,271c-.33-2-1.81-1.3-2.34-.6-.71.93.36,3.08.91,3.48,1.11.81,2.08.82,2.25-.13"/><path class="l" d="M133.31,278.72A11.74,11.74,0,0,1,129.8,277"/><path class="ah" d="M122,280.6s-8.63,3.66-11.29,17.29c-1.19,6.07,1.09,38.69,1.09,38.67,18.68,3.64,38.8-1.74,38.8-1.74s-2.3-21.27-3.35-29.28c-2.42-18.48-15.16-24.35-15.16-24.35Z"/><path class="ah" d="M132.11,281.19s7.19,1.1,11.8,3.31,15,7.25,15,7.25l-5.34,14.77-18.85-6"/><line class="aq" x1="147.07" y1="304.22" x2="136.48" y2="301.11"/><line class="aq" x1="155.68" y1="290.18" x2="150.62" y2="305.36"/><path class="aq" d="M111.64,334.25a123.45,123.45,0,0,0,38.63-1.42"/><path class="h" d="M401.63,375.27l4.53,21.43-.73,7-26.64-.14a1.23,1.23,0,0,1-1.21-1.23h0a1.21,1.21,0,0,1,.79-1.13l11.88-5.47-5.61-22.33"/><path class="j" d="M376.37,403.29a3.78,3.78,0,0,1,1.32-2.1l12.6-5.43c6.95,2.82,15.94.67,15.94.67l.69,9.49a.57.57,0,0,1-.57.56l-29.77-.16C376,406.32,376.36,403.32,376.37,403.29Z"/><path class="ak" d="M387.57,396.31a14.92,14.92,0,0,1,1.77,3"/><path class="ak" d="M386,397.26a13.16,13.16,0,0,1,1.46,2.53"/><path class="ak" d="M384.64,398a18.71,18.71,0,0,1,1.37,2.33"/><line class="ak" x1="406.76" y1="404.43" x2="376.24" y2="404.27"/><path class="ak" d="M406.48,399.89s-7.06.05-7.7,4.5"/><path class="ak" d="M380.28,400.08a23.72,23.72,0,0,1,2.43,4.23"/><path class="al" d="M392.09,297.47s-17,38.12-16.15,51.62c.84,12.57,10.37,44.41,10.37,44.41l20.44-3.74s-9.78-39.33-9.27-43.4,13-32.06,13-32.06,4.83-6.6,3.17-17.94"/><path class="ag" d="M403.33,390.38s-9.53-39.69-9-43.76,12.31-31.55,12.31-31.55"/><line class="ag" x1="405.82" y1="386" x2="385.32" y2="390.13"/><path class="h" d="M431.18,365.27l9.54,19.94,2.32,6.67-24.19,11.17a1.21,1.21,0,0,1-1.61-.6h0a1.21,1.21,0,0,1,.23-1.35l8.44-10L415,370.81"/><path class="j" d="M416.54,403.81a3.78,3.78,0,0,1,.3-2.46L426,391.09c7.49-.4,14.72-6.16,14.72-6.16l4.64,8.3a.56.56,0,0,1-.27.75l-27,12.48C417.46,406.72,416.54,403.84,416.54,403.81Z"/><path class="ak" d="M423.71,392.74a15.15,15.15,0,0,1,2.88,1.94"/><path class="ak" d="M422.68,394.27a12.8,12.8,0,0,1,2.4,1.68"/><path class="ak" d="M421.76,395.46A21,21,0,0,1,424,397"/><line class="ak" x1="444.54" y1="391.96" x2="416.84" y2="404.75"/><path class="ak" d="M442.36,388s-6.37,3-5.06,7.34"/><path class="ak" d="M418.71,399.24a23.92,23.92,0,0,1,4,2.8"/><path class="al" d="M405.56,298.62s-6.49,36-3.43,49.18c3.43,14.74,18.22,39.73,18.22,39.73l18.42-9.15S422.87,348,422.9,341.45c0-4.1,3.64-29.36,3.64-29.36s3.64-7.32.08-18.22"/><path class="ag" d="M434.53,380.48s-15.88-29.68-15.87-38.13c0-4.1,2.52-23.21,3.64-29.36s3.31-13.26.08-18.22"/><path class="ag" d="M401.35,335.57c1-10.11,2.11-23.69,3.65-35.79"/><path class="ag" d="M415.82,299.78s1.25,3.1,8,4.9"/><path class="ag" d="M402.05,300.52s-1,7.42-.42,8.4c.27.45,2.41.85,2.41.85"/><path class="ag" d="M389.52,303.43s4.09.1,6.43-2.51"/><line class="ag" x1="437.12" y1="375.17" x2="418.45" y2="384.21"/><path class="j" d="M397.76,243.43s-7.74,2.23-8.86,17.07c-1,6.09,1.48,39.94,1.48,39.91,18.76,3.24,38.75-2.57,38.75-2.57s-3.5-21.21-4.83-29.18c-3.35-20-17.18-24.25-17.18-24.25Z"/><path class="h" d="M401,243.57a103.38,103.38,0,0,0-11.67-15.95C380,217.26,366,208.55,366,208.55s-9.51,6.68-5.15,10.18c5.78,3.9,13.17,11.65,18.79,18.66,3.51,4.38,10.61,17.77,10.61,17.77"/><path class="h" d="M363.49,220.5c-3.33-2.5-14.19-8.13-14.07-9s4,1.09,3.93.38-5.75-4.09-5.4-4.9c.46-1.1,6.13,2.67,6.13,2.67s-6-4.44-5.32-5.28c.48-.59,5.22,2.59,7.18,3.57-2-1.34-5-3.89-4.45-4.5s3.78,1.5,6.37,3c-1.53-1.07-4.21-3.17-3.76-3.75s8.78,3.63,16.64,9.06"/><path class="h" d="M415.23,268.3s-7,13.84-14.34,21.49c-9.67,10-25.12,17.1-25.12,17.1s-9.27-7-4.79-10.36c5.91-3.69,15.27-11,21.14-17.84,3.66-4.25,9.51-17.54,9.51-17.54"/><path class="h" d="M373.72,294.86c-3.42,2.38-14.46,7.63-14.37,8.48s4-.95,3.94-.24-5.89,3.89-5.57,4.71c.42,1.12,6.22-2.45,6.22-2.45s-6.15,4.22-5.5,5.08c.46.61,5.3-2.4,7.3-3.31-2,1.27-5.09,3.71-4.6,4.34s3.83-1.36,6.47-2.74c-1.57,1-4.32,3-3.9,3.61s8.89-3.65,16.69-8"/><path class="j" d="M401.34,257.57c-1.94,6.51-7,17.3-7,17.3l13.89,7.32s7.16-8.74,9.87-19.25"/><path class="ak" d="M408.18,282.19s7.77-10.86,9.13-16.73"/><path class="ak" d="M394.29,274.87s5.16-10,6.25-14.86"/><path class="j" d="M388.65,264.91c-.17-5.44-2.8-16.8-10.6-27.2l12.28-9.83s10.8,8.64,13.87,16.27"/><path class="h" d="M395.34,227.75s-3.14,8.69-.35,11.51c1.45,1.47,5.74,1.73,7.56.27,1.35-1.08,3.35-7.76,2.59-8.93C402.21,226.13,395.34,227.75,395.34,227.75Z"/><path class="n" d="M397.09,231.85s-1.68,2.05-1.61,2.68,1.52.86,1.52.86"/><path class="o" d="M395.31,236l3.93,1a2.57,2.57,0,0,1-3.11,1.28C394.62,237.76,395.31,236,395.31,236Z"/><path class="p" d="M395.46,230.89a4.3,4.3,0,0,0-.24.48.39.39,0,1,0,.72.31,5.08,5.08,0,0,0,.15-.52.35.35,0,0,0-.63-.27Z"/><path class="q" d="M396.93,230.17a1,1,0,0,0-1.48-.34"/><path class="p" d="M399.89,232.46a4.23,4.23,0,0,0-.25.58c-.18.47.61.7.76.21a4.54,4.54,0,0,0,.12-.53c.06-.35-.43-.63-.63-.26Z"/><path class="q" d="M400,231a2,2,0,0,1,1.9,1"/><path class="h" d="M405.4,235.7l1.72,8.71s-6.58,4.93-10.21-.32l-.11-5.69Z"/><path class="k" d="M408.54,234.2a8.14,8.14,0,0,1,.27-.93c.26-.74.67-1.39,1-2.11a3.77,3.77,0,0,0-1.13-4.21,6.32,6.32,0,0,1-.64-.52,5.23,5.23,0,0,1-.83-1.65,2.36,2.36,0,0,0-1-1.15c-1-.55-2.39.19-3.42-.36a4.28,4.28,0,0,1-.61-.44c-1.48-1.11-3.15-.85-4.76-.27a5.08,5.08,0,0,0-1.62,1.05c-.69.53-1.64.5-2.32,1a3,3,0,0,0-.91,2.46,2.09,2.09,0,0,0,.15,1,1.86,1.86,0,0,0,.92.83,6,6,0,0,0,2.94.18c.95-.07,2.06-.74,3-.4s1.14,1.46,2.26,1.55c.44,0,1-.05,1.25.31s.14,1.06.37,1.53a10.55,10.55,0,0,0,.9,1.24c.56.8,1.37,1.35,1.08,2.4-.2.73-1,1.91-.68,2.68.23.51,1.35.5,2.2-.15a4.81,4.81,0,0,0,1.34-2.94C408.38,234.91,408.45,234.55,408.54,234.2Z"/><path class="h" d="M404.53,234.38c.83-1.35,1.64-1.25,2.14-.62.68.84-.25,2.85-.75,3.23-1,.78-1.89.81-2.08-.06"/><path class="l" d="M397.14,240.57a12,12,0,0,0,5.73-1.39"/><path class="ak" d="M388.5,262.91s.2-8.5-.77-11.09"/><path class="ak" d="M396.07,245.65s1.54,2.68,5.72,2.59a8.1,8.1,0,0,0,6.7-3.28"/><path class="h" d="M313.83,200.66c-.47,4-3.45,13.33-2.87,13.71s2-3.2,2.4-2.81-1.15,5.81-.46,6c.94.32,2.18-5,2.18-5s-1,5.9-.12,6c.64,0,1.71-4.23,2.22-5.87-.3,1.85-.76,4.77-.1,4.79s1.4-2.49,2-4.76c-.21,1.45-.88,4.31-.27,4.37s2.83-6.46,4.24-14.58"/><path class="h" d="M325.56,159.84c2.89,21.22-3.43,46.72-3.43,46.72l-8.77-1.88s3.29-23-.41-43.25"/><path class="r" d="M307.09,140.93a19.74,19.74,0,0,1,12.28,4.34c5.85,4.58,7.32,15.17,7.32,15.17l-13.83,2.77s-.73-8.93-.84-12"/><path class="s" d="M312.36,163.21a39.64,39.64,0,0,0-1.7-7.78"/><rect class="ar" x="401.32" y="136.62" width="17.43" height="17.43" transform="matrix(0.26, 0.96, -0.96, 0.26, 442.59, -288.47)"/><rect class="ar" x="19.08" y="330.86" width="8.57" height="8.57" transform="translate(358.8 353.85) rotate(97.18)"/><circle class="as" cx="448.5" cy="345.83" r="6.9" transform="translate(42.2 740.39) rotate(-81.79)"/><path class="ar" d="M177.84,110.07a3.45,3.45,0,1,1-3.44-3.45A3.45,3.45,0,0,1,177.84,110.07Z"/><path class="ar" d="M463.48,261.9a3.45,3.45,0,1,1-3.45-3.45A3.44,3.44,0,0,1,463.48,261.9Z"/><path class="ar" d="M466.93,333a3.45,3.45,0,1,1-3.45-3.45A3.46,3.46,0,0,1,466.93,333Z"/><path class="as" d="M15.19,308a3.45,3.45,0,1,1-3.45-3.45A3.45,3.45,0,0,1,15.19,308Z"/><path class="ar" d="M98.48,122.79l.37,2.29a2.06,2.06,0,0,0,2.08,1.74l1.53,0a2.06,2.06,0,0,1,2.08,1.74l.24,1.5a2.06,2.06,0,0,0,2.08,1.74l1.53,0a2.06,2.06,0,0,1,2.08,1.74l.24,1.51a2.08,2.08,0,0,0,2.09,1.74l1.8,0"/><path class="ar" d="M32.4,273.5l-.72-2.21a2.07,2.07,0,0,0-2.32-1.4l-1.5.27a2.07,2.07,0,0,1-2.33-1.4l-.47-1.45a2.07,2.07,0,0,0-2.32-1.4l-1.51.27a2.07,2.07,0,0,1-2.32-1.4l-.47-1.45a2.07,2.07,0,0,0-2.33-1.4l-1.77.31"/><path class="ar" d="M385.74,182.2l2.31-.19a2.07,2.07,0,0,0,1.89-1.95l.08-1.52a2.06,2.06,0,0,1,1.89-1.95l1.51-.13a2.06,2.06,0,0,0,1.89-2l.08-1.53a2.07,2.07,0,0,1,1.89-1.95l1.52-.13a2.07,2.07,0,0,0,1.89-2l.09-1.8"/><path class="ar" d="M457.19,215.69l-2.21.71a2.08,2.08,0,0,0-1.41,2.32l.26,1.5a2.05,2.05,0,0,1-1.41,2.32L451,223a2.05,2.05,0,0,0-1.41,2.32l.26,1.5a2.06,2.06,0,0,1-1.41,2.32l-1.45.47a2.07,2.07,0,0,0-1.41,2.32l.31,1.78"/><path class="ar" d="M469.76,316.25l1.92,1.3a2.07,2.07,0,0,0,2.7-.34l1-1.13a2.07,2.07,0,0,1,2.7-.33l1.26.85a2.07,2.07,0,0,0,2.69-.34l1-1.13a2.07,2.07,0,0,1,2.69-.34l1.27.85a2.05,2.05,0,0,0,2.69-.33l1.21-1.34"/><line class="as" x1="449.58" y1="244.15" x2="441.61" y2="249.06"/><line class="as" x1="369.14" y1="140.81" x2="361.82" y2="146.65"/><line class="as" x1="206.25" y1="154.35" x2="197.14" y2="152.21"/><line class="as" x1="33.57" y1="194.01" x2="26.64" y2="187.72"/></g></svg>