<svg xmlns="http://www.w3.org/2000/svg" xmlns:xlink="http://www.w3.org/1999/xlink" viewBox="0 0 500 500"><defs><style>.a{isolation:isolate;}.b{fill:#193161;}.aa,.ab,.ac,.ad,.ae,.af,.ag,.ah,.ai,.aj,.ak,.al,.am,.an,.ao,.ap,.aq,.ar,.as,.at,.au,.av,.aw,.ax,.ay,.az,.b,.ba,.bb,.bc,.bd,.be,.bf,.bg,.bh,.bi,.bj,.bk,.bl,.bm,.bn,.bo,.bp,.bq,.br,.bs,.bt,.bu,.bv,.bw,.bx,.by,.bz,.c,.ca,.cb,.cc,.cd,.ce,.d,.e,.f,.g,.h,.i,.j,.k,.l,.m,.n,.o,.p,.q,.r,.s,.t,.u,.v,.w,.x,.y,.z{fill-rule:evenodd;}.c{fill:url(#a);}.d{fill:#1e2353;}.av,.d{opacity:0.3;}.bh,.bl,.d,.k,.m{mix-blend-mode:multiply;}.e{fill:url(#b);}.f{fill:url(#c);}.g{fill:#ffa698;}.h{fill:url(#d);}.i{fill:#ff8d7c;}.j{fill:url(#e);}.k{fill:#3469c0;}.k,.m{opacity:0.35;}.l{fill:url(#f);}.m{fill:url(#g);}.n{fill:#70b4f5;}.o{fill:#ff8978;}.p{fill:url(#h);}.q{fill:url(#i);}.r{fill:url(#j);}.s{fill:#562e65;}.t{fill:url(#k);}.u{fill:url(#l);}.v{fill:url(#m);}.w{fill:#00cedc;}.x{fill:url(#n);}.y{fill:#3e4794;}.z{fill:#1c236c;}.aa{fill:url(#o);}.ab{fill:#22043d;}.ac{fill:url(#p);}.ad{fill:url(#q);}.ae{fill:#7e41df;}.ae,.ar,.as,.at,.bf,.bl,.bs,.bt,.bu,.bv,.bw,.bx,.by,.bz,.ca,.cb{opacity:0.5;}.af{fill:url(#r);}.ag{fill:url(#s);}.ah{fill:#273087;}.ai{fill:url(#t);}.aj{fill:url(#u);}.ak{fill:url(#v);}.al{fill:url(#w);}.am{fill:url(#x);}.an{fill:#ff8f7f;}.ao{fill:url(#y);}.ap{fill:url(#z);}.aq{fill:url(#aa);}.ar{fill:url(#ab);}.as{fill:url(#ac);}.at{fill:url(#ad);}.au,.av,.aw,.ay,.bo,.bv{fill:#fff;}.au{opacity:0.4;}.aw{opacity:0.2;}.ax{fill:url(#ae);}.az{fill:url(#af);}.ba{fill:#783fd3;}.bb{fill:#864de2;}.bc,.bh,.bl{fill:#d0e7ff;}.bd{fill:#ecf5ff;}.be,.bf{fill:#22d2fb;}.bg{fill:#12a3eb;}.bh{opacity:0.8;}.bi{fill:url(#ag);}.bj{fill:#d477e4;}.bk{fill:url(#ah);}.bm{fill:#4a9ff8;}.bn{fill:url(#ai);}.bo{opacity:0.7;}.bp{fill:url(#aj);}.bq{fill:#86e4fd;}.br{fill:url(#ak);}.bs{fill:url(#al);}.bt{fill:url(#am);}.bu{fill:url(#an);}.bw{fill:url(#ao);}.bx{fill:url(#ap);}.by{fill:url(#aq);}.bz{fill:url(#ar);}.ca{fill:url(#as);}.cb{fill:url(#at);}.cc,.cd,.ce{opacity:0.15;}.cc{fill:url(#au);}.cd{fill:url(#av);}.ce{fill:url(#aw);}</style><linearGradient id="a" x1="150.61" y1="314.69" x2="106.89" y2="379.7" gradientUnits="userSpaceOnUse"><stop offset="0" stop-color="#235da3"/><stop offset="1" stop-color="#123a76"/></linearGradient><linearGradient id="b" x1="144.02" y1="318.93" x2="93.27" y2="350.4" xlink:href="#a"/><linearGradient id="c" x1="189.35" y1="244.99" x2="187.89" y2="246.99" gradientUnits="userSpaceOnUse"><stop offset="0" stop-color="#ff8a78"/><stop offset="1" stop-color="#ffa799"/></linearGradient><linearGradient id="d" x1="197.29" y1="238.75" x2="194.8" y2="242.93" xlink:href="#c"/><linearGradient id="e" x1="161.05" y1="235.42" x2="171.67" y2="263.12" gradientUnits="userSpaceOnUse"><stop offset="0" stop-color="#6d6afe"/><stop offset="1" stop-color="#3fb0f7"/></linearGradient><linearGradient id="f" x1="130.3" y1="244.97" x2="141.16" y2="300.64" xlink:href="#e"/><linearGradient id="g" x1="113.91" y1="262.23" x2="148.52" y2="292.57" xlink:href="#e"/><linearGradient id="h" x1="115.02" y1="259.95" x2="160.39" y2="281.29" xlink:href="#e"/><linearGradient id="i" x1="135.93" y1="228.74" x2="132.73" y2="232.33" xlink:href="#c"/><linearGradient id="j" x1="146.69" y1="218.2" x2="142.73" y2="227.99" gradientUnits="userSpaceOnUse"><stop offset="0" stop-color="#ffb89e"/><stop offset="1" stop-color="#ffa799"/></linearGradient><linearGradient id="k" x1="148.66" y1="210.78" x2="145.74" y2="207.97" gradientUnits="userSpaceOnUse"><stop offset="0" stop-color="#8a4791"/><stop offset="1" stop-color="#562e65"/></linearGradient><linearGradient id="l" x1="155.05" y1="217.12" x2="137.72" y2="225.05" gradientUnits="userSpaceOnUse"><stop offset="0" stop-color="#3e4795"/><stop offset="1" stop-color="#273088"/></linearGradient><linearGradient id="m" x1="147.18" y1="223.18" x2="146.77" y2="218.1" gradientUnits="userSpaceOnUse"><stop offset="0" stop-color="#1c8ef4"/><stop offset="1" stop-color="#00cfdd"/></linearGradient><linearGradient id="n" x1="149.72" y1="224.84" x2="150.36" y2="226.48" xlink:href="#m"/><linearGradient id="o" x1="402.32" y1="154.68" x2="408.19" y2="201.64" gradientUnits="userSpaceOnUse"><stop offset="0" stop-color="#5a2d68"/><stop offset="1" stop-color="#22043d"/></linearGradient><linearGradient id="p" x1="341.16" y1="175.95" x2="337" y2="177.24" xlink:href="#c"/><linearGradient id="q" x1="342.3" y1="187.51" x2="373.99" y2="173.99" gradientUnits="userSpaceOnUse"><stop offset="0" stop-color="#965cf2"/><stop offset="1" stop-color="#ff8adc"/></linearGradient><linearGradient id="r" x1="344.92" y1="240.56" x2="354.01" y2="260.03" xlink:href="#l"/><linearGradient id="s" x1="381.35" y1="227.39" x2="387.95" y2="191.88" xlink:href="#q"/><linearGradient id="t" x1="348.01" y1="257.3" x2="352.06" y2="265.32" xlink:href="#l"/><linearGradient id="u" x1="355.25" y1="198.43" x2="356.71" y2="197.31" xlink:href="#c"/><linearGradient id="v" x1="380.94" y1="216.21" x2="386.82" y2="187.12" xlink:href="#q"/><linearGradient id="w" x1="389.07" y1="180.71" x2="388.95" y2="184.9" xlink:href="#c"/><linearGradient id="x" x1="381.22" y1="167.21" x2="384.16" y2="175.9" xlink:href="#j"/><linearGradient id="y" x1="379.33" y1="166.29" x2="389.89" y2="175.77" xlink:href="#l"/><linearGradient id="z" x1="384.68" y1="171.69" x2="385.35" y2="168.96" xlink:href="#m"/><linearGradient id="aa" x1="382.41" y1="173.09" x2="381.93" y2="173.85" xlink:href="#m"/><linearGradient id="ab" x1="311.19" y1="162.95" x2="296.09" y2="126.77" xlink:href="#e"/><linearGradient id="ac" x1="423.9" y1="237.68" x2="284.03" y2="188.71" xlink:href="#e"/><linearGradient id="ad" x1="349.17" y1="229.36" x2="358.85" y2="192.87" xlink:href="#m"/><linearGradient id="ae" x1="360.24" y1="105.83" x2="351.05" y2="121.35" gradientUnits="userSpaceOnUse"><stop offset="0" stop-color="#edf6ff"/><stop offset="1" stop-color="#d1e8ff"/></linearGradient><linearGradient id="af" x1="251.43" y1="341.54" x2="241.44" y2="324.16" xlink:href="#q"/><linearGradient id="ag" x1="242.36" y1="369.17" x2="293.29" y2="334.83" xlink:href="#q"/><linearGradient id="ah" x1="205.97" y1="110.09" x2="226.06" y2="131.2" xlink:href="#ae"/><linearGradient id="ai" x1="233.09" y1="125.49" x2="253.18" y2="146.6" xlink:href="#ae"/><linearGradient id="aj" x1="260.81" y1="141.11" x2="280.9" y2="162.22" xlink:href="#ae"/><linearGradient id="ak" x1="84.23" y1="207.18" x2="94.13" y2="218.92" xlink:href="#ae"/><linearGradient id="al" x1="188.12" y1="286.75" x2="237.57" y2="201.99" xlink:href="#q"/><linearGradient id="am" x1="139.14" y1="347.38" x2="145.21" y2="269.62" xlink:href="#m"/><linearGradient id="an" x1="203.7" y1="285.34" x2="91.42" y2="253.11" xlink:href="#e"/><linearGradient id="ao" x1="331.05" y1="371.22" x2="450.73" y2="301.65" gradientTransform="matrix(1, 0, 0, 1, -0.46, 0.46)" xlink:href="#m"/><linearGradient id="ap" x1="307.42" y1="258.56" x2="150.26" y2="348.73" gradientTransform="matrix(1, 0, 0, 1, -0.46, 0.46)" xlink:href="#e"/><linearGradient id="aq" x1="344.2" y1="393.57" x2="187.38" y2="483.53" gradientTransform="matrix(1, 0, 0, 1, -0.46, 0.46)" xlink:href="#e"/><linearGradient id="ar" x1="418.86" y1="69.25" x2="530.5" y2="7.87" gradientTransform="matrix(1, 0, 0, 1, -0.46, 0.46)" gradientUnits="userSpaceOnUse"><stop offset="0" stop-color="#fa5db1"/><stop offset="1" stop-color="#febfbf"/></linearGradient><linearGradient id="as" x1="28.22" y1="485.08" x2="147.9" y2="415.52" gradientTransform="matrix(1, 0, 0, 1, -0.46, 0.46)" xlink:href="#m"/><linearGradient id="at" x1="351.24" y1="60.76" x2="347.88" y2="48.15" gradientTransform="matrix(1, 0, 0, 1, -0.46, 0.46)" xlink:href="#q"/><linearGradient id="au" x1="442.95" y1="367.86" x2="444.93" y2="346.47" gradientTransform="matrix(1, 0, 0, 1, -0.46, 0.46)" xlink:href="#m"/><linearGradient id="av" x1="152.55" y1="461.39" x2="169.49" y2="439.56" gradientTransform="matrix(1, 0, 0, 1, -0.46, 0.46)" xlink:href="#e"/><linearGradient id="aw" x1="116.58" y1="51.49" x2="103.91" y2="76.95" xlink:href="#ar"/></defs><title>isopictures</title><g class="a"><path class="b" d="M105.12,396.5c-2.46,1.13-3.67,1.47-6.19,3.89-.9,1.69-.47,3.1-.31,5l.59.85c.9,2.7-1.84,6.7-1.66,9.85.12,2.22,2,5.06,3.92,7.75,2.1,2.87,5.26,4.44,6.55,1.88,2.91-5.79,1.74-16.39,5.51-22.39C113.6,403.22,106.07,397.29,105.12,396.5Z"/><path class="c" d="M154,359.26l0,.1a10.32,10.32,0,0,1-1.56,3.44c-8.55,9.93-32.5,33.07-40.38,43.27-4.93-.29-8.84-4-8.39-8,6.48-10,18.64-28.79,22.67-33.9a62.11,62.11,0,0,1,10.25-9.53C133.17,340.37,127,320.11,128,308c.53-6,4-12.75,4.89-17.74,4.81,5.06,16.84,4.81,22.79,2.64l0,8.42-.81,4.21a46.43,46.43,0,0,0,.37,8.05C156.43,326.34,156.82,342.35,154,359.26Z"/><path class="d" d="M143.19,357.31c-5.41,5.75-13.12,11.55-32.38,29.65,6-9.18,12.67-19.27,15.45-22.8a62.11,62.11,0,0,1,10.25-9.53C133.17,340.37,127,320.11,128,308L146,305.78C143.87,322.43,146.05,340.4,143.19,357.31Z"/><path class="b" d="M80.73,330.51a14,14,0,0,0-5.42-.08c-1.71.84-2.19,2.24-3.17,3.86v1c-.85,2.7-5.41,4.36-7.1,7-1.2,1.88-1.37,5.26-1.35,8.58,0,3.56,1.87,7,4.22,5.36,3.76-2.62,7.72-7.71,12-11.4C85.3,340.32,87.7,331.86,80.73,330.51Z"/><path class="e" d="M113.87,367.4a8.41,8.41,0,0,1-1.28-.63C102,359.56,89,349.88,77.84,343.05c-4-2.44-.47-14.58,7.17-10.84,8,3.92,13.9,6.13,19,7.19a50,50,0,0,1,8.22,2.35c.54-15.81.41-23.38,4.31-32.77,2.24-5.4,7.23-10.34,9.47-14.76,2.09,4,5.37,9.75,13.58,9.87.8,0,8.05-4.18,10.34-4.52-4.49,16.83-14.82,38.39-20.61,56.66-.62,2.54-2.8,8.72-4.81,10.54A8.72,8.72,0,0,1,113.87,367.4Z"/><path class="d" d="M113.87,367.4c-.41-.19-.84-.4-1.28-.63-7.42-15.11-3.69-19-27.58-34.56,8,3.92,13.9,6.13,19,7.19a50,50,0,0,1,8.22,2.35c-.11,3.19-.25,6.72-.45,10.67-.27,5.26-2.22,11.33,1.75,14.7Z"/><path class="f" d="M189.52,249.4a21.75,21.75,0,0,1,5.15-3.94,32.42,32.42,0,0,0-2.27-3.11c-.13-.29-.34-1.35-.57-1.53a28.6,28.6,0,0,1-1.56-3,42,42,0,0,1-5.25,5.37C184.19,245.43,186.43,249.29,189.52,249.4Z"/><path class="g" d="M202.22,237.29l-1.72-5.13L197.72,234c.24-.69.86-2.61,1.47-4.53.77-2.42,1.81-4.41.22-4.9-1.41-.44-2,1.24-2.77,3.35a44.5,44.5,0,0,1-2.77,6.23c-.94,1.69-2.45,2.56-3.27,3.43a9.26,9.26,0,0,0-2.18,3.4,4.31,4.31,0,0,0,.54,3.9c.67.92,1.61.83,2.87,1.27a4.24,4.24,0,0,0,3.65,0C196.91,245.62,201,238.55,202.22,237.29Z"/><path class="h" d="M203.47,238.63l-3-6.47L197.72,234c.24-.69.86-2.61,1.47-4.53.74-2.34,1.74-4.27.37-4.85.63,1.26-1.56,7.09-2.49,9.38a19.56,19.56,0,0,1-2.6,5.33c-1.75,2.33-2.56,3.21-1.77,4.52.66,1.08,1.49.56,2.57,1.78l.32.5C198.52,244.13,199.08,240.63,203.47,238.63Z"/><path class="g" d="M188.4,241.05a22.4,22.4,0,0,1,1.92-4.86c.34-.56,2.32-1.3,4.71-3.66,1.94,2.29-.85,3.47-2.1,5.72-.53,1-.12,3.9-2.15,5.15C189.33,244.29,188.05,242.64,188.4,241.05Z"/><path class="i" d="M191.59,237.41c.35-.55,3.77-2.43,3.44-4.88,1.94,2.29-1.12,3.69-2.52,5.54-.67.88.3,4.08-1.73,5.33A10.13,10.13,0,0,0,191.59,237.41Z"/><path class="i" d="M200.68,232.17s.08-.16.38-.09c.82.19,2.58.78,3.66,1.07,1.47.39,1.46.53,1.65,1.68v2.23c0,1.44-.12,1.31-1,2.62-.5.76-1,1.2-1.48,1.25a20,20,0,0,1-4.37-1c-.2-.17,1.9-1.09,2.25-3.08C202.11,235.07,200.67,232.17,200.68,232.17Z"/><path class="g" d="M200.49,232.08a1.75,1.75,0,0,1,1.26.28c.36.23.5,1.39.56,2.57.09,1.72.34,2.19-.54,3.65s-1.68,2-2.67,1.13c-.38-.33.16-1,.54-2.86l-.31-1.27c-.58-.12-2.42,1-3.74,1.86-.5,0,.48-2.93,1.5-4C198.16,233,199.4,232.51,200.49,232.08Z"/><path class="j" d="M169.81,270.1c7.88-4.08,12.7-12.08,18.79-18.75.66-.72.75-1.6,1.46-2.28.45-.44.92-.87,1.4-1.29a10.39,10.39,0,0,1-4-7.06,13.72,13.72,0,0,1-1.84,1.65c-.82.6-1.17.34-2.85,1.4-3.62,2.28-15.18,9.77-17.5,12.71-2.86-4.74-5.48-10.3-9.52-16.16-6-12.5-12.27-11.59-16-8.64-2.92,2.29-4.12,5.92-.47,13.63,3.12,6.61,10.83,16.9,19.2,25.16,1.47,1.22,4.57,2.57,7.08,1.76A35.88,35.88,0,0,0,169.81,270.1Z"/><path class="k" d="M160.17,266.46c1.43,2.39,3.9,4.46,11.49,2.58-3.23,1.85-5.07,3-6.31,3.27a7.56,7.56,0,0,1-6.87-1.84c-8.37-8.26-16.08-18.55-19.2-25.16-3.65-7.71-2.45-11.34.47-13.63,3.76-3,10-3.86,16,8.64C160.05,252.21,156.35,261,160.17,266.46Z"/><path class="l" d="M145.07,230.49a7.12,7.12,0,0,1,2.56.86c6.08,3.38,8.2,13.32,9.17,22,.85,7.55.21,13.82,0,20.73-.19,5.51.52,10.61.27,15.83-.07,1.55-.66,3.22-.82,4.87,0,1.17-.41,2.35-.4,3.25-3,11.61-31.82,12.57-36,4.71a22.36,22.36,0,0,0,.74-3.51c-2.71-2.47-1.14-8.48-1.57-12.68a33.7,33.7,0,0,0-1.71-8.68c-3.91-9.64-9.37-17.06-10.46-24.46-.75-5.09,5.77-11.44,14.36-16.58C129.43,231.9,140.65,229.2,145.07,230.49Z"/><path class="m" d="M157.18,264.36c-.09,3.24-.3,6.42-.41,9.74-.14,3.91.18,7.61.29,11.29-12.55,6.54-20.53,9-28.81,2.32.41,7.28-1.9,11.76-1.1,16,12.6,2.17,20.85-.05,28.5-5.12-3.84,11.06-31.72,11.86-35.84,4.13a22.36,22.36,0,0,0,.74-3.51c-2.71-2.47-1.14-8.48-1.57-12.68a33.7,33.7,0,0,0-1.71-8.68c-3.91-9.64-9.37-17.06-10.46-24.46a7.7,7.7,0,0,1,1.17-4.89c6.84-7.08,11.86-4.39,33.34,21.86A101.16,101.16,0,0,0,157.18,264.36Z"/><path class="n" d="M156.83,253.64c-3.05,3.1-21.88,21.09-42.73,16.46l.21-1.41c22,4.87,41.82-16.48,41.88-16.54l.53.51c0,.24.06.48.08.71Z"/><path class="n" d="M157.17,264.81C152,269.66,136,283,118.05,280.43c-.12-.53-.26-1-.41-1.52,19.1,3.11,36.22-12.87,39.58-16.24C157.21,263.39,157.19,264.1,157.17,264.81Z"/><path class="n" d="M117.16,277.63l3.71-7.71,5,8.38,4.27-10.2L136,276,139,265l6.21,6.7,2.82-12.47,4.64,7,3.88-14.63c.08.59.15,1.18.21,1.76,0,.21,0,.42.07.62l-3.8,14.32-4.58-6.92-2.74,12.09-6.27-6.76-3.1,11.16-6-8.06L126,280.22l-5-8.47-3.38,7q-.15-.46-.33-.9Z"/><path class="n" d="M121.21,276.28a.81.81,0,0,1,.73.81.68.68,0,0,1-.73.71.81.81,0,0,1-.73-.81A.69.69,0,0,1,121.21,276.28Z"/><path class="n" d="M125.63,271.8a.81.81,0,0,1,.73.81.69.69,0,0,1-.73.71.81.81,0,0,1-.73-.81A.68.68,0,0,1,125.63,271.8Z"/><path class="n" d="M130.79,275.12a.81.81,0,0,1,.73.81.69.69,0,0,1-.73.71.82.82,0,0,1-.74-.81A.69.69,0,0,1,130.79,275.12Z"/><path class="n" d="M135.15,269.34a.82.82,0,0,1,.74.81.69.69,0,0,1-.74.71.81.81,0,0,1-.73-.81A.69.69,0,0,1,135.15,269.34Z"/><path class="n" d="M140.63,271.5a.82.82,0,0,1,.73.82.69.69,0,0,1-.73.71.82.82,0,0,1-.74-.82A.7.7,0,0,1,140.63,271.5Z"/><path class="n" d="M143.89,265.12a.81.81,0,0,1,.73.81.69.69,0,0,1-.73.71.81.81,0,0,1-.73-.82A.67.67,0,0,1,143.89,265.12Z"/><path class="n" d="M149.41,266.47a.81.81,0,0,1,.73.81.68.68,0,0,1-.73.71.8.8,0,0,1-.73-.81A.68.68,0,0,1,149.41,266.47Z"/><path class="n" d="M152.33,259.53a.82.82,0,0,1,.74.81.69.69,0,0,1-.74.71.81.81,0,0,1-.73-.81A.69.69,0,0,1,152.33,259.53Z"/><path class="n" d="M157,260.26l.18,0c0,.49,0,1,0,1.47a.62.62,0,0,1-.19,0,.82.82,0,0,1-.73-.82A.68.68,0,0,1,157,260.26Z"/><path class="n" d="M116.32,272a.81.81,0,0,1,.73.81.69.69,0,0,1-.73.71.81.81,0,0,1-.73-.81A.68.68,0,0,1,116.32,272Z"/><path class="o" d="M182.87,263.68a3.84,3.84,0,0,1-1,2.29,16.45,16.45,0,0,1-2.28,2.29c-.08.05-3.78,5.05-3.36,2.05a37.89,37.89,0,0,1,1.1-4l2.53-6.4c2.28.19,2.29.27,3.39-.05,1.48-.43,2-.3,3.36-.75,2.54-.81,3.25,1.8,1.48,2.78C186.73,262.67,184.12,262.63,182.87,263.68Z"/><path class="g" d="M180.72,254.4c-2,1.61-3.56,3.94-5.17,6-2.64,3.43-5,7-8.67,8.77l-.24,6.94a27.56,27.56,0,0,1,7.71-3.76c.65-.37,1.26,0,2,0,1.79,0,2.64-2,3.05-3.39.39.06,1.14,0,2,.11,2.11.24,4.2.62,4.34-.49s-1.29-1.66-3.81-2.17c-1.45-.29-2.86-.5-2.63-1.34s3.28-.71,4.85-.62a23.57,23.57,0,0,0,4.6.92c.7-.12,1.63-.71,1.3-1.57s-2-1.49-3.67-1.93a23.48,23.48,0,0,0-5-.83c-.68,0-.7-.37-.07-.84a5.35,5.35,0,0,1,1.69-.41c1.52-.12,4.48-.32,5.73-.5s1.61-.68,1.58-1.28c.19-2-4-1.4-7.68-1.1-.87,0,0-.82,0-.84,1.09-.55,2-.79,3.39-1.45,1.61-.76,2.17-1.24,2-1.87s-2.2-.4-4.19.2A9.54,9.54,0,0,0,180.72,254.4Z"/><path class="o" d="M182.73,257c-1-.12.19-.69.22-.71,1.09-.55,1.93-.72,3.3-1.38,1.52-.72,1.84-1.4,1.76-2a10.09,10.09,0,0,1-3.54,1.77,7.48,7.48,0,0,0-2.49,1.08c-.61.5-.67.79-1.47,2.08A4.59,4.59,0,0,1,182.73,257Z"/><path class="o" d="M166.49,273.3l-1.65,3.64a67.38,67.38,0,0,1,7-3.33c1.2-.55,2.16-1,2.57-1.27s.82.18,1.69.06c-.43-1-.72-2.72.22-3.3a3.69,3.69,0,0,1,2.4-.6c.39.06,1.14,0,2,.11,1.36.15,3.54.83,4.56.51a.53.53,0,0,0,.35-.3c-.82.48-3.52-.43-4.8-.65A17.38,17.38,0,0,0,177,268a7.56,7.56,0,0,0-5.09,1.87C170.21,271.38,166.81,273,166.49,273.3Z"/><path class="p" d="M142.53,287.58c8.48-2.33,22.87-9,26-11.42a15.57,15.57,0,0,1,2-1.74l1.62-.79c-1.17-1.2-2.58-5.58-2.34-6.69-.4.14-1.2.54-1.7.69a29,29,0,0,1-3.38.41c-8.48,1.31-19.17,2.88-27,6-2.09-3.79-5.69-12.56-10.74-19.53-3-4.08-6.16-7.06-9.28-8.52-4.22-2-7-.77-8.75,1-3,3-2.84,8.91-.74,13,3.83,7.44,9.67,14.36,18.35,21.79,1.87,1.61,3.79,2.76,6.39,4.68,1.72,1.7,2.61,2.55,5.78,2,.85-.15,1.9-.44,3.39-.77A1.27,1.27,0,0,0,142.53,287.58Z"/><path class="g" d="M140.91,236.13c.09-.47.2-.93.3-1.43.29-1.42-.08-4.18.3-7.43l-12.33-5.21c-.2,6.92-1.33,8.35-2.61,14,.14,5.55,13.91,8,14.2,1.52A11.35,11.35,0,0,1,140.91,236.13Z"/><path class="q" d="M140.91,236.13c.09-.47.2-.93.3-1.43.29-1.42-.08-4.18.3-7.43l-12.33-5.21c0,1.57-.14,2.87-.27,4-.44,4.58,4,12.57,11.86,11.51A11.35,11.35,0,0,1,140.91,236.13Z"/><path class="g" d="M141.62,235.82c-1.51-1-5.64-3.51-7-4.5-3-2.18-2.6-4.95-3.46-9.29-2.77-2-3.7-3.55-4-5.33-.58-4.22,1.82-8.76,5-11.24a11.17,11.17,0,0,1,9.69-2c7.07,1.55,10,6.9,10.35,13a4,4,0,0,1-.19,1.52,18.63,18.63,0,0,0-.66,2.27c-.37,1.82.86,2.48.37,4.73-.67,3.07-3.21,9.05-4.25,10.05C146.75,235.83,143.18,236.07,141.62,235.82Z"/><path class="r" d="M152,213.83a17.74,17.74,0,0,1,.34,2.66,4,4,0,0,1-.19,1.52,18.63,18.63,0,0,0-.66,2.27c-.37,1.82.86,2.48.37,4.73a36.53,36.53,0,0,1-1.92,5.63c-4.55,3.47-8.53-.76-9.14-1.55-2.85-3.68-3.07-9.18-.91-14.32A17.51,17.51,0,0,0,152,213.83Z"/><path class="s" d="M125.23,214.71a35.27,35.27,0,0,0,3.41,10.57c1.43,2.31.81-.52,1.56-2.1.59-1.22,2.47-1.36,3-2.61a4,4,0,0,0,1.33,2.48c.44.23,1.32.56,1.36-.7.12-4.33,2.17-4.64,1.52-7.24-.48-1.94-.36-2.78.11-3.49,1.42.2,2.33,1.65,4,2.37a14.48,14.48,0,0,0,9.86-.94c3.5-1.91,3.82-6.17.89-8.9-1.64-1.53-3.47-1.91-6-3.63A11.12,11.12,0,0,0,132,202C125.52,203.34,124.81,209.48,125.23,214.71Z"/><path class="g" d="M132.07,218.36c-2.66-1.21-3,2-2.75,3.95.16,1.36,1.27,1.37,1.56,2.45a2.51,2.51,0,0,0,2.09,2c1.69.12.89-2.48.79-3.49C134.11,221.7,133.77,219.13,132.07,218.36Z"/><path class="t" d="M139.39,209.52c-.26,1.82,2.07,3.95,5.35,4.13,3,.16,7.16-.56,8.68-4.25a4.2,4.2,0,0,0-1.6-4.56,3.81,3.81,0,0,0-3.64,0c-2.25,1-4.12,3.5-5.73,4.12S139.42,209.33,139.39,209.52Z"/><path class="u" d="M152,213.63a11,11,0,0,1,3.53,1.31,5.54,5.54,0,0,1,1.93,2,2.35,2.35,0,0,1,.26,1,17.36,17.36,0,0,1-1.09,5.68,6.75,6.75,0,0,1-4,4.56,35.27,35.27,0,0,1-8.84,2.84,6.55,6.55,0,0,1-1.66,0c-3-.47-4.49-2.94-5.4-5.57-.56-1.61-2.17-3.07-2.95-4.68a3.37,3.37,0,0,0-1.71-2.38c.1-.25.7-1.1,1.22-1.13a19.38,19.38,0,0,1,3.59.55,15.72,15.72,0,0,0,7-.22c1.82-.44,7-1.55,7.75-2.42C152,214.64,152.08,214.52,152,213.63Z"/><path class="v" d="M156.27,216.56c-.2.8-1.23,1.31-2.5,1.88a34.45,34.45,0,0,1-9.12,2.75,10.45,10.45,0,0,1-4-.17c-1.39-.42-2.08-1.15-3.17-1.05-2.05.18-1.32,3.93-.77,5.47-.46-1.62-.62-3.33,0-3.73a.79.79,0,0,1,1,.08,9.08,9.08,0,0,0,2.07,1.55,8.82,8.82,0,0,0,5.54.38,47.13,47.13,0,0,0,9.21-3.05c1.14-.54,3.48-1.6,3.19-3.21a4.78,4.78,0,0,0-2.39-2.67S156.5,215.66,156.27,216.56Z"/><path class="w" d="M156.27,216.56c-.2.8-1.23,1.31-2.5,1.88a34.45,34.45,0,0,1-9.12,2.75,10.45,10.45,0,0,1-4-.17c-1.39-.42-2.08-1.15-3.17-1.05s-1.37,1.13-1.36,2.32c0-1,.43-2,1.31-2.15s1.39.42,2.28.83a7.23,7.23,0,0,0,1.72.5,11.74,11.74,0,0,0,3.3,0,34.36,34.36,0,0,0,9.11-2.74c1.28-.57,2.44-1.16,2.65-2a1.65,1.65,0,0,0-.58-1.58c-.2-.14-.41-.28-.63-.41C155.27,214.82,156.5,215.66,156.27,216.56Z"/><path class="x" d="M154.54,222.63c0-.21-.15-.34-.33-.29a74.24,74.24,0,0,1-8.46,2.82.5.5,0,0,0-.32.47c0,.92,0,1.61,0,2.11,0,1.12,0,1.07,1.12.85,2.33-.46,7.87-2.27,7.95-4.1Z"/><path class="g" d="M330.6,160.84c-1.58-1-2.22-1.48-3.38-2.09a3.88,3.88,0,0,0,2.13,3.8c1,1.26,1.52,3.07,2.52,4,1.5,1.44,3.09,1,2-1.71A10.93,10.93,0,0,0,330.6,160.84Z"/><path class="y" d="M351.83,297.3A2.92,2.92,0,0,1,352,299c-.68,3.39-1.8,3.41-2.46,4.37-.9,1.32-.4,4-.89,5.66-1,4.32-3.66,8.24-7.55,9.76a12.82,12.82,0,0,1-2.91.74c-1,.13-4.17.08-4.69-1.76.36-1.95,2.46-3.72,3.14-5.59,1-2.8.86-4.93.9-7.48,0-1.21.2-3.24.22-5.07,0-.5,0-1,0-1.51,6.51.5,7.62-5.75,8.87-5.26a7.47,7.47,0,0,1,1.93,1.07A7.82,7.82,0,0,1,351.83,297.3Z"/><path class="o" d="M346.19,292.76a4.36,4.36,0,0,1-1.62-3.67l-7.53.1.32,8.49C342.44,305.46,352.69,299.14,346.19,292.76Z"/><path class="z" d="M350.81,296.28A3,3,0,0,1,351,298c-.85,4.31-1.85,3.15-2.71,5.53s0,2.94-.51,4.59c-1,4.32-3.66,8.24-7.55,9.75-2.22.87-5,1.27-6.47.19-.3-.22-.25-.27-.25-.36a32.2,32.2,0,0,0,3.16-13.92c0-1.2.2-3.24.23-5.07,0-.5,0-1,0-1.5,3.44.26,8.21-3.49,8.42-6.27.21.25.1.87.45,1a8.11,8.11,0,0,1,1.93,1.07A7.32,7.32,0,0,1,350.81,296.28Z"/><path class="aa" d="M392.35,151.5c-9,1.53-12,5.73-12.5,15.86-.14,2.58-4.63,10.24-2.14,16.93,2.78,7.48,7.4,5.8,9,11.59,2.21,7.94-.89,11,1.14,15.64.89,2.06,2.28,2.41,5.22,6.38l.53.76a20.44,20.44,0,0,1,7.4.61c4.2,1.18,11.19,3.07,16.29,1.06,4.58-1.81,4.57-6.72,6.48-8.64,2.4-2.4,4.61-2.44,6.47-3.23,5.47-2.32,7.77-10,4.72-15.28-3.62-1-7.25-2.35-6.69-4.78,1.12-4.89,2.13-10.19-2.84-13.55-3.46-2.34-8.79-2.41-10.4-6.76-1.68-4.54-2.92-7.76-5.47-10.86C406,152.88,400.5,150.12,392.35,151.5Z"/><path class="ab" d="M386.14,157c-2.63.85-4.17,3.85-4.95,7.09-1.8,7.42-6.93,11-3.48,20.25,2.78,7.48,7.4,5.8,9,11.59,1.87,6.71-.06,9.9.53,13.56,4.6,1.74,3.35,9.24,14,7.39,4.63-.8,2.93-5.83,9.38-5.59,4.24.15,5.59-1.94,5.85-4.34.89-8.1-4.22-5-4.11-10.72s-5.08-6.05-5.19-7.39c-.09-1.12.83-4.32-6-5.71-3.15-.64-5.67-2.34-4.81-4.59a5.14,5.14,0,0,0-1.4-5.7c-1.51-1-2.84.06-3.55-.8,0,0-3.25-7.05-3.67-8.14C386.72,161.18,385.75,159.19,386.14,157Z"/><path class="ac" d="M331.38,162.26c1.46,1,2.33,1.61,3.27,4.94.63,2.24,1.81,3.19,3.34,4.56,2.56,2.17,5.66,3.62,8.11,5.14a46.25,46.25,0,0,1,8.74,6.4c2.75-.41,6.77-.8,11-1.55,7.36-1.31,15.23-3.26,17.75-.3l4.06,4.74-1.15,3.13c-6,.79-11,1.91-16.35,2.54a75.3,75.3,0,0,1-14,.41c-.87-.06-1.66,0-2.26,0a3,3,0,0,1-1.17-.39,12.21,12.21,0,0,1-2.18-1.15,55.85,55.85,0,0,1-9.27-7.68,100.71,100.71,0,0,1-7.31-9.11,12.37,12.37,0,0,0-3.85-2.67,16.93,16.93,0,0,1-5.73-5c-.59-1.06-2.92-6.41-3.09-9.63a3.16,3.16,0,0,1,1.35-2.36c.36-.3,4.68,5,5,5.19C327.61,159.48,330.8,161.83,331.38,162.26Z"/><path class="ad" d="M336,169.55a10.49,10.49,0,0,0,1.07,1.15c.33.3,1.26.35,1.63.67a61.34,61.34,0,0,0,7.48,5.46c3.17,2,6.34,3.84,8.73,6.27,2.74-.4,6.84-.68,11-1.43,7.36-1.31,15.22-3.42,17.74-.45l3.93,5-1.15,3.13c-4.62.61-8.39,1.82-12.46,2.45-1.2.18-2.8.31-4,.45a76.49,76.49,0,0,1-14,.21c-.87-.06-1.66,0-2.26,0a3,3,0,0,1-1.17-.38,12.31,12.31,0,0,1-2.18-1.16,56.38,56.38,0,0,1-9.42-7.67,77.59,77.59,0,0,1-6.23-7.11c-.34-.45-.65-1.55-1-2a5,5,0,0,0-.9-.93A6.45,6.45,0,0,1,336,169.55Z"/><path class="ae" d="M378.12,180.08c2.21-.22,4.58,0,5.55,1.14l3.93,5-1.15,3.13c-4.61.61-8.39,1.82-12.46,2.45-1.2.18-2.8.31-4,.45a76.49,76.49,0,0,1-14,.21c-.87-.06-1.66,0-2.26,0L352.5,192c10-.47,12.19-3.37,19.7-8.34A50,50,0,0,1,378.12,180.08Z"/><path class="af" d="M344.85,289c-1.2-9.11,6.16-22.43,3.61-31.78-.66-2.41-2.36-4.81-3.9-8,4.05-.85,9.18-.28,14.74,1.72l9.32-1.15,8.07-7.49-2.37-10.76L368,231c-11.25.62-19,1.29-30.56,5a17.6,17.6,0,0,0-5.65,3.22,5.71,5.71,0,0,0-1.7,2.6c-1.15,3.56.37,7.84,1.84,12.76,3.5,11.67,4.59,22.82,5,34.54l.14,6.51C337.18,297.57,344.38,294.37,344.85,289Z"/><path class="d" d="M344.85,289c-1.2-9.11,6.16-22.43,3.61-31.78-.66-2.41-2.36-4.82-3.9-8,4.05-.85,9.18-.28,14.74,1.72l9.32-1.15,8.07-7.49-2.37-10.76L368,231l-1,.06a73.12,73.12,0,0,0-.59,10.11c-7,.63-23.81,1.93-26.1,4.58-.53,1.22,1,3.34,1.32,7.62a29.63,29.63,0,0,0-8.24,6.58,145.31,145.31,0,0,1,3.6,29.22l.14,6.51C337.19,297.57,344.38,294.37,344.85,289Z"/><path class="ag" d="M368.41,229.46c.17-1,.39-1.85.6-2.79a13.48,13.48,0,0,0-.15-2.56c0-4.81.88-4.77.4-9.29a20.18,20.18,0,0,1,.34-5.66c-8-9.41,1-14.12,2.51-18.06.95-2.45,2-8.06,4.59-10.07,1.7-1.31,6.17-1.92,9.61,2,1.27.68,2.6-.11,3.51.29,3.27,1.44,4.95,3.17,6.64,4.4,3.68,2.66,7.37,2.42,9.66,6.35,3,5.12-3.92,10.43-7.15,17.43a92.25,92.25,0,0,0-6.85,18.24,6.61,6.61,0,0,0,.6,2.38C393.67,237.08,370.18,238.84,368.41,229.46Z"/><path class="ae" d="M368.41,229.46c.06-.31.11-.6.18-.9,3.39,5.37,13.74,5.71,17.92,3.16a21.37,21.37,0,0,1-.19-8.32c-7-2.61-10.88-5.28-17.08-8.77a20.77,20.77,0,0,1,.36-5.47c-2.59-3-3.4-5.59-3.26-7.78,6.35,1.45,11.77,3.43,18,5.38,10.33-13.26,13.47-16.08,19-14.7,4.24,1.05,2.41,8.68,1,10.89-1.7,2.59-3.88,5.38-5.32,8.51a91.61,91.61,0,0,0-6.85,18.24,6.61,6.61,0,0,0,.6,2.38C393.67,237.08,370.18,238.84,368.41,229.46Z"/><path class="y" d="M329.2,320.76a2.91,2.91,0,0,1-.58,1.66c-2.62,3.53-3.35,1.75-4.85,3.57s-1.29,2.89-2.42,4.17a15.36,15.36,0,0,1-6.94,5c-3.19,1.05-10.05.39-10.6-3.68,1.16-1.6,3.92-2.29,5.34-3.68,2.13-2.09,2.91-4.07,4.05-6.36.53-1.08,1.58-2.83,2.39-4.47.22-.46.43-.92.64-1.37,5.81,3.35,9.09-2.17,10.27-.91a7.5,7.5,0,0,1,1.28,1.79A7.31,7.31,0,0,1,329.2,320.76Z"/><path class="g" d="M314.57,317.38c1.56,8.43,12.59.33,11.5-2.72a5.91,5.91,0,0,1,.13-4l-6.83-3.18c-1.12,2.45-2.4,4.61-3.57,7C315.36,315.39,315,316.41,314.57,317.38Z"/><path class="ah" d="M328.65,319.61a2.94,2.94,0,0,1-.59,1.66c-2.62,3.52-3.65,2-4.89,3.79-1.4,2-1.24,2.67-2.38,3.94a14.75,14.75,0,0,1-8.15,5.34c-2.77.58-7.61,0-8.85-2.86a31.85,31.85,0,0,0,4.81-4.83,30.21,30.21,0,0,0,4-6.36c.54-1.07,1.59-2.83,2.4-4.47.22-.45.43-.91.63-1.36,3,1.72,8.92.4,10.31-2,.08.32-.29.83,0,1.1a8.16,8.16,0,0,1,1.28,1.8A7.43,7.43,0,0,1,328.65,319.61Z"/><path class="ai" d="M369.87,265.64c-7.83,1.29-14.17,2.42-20.85,4a5.24,5.24,0,0,0-3.71,2.36c-1.38,2.35-.76,6.21-1.77,11.67-1.77,9.53-11.56,19.15-17.34,27.62-2.56,2.62-8.9,2.4-9.15-.9,4.86-10.67,10.8-24.2,12.73-36.23,1.27-7.87,3.68-13.11,9.91-16.31,10.83-6.76,18.87-11.55,29.95-16.45a30.59,30.59,0,0,1-1.77-8.32c-.13-2.1.41-2.13.65-3.49,4,5.89,16.53,6,24.06,2.61,1.67,2.72,4,5.52,4.74,8.68,1.64,7.3-.81,13.13-5.44,16.94C386.76,262,376.29,264.57,369.87,265.64Z"/><path class="aj" d="M357.13,194.65c1.71.65,1.81,1.26,3.56,4.35,1.17,2.09,2.59,2.76,4.45,3.75l-3.55,3.15c-1.46-1.19-2.22-.79-4.16-2.06-.92-.6-3.2-1.83-4.08-4.09s-3.65-3.32-5.51-4.94c-.93-.81.7-3.37.6-3.5C349.8,191.4,355.22,193.84,357.13,194.65Z"/><path class="ak" d="M362.8,201a2.88,2.88,0,0,0,1.46.81,3.57,3.57,0,0,1,1.75.26,50.78,50.78,0,0,0,8.25,2.93,60.73,60.73,0,0,1,10.37,4.29c2.91-5.62,8.81-12.06,13.35-16.61a5.43,5.43,0,0,1,8.37.69c2.4,3.29,1.32,7.2-1,9.94-3.86,4.66-10.69,9.6-15.16,14a10.65,10.65,0,0,1-1.91,1.52,3.64,3.64,0,0,1-3.36.61,15.17,15.17,0,0,1-2.73-.69A57.68,57.68,0,0,1,371,213.35c-2.69-1.69-6.09-3.34-8.81-6-.26-.26-.48-1-.76-1.18a4.76,4.76,0,0,0-1-.65C359.37,204.61,361.62,201.08,362.8,201Z"/><path class="g" d="M394.22,176.85a22.12,22.12,0,0,0-1.61,10.74c-3.59,2.06-8.58-.32-9.23-3.08.63-1.55,1.27-2.95,1.82-4.56Z"/><path class="al" d="M394.22,176.85a21.73,21.73,0,0,0-1.44,5.05c-1.67,3.3-8.78,4.16-8.82,1.22.43-1,.86-2.06,1.24-3.17Z"/><path class="g" d="M385.52,158.75a12,12,0,0,0-3.77,7.59,3.5,3.5,0,0,1-.72,1.85c-2.09,2.8-2.19,3.79-2.08,6.44s-.23,3.84.4,4.86a4.93,4.93,0,0,0,2.94,1.86c2.18.65,6.31.06,8.79-.63,1.84-.52,1.91-1.15,3-2.54,2.77-1.47,1.61-3.28.87-3.61-2.11-.94-3.06,1.53-4.5,1.79C391.66,171.93,384.85,162.39,385.52,158.75Z"/><path class="am" d="M384.12,160.32a11.89,11.89,0,0,0-2.37,6,3.5,3.5,0,0,1-.72,1.85c-2.09,2.8-2.19,3.79-2.08,6.44,0,1.16,0,2.05,0,2.77a2.11,2.11,0,0,0,2.41,1.34,4.09,4.09,0,0,0,2.82-2.84c.46-1.26,3.3-1.5,4.14-2.68.71-1-.23-2.48-.83-3.28A18.87,18.87,0,0,1,384.12,160.32Z"/><path class="an" d="M385.52,158.75c0,5.79,6.2,11.62,4.89,17.61C389.87,169.69,383.87,163.83,385.52,158.75Z"/><path class="ao" d="M382.12,164.38a7.55,7.55,0,0,0-2.7.17,3.26,3.26,0,0,0-1.62,1,1.57,1.57,0,0,0-.3.64,13.2,13.2,0,0,0,.14,4.32,6.06,6.06,0,0,0,2.41,4.16,30.3,30.3,0,0,0,6.07,4,4.84,4.84,0,0,0,1.21.35c2.24.34,3.57-1.12,4.52-2.8,2-3.47,2.3-5.05.76-5.51a17.57,17.57,0,0,1-5-1.71c-1.26-.71-4.88-2.65-5.33-3.45A1.15,1.15,0,0,1,382.12,164.38Z"/><path class="ap" d="M378.71,165.55c.06.61.74,1.21,1.59,1.9a30.28,30.28,0,0,0,6.28,4,8.06,8.06,0,0,0,2.9.76c1,0,1.63-.36,2.41-.06,1.46.58.51,3.12-.06,4.1.51-1.06.82-2.25.43-2.68a.62.62,0,0,0-.71-.15,5.74,5.74,0,0,1-1.67.66,6.71,6.71,0,0,1-4-.95,42.07,42.07,0,0,1-6.31-4.22c-.77-.64-2.34-1.92-1.95-3a2.87,2.87,0,0,1,2-1.39S378.65,164.85,378.71,165.55Z"/><path class="w" d="M378.71,165.55c.06.61.74,1.21,1.59,1.9a30.28,30.28,0,0,0,6.28,4,8.06,8.06,0,0,0,2.9.76c1,0,1.63-.36,2.41-.06s.86,1.12.72,2a1.67,1.67,0,0,0-.71-1.83c-.59-.26-1,0-1.73.09a5.24,5.24,0,0,1-1.31,0,9,9,0,0,1-2.38-.72,30,30,0,0,1-6.28-4c-.86-.69-1.63-1.37-1.69-2a1,1,0,0,1,.6-1l.5-.16S378.65,164.85,378.71,165.55Z"/><path class="aq" d="M379.28,170.29a.17.17,0,0,1,.27-.14,65.1,65.1,0,0,0,5.79,3.89.43.43,0,0,1,.18.41c-.1.66-.16,1.16-.21,1.52-.12.8-.15.76-.91.36-1.63-.84-5.43-3.36-5.28-4.69Z"/><path class="ar" d="M303.65,108.18h-.37v63h0c.44,12,4.66,23.41,11.95,33.86V137.75A64.08,64.08,0,0,1,303.65,108.18Z"/><path class="as" d="M431.9,283.34c-48.79-5.23-89.65-24.19-111.16-50V152.18c21.51,25.8,62.38,44.76,111.16,50Z"/><path class="at" d="M402.5,259.33C355,248.08,319,223.1,308,192.53V153.79c11,30.57,47,55.54,94.55,66.8Z"/><path class="au" d="M327.73,202.48c-1.2,10.71,4.74,23.78,13.27,29.18s16.7-1.55,17.6-9.61-.61-11.41-3.05-16.72c-1.48.82-3,1.64-4.45,2.44,1.58,3.42,2.56,5.6,2,10.78s-5.83,9.65-11.31,6.18-9.29-11.88-8.52-18.75Z"/><path class="av" d="M333.79,191.64c-3.19,1.73-5.47,5.49-6.06,10.84l5.52,3.5c.38-3.43,1.83-5.85,3.88-7C336,196.56,334.89,194.11,333.79,191.64Z"/><path class="aw" d="M345.33,192.87c-4.27-2.7-8.36-3-11.54-1.25,1.1,2.47,2.22,4.94,3.34,7.39,2.05-1.11,4.69-.94,7.42.79a19,19,0,0,1,6.61,8.1l4.45-2.43C353.21,200.19,349.6,195.57,345.33,192.87Z"/><path class="ax" d="M370.7,103.41,344.85,89.22a4.9,4.9,0,0,0-4.2-.47c-1.57.61-2.74,2.2-3.08,4.52l-2.93,21c-.61,4.12,1.67,9,5.09,10.91l25.85,14.19c3.42,1.9,6.69.08,7.29-4.05l2.93-21C376.41,110.2,374.12,105.31,370.7,103.41Z"/><path class="ay" d="M366.18,111.06c-.26,1.79-1.66,2.6-3.14,1.78a4.93,4.93,0,0,1-2.22-4.75c.26-1.78,1.66-2.55,3.16-1.72a4.89,4.89,0,0,1,2.2,4.69ZM358.05,127c.27-1.79,1.66-2.57,3.17-1.73a4.86,4.86,0,0,1,2.19,4.7c-.26,1.79-1.66,2.6-3.14,1.78a5,5,0,0,1-2.22-4.75Zm-9.24-15.31c-.26,1.78-1.69,2.54-3.17,1.72a4.89,4.89,0,0,1-2.19-4.69c.26-1.79,1.67-2.59,3.14-1.78a5,5,0,0,1,2.22,4.75Zm15.51-7.56c-2.52-1.4-4.94-.1-5.38,3v.23l-8.78,1.38a7.4,7.4,0,0,0-3.23-4c-2.52-1.4-4.9-.06-5.35,3a8.37,8.37,0,0,0,3.74,8,3.29,3.29,0,0,0,3.83-.11l7.08,10.21-.05.16a8.39,8.39,0,0,0,3.77,8c2.49,1.38,4.9.07,5.35-3a8.4,8.4,0,0,0-3.74-8,3.3,3.3,0,0,0-4.52.75l-6.71-9.78a3.76,3.76,0,0,0,.34-1.24,5.43,5.43,0,0,0,.06-1.45l8.35-1.43a8.09,8.09,0,0,0,3.64,5.28c2.49,1.38,4.9.06,5.34-3A8.34,8.34,0,0,0,364.32,104.1Z"/><path class="az" d="M233.32,389l52.19-30.33L273.4,301.12v0h0v0h0v0h0v0h0v0h0v0h0v0h0v0h0v0h0v0h0v0h0v0h0v0h0v0h0v0h0v0h0v0h0v0h0v0h0v0h0v0h0v0h0v0h0v0h0l0,0h0v0h0l0,0h0v0h0v0h0l0,0h0v0l0,0h0l0,0h0l0,0,0,0h0v0h0l0,0,0,0h0l0,0h-.13l0,0h0a.87.87,0,0,0-.78,0l-52.19,30.34C221.36,329.15,228.3,372,233.32,389Z"/><path class="ba" d="M273.4,301.12l-39.79,23.82-3,51.91c.47,4.51,1.83,8.87,2.4,13.34l52.45-31.56Z"/><path class="bb" d="M246.8,345.48a1.88,1.88,0,0,0-.26-.19c-.4-.23-.77-.13-.89.27L233.32,389l-12.11-57.51a2,2,0,0,0-.89-1.29.91.91,0,0,0-.25-.11c-.5-.13-.79.29-.65.93l12.18,57.9a9,9,0,0,0,.74,2.27,2.57,2.57,0,0,0,1,1.1.84.84,0,0,0,1,0,2.6,2.6,0,0,0,.71-1.36l12.44-43.76A1.89,1.89,0,0,0,246.8,345.48Z"/><path class="bc" d="M273.18,303.33c0-1.27,1-2.3.55-3.12s-2.44-1.43-3.28-1.7a5.48,5.48,0,0,0-4.34.79l-85.93,49.34a15.47,15.47,0,0,0-7,12.16l.17,47.69c0,2.19.77,3.74,2,4.49a8.12,8.12,0,0,0,3.92,1.11c.73-.12.33-1.1,1.15-1.57l85.92-49.33a15.51,15.51,0,0,0,7-12.17Z"/><path class="bd" d="M274.92,304c0-4.47-3.17-6.27-7.07-4l-85.92,49.34a15.48,15.48,0,0,0-7,12.16l.17,47.69c0,4.47,3.18,6.28,7.07,4l85.93-49.33a15.5,15.5,0,0,0,7-12.17Z"/><path class="be" d="M271.64,307.64c0-1.83-1.3-2.57-2.89-1.65l-16.46,9.44a6.37,6.37,0,0,0-2.88,5l-.08,18.12c0,1.83,1.31,2.57,2.9,1.65l16.45-9.44a6.33,6.33,0,0,0,2.88-5Z"/><path class="bf" d="M271.64,337.31c0-.92-.65-1.28-1.45-.81L204.09,374a3.27,3.27,0,0,0-1.44,2.53v1.81c0,.92.65,1.28,1.45.8l66.1-37.45a3.2,3.2,0,0,0,1.44-2.52Z"/><path class="bf" d="M251.54,359.82c0-.92-.66-1.28-1.46-.81L184,396.46a3.29,3.29,0,0,0-1.44,2.53v1.81c0,.92.66,1.28,1.45.8l66.1-37.45a3.24,3.24,0,0,0,1.45-2.52Z"/><path class="bg" d="M248.19,334.79c0-.58-.41-.82-.92-.52l-5.26,3a2,2,0,0,0-.91,1.59l0,5.78c0,.59.41.82.92.53l5.26-3a2,2,0,0,0,.91-1.6Z"/><path class="bh" d="M229.11,386.19l39-22.37a15.5,15.5,0,0,0,7-12.17L275,314.88l-36,22.65Z"/><path class="bi" d="M247.14,346.53l-12.61,42h0c-.17.45-.05,3.5-.3,3.76L286.42,362a2.09,2.09,0,0,0,.77-1.4l12.44-43.75h0l2.33-8.2a2.09,2.09,0,0,0-.45-1.48c-2.16,2-13.74,9-15.87,10.31-3.57,2.8-3.7,5.69-9.11,11.43a9.41,9.41,0,0,1-2.68,2.15Z"/><path class="bb" d="M246.8,345.48a1.88,1.88,0,0,0-.26-.19c-.4-.23-.77-.13-.89.27L233.32,389l-1,2.19a2.57,2.57,0,0,0,1,1.1.84.84,0,0,0,1,0,2.6,2.6,0,0,0,.71-1.36l12.44-43.76A1.89,1.89,0,0,0,246.8,345.48Z"/><path class="bj" d="M272.21,329.93l-26.32,15.3c.68-.34,1.73,1.2,1.55,1.93L274,331.71a15.32,15.32,0,0,0,2.22-1.43c3.78-3,5.56-7.07,8-10.38a10.24,10.24,0,0,1,2.12-2.14,8.33,8.33,0,0,0,.88-.5L302,308.63a2.1,2.1,0,0,0-.46-1.47c-.27-.3-.71-.66-1.1-.46l-14.7,8.66-.89.49a11,11,0,0,0-2.12,2.14c-2.61,3.5-4.48,7.44-8.72,10.77A12.8,12.8,0,0,1,272.21,329.93Z"/><path class="bk" d="M188.61,116.22l.11,38c0,2.77,2,3.9,4.4,2.51l35.53-20.51a9.66,9.66,0,0,0,4.37-7.57l-.15-52.53c0-2.78-2-3.91-4.4-2.51L205.26,87Z"/><path class="bc" d="M227.08,94.21l-17.27,10c-.73.42-1.31.09-1.32-.73V100.9a2.85,2.85,0,0,1,1.3-2.26l17.27-10c.72-.41,1.3-.06,1.3.76V92A2.88,2.88,0,0,1,227.08,94.21Z"/><path class="bc" d="M194.47,121.2c-.5.29-.91,0-.91-.52v-1.8a2,2,0,0,1,.91-1.56l33-19.06c.5-.29.91-.06.91.51v1.8a2,2,0,0,1-.9,1.56Z"/><path class="bl" d="M188.63,123.86c2.53-2.35,8.77-7.12,13.65-11.61,4.37-4,4.37-6.15,4.06-11l-.91-14.32-.19.12-16.62,29.21Z"/><path class="bd" d="M188.61,116.22l12.3-7.1a9.68,9.68,0,0,0,4.4-7.58L205.26,87Z"/><path class="bc" d="M215.49,140.6c5.07-4.18,8.1-12.86,6.77-19.4s-6.51-8.45-11.59-4.27-8.1,12.87-6.77,19.41S210.42,144.78,215.49,140.6Z"/><polygon class="bm" points="208.03 124.65 206.65 125.64 216.63 135.21 220.38 125.35 218.54 126.41 216.08 129.9 208.03 124.65"/><path class="bh" d="M229.63,102.7l-17.34,28.36L211.67,146l17-9.8a9.66,9.66,0,0,0,4.37-7.57L232.93,99Z"/><path class="bn" d="M215.73,131.62l.11,38c0,2.77,2,3.9,4.4,2.51l35.52-20.51a9.67,9.67,0,0,0,4.37-7.58L260,91.5c0-2.77-2-3.9-4.41-2.5l-23.2,13.39Z"/><path class="bo" d="M254.2,109.6l-17.27,10c-.74.43-1.32.1-1.32-.72V116.3a2.89,2.89,0,0,1,1.31-2.26l17.27-10c.71-.42,1.29-.06,1.3.76v2.54A2.82,2.82,0,0,1,254.2,109.6Z"/><path class="bo" d="M221.56,137.62c-.5.29-.91.06-.91-.52v-1.79a2,2,0,0,1,.9-1.57l33-19.06c.5-.29.91-.06.91.52V117a2,2,0,0,1-.9,1.56Z"/><path class="bo" d="M221.56,146.57c-.5.29-.91.06-.91-.52v-1.79a2,2,0,0,1,.9-1.57l33-19.06c.5-.29.91-.06.91.51v1.8a2,2,0,0,1-.9,1.56Z"/><path class="bo" d="M221.56,155.52c-.5.29-.91,0-.91-.52v-1.79a2,2,0,0,1,.9-1.57l33-19.06c.5-.29.91-.06.91.51v1.8a2,2,0,0,1-.9,1.56Z"/><path class="bo" d="M221.56,164.81c-.5.29-.91.06-.91-.52V162.5a2,2,0,0,1,.9-1.57l33-19.06c.5-.29.91-.06.91.51v1.8a2,2,0,0,1-.9,1.56Z"/><path class="bl" d="M215.75,139.26c2.53-2.35,8.76-7.12,13.65-11.61,4.36-4,4.37-6.15,4.06-11.05l-.91-14.32-.2.12-16.62,29.21Z"/><path class="bd" d="M215.73,131.62l12.3-7.1a9.67,9.67,0,0,0,4.39-7.58l0-14.55Z"/><path class="bh" d="M256.71,118.14l-17.34,28.35-.62,15,17-9.8a9.69,9.69,0,0,0,4.38-7.58L260,114.4Z"/><path class="bp" d="M243.45,147.25l.11,38c0,2.78,2,3.91,4.4,2.51l35.52-20.51a9.66,9.66,0,0,0,4.37-7.57l-.15-52.53c0-2.77-2-3.9-4.4-2.51L260.1,118Z"/><path class="bq" d="M277,151.78a7.31,7.31,0,0,0-2.88,2.2c-1.72,2-2.76,5-3.77,8-1.59,4.63-3.12,9.12-7,11.59l-.4.24c-3.66,2.11-6.42.43-9.43-1.39-1.92-1.16-3.95-2.4-6.25-2.54-1.22-.07-1-2,.18-2.69a1.38,1.38,0,0,1,.75-.21c2.69.16,4.9,1.48,7,2.75,7.57,4.52,10.33-1.59,12.44-7.73,1.28-3.76,2.28-7.53,4.74-10.36a7.43,7.43,0,0,1,4.26-2.53c.23-2.49,2-4.43,4.07-4.43,2.27,0,4.1,2.24,4.1,5s-1.83,5-4.1,5A4.14,4.14,0,0,1,277,151.78Z"/><path class="bq" d="M281.92,125.23l-17.28,10c-.73.42-1.31.09-1.31-.73v-2.54a2.89,2.89,0,0,1,1.31-2.27l17.27-10c.71-.41,1.29-.06,1.3.76V123A2.82,2.82,0,0,1,281.92,125.23Z"/><path class="bq" d="M249.3,152.22c-.5.29-.9.06-.9-.52v-1.79a2,2,0,0,1,.9-1.57l33-19.06c.5-.29.91-.06.91.52v1.79a2,2,0,0,1-.91,1.57Z"/><path class="bl" d="M243.46,154.89c2.54-2.35,8.77-7.13,13.66-11.62,4.36-4,4.37-6.14,4.06-11.05l-.91-14.31-.2.11-16.62,29.21Z"/><path class="bd" d="M243.45,147.25l12.3-7.11a9.67,9.67,0,0,0,4.39-7.58l0-14.54Z"/><path class="br" d="M93.12,227.7c5.64-4.64,9-14.29,7.53-21.56s-7.24-9.39-12.88-4.74-9,14.3-7.53,21.56S87.48,232.35,93.12,227.7Z"/><polygon class="ay" points="84.83 209.97 83.3 211.07 94.39 221.71 98.56 210.75 96.51 211.93 93.78 215.81 84.83 209.97"/><path class="bs" d="M232.55,171.33l.09,7.39-.08,67.55v2.45h-.05c-1,28.32-20.09,54-50.53,73V243c27.36-17.09,45.59-39.59,49.74-64.53C232.12,176.07,232.32,173.73,232.55,171.33Z"/><path class="bt" d="M214.68,293.46c-26.23,32.69-78.86,56.3-141.27,60.81V275.55c62.41-4.51,115-28.11,141.27-60.8Z"/><path class="bu" d="M224.72,260.22c-17.66,34.86-63.65,62.29-121.85,72.61v-45.3c58.2-10.31,104.18-37.75,121.85-72.6Z"/><path class="bv" d="M140.37,296.52c4.64,14.32-2.69,32.58-17.21,39.06-24.67,11-40.89-16.28-32.43-35.25l8.62,3.27c-4.53,9.82,4.45,31,20.8,22.69,9.09-4.65,14-15.89,11.06-25.09C134.23,299.64,137.31,298.08,140.37,296.52Z"/><path class="au" d="M126.9,282a22.46,22.46,0,0,1,13.47,14.52c-3.06,1.56-6.14,3.12-9.16,4.68a14.44,14.44,0,0,0-8.65-9.33Q124.75,286.95,126.9,282Z"/><path class="aw" d="M106.32,283.64c7.08-3.62,14.43-4,20.57-1.66-1.43,3.3-2.87,6.61-4.33,9.89a16.27,16.27,0,0,0-13.21,1.06,22.29,22.29,0,0,0-10.07,10.83q-4.31-1.61-8.61-3.24A34.45,34.45,0,0,1,106.32,283.64Z"/><path class="bv" d="M138.94,293c1.7-5.54,3.82-12.11,10.9-14.69,5.4-2,11,3,16.68,8.16s11.5,10.33,16.58,8.06c7.73-3.48,9.21-12.6,10.54-20.85,1.06-6.6,2.05-12.68,6-15.61,3.17-2.33,6.2-.75,9.23.83a13.09,13.09,0,0,0,4.31,1.69c4.27.45,9.34-8.13,13.48-40.32.61-4.73,1.26-.87,1,1.25-3.87,35.58-9.14,42-14.75,41.36a14.77,14.77,0,0,1-5.14-1.94c-2.39-1.25-4.78-2.5-6.8-1-3.2,2.37-4.11,8-5.1,14.11-1.43,8.84-3,18.61-11.87,22.59-6.44,2.89-12.84-2.86-19.06-8.45-5.2-4.66-10.25-9.2-14.35-7.71-6.12,2.23-8,8.37-9.57,13.47-.25.82-.5,1.62-.75,2.38A25.94,25.94,0,0,0,138.94,293Z"/><path class="bw" d="M328.51,371.57,452.8,299.43a.79.79,0,0,1,1.08.28h0a.79.79,0,0,1-.29,1.08L329.3,372.93a.79.79,0,0,1-1.08-.29h0A.78.78,0,0,1,328.51,371.57Z"/><path class="bx" d="M186.5,327.49l123.67-71.77a.78.78,0,0,1,1.07.28h0a.79.79,0,0,1-.29,1.07L187.29,328.85a.78.78,0,0,1-1.07-.28h0A.81.81,0,0,1,186.5,327.49Z"/><path class="by" d="M223.79,462.27l123.4-71.61a.78.78,0,0,1,1.07.28h0A.79.79,0,0,1,348,392L224.58,463.63a.78.78,0,0,1-1.07-.29h0A.78.78,0,0,1,223.79,462.27Z"/><path class="bz" d="M413.72,71.62,479,33.74v1.8L414.5,73a.79.79,0,0,1-1.07-.29h0A.8.8,0,0,1,413.72,71.62Z"/><path class="ca" d="M25.88,486l124.3-72.14a.79.79,0,0,1,1.07.29h0a.79.79,0,0,1-.28,1.08L26.67,487.35a.79.79,0,0,1-1.07-.29h0A.8.8,0,0,1,25.88,486Z"/><path class="cb" d="M343,44.58a10.81,10.81,0,1,1-3,15.07,10.86,10.86,0,0,1,3-15.07ZM345.25,48a6.75,6.75,0,1,0,9.43,1.8A6.79,6.79,0,0,0,345.25,48Z"/><path class="cc" d="M431,350.36l25.89-15.72L457,366,431,350.36Zm21.62-8.48-14,8.46,14,8.41Z"/><path class="cd" d="M149.49,444.33a14,14,0,1,1-3.93,19.48,14.06,14.06,0,0,1,3.93-19.48Zm2.93,4.36A8.73,8.73,0,1,0,164.61,451,8.78,8.78,0,0,0,152.42,448.69Z"/><path class="ce" d="M124.28,63.91,111.79,91.5,94,65.67l30.24-1.76Zm-13,19.2L118,68.25l-16.29,1Z"/></g></svg>