<svg xmlns="http://www.w3.org/2000/svg" xmlns:xlink="http://www.w3.org/1999/xlink" viewBox="0 0 500 500"><defs><style>.a{isolation:isolate;}.b,.c,.d,.e,.fw,.ha,.hg,.hs,.hw,.hx,.hy{opacity:0.5;}.b{fill:url(#a);}.c{fill:url(#b);}.d{fill:url(#c);}.f,.g,.gm,.go,.gp,.gq,.hc,.hd,.he,.hf,.hh,.hi,.i,.j,.m,.n,.o{opacity:0.8;}.f{fill:url(#d);}.g{fill:url(#e);}.h{opacity:0.3;}.i{fill:url(#f);}.j{fill:url(#g);}.k{opacity:0.2;}.fw,.l,.p{fill:#fff;}.m{fill:url(#h);}.n{fill:url(#i);}.fv,.p{opacity:0.6;}.q{fill:url(#j);}.r{fill:url(#k);}.s{fill:url(#l);}.fr,.t{fill:#272c91;}.t{mix-blend-mode:soft-light;}.u{fill:url(#m);}.v{fill:url(#n);}.fz,.hs,.hw,.hx,.hy,.w,.x,.y,.z{mix-blend-mode:multiply;}.w{fill:url(#o);}.x{fill:url(#p);}.y{fill:url(#q);}.z{fill:url(#r);}.aa{fill:url(#t);}.ab{fill:url(#u);}.ac{fill:url(#v);}.ad{fill:url(#w);}.ae{fill:url(#x);}.af{fill:url(#y);}.ag{fill:url(#z);}.ah{fill:url(#aa);}.ai{fill:url(#ab);}.aj{fill:url(#ac);}.ak{fill:url(#ad);}.al{fill:url(#ae);}.am{fill:url(#af);}.an{fill:url(#ag);}.ao{fill:url(#ah);}.ap{fill:url(#ai);}.aq{fill:url(#aj);}.ar{fill:url(#ak);}.as{fill:url(#al);}.at{fill:url(#am);}.au{fill:url(#an);}.av{fill:url(#ao);}.aw{fill:url(#ap);}.ax{fill:url(#aq);}.ay{fill:url(#ar);}.az{fill:url(#as);}.ba{fill:url(#at);}.bb{fill:url(#au);}.bc{fill:url(#av);}.bd{fill:url(#aw);}.be{fill:url(#ax);}.bf{fill:url(#ay);}.bg{fill:url(#az);}.bh{fill:url(#ba);}.bi{fill:url(#bb);}.bj{fill:url(#bc);}.bk{fill:url(#bd);}.bl{fill:url(#be);}.bm{fill:url(#bf);}.bn{fill:url(#bg);}.bo{fill:url(#bh);}.bp{fill:url(#bi);}.bq{fill:url(#bj);}.br{fill:url(#bk);}.bs{fill:url(#bl);}.bt{fill:url(#bm);}.bu{fill:url(#bn);}.bv{fill:url(#bo);}.bw{fill:url(#bp);}.bx{fill:url(#bq);}.by{fill:url(#br);}.bz{fill:url(#bs);}.ca{fill:url(#bt);}.cb{fill:url(#bu);}.cc{fill:url(#bv);}.cd{fill:url(#bw);}.ce{fill:url(#bx);}.cf{fill:url(#by);}.cg{fill:url(#bz);}.ch{fill:url(#ca);}.ci{fill:url(#cb);}.cj{fill:url(#cc);}.ck{fill:url(#cd);}.cl{fill:url(#ce);}.cm{fill:url(#cf);}.cn{fill:url(#cg);}.co{fill:url(#ch);}.cp{fill:url(#ci);}.cq{fill:url(#cj);}.cr{fill:url(#ck);}.cs{fill:url(#cl);}.ct{fill:url(#cm);}.cu{fill:url(#cn);}.cv{fill:url(#co);}.cw{fill:url(#cp);}.cx{fill:url(#cq);}.cy{fill:url(#cr);}.cz{fill:url(#cs);}.da{fill:url(#ct);}.db{fill:url(#cu);}.dc{fill:url(#cv);}.dd{fill:url(#cw);}.de{fill:url(#cx);}.df{fill:url(#cy);}.dg{fill:url(#cz);}.dh{fill:url(#da);}.di{fill:url(#db);}.dj{fill:url(#dc);}.dk{fill:url(#dd);}.dl{fill:url(#de);}.dm{fill:url(#df);}.dn{fill:url(#dg);}.do{fill:url(#dh);}.dp{fill:url(#di);}.dq{fill:url(#dj);}.dr{fill:url(#dk);}.ds{fill:url(#dl);}.dt{fill:url(#dm);}.du{fill:url(#dn);}.dv{fill:url(#do);}.dw{fill:url(#dp);}.dx{fill:url(#dq);}.dy{fill:url(#dr);}.dz{fill:url(#ds);}.ea{fill:url(#dt);}.eb{fill:url(#du);}.ec{fill:url(#dv);}.ed{fill:url(#dw);}.ee{fill:url(#dx);}.ef{fill:url(#dy);}.eg{fill:url(#dz);}.eh{fill:url(#ea);}.ei{fill:url(#eb);}.ej{fill:url(#ec);}.ek{fill:url(#ed);}.el{fill:url(#ee);}.em{fill:url(#ef);}.en{fill:url(#eg);}.eo{fill:url(#eh);}.ep{fill:url(#ei);}.eq{fill:url(#ej);}.er{fill:url(#ek);}.es{fill:url(#el);}.et{fill:url(#em);}.eu{fill:url(#en);}.ev{fill:url(#eo);}.ew{fill:url(#ep);}.ex{fill:url(#eq);}.ey{fill:url(#er);}.ez{fill:url(#es);}.fa{fill:url(#et);}.fb{fill:url(#eu);}.fc{fill:url(#ev);}.fd{fill:url(#ew);}.fe{fill:url(#ex);}.ff{fill:url(#ey);}.fg{fill:url(#ez);}.fh{fill:url(#fa);}.fi{fill:url(#fb);}.fj{fill:url(#fc);}.fk{fill:url(#fd);}.fl{fill:url(#fe);}.fm{fill:url(#ff);}.fn{fill:url(#fg);}.fo,.fp{opacity:0.28;}.fo{fill:url(#fh);}.fp{fill:url(#fi);}.fq{fill:#d0dcfe;}.fs{fill:url(#fj);}.ft{fill:url(#fk);}.fu{fill:url(#fl);}.fx{fill:url(#fm);}.fy{fill:url(#fn);}.fz{fill:url(#fo);}.ga{fill:url(#fp);}.gb{fill:url(#fq);}.gc{fill:url(#fr);}.gd{fill:url(#fs);}.ge{fill:url(#ft);}.gf{fill:url(#fu);}.gg{fill:url(#fv);}.gh{fill:url(#fw);}.gi{fill:#b4bbe1;}.gj{fill:url(#fx);}.gk{fill:url(#fy);}.gl{fill:url(#fz);}.gm{mix-blend-mode:screen;fill:url(#ga);}.gn{fill:url(#gb);}.go{fill:url(#gc);}.gp{fill:url(#gd);}.gq{fill:url(#ge);}.gr{fill:url(#gf);}.gs{fill:url(#gg);}.gt{fill:url(#gh);}.gu{fill:url(#gi);}.gv{fill:url(#gj);}.gw{fill:url(#gk);}.gx{fill:url(#gl);}.gy{fill:url(#gm);}.gz{fill:url(#gn);}.ha{fill:url(#go);}.hb,.hh,.hi{fill:none;stroke-miterlimit:10;}.hb{stroke:#fff;stroke-width:0.25px;}.hc{fill:url(#gp);}.hd{fill:url(#gq);}.he{fill:url(#gr);}.hf{fill:url(#gs);}.hg{fill:url(#gt);}.hh{stroke:url(#gu);}.hi{stroke:url(#gv);}.hj{fill:url(#gw);}.hk{fill:url(#gx);}.hl{fill:url(#gy);}.hm{fill:url(#gz);}.hn{fill:url(#ha);}.ho{fill:#080749;}.hp{fill:#1b1089;}.hq{fill:#f1bf9c;}.hr{fill:url(#hb);}.hs{fill:url(#hc);}.ht{fill:#f4ccb0;}.hu{fill:#301da0;}.hv{fill:url(#hd);}.hw{fill:url(#he);}.hx{fill:url(#hf);}.hy{fill:url(#hg);}</style><linearGradient id="a" x1="239.93" y1="93.41" x2="254.43" y2="67.86" gradientUnits="userSpaceOnUse"><stop offset="0" stop-color="#5900ff"/><stop offset="0.18" stop-color="#5d01fe"/><stop offset="0.35" stop-color="#6803fc"/><stop offset="0.51" stop-color="#7b07f8"/><stop offset="0.67" stop-color="#960cf3"/><stop offset="0.83" stop-color="#b813ec"/><stop offset="0.98" stop-color="#e21ce4"/><stop offset="1" stop-color="#e71de3"/></linearGradient><linearGradient id="b" x1="457.79" y1="254.88" x2="467.43" y2="237.9" xlink:href="#a"/><linearGradient id="c" x1="368.52" y1="131.81" x2="378.16" y2="114.83" xlink:href="#a"/><linearGradient id="d" x1="169.26" y1="163.36" x2="210.57" y2="90.54" gradientUnits="userSpaceOnUse"><stop offset="0" stop-color="#707de6"/><stop offset="0.21" stop-color="#7581e7" stop-opacity="0.98"/><stop offset="0.4" stop-color="#828de9" stop-opacity="0.93"/><stop offset="0.59" stop-color="#9aa2ed" stop-opacity="0.84"/><stop offset="0.77" stop-color="#babff3" stop-opacity="0.71"/><stop offset="0.96" stop-color="#e4e4fa" stop-opacity="0.54"/><stop offset="1" stop-color="#efeefc" stop-opacity="0.5"/></linearGradient><linearGradient id="e" x1="168.75" y1="163.05" x2="209.57" y2="91.08" xlink:href="#d"/><linearGradient id="f" x1="393.99" y1="241.61" x2="442.91" y2="155.38" xlink:href="#d"/><linearGradient id="g" x1="393.39" y1="241.25" x2="441.73" y2="156.02" xlink:href="#d"/><linearGradient id="h" x1="420.74" y1="298.03" x2="446.79" y2="252.12" xlink:href="#d"/><linearGradient id="i" x1="420.42" y1="297.83" x2="446.16" y2="252.46" xlink:href="#d"/><linearGradient id="j" x1="219.98" y1="198.78" x2="413.13" y2="198.78" gradientUnits="userSpaceOnUse"><stop offset="0" stop-color="#cecbff"/><stop offset="0.06" stop-color="#c3bffa"/><stop offset="0.24" stop-color="#a49dec"/><stop offset="0.42" stop-color="#8d82e0"/><stop offset="0.61" stop-color="#7c6fd8"/><stop offset="0.8" stop-color="#7164d4"/><stop offset="1" stop-color="#6e60d2"/></linearGradient><linearGradient id="k" x1="219.98" y1="199.18" x2="409.51" y2="199.18" gradientUnits="userSpaceOnUse"><stop offset="0" stop-color="#efeefc"/><stop offset="0.12" stop-color="#e5e4fa"/><stop offset="0.4" stop-color="#d2d2f7"/><stop offset="0.69" stop-color="#c7c7f6"/><stop offset="1" stop-color="#c3c3f5"/></linearGradient><linearGradient id="l" x1="223.58" y1="199.52" x2="405.77" y2="199.52" gradientUnits="userSpaceOnUse"><stop offset="0" stop-color="#292890"/><stop offset="0.16" stop-color="#2d2892"/><stop offset="0.3" stop-color="#382797"/><stop offset="0.44" stop-color="#4b269f"/><stop offset="0.58" stop-color="#6624ab"/><stop offset="0.72" stop-color="#8822ba"/><stop offset="0.86" stop-color="#b220cc"/><stop offset="0.99" stop-color="#e31de1"/><stop offset="1" stop-color="#e71de3"/></linearGradient><linearGradient id="m" x1="98.72" y1="312.27" x2="382.41" y2="312.27" xlink:href="#j"/><linearGradient id="n" x1="98.69" y1="309.92" x2="382.41" y2="309.92" xlink:href="#k"/><linearGradient id="o" x1="158.72" y1="298.11" x2="359.62" y2="298.11" xlink:href="#k"/><linearGradient id="p" x1="158.73" y1="298.55" x2="359.59" y2="298.55" xlink:href="#k"/><linearGradient id="q" x1="83.52" y1="318.09" x2="246.79" y2="339.11" xlink:href="#k"/><linearGradient id="r" x1="83.65" y1="318.42" x2="246.75" y2="339.42" xlink:href="#k"/><linearGradient id="t" x1="255.88" y1="278.85" x2="272.31" y2="278.85" gradientUnits="userSpaceOnUse"><stop offset="0" stop-color="#707de6"/><stop offset="0.05" stop-color="#6f73df"/><stop offset="0.23" stop-color="#6c51c8"/><stop offset="0.41" stop-color="#6a36b5"/><stop offset="0.6" stop-color="#6823a8"/><stop offset="0.79" stop-color="#6718a1"/><stop offset="1" stop-color="#67149e"/></linearGradient><linearGradient id="u" x1="265.6" y1="284.83" x2="282.04" y2="284.83" xlink:href="#t"/><linearGradient id="v" x1="275.33" y1="290.81" x2="291.76" y2="290.81" xlink:href="#t"/><linearGradient id="w" x1="285.05" y1="296.79" x2="301.49" y2="296.79" xlink:href="#t"/><linearGradient id="x" x1="323.76" y1="322.17" x2="344.76" y2="322.17" xlink:href="#t"/><linearGradient id="y" x1="249.85" y1="288.03" x2="266.28" y2="288.03" xlink:href="#t"/><linearGradient id="z" x1="259.57" y1="294.01" x2="276.01" y2="294.01" xlink:href="#t"/><linearGradient id="aa" x1="269.3" y1="299.99" x2="285.73" y2="299.99" xlink:href="#t"/><linearGradient id="ab" x1="317.93" y1="329.88" x2="334.36" y2="329.88" xlink:href="#t"/><linearGradient id="ac" x1="231.75" y1="252.89" x2="243.82" y2="252.89" xlink:href="#t"/><linearGradient id="ad" x1="241.47" y1="258.87" x2="253.54" y2="258.87" xlink:href="#t"/><linearGradient id="ae" x1="251.2" y1="264.85" x2="263.27" y2="264.85" xlink:href="#t"/><linearGradient id="af" x1="260.92" y1="270.83" x2="272.99" y2="270.83" xlink:href="#t"/><linearGradient id="ag" x1="270.65" y1="276.8" x2="282.72" y2="276.8" xlink:href="#t"/><linearGradient id="ah" x1="280.38" y1="282.78" x2="292.45" y2="282.78" xlink:href="#t"/><linearGradient id="ai" x1="290.1" y1="288.76" x2="302.17" y2="288.76" xlink:href="#t"/><linearGradient id="aj" x1="299.83" y1="294.74" x2="311.9" y2="294.74" xlink:href="#t"/><linearGradient id="ak" x1="309.55" y1="300.72" x2="321.62" y2="300.72" xlink:href="#t"/><linearGradient id="al" x1="319.28" y1="306.7" x2="331.35" y2="306.7" xlink:href="#t"/><linearGradient id="am" x1="329" y1="312.68" x2="341.07" y2="312.68" xlink:href="#t"/><linearGradient id="an" x1="338.73" y1="318.65" x2="350.8" y2="318.65" xlink:href="#t"/><linearGradient id="ao" x1="300.84" y1="334.3" x2="324.46" y2="334.3" xlink:href="#t"/><linearGradient id="ap" x1="285.47" y1="339.16" x2="314.18" y2="339.16" xlink:href="#t"/><linearGradient id="aq" x1="287.52" y1="349.46" x2="303.96" y2="349.46" xlink:href="#t"/><linearGradient id="ar" x1="275.69" y1="329.12" x2="292.13" y2="329.12" xlink:href="#t"/><linearGradient id="as" x1="176.67" y1="271.78" x2="204.5" y2="271.78" xlink:href="#t"/><linearGradient id="at" x1="209.96" y1="313.52" x2="264.84" y2="313.52" xlink:href="#t"/><linearGradient id="au" x1="195.45" y1="294.19" x2="216.44" y2="294.19" xlink:href="#t"/><linearGradient id="av" x1="166.47" y1="274.81" x2="182.9" y2="274.81" xlink:href="#t"/><linearGradient id="aw" x1="176.19" y1="280.79" x2="192.63" y2="280.79" xlink:href="#t"/><linearGradient id="ax" x1="185.92" y1="286.76" x2="202.35" y2="286.76" xlink:href="#t"/><linearGradient id="ay" x1="277.79" y1="343.48" x2="294.24" y2="343.48" xlink:href="#t"/><linearGradient id="az" x1="258.35" y1="331.53" x2="274.78" y2="331.53" xlink:href="#t"/><linearGradient id="ba" x1="268.07" y1="337.5" x2="284.51" y2="337.5" xlink:href="#t"/><linearGradient id="bb" x1="207.25" y1="248.96" x2="223.68" y2="248.96" xlink:href="#t"/><linearGradient id="bc" x1="216.97" y1="254.94" x2="233.41" y2="254.94" xlink:href="#t"/><linearGradient id="bd" x1="226.7" y1="260.92" x2="243.13" y2="260.92" xlink:href="#t"/><linearGradient id="be" x1="236.42" y1="266.89" x2="252.86" y2="266.89" xlink:href="#t"/><linearGradient id="bf" x1="246.15" y1="272.87" x2="262.59" y2="272.87" xlink:href="#t"/><linearGradient id="bg" x1="294.78" y1="302.77" x2="311.21" y2="302.77" xlink:href="#t"/><linearGradient id="bh" x1="304.5" y1="308.74" x2="320.94" y2="308.74" xlink:href="#t"/><linearGradient id="bi" x1="314.23" y1="314.72" x2="330.67" y2="314.72" xlink:href="#t"/><linearGradient id="bj" x1="210.95" y1="264.12" x2="227.38" y2="264.12" xlink:href="#t"/><linearGradient id="bk" x1="220.67" y1="270.1" x2="237.11" y2="270.1" xlink:href="#t"/><linearGradient id="bl" x1="230.4" y1="276.07" x2="246.83" y2="276.07" xlink:href="#t"/><linearGradient id="bm" x1="240.12" y1="282.05" x2="256.56" y2="282.05" xlink:href="#t"/><linearGradient id="bn" x1="279.02" y1="305.97" x2="295.46" y2="305.97" xlink:href="#t"/><linearGradient id="bo" x1="288.75" y1="311.94" x2="305.19" y2="311.94" xlink:href="#t"/><linearGradient id="bp" x1="298.48" y1="317.92" x2="314.91" y2="317.92" xlink:href="#t"/><linearGradient id="bq" x1="308.2" y1="323.9" x2="324.64" y2="323.9" xlink:href="#t"/><linearGradient id="br" x1="196.59" y1="256.56" x2="217.59" y2="256.56" xlink:href="#t"/><linearGradient id="bs" x1="217.39" y1="245.34" x2="234.02" y2="245.34" xlink:href="#t"/><linearGradient id="bt" x1="203.71" y1="272.16" x2="220.14" y2="272.16" xlink:href="#t"/><linearGradient id="bu" x1="213.43" y1="278.14" x2="229.87" y2="278.14" xlink:href="#t"/><linearGradient id="bv" x1="223.16" y1="284.12" x2="239.59" y2="284.12" xlink:href="#t"/><linearGradient id="bw" x1="232.88" y1="290.1" x2="249.32" y2="290.1" xlink:href="#t"/><linearGradient id="bx" x1="242.61" y1="296.08" x2="259.05" y2="296.08" xlink:href="#t"/><linearGradient id="by" x1="252.34" y1="302.06" x2="268.77" y2="302.06" xlink:href="#t"/><linearGradient id="bz" x1="262.06" y1="308.03" x2="278.5" y2="308.03" xlink:href="#t"/><linearGradient id="ca" x1="271.79" y1="314.01" x2="288.22" y2="314.01" xlink:href="#t"/><linearGradient id="cb" x1="281.51" y1="319.99" x2="297.95" y2="319.99" xlink:href="#t"/><linearGradient id="cc" x1="291.24" y1="325.97" x2="307.67" y2="325.97" xlink:href="#t"/><linearGradient id="cd" x1="186.94" y1="263.99" x2="210.38" y2="263.99" xlink:href="#t"/><linearGradient id="ce" x1="197.89" y1="281.29" x2="214.32" y2="281.29" xlink:href="#t"/><linearGradient id="cf" x1="207.61" y1="287.27" x2="224.05" y2="287.27" xlink:href="#t"/><linearGradient id="cg" x1="217.34" y1="293.25" x2="233.78" y2="293.25" xlink:href="#t"/><linearGradient id="ch" x1="227.07" y1="299.23" x2="243.5" y2="299.23" xlink:href="#t"/><linearGradient id="ci" x1="236.79" y1="305.21" x2="253.23" y2="305.21" xlink:href="#t"/><linearGradient id="cj" x1="246.52" y1="311.19" x2="262.95" y2="311.19" xlink:href="#t"/><linearGradient id="ck" x1="256.24" y1="317.17" x2="272.68" y2="317.17" xlink:href="#t"/><linearGradient id="cl" x1="265.97" y1="323.14" x2="282.4" y2="323.14" xlink:href="#t"/><linearGradient id="cm" x1="207.25" y1="248.48" x2="223.68" y2="248.48" xlink:href="#k"/><linearGradient id="cn" x1="216.97" y1="254.46" x2="233.41" y2="254.46" xlink:href="#k"/><linearGradient id="co" x1="226.7" y1="260.43" x2="243.13" y2="260.43" xlink:href="#k"/><linearGradient id="cp" x1="236.42" y1="266.41" x2="252.86" y2="266.41" xlink:href="#k"/><linearGradient id="cq" x1="246.15" y1="272.39" x2="262.59" y2="272.39" xlink:href="#k"/><linearGradient id="cr" x1="255.88" y1="278.37" x2="272.31" y2="278.37" xlink:href="#k"/><linearGradient id="cs" x1="265.6" y1="284.35" x2="282.04" y2="284.35" xlink:href="#k"/><linearGradient id="ct" x1="275.33" y1="290.33" x2="291.76" y2="290.33" xlink:href="#k"/><linearGradient id="cu" x1="285.05" y1="296.31" x2="301.49" y2="296.31" xlink:href="#k"/><linearGradient id="cv" x1="294.78" y1="302.28" x2="311.21" y2="302.28" xlink:href="#k"/><linearGradient id="cw" x1="304.5" y1="308.26" x2="320.94" y2="308.26" xlink:href="#k"/><linearGradient id="cx" x1="314.23" y1="314.24" x2="330.67" y2="314.24" xlink:href="#k"/><linearGradient id="cy" x1="323.76" y1="321.69" x2="344.76" y2="321.69" xlink:href="#k"/><linearGradient id="cz" x1="210.95" y1="263.64" x2="227.38" y2="263.64" xlink:href="#k"/><linearGradient id="da" x1="220.67" y1="269.61" x2="237.11" y2="269.61" xlink:href="#k"/><linearGradient id="db" x1="230.4" y1="275.59" x2="246.83" y2="275.59" xlink:href="#k"/><linearGradient id="dc" x1="240.12" y1="281.57" x2="256.56" y2="281.57" xlink:href="#k"/><linearGradient id="dd" x1="249.85" y1="287.55" x2="266.28" y2="287.55" xlink:href="#k"/><linearGradient id="de" x1="259.57" y1="293.53" x2="276.01" y2="293.53" xlink:href="#k"/><linearGradient id="df" x1="269.3" y1="299.51" x2="285.73" y2="299.51" xlink:href="#k"/><linearGradient id="dg" x1="279.02" y1="305.49" x2="295.46" y2="305.49" xlink:href="#k"/><linearGradient id="dh" x1="288.75" y1="311.46" x2="305.19" y2="311.46" xlink:href="#k"/><linearGradient id="di" x1="298.48" y1="317.44" x2="314.91" y2="317.44" xlink:href="#k"/><linearGradient id="dj" x1="308.2" y1="323.42" x2="324.64" y2="323.42" xlink:href="#k"/><linearGradient id="dk" x1="317.93" y1="329.4" x2="334.36" y2="329.4" xlink:href="#k"/><linearGradient id="dl" x1="196.59" y1="256.08" x2="217.59" y2="256.08" xlink:href="#k"/><linearGradient id="dm" x1="231.75" y1="252.41" x2="243.82" y2="252.41" xlink:href="#k"/><linearGradient id="dn" x1="241.47" y1="258.39" x2="253.54" y2="258.39" xlink:href="#k"/><linearGradient id="do" x1="251.2" y1="264.37" x2="263.27" y2="264.37" xlink:href="#k"/><linearGradient id="dp" x1="260.92" y1="270.34" x2="272.99" y2="270.34" xlink:href="#k"/><linearGradient id="dq" x1="270.65" y1="276.32" x2="282.72" y2="276.32" xlink:href="#k"/><linearGradient id="dr" x1="280.38" y1="282.3" x2="292.45" y2="282.3" xlink:href="#k"/><linearGradient id="ds" x1="290.1" y1="288.28" x2="302.17" y2="288.28" xlink:href="#k"/><linearGradient id="dt" x1="299.83" y1="294.26" x2="311.9" y2="294.26" xlink:href="#k"/><linearGradient id="du" x1="309.55" y1="300.24" x2="321.62" y2="300.24" xlink:href="#k"/><linearGradient id="dv" x1="319.28" y1="306.22" x2="331.35" y2="306.22" xlink:href="#k"/><linearGradient id="dw" x1="329" y1="312.19" x2="341.07" y2="312.19" xlink:href="#k"/><linearGradient id="dx" x1="338.73" y1="318.17" x2="350.8" y2="318.17" xlink:href="#k"/><linearGradient id="dy" x1="217.39" y1="244.86" x2="234.02" y2="244.86" xlink:href="#k"/><linearGradient id="dz" x1="203.71" y1="271.68" x2="220.14" y2="271.68" xlink:href="#k"/><linearGradient id="ea" x1="213.43" y1="277.66" x2="229.87" y2="277.66" xlink:href="#k"/><linearGradient id="eb" x1="223.16" y1="283.64" x2="239.59" y2="283.64" xlink:href="#k"/><linearGradient id="ec" x1="232.88" y1="289.62" x2="249.32" y2="289.62" xlink:href="#k"/><linearGradient id="ed" x1="242.61" y1="295.6" x2="259.05" y2="295.6" xlink:href="#k"/><linearGradient id="ee" x1="252.34" y1="301.57" x2="268.77" y2="301.57" xlink:href="#k"/><linearGradient id="ef" x1="262.06" y1="307.55" x2="278.5" y2="307.55" xlink:href="#k"/><linearGradient id="eg" x1="271.79" y1="313.53" x2="288.22" y2="313.53" xlink:href="#k"/><linearGradient id="eh" x1="281.51" y1="319.51" x2="297.95" y2="319.51" xlink:href="#k"/><linearGradient id="ei" x1="291.24" y1="325.49" x2="307.67" y2="325.49" xlink:href="#k"/><linearGradient id="ej" x1="186.95" y1="263.51" x2="210.38" y2="263.51" xlink:href="#k"/><linearGradient id="ek" x1="300.84" y1="333.82" x2="324.46" y2="333.82" xlink:href="#k"/><linearGradient id="el" x1="197.89" y1="280.81" x2="214.32" y2="280.81" xlink:href="#k"/><linearGradient id="em" x1="207.61" y1="286.79" x2="224.05" y2="286.79" xlink:href="#k"/><linearGradient id="en" x1="217.34" y1="292.77" x2="233.78" y2="292.77" xlink:href="#k"/><linearGradient id="eo" x1="227.07" y1="298.75" x2="243.5" y2="298.75" xlink:href="#k"/><linearGradient id="ep" x1="236.79" y1="304.73" x2="253.23" y2="304.73" xlink:href="#k"/><linearGradient id="eq" x1="246.52" y1="310.71" x2="262.95" y2="310.71" xlink:href="#k"/><linearGradient id="er" x1="256.24" y1="316.68" x2="272.68" y2="316.68" xlink:href="#k"/><linearGradient id="es" x1="265.97" y1="322.66" x2="282.4" y2="322.66" xlink:href="#k"/><linearGradient id="et" x1="275.69" y1="328.64" x2="292.13" y2="328.64" xlink:href="#k"/><linearGradient id="eu" x1="176.67" y1="271.3" x2="204.5" y2="271.3" xlink:href="#k"/><linearGradient id="ev" x1="285.47" y1="338.68" x2="314.18" y2="338.68" xlink:href="#k"/><linearGradient id="ew" x1="195.45" y1="293.71" x2="216.44" y2="293.71" xlink:href="#k"/><linearGradient id="ex" x1="166.47" y1="274.33" x2="182.9" y2="274.33" xlink:href="#k"/><linearGradient id="ey" x1="176.19" y1="280.3" x2="192.63" y2="280.3" xlink:href="#k"/><linearGradient id="ez" x1="185.92" y1="286.28" x2="202.35" y2="286.28" xlink:href="#k"/><linearGradient id="fa" x1="258.35" y1="331.04" x2="274.78" y2="331.04" xlink:href="#k"/><linearGradient id="fb" x1="268.07" y1="337.02" x2="284.51" y2="337.02" xlink:href="#k"/><linearGradient id="fc" x1="287.52" y1="348.98" x2="303.96" y2="348.98" xlink:href="#k"/><linearGradient id="fd" x1="282.42" y1="341.56" x2="294.24" y2="341.56" xlink:href="#k"/><linearGradient id="fe" x1="277.79" y1="344.45" x2="289.61" y2="344.45" xlink:href="#k"/><linearGradient id="ff" x1="209.96" y1="313.04" x2="264.84" y2="313.04" xlink:href="#k"/><linearGradient id="fg" x1="332.63" y1="382.13" x2="386.54" y2="382.13" xlink:href="#j"/><linearGradient id="fh" x1="332.64" y1="354.97" x2="334.69" y2="354.97" gradientUnits="userSpaceOnUse"><stop offset="0" stop-color="#9493e3"/><stop offset="0.06" stop-color="#8887d9"/><stop offset="0.24" stop-color="#6665bf"/><stop offset="0.42" stop-color="#4b4aaa"/><stop offset="0.61" stop-color="#38379c"/><stop offset="0.8" stop-color="#2d2c93"/><stop offset="1" stop-color="#292890"/></linearGradient><linearGradient id="fi" x1="367.7" y1="381.64" x2="381.05" y2="381.64" xlink:href="#fh"/><linearGradient id="fj" x1="382.74" y1="353.93" x2="335.85" y2="353.93" xlink:href="#fh"/><linearGradient id="fk" x1="382.74" y1="353.94" x2="335.85" y2="353.94" xlink:href="#fh"/><linearGradient id="fl" x1="381.59" y1="357.95" x2="337.03" y2="357.95" xlink:href="#l"/><linearGradient id="fm" x1="27.31" y1="225.45" x2="170.13" y2="225.45" xlink:href="#j"/><linearGradient id="fn" x1="27.31" y1="224.19" x2="170.13" y2="224.19" xlink:href="#k"/><linearGradient id="fo" x1="68.86" y1="236.33" x2="168.16" y2="236.33" xlink:href="#k"/><linearGradient id="fp" x1="68.86" y1="235.27" x2="168.16" y2="235.27" xlink:href="#k"/><linearGradient id="fq" x1="29.47" y1="211.42" x2="128.78" y2="211.42" xlink:href="#j"/><linearGradient id="fr" x1="29.47" y1="229.82" x2="68.86" y2="229.82" xlink:href="#j"/><linearGradient id="fs" x1="68.86" y1="235.27" x2="168.16" y2="235.27" xlink:href="#j"/><linearGradient id="ft" x1="108.25" y1="247.66" x2="168.16" y2="247.66" gradientUnits="userSpaceOnUse"><stop offset="0" stop-color="#7759e5"/><stop offset="0.11" stop-color="#6653df"/><stop offset="0.32" stop-color="#4b49d7"/><stop offset="0.54" stop-color="#3842d1"/><stop offset="0.76" stop-color="#2d3ecd"/><stop offset="1" stop-color="#293dcc"/></linearGradient><linearGradient id="fu" x1="68.86" y1="253.67" x2="108.25" y2="253.67" xlink:href="#j"/><linearGradient id="fv" x1="70.88" y1="182.17" x2="100.91" y2="220.94" gradientUnits="userSpaceOnUse"><stop offset="0" stop-color="#cecbff"/><stop offset="0.1" stop-color="#bcb5fa"/><stop offset="0.27" stop-color="#a093f2"/><stop offset="0.44" stop-color="#8a78ed"/><stop offset="0.62" stop-color="#7a65e8"/><stop offset="0.8" stop-color="#715ae6"/><stop offset="1" stop-color="#6e56e5"/></linearGradient><linearGradient id="fw" x1="123.51" y1="216.27" x2="138.66" y2="206.58" xlink:href="#l"/><linearGradient id="fx" x1="175.59" y1="236.69" x2="178.91" y2="236.69" gradientUnits="userSpaceOnUse"><stop offset="0" stop-color="#792890"/><stop offset="0.2" stop-color="#7d2893"/><stop offset="0.39" stop-color="#88269b"/><stop offset="0.57" stop-color="#9b25aa"/><stop offset="0.75" stop-color="#b622be"/><stop offset="0.93" stop-color="#d81fd7"/><stop offset="1" stop-color="#e71de3"/></linearGradient><linearGradient id="fy" x1="130.02" y1="267.73" x2="189.99" y2="267.73" gradientTransform="matrix(0.98, -0.01, 0.02, 1.02, -18.38, -13.35)" xlink:href="#ft"/><linearGradient id="fz" x1="119.69" y1="271.49" x2="131.49" y2="271.49" gradientUnits="userSpaceOnUse"><stop offset="0" stop-color="#e71de3"/><stop offset="0.01" stop-color="#e31de1"/><stop offset="0.14" stop-color="#b220cc"/><stop offset="0.28" stop-color="#8822ba"/><stop offset="0.42" stop-color="#6624ab"/><stop offset="0.56" stop-color="#4b269f"/><stop offset="0.7" stop-color="#382797"/><stop offset="0.84" stop-color="#2d2892"/><stop offset="1" stop-color="#292890"/></linearGradient><linearGradient id="ga" x1="130.02" y1="265.98" x2="189.11" y2="265.98" gradientTransform="matrix(0.98, -0.01, 0.02, 1.02, -18.38, -13.35)" xlink:href="#j"/><linearGradient id="gb" x1="99.3" y1="274.29" x2="117.21" y2="274.17" xlink:href="#fx"/><linearGradient id="gc" x1="280.27" y1="240.9" x2="355.91" y2="107.55" xlink:href="#d"/><linearGradient id="gd" x1="279.33" y1="240.33" x2="354.08" y2="108.55" xlink:href="#d"/><linearGradient id="ge" x1="285.08" y1="133.01" x2="291.37" y2="125.63" xlink:href="#fh"/><linearGradient id="gf" x1="316.88" y1="209.9" x2="347.81" y2="209.9" xlink:href="#fh"/><linearGradient id="gg" x1="316.45" y1="212.43" x2="347.39" y2="212.43" xlink:href="#fh"/><linearGradient id="gh" x1="316.02" y1="214.95" x2="346.96" y2="214.95" xlink:href="#fh"/><linearGradient id="gi" x1="315.59" y1="214.95" x2="338.42" y2="214.95" xlink:href="#fh"/><linearGradient id="gj" x1="313.56" y1="230.1" x2="344.5" y2="230.1" xlink:href="#fh"/><linearGradient id="gk" x1="313.13" y1="232.62" x2="344.07" y2="232.62" xlink:href="#fh"/><linearGradient id="gl" x1="312.7" y1="235.15" x2="343.64" y2="235.15" xlink:href="#fh"/><linearGradient id="gm" x1="312.28" y1="235.15" x2="335.11" y2="235.15" xlink:href="#fh"/><linearGradient id="gn" x1="295.94" y1="117.36" x2="311.63" y2="87.08" xlink:href="#l"/><linearGradient id="go" x1="268.34" y1="223.61" x2="306.33" y2="223.61" xlink:href="#a"/><linearGradient id="gp" x1="282.79" y1="146.75" x2="288.82" y2="139.37" xlink:href="#fh"/><linearGradient id="gq" x1="280.32" y1="160.71" x2="286.28" y2="153.13" xlink:href="#fh"/><linearGradient id="gr" x1="277.47" y1="174.19" x2="284.4" y2="167.01" xlink:href="#fh"/><linearGradient id="gs" x1="275.5" y1="187.93" x2="281.6" y2="180.68" xlink:href="#fh"/><linearGradient id="gt" x1="326.52" y1="162.75" x2="336.05" y2="149.28" xlink:href="#a"/><linearGradient id="gu" x1="323.42" y1="186.73" x2="332.49" y2="173.91" xlink:href="#fh"/><linearGradient id="gv" x1="343.28" y1="198.7" x2="352.35" y2="185.88" xlink:href="#fh"/><linearGradient id="gw" x1="232.76" y1="150.63" x2="226.04" y2="129.82" xlink:href="#l"/><linearGradient id="gx" x1="208.2" y1="176.01" x2="237.81" y2="134.14" xlink:href="#a"/><linearGradient id="gy" x1="221.36" y1="146.82" x2="237.96" y2="146.82" xlink:href="#k"/><linearGradient id="gz" x1="60.63" y1="390.62" x2="193.9" y2="390.62" xlink:href="#j"/><linearGradient id="ha" x1="60.62" y1="388.78" x2="193.9" y2="388.78" xlink:href="#k"/><linearGradient id="hb" x1="103.3" y1="337.59" x2="155.91" y2="337.59" gradientUnits="userSpaceOnUse"><stop offset="0" stop-color="#23a6ff"/><stop offset="0.23" stop-color="#21a2fc"/><stop offset="0.45" stop-color="#1d97f4"/><stop offset="0.66" stop-color="#1484e5"/><stop offset="0.87" stop-color="#0969d1"/><stop offset="1" stop-color="#0054c1"/></linearGradient><linearGradient id="hc" x1="108.89" y1="291.1" x2="155.59" y2="291.1" xlink:href="#l"/><linearGradient id="hd" x1="103.27" y1="254.05" x2="166.04" y2="254.05" xlink:href="#hb"/><linearGradient id="he" x1="148.72" y1="255.31" x2="148.72" y2="272.46" xlink:href="#l"/><linearGradient id="hf" x1="121.63" y1="342.35" x2="121.63" y2="408.6" xlink:href="#l"/><linearGradient id="hg" x1="126.06" y1="215.94" x2="139.3" y2="215.94" xlink:href="#l"/></defs><title>isopictures</title><g class="a"><path class="b" d="M256.74,102.35l-24-15a.6.6,0,0,1-.27-.6l4.7-28.21a.6.6,0,0,1,.91-.41l24,15a.6.6,0,0,1,.27.6l-4.7,28.21A.6.6,0,0,1,256.74,102.35Z"/><path class="c" d="M469,260.81l-15.93-10a.38.38,0,0,1-.18-.4L456,231.68a.4.4,0,0,1,.61-.27l15.93,10a.41.41,0,0,1,.18.4l-3.13,18.74A.39.39,0,0,1,469,260.81Z"/><path class="d" d="M379.69,137.74l-15.93-10a.38.38,0,0,1-.18-.4l3.12-18.74a.4.4,0,0,1,.61-.27l15.93,10a.41.41,0,0,1,.18.4l-3.13,18.74A.39.39,0,0,1,379.69,137.74Z"/><g class="e"><path class="f" d="M221.17,97.8,176.33,69.68a1.13,1.13,0,0,0-.91-.12h0l-1.24.21h0a1.13,1.13,0,0,0-1.08.93l-13.61,81.88a1.13,1.13,0,0,0,.51,1.13l44.84,28.12a1.12,1.12,0,0,0,.74.16h0l1.56-.28h.07a1.12,1.12,0,0,0,.86-.91l13.61-81.87A1.14,1.14,0,0,0,221.17,97.8Z"/><path class="g" d="M204.84,181.84,160,153.72a1.13,1.13,0,0,1-.51-1.13L173.1,70.71a1.12,1.12,0,0,1,1.7-.76l44.85,28.12a1.12,1.12,0,0,1,.51,1.13l-13.62,81.88A1.11,1.11,0,0,1,204.84,181.84Z"/></g><g class="h"><path class="i" d="M455.47,164l-53.1-33.3a1.32,1.32,0,0,0-1.07-.14h0l-1.48.26h0a1.32,1.32,0,0,0-1.28,1.1l-16.12,97a1.33,1.33,0,0,0,.6,1.34l53.1,33.3a1.33,1.33,0,0,0,.88.18v0l1.85-.33h.08a1.3,1.3,0,0,0,1-1.07l16.12-97A1.33,1.33,0,0,0,455.47,164Z"/><path class="j" d="M436.13,263.5,383,230.2a1.33,1.33,0,0,1-.6-1.34l16.12-97a1.33,1.33,0,0,1,2-.91l53.1,33.3a1.35,1.35,0,0,1,.61,1.35l-16.12,96.95A1.33,1.33,0,0,1,436.13,263.5Z"/></g><g class="k"><path class="l" d="M403.69,150.67l-.32,1.76a.35.35,0,0,0,.17.36l41.72,26a.23.23,0,0,0,.35-.15l.31-1.71a.5.5,0,0,0-.24-.53l-41.57-25.89A.29.29,0,0,0,403.69,150.67Z"/><path class="l" d="M402.94,155.08l-.31,1.76a.33.33,0,0,0,.16.36l41.72,26a.25.25,0,0,0,.36-.15l.3-1.71a.5.5,0,0,0-.24-.53L403.36,154.9A.29.29,0,0,0,402.94,155.08Z"/><path class="l" d="M402.19,159.48l-.31,1.77a.34.34,0,0,0,.16.36l41.72,26a.25.25,0,0,0,.36-.15l.3-1.72a.49.49,0,0,0-.24-.52l-41.57-25.89A.29.29,0,0,0,402.19,159.48Z"/></g><g class="k"><path class="l" d="M401.43,163.89l-.32,1.77a.36.36,0,0,0,.17.36L443,192a.25.25,0,0,0,.36-.15l.31-1.72a.52.52,0,0,0-.24-.52l-41.57-25.89A.28.28,0,0,0,401.43,163.89Z"/><path class="l" d="M400.68,168.3l-.32,1.77a.36.36,0,0,0,.17.36l41.71,26a.25.25,0,0,0,.36-.15l.31-1.72a.5.5,0,0,0-.24-.52L401.1,168.13A.28.28,0,0,0,400.68,168.3Z"/><path class="l" d="M399.93,172.71l-.32,1.77a.36.36,0,0,0,.17.36l41.71,26a.24.24,0,0,0,.36-.15l.31-1.72a.48.48,0,0,0-.24-.52l-41.57-25.89A.28.28,0,0,0,399.93,172.71Z"/></g><g class="k"><path class="l" d="M399.16,177.12l-.31,1.77a.34.34,0,0,0,.17.36l41.71,26a.25.25,0,0,0,.36-.15l.31-1.72a.51.51,0,0,0-.24-.52L399.58,177A.29.29,0,0,0,399.16,177.12Z"/><path class="l" d="M398.42,181.53l-.32,1.77a.36.36,0,0,0,.17.36l41.71,26a.25.25,0,0,0,.36-.15l.31-1.72a.51.51,0,0,0-.24-.52l-41.58-25.89A.28.28,0,0,0,398.42,181.53Z"/><path class="l" d="M397.67,185.94l-.32,1.77a.36.36,0,0,0,.17.36l41.71,26a.25.25,0,0,0,.36-.15l.31-1.72a.51.51,0,0,0-.24-.52l-41.57-25.9A.29.29,0,0,0,397.67,185.94Z"/></g><g class="k"><path class="l" d="M396.9,190.35l-.31,1.77a.35.35,0,0,0,.16.36l41.72,26a.25.25,0,0,0,.36-.15l.3-1.72a.48.48,0,0,0-.24-.52l-41.57-25.9A.3.3,0,0,0,396.9,190.35Z"/><path class="l" d="M396.15,194.76l-.31,1.77a.35.35,0,0,0,.16.36l41.72,26a.26.26,0,0,0,.36-.15l.3-1.72a.48.48,0,0,0-.24-.52l-41.57-25.9A.3.3,0,0,0,396.15,194.76Z"/><path class="l" d="M395.4,199.17l-.31,1.77a.34.34,0,0,0,.17.36l41.71,26a.26.26,0,0,0,.36-.15l.3-1.72a.48.48,0,0,0-.24-.52L395.82,199A.3.3,0,0,0,395.4,199.17Z"/></g><g class="k"><path class="l" d="M394.64,203.58l-.31,1.77a.34.34,0,0,0,.16.36l41.72,26a.26.26,0,0,0,.36-.15l.3-1.72a.48.48,0,0,0-.24-.52l-41.57-25.9A.3.3,0,0,0,394.64,203.58Z"/><path class="l" d="M393.89,208l-.31,1.77a.34.34,0,0,0,.16.36l41.72,26a.26.26,0,0,0,.36-.15l.3-1.72a.48.48,0,0,0-.24-.52l-41.57-25.9A.3.3,0,0,0,393.89,208Z"/><path class="l" d="M393.14,212.4l-.31,1.76a.34.34,0,0,0,.16.37l41.72,26a.26.26,0,0,0,.36-.15l.3-1.72a.48.48,0,0,0-.24-.52l-41.57-25.9A.3.3,0,0,0,393.14,212.4Z"/><path class="l" d="M392.39,216.81l-.31,1.76a.34.34,0,0,0,.16.36l27.55,17.17a.25.25,0,0,0,.36-.15l.31-1.72a.5.5,0,0,0-.24-.52l-27.41-17.08A.3.3,0,0,0,392.39,216.81Z"/></g><g class="h"><path class="m" d="M453.47,256.7,425.2,239a.68.68,0,0,0-.57-.08h0l-.78.14h0a.7.7,0,0,0-.68.59l-8.58,51.62a.7.7,0,0,0,.32.71l28.27,17.73a.72.72,0,0,0,.47.1h0l1-.18h0a.69.69,0,0,0,.54-.57l8.58-51.62A.68.68,0,0,0,453.47,256.7Z"/><path class="n" d="M443.18,309.68,414.91,292a.7.7,0,0,1-.32-.71l8.58-51.62a.71.71,0,0,1,1.07-.49l28.27,17.73a.71.71,0,0,1,.32.72l-8.58,51.62A.7.7,0,0,1,443.18,309.68Z"/></g><g class="o"><g class="e"><path class="l" d="M424.3,248.59l25.38,15.76a.13.13,0,0,1,.07.15l-5.64,32.09-25.48-15.81,5.67-32.19m-.1-.58a.37.37,0,0,0-.36.26l-5.71,32.46a.44.44,0,0,0,.21.46l25.75,16a.28.28,0,0,0,.15,0,.29.29,0,0,0,.3-.23l5.71-32.4a.65.65,0,0,0-.31-.66l-25.57-15.87a.33.33,0,0,0-.17,0Z"/></g><path class="p" d="M419.53,284.44l-.54,3.1a.34.34,0,0,0,.16.36l20.49,12.71a.24.24,0,0,0,.36-.15l.53-3a.5.5,0,0,0-.24-.53L420,284.27A.29.29,0,0,0,419.53,284.44Z"/><path class="l" d="M431.26,263.86c-.41,2.3.91,7.06,3.3,8.57s4.95-.8,5.35-3.1-1.2-5.39-3.59-6.9S431.66,261.56,431.26,263.86Z"/><path class="l" d="M442.39,285.49c-3.65,2.48-9.59-.57-11.26-1.51l-.2-.12-.23-.14-.07,0c-7.34-5.16-7.41-9.62-7.41-9.8a5.64,5.64,0,0,1,2.82-1.79c2.21-.63,5-.1,7.91,1.73A20.08,20.08,0,0,1,442.39,285.49Z"/></g><path class="q" d="M410.64,175.9,252,78.19a4.09,4.09,0,0,0-2.84-.54h0l-.06,0h0l-3.6.79h0l-.1,0h0a4.08,4.08,0,0,0-3.15,3.32L220.09,215a8.07,8.07,0,0,0,3.74,8.21l155.89,96a5,5,0,0,0,4.52.36h0l2.56-.5.23,0,.19,0v0a5,5,0,0,0,3.71-4l22.14-133.78A5.24,5.24,0,0,0,410.64,175.9Z"/><path class="r" d="M379.72,319.23l-155.89-96a8.07,8.07,0,0,1-3.74-8.21l22-133.22A4.1,4.1,0,0,1,248.33,79L407,176.7a5.25,5.25,0,0,1,2.42,5.31L387.29,315.78A5,5,0,0,1,379.72,319.23Z"/><path class="s" d="M380.49,314.88,225.91,219.73a4.88,4.88,0,0,1-2.26-5L245,85.94a2.59,2.59,0,0,1,3.92-1.78l154.42,95a5.15,5.15,0,0,1,2.39,5.25L384.41,313.09A2.6,2.6,0,0,1,380.49,314.88Z"/><path class="t" d="M258,411.35,100.64,314.46a4.08,4.08,0,0,1,0-7l114.7-70.45a7.39,7.39,0,0,1,7.72,0L380.49,334a4,4,0,0,1,0,6.88L265.73,411.35A7.4,7.4,0,0,1,258,411.35Z"/><path class="u" d="M380.49,319.71,223.06,222.77a7.37,7.37,0,0,0-7.72,0l-114.7,70.46A4,4,0,0,0,98.73,297v7l0-3.06a4,4,0,0,0,1.89,4L258,401.77a7.38,7.38,0,0,0,7.75,0l114.76-70.48a4,4,0,0,0,1.89-3.69l0,3.06v-7.51h0A4,4,0,0,0,380.49,319.71Z"/><path class="v" d="M258,397.06,100.64,300.18a4.08,4.08,0,0,1,0-7l114.7-70.46a7.37,7.37,0,0,1,7.72,0l157.43,96.94a4,4,0,0,1,0,6.87L265.73,397.07A7.38,7.38,0,0,1,258,397.06Z"/><path class="w" d="M359.59,321a3.56,3.56,0,0,1-1.68,2.62l-58.46,36.57a6.59,6.59,0,0,1-6.9,0L160.44,278.79a3.53,3.53,0,0,1-1.7-2.65s0,0,0,0a3.58,3.58,0,0,1,1.7-3.51l58.41-36.54a6.58,6.58,0,0,1,6.87,0l132.19,81.42A3.56,3.56,0,0,1,359.59,321Z"/><path class="x" d="M359.59,321a3.56,3.56,0,0,1-1.68,2.62l-58.46,36.57a6.59,6.59,0,0,1-6.9,0L160.44,278.79a3.53,3.53,0,0,1-1.7-2.65s0,0,0,0a3.55,3.55,0,0,1,1.7-2.65l58.41-36.53a6.52,6.52,0,0,1,6.87,0l132.19,81.41A3.56,3.56,0,0,1,359.59,321Z"/><path class="y" d="M210.79,363.29l-55-33.89a1.43,1.43,0,0,1,0-2.44l37.13-23.26a2.57,2.57,0,0,1,2.7,0l55.07,33.91a1.41,1.41,0,0,1,0,2.41L213.5,363.29A2.59,2.59,0,0,1,210.79,363.29Z"/><path class="z" d="M251.27,339.09a0,0,0,0,1,0,.07,1.41,1.41,0,0,1-.61.86L213.5,363.29a2.59,2.59,0,0,1-2.71,0l-55-33.9a1.36,1.36,0,0,1-.62-.86s0,0,0-.06a1.35,1.35,0,0,1,.64-.88l37.12-23.26a2.59,2.59,0,0,1,2.71,0l55.07,33.9A1.43,1.43,0,0,1,251.27,339.09Z"/><path class="z" d="M251.27,339.09a0,0,0,0,1,0,.07,1.41,1.41,0,0,1-.61.86L213.5,363.29a2.59,2.59,0,0,1-2.71,0l-55-33.9a1.36,1.36,0,0,1-.62-.86s0,0,0-.06a1.35,1.35,0,0,1,.64-.88l37.12-23.26a2.59,2.59,0,0,1,2.71,0l55.07,33.9A1.43,1.43,0,0,1,251.27,339.09Z"/><path class="aa" d="M272.11,277.86l-7.44-4.57a.79.79,0,0,0-.81,0l-7.78,4.86a.42.42,0,0,0-.2.38h0v1h0a.42.42,0,0,0,.2.36l7.43,4.56a.74.74,0,0,0,.81,0l7.79-4.86a.42.42,0,0,0,.2-.36h0v-1h0A.42.42,0,0,0,272.11,277.86Z"/><path class="ab" d="M281.84,283.84l-7.44-4.57a.74.74,0,0,0-.81,0l-7.78,4.86a.44.44,0,0,0-.21.38h0v1h0a.45.45,0,0,0,.21.36l7.42,4.56a.78.78,0,0,0,.82,0l7.78-4.86a.45.45,0,0,0,.21-.36h0v-1h0A.42.42,0,0,0,281.84,283.84Z"/><path class="ac" d="M291.56,289.82l-7.44-4.57a.74.74,0,0,0-.81,0l-7.78,4.86a.43.43,0,0,0-.2.38h0v1h0a.42.42,0,0,0,.2.35l7.43,4.57a.8.8,0,0,0,.82,0l7.78-4.87a.41.41,0,0,0,.2-.35h0v-1h0A.42.42,0,0,0,291.56,289.82Z"/><path class="ad" d="M301.29,295.8l-7.44-4.57a.74.74,0,0,0-.81,0l-7.78,4.86a.4.4,0,0,0-.2.38h0v1h0a.43.43,0,0,0,.21.36l7.42,4.57a.8.8,0,0,0,.82,0l7.79-4.87a.42.42,0,0,0,.2-.35h0v-1h0A.42.42,0,0,0,301.29,295.8Z"/><path class="ae" d="M344.76,322.94h0a.45.45,0,0,0-.2-.36l-3.46-2.12h0l-8.54-5.24a.79.79,0,0,0-.81,0L324,320.08a.4.4,0,0,0-.2.37h0v1h0a.43.43,0,0,0,.21.36l4.56,2.79,7.42,4.57a.8.8,0,0,0,.82,0l7.79-4.87a.45.45,0,0,0,.2-.36h0v-1Z"/><path class="af" d="M266.08,287l-7.43-4.57a.8.8,0,0,0-.82,0l-7.78,4.86a.43.43,0,0,0-.2.38h0v1h0a.42.42,0,0,0,.2.36l7.43,4.56a.76.76,0,0,0,.82,0l7.78-4.86a.44.44,0,0,0,.2-.36h0v-1h0A.4.4,0,0,0,266.08,287Z"/><path class="ag" d="M275.81,293l-7.44-4.57a.74.74,0,0,0-.81,0l-7.78,4.86a.41.41,0,0,0-.2.38h0v1h0a.41.41,0,0,0,.2.36l7.42,4.56a.8.8,0,0,0,.82,0l7.79-4.86a.44.44,0,0,0,.2-.36h0v-1h0A.42.42,0,0,0,275.81,293Z"/><path class="ah" d="M285.53,299l-7.43-4.57a.76.76,0,0,0-.82,0l-7.78,4.86a.42.42,0,0,0-.2.38h0v1h0a.42.42,0,0,0,.2.35l7.43,4.57a.8.8,0,0,0,.82,0l7.78-4.87a.4.4,0,0,0,.2-.35h0v-1h0A.4.4,0,0,0,285.53,299Z"/><path class="ai" d="M334.16,328.89l-7.44-4.57a.79.79,0,0,0-.81,0l-7.78,4.86a.43.43,0,0,0-.2.38h0v1h0a.44.44,0,0,0,.2.36l7.43,4.56a.76.76,0,0,0,.82,0l7.78-4.86a.44.44,0,0,0,.2-.36h0v-1h0A.42.42,0,0,0,334.16,328.89Z"/><path class="aj" d="M231.75,251.21h0v.95h0a.42.42,0,0,0,.2.36l7.43,4.57a.8.8,0,0,0,.82,0l3.41-2.16a.43.43,0,0,0,.21-.36h0v-1h0a.45.45,0,0,0-.2-.37l-7.44-4.57a.79.79,0,0,0-.81,0L232,250.84A.42.42,0,0,0,231.75,251.21Z"/><path class="ak" d="M241.48,257.19h0v1h0a.4.4,0,0,0,.2.36l7.42,4.56a.76.76,0,0,0,.82,0l3.42-2.15a.42.42,0,0,0,.2-.36h0v-1h0a.41.41,0,0,0-.2-.36l-7.44-4.57a.79.79,0,0,0-.81,0l-3.41,2.15A.42.42,0,0,0,241.48,257.19Z"/><path class="al" d="M251.2,263.17h0v1h0a.42.42,0,0,0,.2.36l7.43,4.56a.76.76,0,0,0,.82,0l3.42-2.15a.42.42,0,0,0,.2-.36h0v-1h0a.42.42,0,0,0-.2-.36l-7.44-4.57a.79.79,0,0,0-.81,0l-3.42,2.15A.44.44,0,0,0,251.2,263.17Z"/><path class="am" d="M260.93,269.15h0v1h0a.44.44,0,0,0,.2.36l7.43,4.56a.74.74,0,0,0,.81,0l3.42-2.15a.4.4,0,0,0,.2-.36h0v-1h0a.4.4,0,0,0-.2-.36l-7.43-4.57a.8.8,0,0,0-.82,0l-3.41,2.15A.41.41,0,0,0,260.93,269.15Z"/><path class="an" d="M270.65,275.13h0v1h0a.44.44,0,0,0,.2.36l7.43,4.56a.8.8,0,0,0,.82,0l3.42-2.15a.44.44,0,0,0,.2-.36h0v-1h0a.42.42,0,0,0-.2-.36l-7.44-4.57a.79.79,0,0,0-.81,0l-3.41,2.15A.42.42,0,0,0,270.65,275.13Z"/><path class="ao" d="M280.38,281.11h0v1h0a.42.42,0,0,0,.2.35L288,287a.79.79,0,0,0,.81,0l3.42-2.16a.39.39,0,0,0,.2-.35h0v-1h0a.4.4,0,0,0-.2-.36l-7.43-4.57a.76.76,0,0,0-.82,0l-3.41,2.15A.4.4,0,0,0,280.38,281.11Z"/><path class="ap" d="M290.1,287.09h0v1h0a.43.43,0,0,0,.21.36l7.42,4.57a.8.8,0,0,0,.82,0l3.42-2.16a.42.42,0,0,0,.2-.35h0v-1h0a.42.42,0,0,0-.2-.36l-7.44-4.57a.74.74,0,0,0-.81,0l-3.41,2.15A.43.43,0,0,0,290.1,287.09Z"/><path class="aq" d="M299.83,293.06h0V294h0a.42.42,0,0,0,.2.36l7.43,4.57a.8.8,0,0,0,.82,0l3.41-2.16a.43.43,0,0,0,.21-.36h0v-1h0a.44.44,0,0,0-.21-.36l-7.43-4.57a.79.79,0,0,0-.81,0L300,292.68A.44.44,0,0,0,299.83,293.06Z"/><path class="ar" d="M309.56,299h0v1h0a.43.43,0,0,0,.21.36l7.42,4.56a.76.76,0,0,0,.82,0l3.42-2.15a.42.42,0,0,0,.2-.36h0v-1h0a.44.44,0,0,0-.2-.36L314,296.51a.79.79,0,0,0-.81,0l-3.41,2.15A.42.42,0,0,0,309.56,299Z"/><path class="as" d="M319.28,305h0v1h0a.42.42,0,0,0,.2.36l7.43,4.56a.76.76,0,0,0,.82,0l3.42-2.15a.42.42,0,0,0,.2-.36h0v-1h0a.42.42,0,0,0-.2-.36l-7.44-4.57a.79.79,0,0,0-.81,0l-3.42,2.15A.44.44,0,0,0,319.28,305Z"/><path class="at" d="M329,311h0v1h0a.41.41,0,0,0,.2.36l7.42,4.56a.76.76,0,0,0,.82,0l3.42-2.15a.42.42,0,0,0,.2-.36h0v-1h0a.4.4,0,0,0-.2-.36l-7.43-4.57a.8.8,0,0,0-.82,0l-3.41,2.15A.41.41,0,0,0,329,311Z"/><path class="au" d="M350.8,319.38h0a.42.42,0,0,0-.2-.36l-7.44-4.57a.74.74,0,0,0-.81,0l-3.42,2.15a.43.43,0,0,0-.2.38h0v1h0a.44.44,0,0,0,.2.36l7.43,4.56a.8.8,0,0,0,.82,0l3.42-2.15a.44.44,0,0,0,.2-.36h0v-1Z"/><path class="av" d="M324.46,335.86h0a.41.41,0,0,0-.2-.36l-3.45-2.12h0l-11.17-6.84a.79.79,0,0,0-.81,0L301,331.41a.42.42,0,0,0-.2.37h0v.95h0a.42.42,0,0,0,.2.36l7.18,4.39,7.43,4.56a.76.76,0,0,0,.82,0l7.78-4.86a.4.4,0,0,0,.2-.36h0v-1Z"/><path class="aw" d="M314.18,342.28h0a.42.42,0,0,0-.2-.36l-3.46-2.13h0l-16.25-9.93a.76.76,0,0,0-.81,0l-7.78,4.87a.4.4,0,0,0-.2.38h0v1h0a.42.42,0,0,0,.2.36l12.27,7.5,7.42,4.56a.76.76,0,0,0,.82,0l7.79-4.86a.44.44,0,0,0,.2-.36h0v-1Z"/><path class="ax" d="M303.76,348.47l-7.44-4.57a.79.79,0,0,0-.81,0l-7.78,4.86a.42.42,0,0,0-.2.38h0v1h0a.42.42,0,0,0,.2.36l7.43,4.56a.74.74,0,0,0,.81,0l7.79-4.86a.42.42,0,0,0,.2-.36h0v-1h0A.42.42,0,0,0,303.76,348.47Z"/><path class="ay" d="M275.9,330.12l7.42,4.56a.76.76,0,0,0,.82,0l7.79-4.86a.42.42,0,0,0,.2-.36h0v-1h0a.42.42,0,0,0-.2-.36l-7.44-4.57a.79.79,0,0,0-.81,0l-7.78,4.86a.42.42,0,0,0-.2.38h0v1h0A.4.4,0,0,0,275.9,330.12Z"/><path class="az" d="M176.87,269.25l4.56,2.79,14.27,8.82a.79.79,0,0,0,.81,0L204.3,276a.42.42,0,0,0,.2-.35h0v-1h0a.42.42,0,0,0-.2-.36L194,267.93h0l-8.53-5.24a.8.8,0,0,0-.82,0l-7.78,4.87a.42.42,0,0,0-.2.38h0v1h0A.42.42,0,0,0,176.87,269.25Z"/><path class="ba" d="M264.84,325.71h0v-1h0a.42.42,0,0,0-.2-.35l-45.88-28.27a.8.8,0,0,0-.82,0L210.16,301a.44.44,0,0,0-.2.38h0v1h0a.44.44,0,0,0,.2.36L256,330.93a.8.8,0,0,0,.82,0l7.78-4.87A.42.42,0,0,0,264.84,325.71Z"/><path class="bb" d="M216.44,295.93h0v-1h0a.4.4,0,0,0-.2-.36l-3.45-2.13h0l-8.53-5.24a.8.8,0,0,0-.82,0l-7.78,4.87a.42.42,0,0,0-.2.38h0v1h0a.42.42,0,0,0,.2.36l4.56,2.79,7.43,4.57a.8.8,0,0,0,.82,0l7.78-4.87A.42.42,0,0,0,216.44,295.93Z"/><path class="bc" d="M182.9,275.15h0v-1h0a.42.42,0,0,0-.2-.36l-7.44-4.57a.76.76,0,0,0-.81,0l-7.78,4.87a.42.42,0,0,0-.2.38h0v1h0a.42.42,0,0,0,.2.36l7.43,4.57a.8.8,0,0,0,.82,0l7.78-4.87A.42.42,0,0,0,182.9,275.15Z"/><path class="bd" d="M192.63,281.12h0v-1h0a.45.45,0,0,0-.2-.36L185,275.22a.79.79,0,0,0-.81,0l-7.78,4.87a.4.4,0,0,0-.2.38h0v1h0a.43.43,0,0,0,.21.36l7.42,4.57a.8.8,0,0,0,.82,0l7.79-4.87A.42.42,0,0,0,192.63,281.12Z"/><path class="be" d="M202.35,287.1h0v-1h0a.41.41,0,0,0-.2-.36l-7.43-4.57a.8.8,0,0,0-.82,0l-7.78,4.86a.44.44,0,0,0-.2.38h0v.95h0a.42.42,0,0,0,.2.36l7.43,4.56a.78.78,0,0,0,.82,0l7.78-4.87A.42.42,0,0,0,202.35,287.1Z"/><path class="bf" d="M289.61,346.71h0v-.83l.44.27a.78.78,0,0,0,.82,0l3.17-2a.42.42,0,0,0,.2-.36h0v-1h0a.42.42,0,0,0-.2-.36l-7.44-4.57a.79.79,0,0,0-.81,0l-3.16,2a.42.42,0,0,0-.2.38h0v.81l-.45-.28a.79.79,0,0,0-.81,0l-3.16,2a.4.4,0,0,0-.2.38h0v1h0a.42.42,0,0,0,.2.36l7.43,4.57a.79.79,0,0,0,.81,0l3.17-2A.42.42,0,0,0,289.61,346.71Z"/><path class="bg" d="M274.78,331.86h0v-1h0a.42.42,0,0,0-.2-.36L267.15,326a.8.8,0,0,0-.82,0l-7.78,4.87a.42.42,0,0,0-.2.38h0v1h0a.42.42,0,0,0,.2.36l7.43,4.57a.8.8,0,0,0,.82,0l7.78-4.87A.42.42,0,0,0,274.78,331.86Z"/><path class="bh" d="M284.51,337.84h0v-1h0a.44.44,0,0,0-.2-.36l-7.44-4.57a.79.79,0,0,0-.81,0l-7.78,4.86a.42.42,0,0,0-.2.38h0v.95h0a.4.4,0,0,0,.2.36l7.42,4.57a.8.8,0,0,0,.82,0l7.79-4.87A.42.42,0,0,0,284.51,337.84Z"/><path class="bi" d="M207.45,250l7.43,4.56a.8.8,0,0,0,.82,0l7.78-4.87a.41.41,0,0,0,.2-.35h0v-1h0a.4.4,0,0,0-.2-.36l-7.43-4.57a.76.76,0,0,0-.82,0l-7.78,4.86a.43.43,0,0,0-.2.38h0v1h0A.44.44,0,0,0,207.45,250Z"/><path class="bj" d="M217,255.58h0a.4.4,0,0,0,.2.35l7.42,4.57a.8.8,0,0,0,.82,0l7.79-4.87a.42.42,0,0,0,.2-.35h0v-1h0a.42.42,0,0,0-.2-.36l-7.44-4.57a.74.74,0,0,0-.81,0l-7.78,4.86a.4.4,0,0,0-.2.38h0Z"/><path class="bk" d="M243.13,260.28a.42.42,0,0,0-.2-.36l-7.43-4.57a.8.8,0,0,0-.82,0l-7.78,4.87a.42.42,0,0,0-.2.38h0v1h0a.42.42,0,0,0,.2.36l7.43,4.57a.8.8,0,0,0,.82,0l7.78-4.87a.4.4,0,0,0,.2-.36h0v-1h0Z"/><path class="bl" d="M252.86,266.26a.44.44,0,0,0-.2-.36l-7.44-4.57a.79.79,0,0,0-.81,0l-7.78,4.86a.42.42,0,0,0-.2.38h0v.95h0a.42.42,0,0,0,.2.36l7.43,4.57a.79.79,0,0,0,.81,0l7.79-4.87a.42.42,0,0,0,.2-.36h0v-1h0Z"/><path class="bm" d="M262.59,272.24a.43.43,0,0,0-.21-.36L255,267.31a.8.8,0,0,0-.82,0l-7.77,4.86a.43.43,0,0,0-.21.38h0v1h0a.43.43,0,0,0,.21.36l7.42,4.56a.76.76,0,0,0,.82,0l7.78-4.86a.4.4,0,0,0,.2-.36h0v-1Z"/><path class="bn" d="M311.21,302.13a.42.42,0,0,0-.2-.36l-7.43-4.57a.8.8,0,0,0-.82,0L295,302.07a.42.42,0,0,0-.2.38h0v1h0a.42.42,0,0,0,.2.36l7.43,4.57a.8.8,0,0,0,.82,0l7.78-4.87a.4.4,0,0,0,.2-.36h0v-1h0Z"/><path class="bo" d="M320.94,308.11a.44.44,0,0,0-.2-.36l-7.44-4.57a.79.79,0,0,0-.81,0L304.71,308a.42.42,0,0,0-.2.38h0v.95h0a.42.42,0,0,0,.2.36l7.43,4.56a.76.76,0,0,0,.81,0l7.79-4.87a.42.42,0,0,0,.2-.36h0v-1h0Z"/><path class="bp" d="M330.66,315.06h0v-1h0a.4.4,0,0,0-.2-.36L323,309.16a.8.8,0,0,0-.82,0L314.43,314a.44.44,0,0,0-.2.38h0v1h0a.42.42,0,0,0,.2.36l7.43,4.56a.76.76,0,0,0,.82,0l7.78-4.86A.4.4,0,0,0,330.66,315.06Z"/><path class="bq" d="M211,264.76h0a.42.42,0,0,0,.2.36l7.43,4.57a.79.79,0,0,0,.81,0l7.79-4.87a.42.42,0,0,0,.2-.35h0v-1h0a.42.42,0,0,0-.2-.36l-7.44-4.57a.76.76,0,0,0-.81,0l-7.78,4.87a.4.4,0,0,0-.2.38h0Z"/><path class="br" d="M220.67,270.74h0a.43.43,0,0,0,.21.36l7.42,4.57a.8.8,0,0,0,.82,0l7.78-4.87a.43.43,0,0,0,.21-.36h0v-1h0a.46.46,0,0,0-.21-.36l-7.43-4.57a.79.79,0,0,0-.81,0l-7.78,4.87a.41.41,0,0,0-.21.38h0Z"/><path class="bs" d="M246.83,275.44a.44.44,0,0,0-.2-.36l-7.44-4.57a.79.79,0,0,0-.81,0l-7.78,4.86a.44.44,0,0,0-.2.38h0v.95h0a.42.42,0,0,0,.2.36l7.43,4.56a.76.76,0,0,0,.81,0l7.79-4.87a.42.42,0,0,0,.2-.36h0v-1Z"/><path class="bt" d="M256.56,281.42a.42.42,0,0,0-.2-.36l-7.44-4.57a.79.79,0,0,0-.81,0l-7.78,4.86a.42.42,0,0,0-.2.38h0v1h0a.43.43,0,0,0,.21.36l7.42,4.56a.76.76,0,0,0,.82,0l7.79-4.86a.45.45,0,0,0,.2-.36h0v-1Z"/><path class="bu" d="M279,306.61h0a.42.42,0,0,0,.2.36l7.43,4.57a.79.79,0,0,0,.81,0l7.79-4.87a.42.42,0,0,0,.2-.35h0v-1h0a.42.42,0,0,0-.2-.36l-7.44-4.58a.79.79,0,0,0-.81,0l-7.78,4.87a.4.4,0,0,0-.2.38h0Z"/><path class="bv" d="M305.18,312.28h0v-1h0a.42.42,0,0,0-.2-.36l-7.43-4.57a.8.8,0,0,0-.82,0L289,311.25a.41.41,0,0,0-.21.37h0v.95h0a.42.42,0,0,0,.2.36l7.43,4.57a.8.8,0,0,0,.82,0l7.78-4.87A.4.4,0,0,0,305.18,312.28Z"/><path class="bw" d="M314.91,318.26h0v-1h0a.42.42,0,0,0-.2-.36l-7.44-4.57a.79.79,0,0,0-.81,0l-7.78,4.86a.42.42,0,0,0-.2.38h0v1h0a.42.42,0,0,0,.2.36l7.43,4.56a.74.74,0,0,0,.81,0l7.79-4.86A.42.42,0,0,0,314.91,318.26Z"/><path class="bx" d="M324.64,323.27a.41.41,0,0,0-.21-.36L317,318.34a.79.79,0,0,0-.81,0l-7.78,4.86a.46.46,0,0,0-.21.38h0v1h0a.43.43,0,0,0,.21.36l7.42,4.56a.76.76,0,0,0,.82,0l7.78-4.86a.43.43,0,0,0,.21-.36h0v-1Z"/><path class="by" d="M196.8,256.16l4.56,2.79,7.42,4.57a.8.8,0,0,0,.82,0l7.79-4.87a.43.43,0,0,0,.2-.35h0v-1h0a.42.42,0,0,0-.2-.36l-3.46-2.13h0l-8.54-5.23a.74.74,0,0,0-.81,0l-7.78,4.86a.4.4,0,0,0-.2.38h0v1h0A.43.43,0,0,0,196.8,256.16Z"/><path class="bz" d="M217.6,243.58l4.56,2.79,7.43,4.57a.79.79,0,0,0,.81,0l3.42-2.16a.4.4,0,0,0,.2-.35h0v-1h0a.4.4,0,0,0-.2-.36L230.37,245h0l-8.54-5.23a.76.76,0,0,0-.82,0l-3.41,2.15a.4.4,0,0,0-.2.38h0v1h0A.42.42,0,0,0,217.6,243.58Z"/><path class="ca" d="M203.71,272.8h0a.42.42,0,0,0,.2.36l7.43,4.56a.76.76,0,0,0,.82,0l7.78-4.86a.42.42,0,0,0,.2-.36h0v-1h0a.42.42,0,0,0-.2-.36l-7.44-4.57a.79.79,0,0,0-.81,0l-7.78,4.86a.44.44,0,0,0-.2.38h0Z"/><path class="cb" d="M213.43,278.78h0a.43.43,0,0,0,.21.36l7.42,4.56a.76.76,0,0,0,.82,0l7.79-4.86a.42.42,0,0,0,.2-.36h0v-1h0a.42.42,0,0,0-.2-.36l-7.44-4.57a.79.79,0,0,0-.81,0l-7.78,4.86a.42.42,0,0,0-.2.38h0Z"/><path class="cc" d="M223.16,284.76h0a.44.44,0,0,0,.2.36l7.43,4.56a.76.76,0,0,0,.82,0l7.78-4.86a.41.41,0,0,0,.2-.36h0v-1h0a.4.4,0,0,0-.2-.36L232,278.56a.8.8,0,0,0-.82,0l-7.78,4.86a.43.43,0,0,0-.2.38h0Z"/><path class="cd" d="M233.09,291.1l7.43,4.56a.79.79,0,0,0,.81,0l7.79-4.87a.41.41,0,0,0,.2-.35h0v-1h0a.42.42,0,0,0-.2-.36l-7.44-4.57a.74.74,0,0,0-.81,0l-7.78,4.86a.41.41,0,0,0-.2.38h0v1h0A.44.44,0,0,0,233.09,291.1Z"/><path class="ce" d="M242.81,297.07l7.43,4.57a.8.8,0,0,0,.82,0l7.78-4.87a.4.4,0,0,0,.2-.35h0v-1h0a.4.4,0,0,0-.2-.36l-7.43-4.57a.76.76,0,0,0-.82,0l-7.77,4.86a.41.41,0,0,0-.21.38h0v1h0A.42.42,0,0,0,242.81,297.07Z"/><path class="cf" d="M252.54,303.05l7.43,4.57a.79.79,0,0,0,.81,0l7.79-4.87a.42.42,0,0,0,.2-.35h0v-1h0a.42.42,0,0,0-.2-.36l-7.44-4.58a.79.79,0,0,0-.81,0l-7.78,4.87a.4.4,0,0,0-.2.38h0v1h0A.42.42,0,0,0,252.54,303.05Z"/><path class="cg" d="M262.27,309l7.42,4.57a.8.8,0,0,0,.82,0l7.78-4.87a.43.43,0,0,0,.21-.36h0v-1h0a.45.45,0,0,0-.21-.36l-7.43-4.57a.79.79,0,0,0-.81,0l-7.78,4.87a.43.43,0,0,0-.21.37h0v.95h0A.43.43,0,0,0,262.27,309Z"/><path class="ch" d="M272,315l7.43,4.56a.76.76,0,0,0,.82,0l7.78-4.86a.42.42,0,0,0,.2-.36h0v-1h0a.42.42,0,0,0-.2-.36l-7.44-4.57a.79.79,0,0,0-.81,0L272,313.31a.44.44,0,0,0-.2.38h0v1h0A.42.42,0,0,0,272,315Z"/><path class="ci" d="M281.72,321l7.42,4.56a.76.76,0,0,0,.82,0l7.79-4.86a.42.42,0,0,0,.2-.36h0v-1h0a.42.42,0,0,0-.2-.36l-7.44-4.57a.79.79,0,0,0-.81,0l-7.78,4.86a.42.42,0,0,0-.2.38h0v1h0A.43.43,0,0,0,281.72,321Z"/><path class="cj" d="M299.69,331.53l7.78-4.86a.44.44,0,0,0,.2-.36h0v-1h0a.4.4,0,0,0-.2-.36L300,320.41a.8.8,0,0,0-.82,0l-7.78,4.86a.43.43,0,0,0-.2.38h0v1h0a.44.44,0,0,0,.2.36l7.43,4.56A.76.76,0,0,0,299.69,331.53Z"/><path class="ck" d="M187.15,262.84l4.56,2.79,9.86,6.07a.8.8,0,0,0,.82,0l7.78-4.87a.39.39,0,0,0,.2-.35h0v-1h0a.43.43,0,0,0-.21-.36l-5.89-3.64h0l-8.54-5.23a.74.74,0,0,0-.81,0l-7.78,4.86a.41.41,0,0,0-.2.38h0v1h0A.44.44,0,0,0,187.15,262.84Z"/><path class="cl" d="M197.89,281.93h0a.42.42,0,0,0,.2.36l7.43,4.57a.8.8,0,0,0,.82,0l7.78-4.87a.42.42,0,0,0,.2-.36h0v-1h0a.42.42,0,0,0-.2-.36l-7.43-4.57a.8.8,0,0,0-.82,0l-7.78,4.87a.42.42,0,0,0-.2.37h0Z"/><path class="cm" d="M207.82,288.27l7.43,4.56a.74.74,0,0,0,.81,0l7.79-4.86a.42.42,0,0,0,.2-.36h0v-1h0a.44.44,0,0,0-.2-.36l-7.44-4.57a.79.79,0,0,0-.81,0l-7.78,4.86a.42.42,0,0,0-.2.38h0v1h0A.42.42,0,0,0,207.82,288.27Z"/><path class="cn" d="M217.34,293.89h0a.42.42,0,0,0,.2.36l7.43,4.56a.76.76,0,0,0,.82,0l7.78-4.86a.4.4,0,0,0,.2-.36h0v-1h0a.4.4,0,0,0-.2-.36l-7.43-4.57a.8.8,0,0,0-.82,0l-7.78,4.86a.44.44,0,0,0-.2.38h0Z"/><path class="co" d="M227.07,299.87h0a.44.44,0,0,0,.2.36l7.43,4.56a.74.74,0,0,0,.81,0l7.79-4.86a.44.44,0,0,0,.2-.36h0v-1h0a.42.42,0,0,0-.2-.36l-7.44-4.57a.79.79,0,0,0-.81,0l-7.78,4.86a.41.41,0,0,0-.2.38h0Z"/><path class="cp" d="M237,306.21l7.42,4.56a.8.8,0,0,0,.82,0L253,305.9a.42.42,0,0,0,.21-.35h0v-1h0a.43.43,0,0,0-.21-.36l-7.43-4.57a.74.74,0,0,0-.81,0L237,304.51a.44.44,0,0,0-.21.38h0v1h0A.45.45,0,0,0,237,306.21Z"/><path class="cq" d="M246.72,312.18l7.43,4.57a.8.8,0,0,0,.82,0l7.78-4.87a.42.42,0,0,0,.2-.35h0v-1h0a.42.42,0,0,0-.2-.36l-7.44-4.57a.74.74,0,0,0-.81,0l-7.78,4.86a.42.42,0,0,0-.2.38h0v1h0A.42.42,0,0,0,246.72,312.18Z"/><path class="cr" d="M256.45,318.16l7.42,4.57a.8.8,0,0,0,.82,0l7.79-4.87a.45.45,0,0,0,.2-.36h0v-1h0a.45.45,0,0,0-.2-.36L265,311.6a.79.79,0,0,0-.81,0l-7.78,4.87a.4.4,0,0,0-.2.38h0v1h0A.43.43,0,0,0,256.45,318.16Z"/><path class="cs" d="M266.17,324.14l7.43,4.57a.8.8,0,0,0,.82,0l7.78-4.87a.42.42,0,0,0,.2-.36h0v-1h0a.41.41,0,0,0-.2-.36l-7.43-4.57a.8.8,0,0,0-.82,0l-7.78,4.87a.42.42,0,0,0-.2.37h0v.95h0A.42.42,0,0,0,266.17,324.14Z"/><path class="ct" d="M214.88,253.56,207.45,249a.43.43,0,0,1,0-.73l7.78-4.86a.76.76,0,0,1,.82,0l7.43,4.57a.42.42,0,0,1,0,.72l-7.78,4.87A.8.8,0,0,1,214.88,253.56Z"/><path class="cu" d="M224.6,259.54,217.18,255a.43.43,0,0,1,0-.73l7.78-4.86a.74.74,0,0,1,.81,0l7.44,4.57a.42.42,0,0,1,0,.72l-7.79,4.87A.8.8,0,0,1,224.6,259.54Z"/><path class="cv" d="M234.33,265.51,226.9,261a.43.43,0,0,1,0-.73l7.78-4.87a.8.8,0,0,1,.82,0l7.43,4.57a.43.43,0,0,1,0,.73l-7.78,4.86A.76.76,0,0,1,234.33,265.51Z"/><path class="cw" d="M244.06,271.49l-7.43-4.56a.44.44,0,0,1,0-.74l7.78-4.86a.79.79,0,0,1,.81,0l7.44,4.57a.43.43,0,0,1,0,.73l-7.79,4.86A.74.74,0,0,1,244.06,271.49Z"/><path class="cx" d="M253.78,277.47l-7.42-4.56a.43.43,0,0,1,0-.74l7.77-4.86a.8.8,0,0,1,.82,0l7.43,4.57a.43.43,0,0,1,0,.73l-7.78,4.86A.76.76,0,0,1,253.78,277.47Z"/><path class="cy" d="M263.51,283.45l-7.43-4.56a.44.44,0,0,1,0-.74l7.78-4.86a.79.79,0,0,1,.81,0l7.44,4.57a.42.42,0,0,1,0,.72l-7.79,4.87A.79.79,0,0,1,263.51,283.45Z"/><path class="cz" d="M273.23,289.43l-7.42-4.57a.42.42,0,0,1,0-.73l7.78-4.86a.74.74,0,0,1,.81,0l7.44,4.57a.42.42,0,0,1,0,.72l-7.78,4.87A.8.8,0,0,1,273.23,289.43Z"/><path class="da" d="M283,295.41l-7.43-4.57a.43.43,0,0,1,0-.73l7.78-4.86a.74.74,0,0,1,.81,0l7.44,4.57a.42.42,0,0,1,0,.72l-7.78,4.87A.8.8,0,0,1,283,295.41Z"/><path class="db" d="M292.68,301.39l-7.42-4.57a.42.42,0,0,1,0-.73l7.78-4.86a.74.74,0,0,1,.81,0l7.44,4.57a.42.42,0,0,1,0,.72l-7.79,4.87A.8.8,0,0,1,292.68,301.39Z"/><path class="dc" d="M302.41,307.36,295,302.8a.43.43,0,0,1,0-.73l7.78-4.87a.8.8,0,0,1,.82,0l7.43,4.57a.43.43,0,0,1,0,.73l-7.78,4.86A.76.76,0,0,1,302.41,307.36Z"/><path class="dd" d="M312.14,313.34l-7.43-4.56a.44.44,0,0,1,0-.74l7.78-4.86a.79.79,0,0,1,.81,0l7.44,4.57a.43.43,0,0,1,0,.73L313,313.34A.74.74,0,0,1,312.14,313.34Z"/><path class="de" d="M321.86,319.32l-7.43-4.56a.44.44,0,0,1,0-.74l7.78-4.86a.8.8,0,0,1,.82,0l7.43,4.57a.43.43,0,0,1,0,.73l-7.78,4.86A.78.78,0,0,1,321.86,319.32Z"/><path class="df" d="M344.56,322.57l-3.46-2.12h0l-8.54-5.24a.79.79,0,0,0-.81,0L324,320.08a.42.42,0,0,0,0,.73l4.56,2.79h0l7.42,4.56a.76.76,0,0,0,.82,0l7.79-4.86A.43.43,0,0,0,344.56,322.57Z"/><path class="dg" d="M218.58,268.72l-7.43-4.57a.43.43,0,0,1,0-.73l7.78-4.87a.76.76,0,0,1,.81,0l7.44,4.57a.42.42,0,0,1,0,.72l-7.79,4.87A.79.79,0,0,1,218.58,268.72Z"/><path class="dh" d="M228.3,274.69l-7.42-4.56a.42.42,0,0,1,0-.73l7.78-4.87a.79.79,0,0,1,.81,0l7.43,4.57a.43.43,0,0,1,0,.73l-7.78,4.86A.76.76,0,0,1,228.3,274.69Z"/><path class="di" d="M238,280.67l-7.43-4.56a.44.44,0,0,1,0-.74l7.78-4.86a.79.79,0,0,1,.81,0l7.44,4.57a.43.43,0,0,1,0,.73l-7.79,4.86A.74.74,0,0,1,238,280.67Z"/><path class="dj" d="M247.75,286.65l-7.42-4.56a.43.43,0,0,1,0-.74l7.78-4.86a.79.79,0,0,1,.81,0l7.44,4.57a.43.43,0,0,1,0,.73l-7.79,4.86A.78.78,0,0,1,247.75,286.65Z"/><path class="dk" d="M257.48,292.63l-7.43-4.57a.43.43,0,0,1,0-.73l7.78-4.86a.8.8,0,0,1,.82,0l7.43,4.57a.42.42,0,0,1,0,.72l-7.78,4.87A.8.8,0,0,1,257.48,292.63Z"/><path class="dl" d="M267.2,298.61,259.78,294a.42.42,0,0,1,0-.73l7.78-4.86a.74.74,0,0,1,.81,0l7.44,4.57a.42.42,0,0,1,0,.72L268,298.61A.8.8,0,0,1,267.2,298.61Z"/><path class="dm" d="M276.93,304.59,269.5,300a.43.43,0,0,1,0-.73l7.78-4.86a.76.76,0,0,1,.82,0l7.43,4.57a.42.42,0,0,1,0,.72l-7.78,4.87A.8.8,0,0,1,276.93,304.59Z"/><path class="dn" d="M286.66,310.56,279.23,306a.43.43,0,0,1,0-.73L287,300.4a.79.79,0,0,1,.81,0l7.44,4.58a.42.42,0,0,1,0,.72l-7.79,4.87A.76.76,0,0,1,286.66,310.56Z"/><path class="do" d="M296.38,316.54,289,312a.43.43,0,0,1,0-.73l7.77-4.87a.8.8,0,0,1,.82,0L305,311a.43.43,0,0,1,0,.73l-7.78,4.86A.76.76,0,0,1,296.38,316.54Z"/><path class="dp" d="M306.11,322.52,298.68,318a.44.44,0,0,1,0-.74l7.78-4.86a.79.79,0,0,1,.81,0l7.44,4.57a.43.43,0,0,1,0,.73l-7.79,4.86A.74.74,0,0,1,306.11,322.52Z"/><path class="dq" d="M315.83,328.5l-7.42-4.56a.43.43,0,0,1,0-.74l7.78-4.86a.79.79,0,0,1,.81,0l7.43,4.57a.43.43,0,0,1,0,.73l-7.78,4.86A.8.8,0,0,1,315.83,328.5Z"/><path class="dr" d="M325.56,334.48l-7.43-4.57a.43.43,0,0,1,0-.73l7.78-4.86a.79.79,0,0,1,.81,0l7.44,4.57a.42.42,0,0,1,0,.72l-7.78,4.87A.8.8,0,0,1,325.56,334.48Z"/><path class="ds" d="M217.39,257l-3.46-2.13h0l-8.54-5.23a.74.74,0,0,0-.81,0l-7.78,4.86a.42.42,0,0,0,0,.73l4.56,2.79h0l7.42,4.57a.8.8,0,0,0,.82,0l7.79-4.87A.42.42,0,0,0,217.39,257Z"/><path class="dt" d="M239.38,256.13,232,251.57a.43.43,0,0,1,0-.73l3.42-2.16a.79.79,0,0,1,.81,0l7.44,4.58a.42.42,0,0,1,0,.72l-3.41,2.15A.76.76,0,0,1,239.38,256.13Z"/><path class="du" d="M249.1,262.11l-7.42-4.56a.43.43,0,0,1,0-.74l3.41-2.15a.79.79,0,0,1,.81,0l7.44,4.57a.43.43,0,0,1,0,.73l-3.42,2.15A.76.76,0,0,1,249.1,262.11Z"/><path class="dv" d="M258.83,268.09l-7.43-4.56a.44.44,0,0,1,0-.74l3.42-2.15a.79.79,0,0,1,.81,0l7.44,4.57a.43.43,0,0,1,0,.73l-3.42,2.15A.8.8,0,0,1,258.83,268.09Z"/><path class="dw" d="M268.56,274.07l-7.43-4.57a.43.43,0,0,1,0-.73l3.41-2.15a.8.8,0,0,1,.82,0l7.43,4.57a.42.42,0,0,1,0,.72l-3.42,2.16A.79.79,0,0,1,268.56,274.07Z"/><path class="dx" d="M278.28,280.05l-7.43-4.57a.43.43,0,0,1,0-.73l3.41-2.15a.79.79,0,0,1,.81,0l7.44,4.57a.42.42,0,0,1,0,.72l-3.42,2.16A.8.8,0,0,1,278.28,280.05Z"/><path class="dy" d="M288,286l-7.43-4.57a.43.43,0,0,1,0-.73l3.41-2.15a.76.76,0,0,1,.82,0l7.43,4.57a.42.42,0,0,1,0,.72L288.82,286A.79.79,0,0,1,288,286Z"/><path class="dz" d="M297.73,292l-7.42-4.56a.42.42,0,0,1,0-.73l3.41-2.15a.74.74,0,0,1,.81,0l7.44,4.57a.42.42,0,0,1,0,.72L298.55,292A.76.76,0,0,1,297.73,292Z"/><path class="ea" d="M307.46,298,300,293.42a.44.44,0,0,1,0-.74l3.42-2.15a.79.79,0,0,1,.81,0l7.43,4.57a.43.43,0,0,1,0,.73L308.28,298A.76.76,0,0,1,307.46,298Z"/><path class="eb" d="M317.18,304l-7.42-4.56a.43.43,0,0,1,0-.74l3.41-2.15a.79.79,0,0,1,.81,0l7.44,4.57a.43.43,0,0,1,0,.73L318,304A.76.76,0,0,1,317.18,304Z"/><path class="ec" d="M326.91,309.94l-7.43-4.56a.44.44,0,0,1,0-.74l3.42-2.15a.79.79,0,0,1,.81,0l7.44,4.57a.43.43,0,0,1,0,.73l-3.42,2.15A.8.8,0,0,1,326.91,309.94Z"/><path class="ed" d="M336.63,315.92l-7.42-4.57a.43.43,0,0,1,0-.73l3.41-2.15a.8.8,0,0,1,.82,0l7.43,4.57a.42.42,0,0,1,0,.72l-3.42,2.16A.8.8,0,0,1,336.63,315.92Z"/><path class="ee" d="M346.36,321.9l-7.43-4.57a.43.43,0,0,1,0-.73l3.42-2.15a.74.74,0,0,1,.81,0L350.6,319a.42.42,0,0,1,0,.72l-3.42,2.16A.8.8,0,0,1,346.36,321.9Z"/><path class="ef" d="M233.82,247.1,230.37,245h0l-8.54-5.23a.76.76,0,0,0-.82,0l-3.41,2.15a.43.43,0,0,0,0,.73l4.56,2.79h0l7.43,4.57a.79.79,0,0,0,.81,0l3.42-2.16A.42.42,0,0,0,233.82,247.1Z"/><path class="eg" d="M211.34,276.76l-7.43-4.56a.44.44,0,0,1,0-.74l7.78-4.86a.79.79,0,0,1,.81,0l7.44,4.57a.43.43,0,0,1,0,.73l-7.78,4.86A.76.76,0,0,1,211.34,276.76Z"/><path class="eh" d="M221.06,282.74l-7.42-4.56a.43.43,0,0,1,0-.74l7.78-4.86a.79.79,0,0,1,.81,0l7.44,4.57a.43.43,0,0,1,0,.73l-7.79,4.86A.8.8,0,0,1,221.06,282.74Z"/><path class="ei" d="M230.79,288.72l-7.43-4.57a.43.43,0,0,1,0-.73l7.78-4.86a.8.8,0,0,1,.82,0l7.43,4.57a.42.42,0,0,1,0,.72l-7.78,4.87A.8.8,0,0,1,230.79,288.72Z"/><path class="ej" d="M240.52,294.7l-7.43-4.57a.43.43,0,0,1,0-.73l7.78-4.86a.74.74,0,0,1,.81,0l7.44,4.57a.42.42,0,0,1,0,.72l-7.79,4.87A.79.79,0,0,1,240.52,294.7Z"/><path class="ek" d="M250.24,300.68l-7.43-4.57a.43.43,0,0,1,0-.73l7.77-4.86a.76.76,0,0,1,.82,0l7.43,4.57a.42.42,0,0,1,0,.72l-7.78,4.87A.8.8,0,0,1,250.24,300.68Z"/><path class="el" d="M260,306.65l-7.43-4.56a.43.43,0,0,1,0-.73l7.78-4.87a.79.79,0,0,1,.81,0l7.44,4.58a.42.42,0,0,1,0,.72l-7.79,4.86A.74.74,0,0,1,260,306.65Z"/><path class="em" d="M269.69,312.63l-7.42-4.56a.42.42,0,0,1,0-.73l7.78-4.87a.79.79,0,0,1,.81,0l7.43,4.57a.43.43,0,0,1,0,.73l-7.78,4.86A.76.76,0,0,1,269.69,312.63Z"/><path class="en" d="M279.42,318.61,272,314.05a.44.44,0,0,1,0-.74l7.78-4.86a.79.79,0,0,1,.81,0L288,313a.43.43,0,0,1,0,.73l-7.78,4.86A.76.76,0,0,1,279.42,318.61Z"/><path class="eo" d="M289.14,324.59,281.72,320a.43.43,0,0,1,0-.74l7.78-4.86a.79.79,0,0,1,.81,0l7.44,4.57a.42.42,0,0,1,0,.72L290,324.59A.8.8,0,0,1,289.14,324.59Z"/><path class="ep" d="M298.87,330.57,291.44,326a.43.43,0,0,1,0-.73l7.78-4.86a.8.8,0,0,1,.82,0l7.43,4.57a.42.42,0,0,1,0,.72l-7.78,4.87A.8.8,0,0,1,298.87,330.57Z"/><path class="eq" d="M210.17,265.15l-5.89-3.64h0l-8.54-5.23a.74.74,0,0,0-.81,0l-7.78,4.86a.43.43,0,0,0,0,.73l4.56,2.79h0l9.86,6.08a.8.8,0,0,0,.82,0l7.78-4.87A.42.42,0,0,0,210.17,265.15Z"/><path class="er" d="M324.25,335.5l-3.45-2.12h0l-11.17-6.84a.79.79,0,0,0-.81,0L301,331.41a.43.43,0,0,0,0,.73l7.18,4.39h0l7.43,4.56a.76.76,0,0,0,.82,0l7.78-4.86A.43.43,0,0,0,324.25,335.5Z"/><path class="es" d="M205.52,285.89l-7.43-4.56a.43.43,0,0,1,0-.73l7.78-4.87a.8.8,0,0,1,.82,0l7.43,4.57a.43.43,0,0,1,0,.73l-7.78,4.86A.76.76,0,0,1,205.52,285.89Z"/><path class="et" d="M215.25,291.87l-7.43-4.56a.44.44,0,0,1,0-.74l7.78-4.86a.79.79,0,0,1,.81,0l7.44,4.57a.43.43,0,0,1,0,.73l-7.79,4.86A.74.74,0,0,1,215.25,291.87Z"/><path class="eu" d="M225,297.85l-7.43-4.56a.44.44,0,0,1,0-.74l7.78-4.86a.8.8,0,0,1,.82,0l7.43,4.57a.43.43,0,0,1,0,.73l-7.78,4.86A.8.8,0,0,1,225,297.85Z"/><path class="ev" d="M234.7,303.83l-7.43-4.57a.43.43,0,0,1,0-.73l7.78-4.86a.79.79,0,0,1,.81,0l7.44,4.57a.42.42,0,0,1,0,.72l-7.79,4.87A.79.79,0,0,1,234.7,303.83Z"/><path class="ew" d="M244.42,309.81,237,305.24a.42.42,0,0,1,0-.73l7.78-4.86a.74.74,0,0,1,.81,0l7.43,4.57a.42.42,0,0,1,0,.72l-7.78,4.87A.8.8,0,0,1,244.42,309.81Z"/><path class="ex" d="M254.15,315.79l-7.43-4.57a.43.43,0,0,1,0-.73l7.78-4.86a.74.74,0,0,1,.81,0l7.44,4.57a.42.42,0,0,1,0,.72L255,315.79A.8.8,0,0,1,254.15,315.79Z"/><path class="ey" d="M263.87,321.76l-7.42-4.56a.42.42,0,0,1,0-.73l7.78-4.87a.79.79,0,0,1,.81,0l7.44,4.58a.42.42,0,0,1,0,.72l-7.79,4.86A.76.76,0,0,1,263.87,321.76Z"/><path class="ez" d="M273.6,327.74l-7.43-4.56a.43.43,0,0,1,0-.73l7.78-4.87a.8.8,0,0,1,.82,0l7.43,4.57a.43.43,0,0,1,0,.73l-7.78,4.86A.76.76,0,0,1,273.6,327.74Z"/><path class="fa" d="M283.32,333.72l-7.42-4.56a.44.44,0,0,1,0-.74l7.78-4.86a.79.79,0,0,1,.81,0l7.44,4.57a.43.43,0,0,1,0,.73l-7.79,4.86A.76.76,0,0,1,283.32,333.72Z"/><path class="fb" d="M204.3,274.31,194,267.93h0l-8.53-5.24a.8.8,0,0,0-.82,0l-7.78,4.87a.43.43,0,0,0,0,.73l4.56,2.79h0l14.27,8.82a.79.79,0,0,0,.81,0L204.3,275A.42.42,0,0,0,204.3,274.31Z"/><path class="fc" d="M314,341.92l-3.46-2.13h0l-16.25-9.93a.76.76,0,0,0-.81,0l-7.78,4.87a.43.43,0,0,0,0,.73L298,342.94h0l7.42,4.57a.8.8,0,0,0,.82,0l7.79-4.87A.42.42,0,0,0,314,341.92Z"/><path class="fd" d="M216.24,294.6l-3.45-2.13h0l-8.53-5.24a.8.8,0,0,0-.82,0l-7.78,4.87a.43.43,0,0,0,0,.73l4.56,2.79h0l7.43,4.56a.78.78,0,0,0,.82,0l7.78-4.87A.42.42,0,0,0,216.24,294.6Z"/><path class="fe" d="M174.1,279.4l-7.43-4.56a.43.43,0,0,1,0-.73l7.78-4.87a.76.76,0,0,1,.81,0l7.44,4.57a.42.42,0,0,1,0,.72l-7.78,4.87A.78.78,0,0,1,174.1,279.4Z"/><path class="ff" d="M183.82,285.38l-7.42-4.56a.42.42,0,0,1,0-.73l7.78-4.87a.79.79,0,0,1,.81,0l7.44,4.57a.43.43,0,0,1,0,.73l-7.79,4.86A.76.76,0,0,1,183.82,285.38Z"/><path class="fg" d="M193.55,291.36l-7.43-4.56a.44.44,0,0,1,0-.74l7.78-4.86a.8.8,0,0,1,.82,0l7.43,4.57a.43.43,0,0,1,0,.73l-7.78,4.86A.76.76,0,0,1,193.55,291.36Z"/><path class="fh" d="M266,336.12l-7.43-4.56a.43.43,0,0,1,0-.73l7.78-4.87a.8.8,0,0,1,.82,0l7.43,4.57a.43.43,0,0,1,0,.73l-7.78,4.86A.76.76,0,0,1,266,336.12Z"/><path class="fi" d="M275.7,342.1l-7.42-4.56a.43.43,0,0,1,0-.74l7.78-4.86a.79.79,0,0,1,.81,0l7.44,4.57a.43.43,0,0,1,0,.73l-7.79,4.86A.76.76,0,0,1,275.7,342.1Z"/><path class="fj" d="M295.16,354.06l-7.43-4.56a.44.44,0,0,1,0-.74l7.78-4.86a.79.79,0,0,1,.81,0l7.44,4.57a.42.42,0,0,1,0,.72L296,354.06A.79.79,0,0,1,295.16,354.06Z"/><path class="fk" d="M290.05,345.19l-7.42-4.56a.43.43,0,0,1,0-.74l3.16-2a.79.79,0,0,1,.81,0l7.44,4.57a.43.43,0,0,1,0,.73l-3.17,2A.76.76,0,0,1,290.05,345.19Z"/><path class="fl" d="M285.43,348.08,278,343.52a.43.43,0,0,1,0-.73l3.16-2a.79.79,0,0,1,.81,0l7.44,4.57a.43.43,0,0,1,0,.73l-3.17,2A.76.76,0,0,1,285.43,348.08Z"/><path class="fm" d="M210.16,301l7.78-4.86a.8.8,0,0,1,.82,0l45.88,28.27a.42.42,0,0,1,0,.72L256.86,330a.8.8,0,0,1-.82,0L210.16,301.7A.43.43,0,0,1,210.16,301Z"/><path class="t" d="M379.14,404.18c0,6.13-8.75,11.1-19.55,11.1s-19.56-5-19.56-11.1,8.76-11.1,19.56-11.1S379.14,398.05,379.14,404.18Z"/><path class="fn" d="M332.63,354l7.4,46.08h.08c.79,5.73,9.2,10.23,19.48,10.23,10.8,0,19.55-5,19.55-11.1l7.4-45.2Z"/><path class="fo" d="M334.37,354a6.82,6.82,0,0,0,.32,2l-2.05-2Z"/><path class="fp" d="M386.54,354l-7.41,45.2c0,4.49-4.69,8.35-11.45,10.09a7.14,7.14,0,0,0,1.63-4.42l6.8-40.66c5.43-2.7,8.66-6.57,8.7-10.21Z"/><ellipse class="fq" cx="359.59" cy="353.98" rx="26.96" ry="15.3"/><ellipse class="fr" cx="359.59" cy="353.98" rx="23.46" ry="11.8"/><ellipse class="fs" cx="359.59" cy="353.93" rx="25.11" ry="13.76"/><path class="ft" d="M384.7,353.94a8.42,8.42,0,0,1-2.14,5.25c-3.74,4.62-12.17,8.5-23,8.5-13.34,0-23-5.9-24.81-11.83a6.51,6.51,0,0,1-.3-1.92c0-6.5,10.32-13.76,25.11-13.76S384.7,347.44,384.7,353.94Z"/><path class="fu" d="M383.45,357.94a11.07,11.07,0,0,1-.89,1.25c-3.74,4.62-12.17,8.5-23,8.5-11.77,0-20.7-4.59-23.86-9.75,3.17-5.14,12.11-9.73,23.86-9.73S380.28,352.8,383.45,357.94Z"/><g class="fv"><path class="fw" d="M172.24,127.05l-1.47,8.36a.1.1,0,0,0,.06.11l6.62,4.12a.08.08,0,0,0,.12,0l1.47-8.34a.17.17,0,0,0-.08-.17L172.38,127A.09.09,0,0,0,172.24,127.05Z"/><g class="e"><path class="l" d="M181.44,133.15l-.16.92a.2.2,0,0,0,.09.19l21.69,13.5a.12.12,0,0,0,.18-.07l.16-.9a.26.26,0,0,0-.12-.27l-21.62-13.46A.15.15,0,0,0,181.44,133.15Z"/><path class="l" d="M181.05,135.44l-.16.92a.18.18,0,0,0,.09.19l21.69,13.51a.12.12,0,0,0,.18-.08l.16-.89a.28.28,0,0,0-.12-.28l-21.62-13.46A.15.15,0,0,0,181.05,135.44Z"/><path class="l" d="M180.67,137.74l-.17.91a.18.18,0,0,0,.09.19l21.69,13.51a.12.12,0,0,0,.18-.08l.16-.89a.26.26,0,0,0-.12-.27l-21.62-13.47A.14.14,0,0,0,180.67,137.74Z"/><path class="l" d="M180.28,140l-.17.92a.17.17,0,0,0,.09.18l14.32,8.93a.13.13,0,0,0,.19-.08l.16-.89a.27.27,0,0,0-.13-.28l-14.25-8.87A.14.14,0,0,0,180.28,140Z"/></g></g><path class="t" d="M107.49,274.26l-79.2-48.77a2.06,2.06,0,0,1,0-3.51L86,186.52a3.71,3.71,0,0,1,3.88,0l79.25,48.8a2,2,0,0,1,0,3.46l-57.77,35.48A3.75,3.75,0,0,1,107.49,274.26Z"/><path class="fx" d="M169.16,229.12l-79.25-48.8a3.71,3.71,0,0,0-3.88,0L28.29,215.78a2.06,2.06,0,0,0-1,1.76h0v2.51h0a2,2,0,0,0,1,1.75l79.2,48.77a3.7,3.7,0,0,0,3.9,0l57.77-35.48a2,2,0,0,0,1-1.72h0v-2.28h0A2,2,0,0,0,169.16,229.12Z"/><path class="fy" d="M107.49,268.06l-79.2-48.77a2.06,2.06,0,0,1,0-3.51L86,180.32a3.71,3.71,0,0,1,3.88,0l79.25,48.8a2,2,0,0,1,0,3.46l-57.77,35.48A3.75,3.75,0,0,1,107.49,268.06Z"/><path class="fz" d="M68.86,242.58l59.92-36.8,39.38,24.3-59.91,36.8Z"/><path class="ga" d="M168.16,230.08v-1.63c-21.24-23.84-39.39-24.79-39.39-24.79l-59.91,36.8v2.12l.21.13,39.18,24.17,59.91-36.8"/><path class="gb" d="M128.78,203.66s-7.72-14.12-39.39-23.4L29.47,217.07v1.22l.15.09c2.58,1.59,39.23,24.21,39.24,24.2l59.91-36.79h0Z"/><path class="gc" d="M68.86,242.58v-2.12s-7.72-14.12-39.39-23.39v1.22Z"/><path class="gd" d="M168.16,230.08v-1.63c-21.24-23.84-39.39-24.79-39.39-24.79l-59.91,36.8v2.12l.21.13,39.18,24.17,59.91-36.8"/><polygon class="ge" points="168.16 228.45 108.25 265.25 108.25 266.88 168.16 230.08 168.16 228.45"/><path class="gf" d="M68.86,242.58v-2.12s18.15.95,39.39,24.79v1.63Z"/><path class="gg" d="M128.75,203.66l-59.89,36.8C61.14,214.66,42.41,204,42.41,204l59.89-36.8S121,177.86,128.75,203.66Z"/><path class="gh" d="M124.54,218.13l.23-2.93h-4.22l15.87-9.7a55.6,55.6,0,0,1,5.24,2.14Z"/><path class="t" d="M175.62,246l-56.1,34.8-4.86-3,56-34.65,9.19-2.65a.17.17,0,0,1,.17.27Z"/><path class="gi" d="M170.59,237.35l8-2.07a.31.31,0,0,1,.3.5L173.54,242Z"/><path class="gj" d="M178.84,235.78l-2,2.32a1.54,1.54,0,0,0-.13-1.17,1.13,1.13,0,0,0-.27-.41v0a1.25,1.25,0,0,0-.88-.44l3-.78A.31.31,0,0,1,178.84,235.78Z"/><path class="gk" d="M115.75,271.61l.79,1.37,2,3.53,54.39-34h0a1.46,1.46,0,0,0,.33-.22,2,2,0,0,0,.61-.91,3.3,3.3,0,0,0-.21-2.44,4.16,4.16,0,0,0-.56-.83h0a2.43,2.43,0,0,0-2.07-.89,1.74,1.74,0,0,0-.59.17l-.1.06-.12.08,0,0,0,0Z"/><path class="gl" d="M127.18,268a2.75,2.75,0,0,0-2.63-1.72,1.81,1.81,0,0,0-.59.17l-.09.06-.12.08h0l-8,5,2.48,5.12,8.22-5.16h0a1.4,1.4,0,0,0,.32-.22,1.94,1.94,0,0,0,.61-.91A3.2,3.2,0,0,0,127.18,268Z"/><path class="gm" d="M115.75,271.61l.79,1.37,1.89-.62,54.69-34.22h0a2.43,2.43,0,0,0-2.07-.89,1.74,1.74,0,0,0-.59.17l-.1.06-.12.08,0,0,0,0Z"/><path class="gn" d="M115,275.18c.69,1.41,2.13,2.1,3.21,1.55h0a2,2,0,0,0,.93-1.13,3.2,3.2,0,0,0-.21-2.44,2.76,2.76,0,0,0-2.63-1.73,1.51,1.51,0,0,0-.58.18l-.1.05-.12.08,0,0A2.78,2.78,0,0,0,115,275.18Z"/><path class="l" d="M177.49,97.83l-.36,2.3,14.14,19.05,17.15.41.44-2.74a1.29,1.29,0,0,0-.57-1.32L178.77,97.16A.9.9,0,0,0,177.49,97.83Z"/><path class="l" d="M190.94,121.3l-14.15-19L174,120a1.27,1.27,0,0,0,.56,1.32l29.35,18.26a1,1,0,0,0,1.49-.78l2.71-17.06Z"/><path class="go" d="M375.33,120.86,293.22,69.37a2,2,0,0,0-1.66-.22v0l-2.28.4v0a2,2,0,0,0-2,1.7L262.38,221.17a2.07,2.07,0,0,0,.94,2.08l82.11,51.49a2,2,0,0,0,1.35.29v0l2.86-.52h.13a2,2,0,0,0,1.56-1.65l24.93-149.93A2,2,0,0,0,375.33,120.86Z"/><path class="gp" d="M345.43,274.74l-82.11-51.49a2.07,2.07,0,0,1-.94-2.08L287.31,71.25a2,2,0,0,1,3.11-1.4l82.12,51.49a2,2,0,0,1,.93,2.07L348.54,273.34A2,2,0,0,1,345.43,274.74Z"/><g class="fv"><path class="l" d="M323.65,106.34l-.31,1.76a.34.34,0,0,0,.16.36l41.72,26a.25.25,0,0,0,.36-.16l.3-1.71a.5.5,0,0,0-.24-.53l-41.57-25.89A.29.29,0,0,0,323.65,106.34Z"/><path class="l" d="M322.9,110.75l-.31,1.76a.34.34,0,0,0,.16.36l41.72,26a.24.24,0,0,0,.36-.15l.3-1.71a.5.5,0,0,0-.24-.53l-41.57-25.89A.29.29,0,0,0,322.9,110.75Z"/><path class="l" d="M322.15,115.16l-.31,1.76a.34.34,0,0,0,.17.36l41.71,26a.24.24,0,0,0,.36-.15l.31-1.71a.53.53,0,0,0-.25-.53L322.57,115A.29.29,0,0,0,322.15,115.16Z"/><path class="l" d="M321.41,119.57l-.32,1.76a.35.35,0,0,0,.17.36l27.55,17.16a.24.24,0,0,0,.36-.15l.3-1.71a.5.5,0,0,0-.24-.53l-27.41-17.07A.28.28,0,0,0,321.41,119.57Z"/></g><path class="gq" d="M285.2,122.53l-1.62,9.2a.12.12,0,0,0,.06.13l7.3,4.53a.1.1,0,0,0,.13-.06l1.61-9.18a.19.19,0,0,0-.08-.19l-7.25-4.5A.11.11,0,0,0,285.2,122.53Z"/><g class="e"><path class="l" d="M295.33,129.24l-.18,1a.21.21,0,0,0,.1.21l23.88,14.87a.13.13,0,0,0,.2-.08l.18-1a.29.29,0,0,0-.14-.3l-23.8-14.82A.17.17,0,0,0,295.33,129.24Z"/><path class="l" d="M294.9,131.77l-.18,1a.19.19,0,0,0,.1.2l23.88,14.88a.14.14,0,0,0,.2-.09l.18-1a.28.28,0,0,0-.14-.3l-23.8-14.83A.17.17,0,0,0,294.9,131.77Z"/><path class="l" d="M294.47,134.29l-.18,1a.23.23,0,0,0,.1.21l23.88,14.87a.14.14,0,0,0,.21-.09l.17-1a.29.29,0,0,0-.14-.3l-23.8-14.82A.16.16,0,0,0,294.47,134.29Z"/><path class="l" d="M294,136.81l-.17,1a.18.18,0,0,0,.09.2l15.77,9.83a.15.15,0,0,0,.21-.09l.17-1a.29.29,0,0,0-.13-.3l-15.7-9.78A.18.18,0,0,0,294,136.81Z"/></g><g class="fv"><g class="e"><path class="l" d="M339.66,156.2l-.17.92a.18.18,0,0,0,.09.19l21.69,13.51a.14.14,0,0,0,.19-.08l.15-.89a.26.26,0,0,0-.12-.28l-21.61-13.46A.15.15,0,0,0,339.66,156.2Z"/><path class="l" d="M339.27,158.5l-.17.91a.18.18,0,0,0,.09.19l21.69,13.51a.13.13,0,0,0,.19-.08l.15-.89a.25.25,0,0,0-.12-.27L339.49,158.4A.15.15,0,0,0,339.27,158.5Z"/><path class="l" d="M338.88,160.79l-.16.92a.15.15,0,0,0,.08.18l21.69,13.51a.13.13,0,0,0,.19-.08l.16-.89a.27.27,0,0,0-.13-.27L339.1,160.7A.15.15,0,0,0,338.88,160.79Z"/><path class="l" d="M338.49,163.08l-.16.92a.19.19,0,0,0,.08.19l14.33,8.92a.12.12,0,0,0,.18-.08l.16-.89a.26.26,0,0,0-.12-.27L338.71,163A.15.15,0,0,0,338.49,163.08Z"/></g></g><g class="fv"><g class="e"><path class="l" d="M320,188.61l-.16.92a.19.19,0,0,0,.08.19l10.24,6.36a.12.12,0,0,0,.18-.08l.16-.89a.25.25,0,0,0-.12-.27l-10.16-6.32A.15.15,0,0,0,320,188.61Z"/><path class="l" d="M319.6,190.9l-.16.92a.18.18,0,0,0,.08.19l10.24,6.36a.13.13,0,0,0,.19-.07l.15-.9a.25.25,0,0,0-.12-.27l-10.16-6.32A.15.15,0,0,0,319.6,190.9Z"/></g></g><g class="fv"><path class="l" d="M293.06,142.53l-.18,1a.2.2,0,0,0,.09.21l23.88,14.87a.14.14,0,0,0,.21-.08l.17-1a.28.28,0,0,0-.13-.3l-23.8-14.83A.16.16,0,0,0,293.06,142.53Z"/><path class="l" d="M292.63,145.06l-.18,1a.18.18,0,0,0,.09.2l23.88,14.88a.14.14,0,0,0,.21-.09l.17-1a.28.28,0,0,0-.13-.3L292.87,145A.16.16,0,0,0,292.63,145.06Z"/><path class="l" d="M292.2,147.58l-.18,1a.2.2,0,0,0,.09.21L316,163.67a.13.13,0,0,0,.2-.08l.18-1a.31.31,0,0,0-.14-.3l-23.8-14.82A.17.17,0,0,0,292.2,147.58Z"/><path class="l" d="M291.77,150.11l-.18,1a.19.19,0,0,0,.1.2l15.77,9.83a.13.13,0,0,0,.2-.09l.18-1a.29.29,0,0,0-.14-.3L292,150A.17.17,0,0,0,291.77,150.11Z"/></g><g class="fv"><path class="l" d="M290.69,156.21l-.18,1a.18.18,0,0,0,.09.2l23.88,14.88a.15.15,0,0,0,.21-.09l.17-1a.29.29,0,0,0-.13-.3l-23.8-14.83A.17.17,0,0,0,290.69,156.21Z"/><path class="l" d="M290.26,158.74l-.18,1a.2.2,0,0,0,.09.21l23.88,14.87a.14.14,0,0,0,.21-.09l.17-1a.28.28,0,0,0-.13-.3l-23.8-14.82A.16.16,0,0,0,290.26,158.74Z"/><path class="l" d="M289.83,161.26l-.18,1a.2.2,0,0,0,.09.21l23.89,14.87a.13.13,0,0,0,.2-.08l.18-1a.29.29,0,0,0-.14-.3l-23.8-14.83A.17.17,0,0,0,289.83,161.26Z"/><path class="l" d="M289.4,163.79l-.18,1a.2.2,0,0,0,.09.2l15.78,9.83a.13.13,0,0,0,.2-.09l.18-1a.29.29,0,0,0-.14-.3l-15.69-9.77A.16.16,0,0,0,289.4,163.79Z"/></g><g class="fv"><path class="l" d="M288.29,170l-.18,1a.2.2,0,0,0,.1.21l23.88,14.87a.13.13,0,0,0,.2-.08l.18-1a.29.29,0,0,0-.14-.3l-23.8-14.82A.17.17,0,0,0,288.29,170Z"/><path class="l" d="M287.86,172.56l-.18,1a.19.19,0,0,0,.1.2l23.88,14.88a.15.15,0,0,0,.21-.09l.17-1a.28.28,0,0,0-.14-.3l-23.8-14.82A.16.16,0,0,0,287.86,172.56Z"/><path class="l" d="M287.43,175.08l-.18,1a.23.23,0,0,0,.1.21l23.88,14.87a.14.14,0,0,0,.21-.08l.17-1a.29.29,0,0,0-.14-.3L287.67,175A.17.17,0,0,0,287.43,175.08Z"/><path class="l" d="M287,177.61l-.18,1a.18.18,0,0,0,.09.2l15.77,9.83a.15.15,0,0,0,.21-.09l.17-1a.29.29,0,0,0-.13-.3l-15.69-9.78A.17.17,0,0,0,287,177.61Z"/></g><g class="o"><path class="gr" d="M317.06,199.84l-.18,1a.2.2,0,0,0,.09.21l30.46,19a.13.13,0,0,0,.2-.08l.18-1a.29.29,0,0,0-.14-.3l-30.37-19A.16.16,0,0,0,317.06,199.84Z"/><path class="gs" d="M316.63,202.36l-.18,1a.18.18,0,0,0,.09.2l30.46,19a.14.14,0,0,0,.21-.09l.17-1a.29.29,0,0,0-.14-.3l-30.37-19A.17.17,0,0,0,316.63,202.36Z"/><path class="gt" d="M316.2,204.89l-.18,1a.21.21,0,0,0,.1.21l30.45,19a.14.14,0,0,0,.21-.08l.17-1a.29.29,0,0,0-.14-.3l-30.37-19A.16.16,0,0,0,316.2,204.89Z"/><path class="gu" d="M315.77,207.41l-.18,1a.19.19,0,0,0,.1.21l22.34,14a.14.14,0,0,0,.21-.09l.17-1a.28.28,0,0,0-.13-.3L316,207.31A.17.17,0,0,0,315.77,207.41Z"/></g><g class="o"><path class="gv" d="M313.75,220l-.18,1a.18.18,0,0,0,.09.2l30.46,19a.13.13,0,0,0,.2-.09l.18-1a.29.29,0,0,0-.14-.3l-30.37-19A.17.17,0,0,0,313.75,220Z"/><path class="gw" d="M313.32,222.56l-.18,1a.2.2,0,0,0,.09.21l30.46,19a.13.13,0,0,0,.2-.08l.18-1a.29.29,0,0,0-.14-.3l-30.37-19A.16.16,0,0,0,313.32,222.56Z"/><path class="gx" d="M312.89,225.08l-.18,1a.18.18,0,0,0,.09.2l30.46,19a.14.14,0,0,0,.2-.09l.18-1a.28.28,0,0,0-.14-.3l-30.37-19A.17.17,0,0,0,312.89,225.08Z"/><path class="gy" d="M312.46,227.61l-.18,1a.2.2,0,0,0,.09.21l22.35,14a.14.14,0,0,0,.21-.08l.17-1a.29.29,0,0,0-.14-.3L312.7,227.51A.16.16,0,0,0,312.46,227.61Z"/></g><g class="fv"><path class="l" d="M286,183.57l-.18,1a.2.2,0,0,0,.09.21l23.88,14.87a.14.14,0,0,0,.21-.08l.18-1a.31.31,0,0,0-.14-.3l-23.8-14.82A.17.17,0,0,0,286,183.57Z"/><path class="l" d="M285.52,186.1l-.18,1a.2.2,0,0,0,.09.2l23.89,14.88a.13.13,0,0,0,.2-.09l.18-1a.29.29,0,0,0-.14-.3L285.76,186A.16.16,0,0,0,285.52,186.1Z"/><path class="l" d="M285.09,188.62l-.18,1a.21.21,0,0,0,.1.21l23.88,14.87a.13.13,0,0,0,.2-.08l.18-1a.29.29,0,0,0-.14-.3l-23.8-14.82A.17.17,0,0,0,285.09,188.62Z"/><path class="l" d="M284.66,191.15l-.18,1a.19.19,0,0,0,.1.2l15.77,9.83a.13.13,0,0,0,.2-.09l.18-1a.29.29,0,0,0-.14-.3L284.9,191A.17.17,0,0,0,284.66,191.15Z"/></g><path class="gz" d="M292.91,78.88l-5.71,32.46a.44.44,0,0,0,.21.45l25.75,16a.31.31,0,0,0,.45-.2l5.7-32.39a.63.63,0,0,0-.3-.66L293.44,78.66A.37.37,0,0,0,292.91,78.88Z"/><path class="fw" d="M288.6,115.05l-.55,3.09a.36.36,0,0,0,.17.36l20.48,12.72a.25.25,0,0,0,.36-.15l.54-3a.48.48,0,0,0-.24-.52L289,114.87A.29.29,0,0,0,288.6,115.05Z"/><path class="l" d="M300.32,94.46c-.4,2.3.91,7.06,3.3,8.57s5-.8,5.36-3.1-1.2-5.39-3.59-6.9S300.73,92.16,300.32,94.46Z"/><path class="l" d="M311.46,116.1c-3.65,2.48-9.6-.57-11.26-1.51l-.2-.13-.23-.13-.08,0c-7.33-5.16-7.41-9.61-7.41-9.8a5.67,5.67,0,0,1,2.82-1.78c2.22-.63,5-.11,7.92,1.72A20.11,20.11,0,0,1,311.46,116.1Z"/><polygon class="p" points="324.98 139.77 307.59 244.42 306.67 243.86 324.06 139.21 324.98 139.77"/><path class="ha" d="M306.33,213.74l-4.51,25.57a.25.25,0,0,1-.37.15l-32.93-20.38a.33.33,0,0,1-.17-.37l.51-2.91,16.48-8.07,3.88,12.43Z"/><path class="hb" d="M306.61,212.15l-.28,1.59-4.51,25.57a.25.25,0,0,1-.37.15l-32.93-20.38a.33.33,0,0,1-.17-.37l.51-2.91,4.28-24.31a.3.3,0,0,1,.43-.18l32.78,20.28A.55.55,0,0,1,306.61,212.15Z"/><path class="hc" d="M282.8,136.25l-1.62,9.2a.13.13,0,0,0,.06.12l7.3,4.53a.09.09,0,0,0,.13,0l1.62-9.18a.18.18,0,0,0-.09-.19l-7.25-4.5A.11.11,0,0,0,282.8,136.25Z"/><path class="hd" d="M280.41,150l-1.62,9.2a.11.11,0,0,0,.06.13l7.3,4.53a.09.09,0,0,0,.13,0l1.61-9.18a.19.19,0,0,0-.08-.19l-7.25-4.5A.1.1,0,0,0,280.41,150Z"/><path class="he" d="M278,163.68l-1.61,9.2a.13.13,0,0,0,.05.13l7.3,4.53a.09.09,0,0,0,.13,0l1.62-9.19a.17.17,0,0,0-.09-.18l-7.25-4.5A.11.11,0,0,0,278,163.68Z"/><path class="hf" d="M275.62,177.4,274,186.6a.12.12,0,0,0,.06.13l7.3,4.53a.09.09,0,0,0,.13,0L283.1,182a.17.17,0,0,0-.08-.18l-7.25-4.5A.1.1,0,0,0,275.62,177.4Z"/><path class="hg" d="M337.23,158c-.36,4.55-3.34,7.37-6.65,6.3s-5.71-5.64-5.35-10.19,3.33-7.38,6.65-6.3S337.59,153.48,337.23,158Z"/><path class="hh" d="M334,182.26c-.36,4.56-3.34,7.38-6.65,6.3s-5.71-5.63-5.35-10.19,3.33-7.37,6.65-6.3S334.32,177.71,334,182.26Z"/><g class="fv"><g class="e"><path class="l" d="M339.85,200.58l-.17.92a.17.17,0,0,0,.09.18L350,208.05a.13.13,0,0,0,.19-.08l.16-.89a.25.25,0,0,0-.13-.27l-10.16-6.32A.14.14,0,0,0,339.85,200.58Z"/><path class="l" d="M339.46,202.87l-.17.92a.2.2,0,0,0,.09.19l10.23,6.36a.13.13,0,0,0,.19-.08l.16-.89a.26.26,0,0,0-.12-.27l-10.17-6.32A.14.14,0,0,0,339.46,202.87Z"/></g></g><path class="hi" d="M353.81,194.23c-.35,4.55-3.33,7.37-6.64,6.3s-5.71-5.64-5.36-10.19,3.34-7.37,6.65-6.3S354.17,189.68,353.81,194.23Z"/><path class="t" d="M248,148.06c-.71,9-6.61,14.63-13.19,12.5s-11.32-11.18-10.61-20.21,6.61-14.63,13.18-12.5S248.72,139,248,148.06Z"/><path class="hj" d="M233.78,128.82a8.63,8.63,0,0,0-4.12-.33h0l-2.2.41h0c-5.06.43-9.13,5.51-9.71,12.91-.71,9,4,18.08,10.61,20.21a8.56,8.56,0,0,0,4.46.26h0l6.42-1.14-4.1.72c4.84-.69,8.68-5.68,9.24-12.85C245.1,140,240.35,131,233.78,128.82Z"/><path class="hk" d="M241.56,149.52c-.71,9-6.61,14.63-13.19,12.5s-11.32-11.18-10.61-20.21,6.61-14.63,13.18-12.5S242.27,140.49,241.56,149.52Z"/><polygon class="hl" points="221.36 144.32 223.51 142.85 226.81 148.34 236.67 141.56 237.96 143.72 226.03 152.08 221.36 144.32"/><path class="t" d="M135.45,441.48,61.53,396a1.92,1.92,0,0,1,0-3.27l53.89-33.1a3.47,3.47,0,0,1,3.62,0l74,45.54a1.9,1.9,0,0,1,0,3.23l-53.91,33.12A3.48,3.48,0,0,1,135.45,441.48Z"/><path class="hm" d="M193,393.38l-74-45.54a3.47,3.47,0,0,0-3.62,0l-53.89,33.1c-.65.39-.94,1.08-.9,3.21v3.31l0-1.44a1.88,1.88,0,0,0,.88,1.86l73.92,45.51a3.46,3.46,0,0,0,3.64,0L193,400.28a1.87,1.87,0,0,0,.89-1.73V395h0A1.88,1.88,0,0,0,193,393.38Z"/><path class="hn" d="M135.45,429.72,61.53,384.21a1.92,1.92,0,0,1,0-3.27l53.89-33.1a3.47,3.47,0,0,1,3.62,0l74,45.54a1.9,1.9,0,0,1,0,3.23l-53.91,33.11A3.46,3.46,0,0,1,135.45,429.72Z"/><path class="ho" d="M123.25,372.88a5.36,5.36,0,0,1-.11,2.56,8.35,8.35,0,0,1-2,3.13,15.7,15.7,0,0,1-3.2,2.65,26.14,26.14,0,0,0-2.67,1.87,18.14,18.14,0,0,0-1.91,2.5v.52a8.53,8.53,0,0,1-2.66,2.09,6.71,6.71,0,0,1-4.91.28,3.48,3.48,0,0,1-2.28-2.85,15.38,15.38,0,0,1,0-1.82"/><path class="hp" d="M111.31,374.83a26.26,26.26,0,0,0,5.85-2.71c2.91-2.08,5-1.55,5.76-.31s1,5.42-5.17,9a11.48,11.48,0,0,0-4.27,3.78,7.91,7.91,0,0,1-2.92,2.62,6.07,6.07,0,0,1-3.23.56c-4.24-.35-5.13-4.64-3.06-7.9S111.31,374.83,111.31,374.83Z"/><path class="ho" d="M157.67,395.18v.16a2.87,2.87,0,0,1-.65,1.86c-2,2.28-6.54,3.24-7.5,3.42a.47.47,0,0,1-.17,0c-2.59.41-5.51.57-6.77.7a16.43,16.43,0,0,0-2.53.44v.29a21.94,21.94,0,0,1-3.59.6h0a6.37,6.37,0,0,1-3.88-.87,3.72,3.72,0,0,1-1.06-1.81v-.08l0-.68v-.32l3.38-.24h0l1.68-.12,1.55-.09,1.43-.1Z"/><path class="hp" d="M143,391.6a20.26,20.26,0,0,0,5.64,1.22c2.37,0,7-.06,8.17.77a1.83,1.83,0,0,1,.92,1.48c0,3.17-7.49,5.08-12,5.44a63.66,63.66,0,0,0-6.86.65c-2.13.35-4.35.52-5.69-.14-2.32-1.15-2.48-4.65-1.06-7S143,391.6,143,391.6Z"/><path class="hq" d="M133.19,388.69s-.16,3.54-.21,4.17a8.28,8.28,0,0,0-.29,1.76c.16.9,2.28,1.8,5.19,1.48s5.28-1.94,5.81-2.83-.28-1.16-.41-1.53c-.22-.59,0-5.85-.4-4.06"/><path class="hq" d="M104.88,376.72l-.17,3.2a2.18,2.18,0,0,0-.27,1.38c.21.87,2.66,2.53,6,.76,3.77-2,3.36-4.93,3.38-5.09.2-1.34-.55-.08-.55-1.14"/><path class="hr" d="M154.71,325.86c-1.2,10.69-5,28.79-6.33,37.89-1.34,9.3-3.22,26.23-3.22,26.23s-1.36,2.14-6.27,2.8S132,390.5,132,390.5s-2.28-25.32-1.94-30.62,1.89-15.08,1.66-20.28c-.16-3.75-.11-12.65-2-20.5-.26.83-.54,1.58-.81,2.23-2.81,6.33-8.11,19.93-9.58,25.09S115,377.2,115,377.2a4.62,4.62,0,0,1-1.49,1.52,13,13,0,0,1-3.82,1.73c-4.41,1.23-6-1.3-6-1.3-.52-3.08-.79-33.22.69-39A132.91,132.91,0,0,0,108,319.84c.34-5.55,1-17.87.34-25.1a20.78,20.78,0,0,1,.54-7.14,19,19,0,0,1,2.06-5.3s42.34,2.31,43.76,8.75a48.48,48.48,0,0,1,.88,6.22C156.34,306,155.66,317.37,154.71,325.86Z"/><path class="hs" d="M155.59,297.27c-.63.25-17.18,6.88-34.69-1.93,0,0-7.89-3.89-12-7.74a19,19,0,0,1,2.06-5.3s42.34,2.31,43.76,8.75A48.48,48.48,0,0,1,155.59,297.27Z"/><path class="hq" d="M140.9,206.07a10.59,10.59,0,0,1-3,1.27l-.19,0-.23.08a7.68,7.68,0,0,0-.8.29,1.14,1.14,0,0,0-.61.57c-.39,1,0,7,0,7l-1.88-.65-11.42-3.93s.16-3.06,0-5.88-.38-17.87,3.36-20.45,14.51-1,15.73.44c0,0,.35,2.3,1.09,6.58S143,204.67,140.9,206.07Z"/><path class="ht" d="M134.88,208.83a6.33,6.33,0,0,1,1.83-1.08,1.14,1.14,0,0,0-.61.57c-.39,1,0,7,0,7l-1.88-.65C134.08,212.73,133.92,209.66,134.88,208.83Z"/><path class="hu" d="M139.66,176.57c-1.18,1.37-5.44,1.71-5.44,1.71a28.38,28.38,0,0,0-8.44,1c-6.84,2.37-8.42,8.48-8.12,12.74s2.7,7.39,3.31,8.81.67,4,1.12,4.79,8.17,2.08,9,1.58a10.8,10.8,0,0,0,3-4.59c.15-1.22-.06-4.22.25-5.29s1.68-2.44,2.44-2.29,1.22,1.47,1.53,2.8,1,1.32,1.27,1,.16-3.62.36-4.64a10.35,10.35,0,0,0,.51-4.27c-.1-3,.8-2.2,2.23-3.93C146.81,181.77,142,173.89,139.66,176.57Z"/><path class="l" d="M121.55,210.21l1.31-1.38s11.11,2.6,13.83,6.9"/><path class="hv" d="M152.75,260.74a60.16,60.16,0,0,0,1.48,15.35c1.85,8.8,1.8,20.46,1.8,20.46a23.08,23.08,0,0,1-3.62,1.11,49.52,49.52,0,0,1-18.53.35,45.28,45.28,0,0,1-13.17-4.28,81.21,81.21,0,0,1-.28-9.21,76.34,76.34,0,0,0-.89,8.61,59.21,59.21,0,0,1-11.09-7.43,117.63,117.63,0,0,1,3.7-19.59c2.18-7.38,2-12.94-2.87-21.39-6-10.46-8.72-25-2.39-31.12,2-1.92,5.69-5,11.94-2.6l1.48-1.6s10.89,2.41,19,7.54v1.61a5.86,5.86,0,0,1,.57.26c7.23,3.39,13,7.11,15.82,12.31s9,16.95,10.32,28.14C166.64,264.43,157.39,268,152.75,260.74Z"/><path class="hw" d="M152.77,264.72c-8.26-14.08-8.1-20.41-8.1-20.41s2.47,6.3,4.49,10.21c1,1.87,3.59,6.2,3.59,6.2A35.19,35.19,0,0,0,152.77,264.72Z"/><path class="hx" d="M129.78,319.09c-.27.84-.55,1.59-.83,2.24-2.79,6.33-8.1,19.93-9.57,25.09S115,377.2,115,377.2a4.62,4.62,0,0,1-1.49,1.52c.6-7.1,2.29-26.31,3.19-30.2a47.4,47.4,0,0,1,3-9.87c1.41-3.23,8.18-18.92,4.31-26.57a42.89,42.89,0,0,1-4-12.24c1.38,6.31,7.34,11.46,7.34,11.46Z"/><path class="hy" d="M139.3,217.78v.77s-8.56-3.69-13.24-5.21C127.09,213.62,134.9,215.7,139.3,217.78Z"/></g></svg>