<svg xmlns="http://www.w3.org/2000/svg" viewBox="0 0 500 500"><defs><style>.a{fill:#8193e3;}.b,.c,.e,.m,.r{fill:none;stroke-miterlimit:10;}.b{stroke:#37424f;stroke-width:1.12px;}.c{stroke:#faac37;stroke-width:0.5px;stroke-dasharray:1.7;}.d,.q{fill:#ebeefb;}.e{stroke:#bdc7f0;}.f{fill:#ffb84d;}.g{fill:#ee6945;}.h{fill:#ffd08a;}.i{fill:#bf8a3a;}.j{fill:#dee4ff;}.k{fill:#141f47;}.l{fill:#fff;}.m{stroke:#8098ff;}.n{fill:#c9d3ff;}.o{fill:#4dc7b8;}.p{fill:#cc4725;}.q{opacity:0.57;}.r{stroke:#fff;stroke-linecap:round;stroke-width:0.58px;}.s{fill:#faac37;}</style></defs><title>isopictures</title><path class="a" d="M130.57,218.84s17.55-50-19-47.14-14,38.82-20.36,47.14-18.25.1-35.1,0-24.58,37.81,7,45.54,7,16.15-9.13,12.64-30.89,22.46,8.43,40.72c26.13,12.13,59.34,15.48,86.34,4.05,9.2-3.89,38.42-21.06,25.77-34.35-6.85-7.19-29.83-2.43-20.5-18.82,2.36-4.14,6.42-7,10.63-9.27,9.21-4.87,21.71-7.06,19.82-20.11-3.15-21.68-35.7-18.22-50.45-15.58Z"/><line class="b" x1="116.41" y1="197.51" x2="116.41" y2="355.96"/><path class="c" d="M35,320.93S62.75,336.78,85.2,299.8s80-33.37,74.35.49-108.69-30.86-77-69.16,71.32,2.64,55.47-79.25S279.34,110.94,270.1,140s-54.15-38.3-6.61-37,33.71,48.43,73.65,41.38S484.05,187.54,452.35,214s-125.46,68.67-93.77,107"/><path class="d" d="M468.52,358.44c-77.83,69.47-31.72-9.58-207.93,32.49-48.53,11.59-90.55,1.36-105.28-17.84-16.33-21.3-85-13.59-85-21.3,0-15.86,88.68-13.43,195-18.34C397.29,327.36,479.05,349.05,468.52,358.44Z"/><path class="e" d="M74.35,142c-1.7-9.58,14.08-12.36,19.43-12.41,11.25-.09,21.49,6.77,32.87,5,12.25-1.86,23-9.49,35.22-11.8,7.36-1.4,15.06-2.66,22.52-1.44,6.81,1.12,16.59,7.76,12.14,16.26-3,5.68-15.88,4.87-21.06,5.77-7,1.21-14,3-20.26,6.78-10.37,6.33-16.5,19.69-29.77,19.71-8.22,0-12.5-3.71-19.91-5.39-8.72-2-13,1.69-20.78,5.07s-20.57,9-28.83,4.93c-3.28-1.61-6.21-5.61-4.68-9.53,2.53-6.47,11.17-3.51,16-5.31C74.52,157,75.62,149.11,74.35,142Z"/><circle class="f" cx="133.4" cy="146.6" r="15.19"/><circle class="g" cx="77.94" cy="234.43" r="15.19"/><path class="h" d="M184.4,332.89c2.71-7.22-.07-13.93-6.18-17.77-2.8-1.76-6.62-2.61-8.36-5.81-3.18-5.86,2.46-12.7,1.83-18.89-.65-6.48-6.19-4.53-10.32-5.44-6.42-1.42-1.8-13-1-16.91.76-3.51,1.77-8.39.83-12-1.15-4.38-5.07-4.63-7.36-8-3.24-4.76-.32-11.41-2.83-16.48-2-4-11.17-20.33-17.18-15.23-5.45,4.62-3.07,12.07-3.94,18.31-.4,2.86-1.06,4.93-3.68,6.12-4.51,2-8.23,2-6.45,8.22,1.31,4.63,5,8.64,5.13,13.62.17,5.34-2.12,10.26-2.18,15.57-.05,5.06,2.72,10.66,3.82,15.54.48,2.11,1.76,4.08-.27,5.59-2.94,2.16-6.07-2.47-8.54-2.54-8.47-.28,4.33,19,4.36,22.17,0,4.83-6.46,4.05-8.72,6.3-7.61,7.57,5.21,14.79,10.16,17.54,11.35,6.27,23.6,9.42,36.34,6.94,8.16-1.58,18.13-5.79,22.81-13.46A20,20,0,0,0,184.4,332.89Z"/><path class="i" d="M147.73,351.63c0,3.85.35,7.47,1.09,7.47H149c.74,0,1.67-3.62,1.67-7.47v-89c0-3.86-.93-6.51-1.67-6.51h-.14c-.74,0-1.09,2.65-1.09,6.51Z"/><path class="j" d="M245,119.32a14.24,14.24,0,0,1,14.38-7.46c7.05.85,9.19,8.61,15.72,9.68,6.3,1,11.36-3.91,16.92-5.85,4.63-1.62,11.36-1.19,16,.22,7.84,2.4,4.6,11.11-1.61,13.23-4.83,1.65-13.42,1.05-17.5,3.73-3.33,2.19-5.46,5.53-9.75,5.92-4.94.46-8.23-3.3-12.75-4.41-7.72-1.89-16.61,6.44-24,3.18-7.73-3.44,0-13.46,2.35-17.84C244.89,119.58,245,119.45,245,119.32Z"/><path class="e" d="M421.69,172.19c1.4,0,2.79-.05,4.18-.1,6.6-.25,16.78-1.74,21.68-6.68,2.81-2.84,2.52-7.15.72-10.57-1.35-2.58-5.06-5-4.58-8.22.58-4,6.55-4.91,9.61-5.79,4.8-1.38,11-2.5,13.76-7.2,7.09-11.94-13.65-12.6-20.06-10.33-12.37,4.39-20.83,14.16-32.5,19.44-20.76,9.38-40.23-12.43-61.27-9.5-4.34.61-8.58,3.53-9.87,8-1.47,5.05,2.61,7.32,3.59,11.63,1.29,5.68-7.88,5-11.15,5.14-6.18.21-13.45.5-17.78,5.63-3.44,4.07-3,11.3,2,14.08,4,2.27,8.76-.19,12.76-1.32,9.8-2.78,17.68-1.56,27.52-.37,5.38.65,10.73,2,16.17,1.89,5.73-.1,11-2.75,16.54-4C402.39,171.84,412.11,172.35,421.69,172.19Z"/><rect class="k" x="145.95" y="155.85" width="291.87" height="194.14" rx="3.96"/><path class="l" d="M429.9,325.74c0,8.65-7.16,15-16.32,15H169c-9.16,0-15.14-6.35-15.14-15V181.91c0-8.65,6-16.82,15.14-16.82H413.58c9.16,0,16.32,8.17,16.32,16.82Z"/><path class="l" d="M126.13,156.8c1.49,1.34,3.15-.1,4.76-1.9,1.46-1.63,2.38-3.05,1.4-4.3a4.28,4.28,0,0,1-.72-1.43c-1.13-4,1.89-4.49,3.82-4.44a5.55,5.55,0,0,1,2.14.58c1.39.61,3-.34,4.41-1.88,1.6-1.79,2.32-4.08.82-5.41-.09-.09-.17-.53-.28-.53h0c-4.93-3-12.91,5.95-12.91,5.95C121.33,152.65,126.13,156.8,126.13,156.8Z"/><rect class="m" x="200.76" y="193.49" width="91.13" height="10.57" rx="4.96"/><rect class="g" x="161.8" y="192.83" width="33.02" height="13.21"/><rect class="n" x="163.12" y="174.34" width="40.94" height="9.24"/><rect class="n" x="210.67" y="174.34" width="59.43" height="9.24"/><rect class="n" x="279.34" y="174.34" width="36.98" height="9.24"/><rect class="n" x="322.92" y="174.34" width="89.81" height="9.24"/><rect class="n" x="160.48" y="217.92" width="91.13" height="10.57"/><rect class="n" x="160.48" y="232.45" width="120.18" height="3.96"/><rect class="n" x="160.48" y="239.05" width="73.96" height="5.28"/><rect class="n" x="160.48" y="246.97" width="103.01" height="3.96"/><rect class="n" x="308.4" y="217.92" width="56.79" height="21.13"/><rect class="o" x="308.4" y="241.69" width="85.85" height="34.34"/><rect class="m" x="303.77" y="210.66" width="97.73" height="121.5"/><rect class="n" x="308.4" y="278.67" width="81.88" height="3.96"/><rect class="n" x="308.4" y="307.73" width="81.88" height="2.64"/><rect class="n" x="308.4" y="285.27" width="50.19" height="3.96"/><rect class="n" x="308.4" y="320.93" width="50.19" height="3.96"/><rect class="n" x="308.4" y="293.2" width="71.32" height="2.64"/><rect class="n" x="308.4" y="313.01" width="71.32" height="5.28"/><rect class="n" x="308.4" y="299.8" width="76.6" height="3.96"/><rect class="n" x="160.48" y="261.5" width="91.13" height="9.24"/><rect class="n" x="160.48" y="276.03" width="120.18" height="3.96"/><rect class="n" x="160.48" y="282.63" width="73.96" height="5.28"/><rect class="n" x="160.48" y="290.56" width="103.01" height="3.96"/><rect class="n" x="160.48" y="305.09" width="91.13" height="9.24"/><rect class="n" x="160.48" y="319.61" width="120.18" height="3.96"/><rect class="n" x="160.48" y="326.22" width="73.96" height="3.96"/><path class="p" d="M440.33,311.6c2.6,2.6,1.42,8-2.64,12.1l-.49.5c-4.08,4.09-9.49,5.29-12.11,2.69l-43.36-43.18c-2.61-2.61-1.43-8,2.63-12.11l.5-.5c4.07-4.09,9.49-5.29,12.09-2.68Z"/><path class="g" d="M392,210.05a47.91,47.91,0,1,0,.13,67.75A47.9,47.9,0,0,0,392,210.05Zm-8,59.68a36.47,36.47,0,1,1-.1-51.57A36.47,36.47,0,0,1,384,269.73Z"/><path class="q" d="M383.92,218.16a36.48,36.48,0,1,0,.1,51.57A36.47,36.47,0,0,0,383.92,218.16Z"/><path class="a" d="M445.12,284.83s10.62-30.24-11.48-28.54-8.5,23.5-12.33,28.54-11.05.06-21.25,0-14.88,22.89,4.25,27.57,4.25,9.77-5.52,7.65-18.71,13.6,5.1,24.65c15.82,7.35,35.93,9.38,52.27,2.46,5.57-2.36,23.26-12.76,15.6-20.8-4.14-4.35-18.06-1.47-12.41-11.39a15.33,15.33,0,0,1,6.44-5.61c5.57-3,13.14-4.28,12-12.18-1.9-13.12-21.61-11-30.54-9.44Z"/><line class="b" x1="436.54" y1="271.91" x2="436.54" y2="367.84"/><path class="h" d="M435.07,361.88a7.35,7.35,0,0,0-3.18-9.14c-1.44-.9-3.41-1.34-4.3-3-1.63-3,1.26-6.54.94-9.72-.34-3.34-3.19-2.33-5.31-2.8-3.3-.73-.92-6.66-.49-8.7.39-1.8.91-4.31.43-6.15-.59-2.25-2.61-2.38-3.79-4.12-1.66-2.44-.16-5.87-1.45-8.47-1-2.07-5.74-10.45-8.84-7.83-2.8,2.37-1.58,6.2-2,9.42-.21,1.47-.55,2.53-1.89,3.14-2.32,1.05-4.24,1-3.32,4.23.67,2.38,2.55,4.44,2.63,7,.09,2.74-1.08,5.27-1.11,8s1.4,5.48,2,8c.25,1.08.91,2.1-.14,2.88-1.51,1.11-3.12-1.27-4.39-1.31-4.35-.14,2.23,9.77,2.24,11.4,0,2.48-3.32,2.09-4.48,3.24-3.92,3.9,2.67,7.61,5.22,9,5.84,3.23,12.14,4.85,18.69,3.57,4.2-.81,9.32-3,11.73-6.92A9.91,9.91,0,0,0,435.07,361.88Z"/><path class="i" d="M413.34,371.51c0,2,.55,3.57,1.16,3.57h.12c.61,0,.79-1.58.79-3.57V325.77c0-2-.18-3.4-.79-3.4h-.12c-.61,0-1.16,1.41-1.16,3.4Z"/><path class="l" d="M77.94,223.25A7.91,7.91,0,0,0,70,231.16c0,4.37,7.92,14.45,7.92,14.45s7.91-10.08,7.91-14.45A7.91,7.91,0,0,0,77.94,223.25Zm.18,11.88a4.4,4.4,0,1,1,4.41-4.4A4.4,4.4,0,0,1,78.12,235.13Z"/><rect class="g" x="416.69" y="194.15" width="29.06" height="18.49" rx="2.69"/><polygon class="g" points="431.31 210.27 421.64 218.58 420.37 207.1 431.31 210.27"/><path class="l" d="M426.81,204.05a2.1,2.1,0,1,1-2.1-2.1A2.1,2.1,0,0,1,426.81,204.05Z"/><path class="l" d="M433.31,204.05a2.1,2.1,0,1,1-2.1-2.1A2.1,2.1,0,0,1,433.31,204.05Z"/><path class="l" d="M439.81,204.05a2.11,2.11,0,1,1-2.1-2.1A2.1,2.1,0,0,1,439.81,204.05Z"/><circle class="o" cx="332.83" cy="136.7" r="15.19"/><path class="l" d="M341.51,136.94a8.56,8.56,0,1,1-8.56-8.56A8.56,8.56,0,0,1,341.51,136.94Z"/><polygon class="o" points="331.36 135.25 333.96 139.06 328.5 140.34 331.36 135.25"/><polygon class="o" points="331.36 135.25 333.96 139.06 337.14 134.44 331.36 135.25"/><path class="l" d="M333.84,136.92a1,1,0,1,1-1-1A1,1,0,0,1,333.84,136.92Z"/><line class="r" x1="332.82" y1="126.14" x2="332.95" y2="130.62"/><line class="r" x1="332.82" y1="143.35" x2="332.95" y2="147.83"/><line class="r" x1="322.04" y1="137.05" x2="326.52" y2="136.92"/><line class="r" x1="339.25" y1="137.05" x2="343.74" y2="136.92"/><polygon class="s" points="37.97 335.89 22.1 313.02 47.89 313 38.53 322.18 37.97 335.89"/></svg>