<svg width="24" height="24" xmlns="http://www.w3.org/2000/svg"><g fill="none" fill-rule="evenodd"><path d="M0 0H24V24H0z"/><path d="M19 11h2a1 1 0 0 1 0 2h-2a1 1 0 0 1 0-2zM3 11h2a1 1 0 0 1 0 2H3a1 1 0 0 1 0-2zm9-9a1 1 0 0 1 1 1v2a1 1 0 0 1-2 0V3a1 1 0 0 1 1-1zm0 16a1 1 0 0 1 1 1v2a1 1 0 0 1-2 0v-2a1 1 0 0 1 1-1z" fill="#000" fill-rule="nonzero" opacity=".3"/><circle fill="#000" opacity=".3" cx="12" cy="12" r="2"/><path d="M12 17a5 5 0 1 0 0-10 5 5 0 0 0 0 10zm0 2a7 7 0 1 1 0-14 7 7 0 0 1 0 14z" fill="#000" fill-rule="nonzero"/></g></svg>