<svg width="24" height="24" xmlns="http://www.w3.org/2000/svg"><g fill="none" fill-rule="evenodd"><path d="M0 0H24V24H0z"/><path d="M3.5 21h17a1.5 1.5 0 0 0 1.5-1.5v-11A1.5 1.5 0 0 0 20.5 7H10L7.44 4.44A1.5 1.5 0 0 0 6.378 4H3.5A1.5 1.5 0 0 0 2 5.5v14A1.5 1.5 0 0 0 3.5 21z" fill="#000" opacity=".3"/><circle fill="#000" opacity=".3" cx="13.5" cy="16.5" r="2.5"/><circle fill="#000" opacity=".3" cx="10.5" cy="16.5" r="2.5"/><circle fill="#000" opacity=".3" cx="9.5" cy="13.5" r="2.5"/><circle fill="#000" opacity=".3" cx="14.5" cy="13.5" r="2.5"/><circle fill="#000" opacity=".3" cx="12" cy="11.5" r="2.5"/></g></svg>